<svg id="about_culture_img.svg" xmlns="http://www.w3.org/2000/svg" width="426.19" height="293.78" viewBox="0 0 426.19 293.78">
  <defs>
    <style>
      .cls-1 {
        fill: #dcdcdc;
      }

      .cls-1, .cls-2 {
        fill-opacity: 0;
        stroke: #646464;
      }

      .cls-1, .cls-2, .cls-5 {
        stroke-linejoin: round;
        stroke-width: 1px;
      }

      .cls-2 {
        fill: #3c3c3c;
        opacity: 0.4;
      }

      .cls-3 {
        fill: #787878;
      }

      .cls-3, .cls-4 {
        fill-rule: evenodd;
      }

      .cls-4 {
        fill: #fff;
      }

      .cls-5 {
        fill: #1e1e1e;
        stroke: #787878;
      }
    </style>
  </defs>
  <g id="center">
    <circle id="bg" class="cls-1" cx="218.69" cy="143.47" r="140"/>
    <circle id="bg_in" class="cls-2" cx="218.69" cy="143.47" r="135"/>
    <path id="CASUAL_DIVERSITY_MODE" data-name="CASUAL DIVERSITY MODE" class="cls-3" d="M1171.55,4958.56a5.707,5.707,0,0,0-1.88,1.32,6.153,6.153,0,0,0-1.23,1.94,6.009,6.009,0,0,0-.45,2.33,5.789,5.789,0,0,0,.43,2.2,5.631,5.631,0,0,0,1.2,1.84,5.926,5.926,0,0,0,1.87,1.26,6.106,6.106,0,0,0,2.37.46,10.316,10.316,0,0,0,2.14-.2,5.99,5.99,0,0,0,1.64-.59,1.207,1.207,0,0,0,.2-0.44,7.282,7.282,0,0,0,.2-0.78c0.06-.29.11-0.57,0.15-0.82a4.058,4.058,0,0,0,.06-0.5,0.771,0.771,0,0,0-.55-0.15,5.583,5.583,0,0,1-.33,1.01,2.876,2.876,0,0,1-.75,1.05,3.951,3.951,0,0,1-.95.59,3.37,3.37,0,0,1-1.38.25,4.027,4.027,0,0,1-2-.48,4.125,4.125,0,0,1-1.42-1.27,5.908,5.908,0,0,1-.85-1.79,7.3,7.3,0,0,1-.28-2.02,5.844,5.844,0,0,1,.3-1.83,5.523,5.523,0,0,1,.86-1.65,4.286,4.286,0,0,1,1.36-1.19,3.512,3.512,0,0,1,1.76-.44,4.194,4.194,0,0,1,1.77.31,2.856,2.856,0,0,1,1.02.77,3.009,3.009,0,0,1,.48.86,4.743,4.743,0,0,1,.17.61,0.38,0.38,0,0,0,.22.06,0.677,0.677,0,0,0,.27-0.07,0.166,0.166,0,0,0,.11-0.15,3.893,3.893,0,0,0-.07-0.48c-0.04-.27-0.08-0.56-0.13-0.9s-0.12-.74-0.2-1.23a14.627,14.627,0,0,0-1.92-.29c-0.63-.04-1.23-0.07-1.81-0.07A5.851,5.851,0,0,0,1171.55,4958.56Zm8.75,9.68a3.923,3.923,0,0,1-.46.77,0.871,0.871,0,0,1-.51.26,3.7,3.7,0,0,1-.55.08,0.661,0.661,0,0,0-.04.28,0.328,0.328,0,0,0,.04.22c0.27-.01.5-0.02,0.68-0.03s0.36-.03.54-0.04,0.4-.02.67-0.02,0.47,0.01.64,0.02,0.32,0.03.48,0.04,0.36,0.02.59,0.03a0.6,0.6,0,0,0,.01-0.28,0.486,0.486,0,0,0-.05-0.22,3.054,3.054,0,0,1-.37-0.04,1.847,1.847,0,0,1-.57-0.15,0.359,0.359,0,0,1-.28-0.31,3.4,3.4,0,0,1,.04-0.49,4.064,4.064,0,0,1,.21-0.76c0.09-.28.21-0.59,0.33-0.92s0.28-.74.46-1.22a0.454,0.454,0,0,1,.09-0.05c0.4-.03.72-0.04,0.97-0.05s0.56-.01.92-0.01h1.08c0.26,0,.49.01,0.67,0.02a0.224,0.224,0,0,1,.1.07c0.16,0.4.3,0.75,0.42,1.06s0.24,0.62.36,0.94,0.22,0.62.3,0.87a2.676,2.676,0,0,1,.11.55,0.368,0.368,0,0,1-.07.26,1.158,1.158,0,0,1-.47.17,3.218,3.218,0,0,1-.5.06,0.339,0.339,0,0,0-.08.25,0.292,0.292,0,0,0,.06.25q0.615-.03,1.02-0.06c0.27-.02.61-0.03,1.01-0.03s0.72,0.01.99,0.03,0.59,0.04.94,0.06a1.839,1.839,0,0,0,.04-0.22,0.379,0.379,0,0,0-.06-0.28,1.936,1.936,0,0,1-.33-0.06,2.268,2.268,0,0,1-.52-0.21,0.767,0.767,0,0,1-.35-0.34c-0.04-.07-0.19-0.46-0.45-1.15l-3.59-9.4a0.138,0.138,0,0,1-.04-0.03,0.2,0.2,0,0,0-.05-0.01,0.729,0.729,0,0,0-.36.18,0.965,0.965,0,0,0-.32.33c-0.18.45-.39,0.98-0.62,1.58s-0.48,1.23-.73,1.88-0.5,1.29-.75,1.91-0.46,1.18-.65,1.68-0.41,1.05-.63,1.64C1180.55,4967.66,1180.42,4967.96,1180.3,4968.24Zm5.35-3.71a0.091,0.091,0,0,1-.05.09c-0.27.01-.51,0.02-0.73,0.03s-0.47.02-.75,0.02c-0.19,0-.44,0-0.76-0.01s-0.59-.01-0.82-0.03a0.079,0.079,0,0,1-.04-0.07l1.6-4.28Zm7.27-6.05a3.332,3.332,0,0,0-1.28,1.07,2.719,2.719,0,0,0-.5,1.63,2.436,2.436,0,0,0,.49,1.53,4.6,4.6,0,0,0,1.2,1.12c0.47,0.32.93,0.61,1.37,0.88,0.41,0.22.79,0.44,1.15,0.64a3.258,3.258,0,0,1,.86.72,1.82,1.82,0,0,1,.33,1.16,2.035,2.035,0,0,1-.63,1.59,2.122,2.122,0,0,1-1.47.57,2.593,2.593,0,0,1-1.33-.32,2.813,2.813,0,0,1-.86-0.78,4.147,4.147,0,0,1-.5-0.91,5.434,5.434,0,0,1-.23-0.69,0.188,0.188,0,0,0-.2-0.17,0.442,0.442,0,0,0-.24.07,0.8,0.8,0,0,0-.21.15c0,0.07.02,0.26,0.05,0.56s0.07,0.65.12,1.04,0.12,0.77.19,1.12c0.43,0.08.92,0.19,1.47,0.32a7.325,7.325,0,0,0,1.7.2,4,4,0,0,0,1.77-.41,3.522,3.522,0,0,0,1.37-1.13,2.756,2.756,0,0,0,.53-1.68,2.253,2.253,0,0,0-.3-1.16,3.3,3.3,0,0,0-.8-0.91,8.393,8.393,0,0,0-1-.72q-0.525-.33-0.96-0.6c-0.38-.25-0.76-0.49-1.14-0.73a3.807,3.807,0,0,1-.94-0.83,1.859,1.859,0,0,1-.37-1.17,2.347,2.347,0,0,1,.18-0.88,1.7,1.7,0,0,1,.6-0.76,1.873,1.873,0,0,1,1.13-.31,1.961,1.961,0,0,1,1,.26,2.85,2.85,0,0,1,.76.66,3.547,3.547,0,0,1,.49.83,3.1,3.1,0,0,1,.22.76,0.3,0.3,0,0,0,.2.07,0.873,0.873,0,0,0,.23-0.05c0.1-.03.14-0.07,0.13-0.13-0.02-.24-0.04-0.61-0.08-1.09s-0.1-.96-0.18-1.41c-0.38-.1-0.7-0.18-0.96-0.26s-0.51-.12-0.75-0.17a6.032,6.032,0,0,0-.93-0.06A3.9,3.9,0,0,0,1192.92,4958.48Zm7.48-.26c-0.34-.02-0.69-0.04-1.05-0.05a0.3,0.3,0,0,0-.06.25,0.433,0.433,0,0,0,.06.26,3.481,3.481,0,0,1,.39.02c0.18,0.02.36,0.05,0.54,0.08a0.323,0.323,0,0,1,.28.17,2.49,2.49,0,0,1,.08.56c0,0.24.01,0.49,0.01,0.75v5.13a4.935,4.935,0,0,0,.34,1.89,3.942,3.942,0,0,0,.95,1.42,4.2,4.2,0,0,0,1.39.87,4.97,4.97,0,0,0,1.74.3,5.517,5.517,0,0,0,2.41-.5,3.609,3.609,0,0,0,1.61-1.6,6.083,6.083,0,0,0,.57-2.83v-4.73a7.029,7.029,0,0,1,.03-0.76,1.09,1.09,0,0,1,.15-0.45,0.653,0.653,0,0,1,.36-0.19,5.789,5.789,0,0,1,.6-0.12c0.2-.02.34-0.03,0.41-0.03a0.508,0.508,0,0,0,.06-0.29,0.747,0.747,0,0,0-.06-0.22c-0.26.02-.49,0.03-0.67,0.04l-0.54.03c-0.18,0-.4.01-0.68,0.01-0.38,0-.71-0.01-1-0.03s-0.59-.03-0.94-0.05a2.427,2.427,0,0,0-.03.25,0.476,0.476,0,0,0,.06.26,2.817,2.817,0,0,1,.43.04,3.155,3.155,0,0,1,.53.13,0.494,0.494,0,0,1,.3.17,1.027,1.027,0,0,1,.17.49c0.01,0.18.01,0.42,0.01,0.73v4.76a4.824,4.824,0,0,1-.49,2.34,2.682,2.682,0,0,1-1.23,1.18,4.042,4.042,0,0,1-1.68.35,2.949,2.949,0,0,1-2.41-1.01,3.665,3.665,0,0,1-.64-1.33,7.216,7.216,0,0,1-.22-1.91v-4.34c0-.26,0-0.51.01-0.75a1.706,1.706,0,0,1,.08-0.56,0.34,0.34,0,0,1,.28-0.17c0.17-.03.35-0.06,0.54-0.08a3.242,3.242,0,0,1,.38-0.02,0.507,0.507,0,0,0,.07-0.26,0.34,0.34,0,0,0-.07-0.25c-0.36.01-.7,0.03-1.03,0.05s-0.67.02-1.02,0.02S1200.75,4958.23,1200.4,4958.22Zm12.44,10.02a3.49,3.49,0,0,1-.46.77,0.81,0.81,0,0,1-.51.26,3.535,3.535,0,0,1-.55.08,0.876,0.876,0,0,0-.04.28,0.407,0.407,0,0,0,.04.22c0.28-.01.5-0.02,0.68-0.03s0.36-.03.54-0.04,0.41-.02.67-0.02,0.48,0.01.64,0.02,0.32,0.03.49,0.04,0.35,0.02.58,0.03a0.735,0.735,0,0,0,.02-0.28,0.356,0.356,0,0,0-.06-0.22,2.975,2.975,0,0,1-.36-0.04,1.986,1.986,0,0,1-.58-0.15,0.359,0.359,0,0,1-.28-0.31,3.668,3.668,0,0,1,.05-0.49,3.926,3.926,0,0,1,.2-0.76c0.1-.28.21-0.59,0.34-0.92s0.27-.74.45-1.22a0.454,0.454,0,0,1,.09-0.05c0.4-.03.72-0.04,0.98-0.05s0.55-.01.91-0.01h1.08c0.27,0,.49.01,0.67,0.02a0.3,0.3,0,0,1,.11.07c0.15,0.4.29,0.75,0.41,1.06s0.24,0.62.36,0.94,0.22,0.62.3,0.87a2.279,2.279,0,0,1,.12.55,0.367,0.367,0,0,1-.08.26,1.162,1.162,0,0,1-.46.17,3.313,3.313,0,0,1-.51.06,0.389,0.389,0,0,0-.08.25,0.379,0.379,0,0,0,.06.25q0.615-.03,1.02-0.06t1.02-.03q0.57,0,.99.03c0.27,0.02.59,0.04,0.93,0.06a0.544,0.544,0,0,0,.04-0.22,0.439,0.439,0,0,0-.05-0.28,2.166,2.166,0,0,1-.34-0.06,2.464,2.464,0,0,1-.52-0.21,0.821,0.821,0,0,1-.35-0.34c-0.04-.07-0.19-0.46-0.45-1.15l-3.58-9.4a0.107,0.107,0,0,1-.05-0.03,0.1,0.1,0,0,0-.04-0.01,0.714,0.714,0,0,0-.37.18,1.072,1.072,0,0,0-.32.33c-0.18.45-.38,0.98-0.62,1.58s-0.47,1.23-.73,1.88-0.5,1.29-.74,1.91-0.47,1.18-.66,1.68-0.4,1.05-.63,1.64C1213.09,4967.66,1212.97,4967.96,1212.84,4968.24Zm5.36-3.71c-0.02.06-.03,0.09-0.06,0.09l-0.73.03c-0.22.01-.47,0.02-0.74,0.02-0.2,0-.45,0-0.77-0.01s-0.59-.01-0.82-0.03a0.084,0.084,0,0,1-.03-0.07l1.6-4.28Zm7.99-4.27v-0.22c0-.22,0-0.43.01-0.63a1.466,1.466,0,0,1,.06-0.46,0.344,0.344,0,0,1,.29-0.17c0.17-.03.35-0.06,0.54-0.08a3.481,3.481,0,0,1,.39-0.02,0.507,0.507,0,0,0,.07-0.26,0.34,0.34,0,0,0-.07-0.25c-0.36.01-.7,0.03-1.03,0.05s-0.67.02-1.02,0.02c-0.33,0-.68-0.01-1.02-0.02s-0.71-.04-1.07-0.05a0.343,0.343,0,0,0-.06.25,0.659,0.659,0,0,0,.06.26,3.536,3.536,0,0,1,.4.02c0.19,0.02.38,0.05,0.55,0.08a0.309,0.309,0,0,1,.28.17,2.024,2.024,0,0,1,.08.56c0.01,0.24.01,0.49,0.01,0.75v7.51c0,0.26,0,.51-0.01.73a2.024,2.024,0,0,1-.08.56,0.348,0.348,0,0,1-.28.16,3.153,3.153,0,0,1-.55.1c-0.19.02-.32,0.03-0.4,0.03a0.6,0.6,0,0,0-.06.25,0.329,0.329,0,0,0,.06.25c0.35,0,.69-0.01,1.01-0.02s0.69-.03,1.1-0.03c1.18,0,2.23.01,3.17,0.04s1.88,0.03,2.82.03a7.457,7.457,0,0,1,.39-1.38c0.2-.54.38-1.05,0.55-1.53a0.585,0.585,0,0,0-.43-0.11c-0.15,0-.23.03-0.25,0.11a4.3,4.3,0,0,1-.5,1.11,2.722,2.722,0,0,1-.6.65,2.5,2.5,0,0,1-.96.37,5.85,5.85,0,0,1-1.11.12h-0.99a7.954,7.954,0,0,1-.82-0.03,1,1,0,0,1-.44-0.15,0.379,0.379,0,0,1-.07-0.26,3.467,3.467,0,0,1-.02-0.47v-8.04Zm15.64-2.03c-0.48.01-.89,0.01-1.24,0.01s-0.68-.01-1.03-0.02-0.7-.04-1.06-0.05a0.3,0.3,0,0,0-.06.25,0.433,0.433,0,0,0,.06.26,3.73,3.73,0,0,1,.4.02c0.19,0.02.37,0.05,0.54,0.08a0.3,0.3,0,0,1,.28.17,1.706,1.706,0,0,1,.08.56c0.01,0.24.01,0.49,0.01,0.75v7.51c0,0.26,0,.51-0.01.73a1.706,1.706,0,0,1-.08.56,0.329,0.329,0,0,1-.28.16,3.039,3.039,0,0,1-.54.1c-0.2.02-.33,0.03-0.4,0.03a0.4,0.4,0,0,0-.06.25,0.292,0.292,0,0,0,.06.25h4.39a8.434,8.434,0,0,0,3.1-.49,5.022,5.022,0,0,0,1.97-1.34,5.075,5.075,0,0,0,1.03-1.91,7.608,7.608,0,0,0,.31-2.18,5.761,5.761,0,0,0-.74-2.92,5.278,5.278,0,0,0-2.12-2.04,7,7,0,0,0-3.31-.74h-1.3Zm-0.47,1.96v-0.11c0-.22,0-0.42.01-0.62a2.589,2.589,0,0,1,.06-0.48,0.355,0.355,0,0,1,.29-0.12,4.507,4.507,0,0,1,.54-0.05c0.19-.01.33-0.01,0.4-0.01a5.558,5.558,0,0,1,1.82.3,4.168,4.168,0,0,1,1.57.95,4.676,4.676,0,0,1,1.1,1.7,7.091,7.091,0,0,1,.4,2.54,5.553,5.553,0,0,1-.64,2.82,4.168,4.168,0,0,1-1.71,1.65,4.976,4.976,0,0,1-2.31.54,6.518,6.518,0,0,1-.91-0.06,0.755,0.755,0,0,1-.53-0.2,1.122,1.122,0,0,1-.06-0.31,4.626,4.626,0,0,1-.03-0.54v-8Zm10.68-1.97c-0.35-.02-0.71-0.04-1.07-0.05a0.343,0.343,0,0,0-.06.25,0.659,0.659,0,0,0,.06.26,3.536,3.536,0,0,1,.4.02c0.19,0.02.37,0.05,0.55,0.08a0.309,0.309,0,0,1,.28.17,2.024,2.024,0,0,1,.08.56c0,0.24.01,0.49,0.01,0.75v7.51c0,0.26-.01.51-0.01,0.73a2.024,2.024,0,0,1-.08.56,0.348,0.348,0,0,1-.28.16,3.333,3.333,0,0,1-.55.1c-0.19.02-.32,0.03-0.4,0.03a0.6,0.6,0,0,0-.06.25,0.329,0.329,0,0,0,.06.25l1.07-.06c0.34-.02.69-0.03,1.02-0.03q0.525,0,1.02.03l1.03,0.06a0.325,0.325,0,0,0,.07-0.25,0.466,0.466,0,0,0-.07-0.25q-0.1,0-.39-0.03a3.039,3.039,0,0,1-.54-0.1,0.4,0.4,0,0,1-.29-0.16,1.466,1.466,0,0,1-.06-0.46c-0.01-.18-0.01-0.39-0.01-0.62v-7.94c0-.22,0-0.43.01-0.63a1.466,1.466,0,0,1,.06-0.46,0.344,0.344,0,0,1,.29-0.17c0.17-.03.35-0.06,0.54-0.08a3.481,3.481,0,0,1,.39-0.02,0.507,0.507,0,0,0,.07-0.26,0.34,0.34,0,0,0-.07-0.25c-0.36.01-.7,0.03-1.03,0.05s-0.67.02-1.02,0.02C1252.73,4958.24,1252.38,4958.23,1252.04,4958.22Zm4.74,0c-0.27-.02-0.61-0.04-1.02-0.05a0.868,0.868,0,0,0-.02.26,0.721,0.721,0,0,0,.02.25,2.792,2.792,0,0,1,.33.03,2.643,2.643,0,0,1,.46.13,0.666,0.666,0,0,1,.33.23,6.031,6.031,0,0,1,.42.76c0.13,0.27.26,0.59,0.39,0.93,0.44,1.13.84,2.16,1.19,3.1s0.71,1.86,1.05,2.76,0.71,1.88,1.11,2.93a1.1,1.1,0,0,1,.07.17,0.123,0.123,0,0,0,.09.12,0.632,0.632,0,0,0,.35-0.13,1.059,1.059,0,0,0,.31-0.47c0.35-.81.66-1.56,0.94-2.23s0.54-1.32.8-1.94,0.52-1.28.79-1.95,0.57-1.41.89-2.21c0.14-.34.29-0.69,0.46-1.06a3.562,3.562,0,0,1,.43-0.72,1.106,1.106,0,0,1,.62-0.36,2.879,2.879,0,0,1,.49-0.09,0.315,0.315,0,0,0,.06-0.22,0.747,0.747,0,0,0-.02-0.29c-0.23.01-.42,0.03-0.58,0.04s-0.31.02-.48,0.02-0.38.01-.65,0.01c-0.33,0-.63-0.01-0.92-0.02s-0.59-.04-0.92-0.05a0.394,0.394,0,0,0-.07.28,0.25,0.25,0,0,0,.07.24,2.306,2.306,0,0,1,.39.06,1.44,1.44,0,0,1,.52.2,0.464,0.464,0,0,1,.24.43,2.281,2.281,0,0,1-.09.57,5.507,5.507,0,0,1-.21.65c-0.22.54-.45,1.12-0.7,1.73s-0.48,1.21-.72,1.81-0.46,1.14-.66,1.63-0.36.9-.5,1.21-0.21.5-.23,0.55c-0.01-.02-0.07-0.18-0.17-0.46s-0.24-.64-0.4-1.09-0.34-.93-0.54-1.45-0.39-1.06-.58-1.59-0.37-1.01-.53-1.45-0.29-.79-0.39-1.05a4.436,4.436,0,0,1-.32-1.19,0.379,0.379,0,0,1,.23-0.37,1.759,1.759,0,0,1,.49-0.16,2.452,2.452,0,0,1,.34-0.04,0.345,0.345,0,0,0,.06-0.23,0.518,0.518,0,0,0-.03-0.28c-0.34.01-.7,0.03-1.06,0.05s-0.73.02-1.11,0.02C1257.39,4958.24,1257.05,4958.23,1256.78,4958.22Zm12.16,0c-0.35-.02-0.7-0.04-1.06-0.05a0.34,0.34,0,0,0-.07.25,0.507,0.507,0,0,0,.07.26,3.481,3.481,0,0,1,.39.02c0.19,0.02.38,0.05,0.55,0.08a0.309,0.309,0,0,1,.28.17,2.024,2.024,0,0,1,.08.56c0.01,0.24.01,0.49,0.01,0.75v7.51c0,0.26,0,.51-0.01.73a2.024,2.024,0,0,1-.08.56,0.348,0.348,0,0,1-.28.16,3.153,3.153,0,0,1-.55.1q-0.285.03-.39,0.03a0.466,0.466,0,0,0-.07.25,0.325,0.325,0,0,0,.07.25c0.34,0,.68-0.01,1-0.02s0.69-.03,1.1-0.03c1.18,0,2.23.01,3.17,0.04s1.88,0.03,2.83.03a7.327,7.327,0,0,1,.38-1.38c0.2-.54.38-1.05,0.55-1.53a0.57,0.57,0,0,0-.43-0.11,0.22,0.22,0,0,0-.25.11c-0.15.37-.3,0.71-0.45,1.03a1.716,1.716,0,0,1-.65.73,2.661,2.661,0,0,1-.97.36,6.443,6.443,0,0,1-1.24.13h-0.85a7.954,7.954,0,0,1-.82-0.03,1,1,0,0,1-.44-0.15,0.722,0.722,0,0,1-.08-0.45c-0.01-.27-0.01-0.48-0.01-0.65v-3.46c0-.06.07-0.1,0.22-0.12s0.31-.02.51-0.03,0.37-.01.53-0.01c0.23,0,.47,0,0.73.01l0.71,0.03a0.973,0.973,0,0,1,.41.1,0.7,0.7,0,0,1,.16.14,1.056,1.056,0,0,1,.14.3c0.05,0.16.12,0.4,0.21,0.73a0.244,0.244,0,0,0,.27.13,0.424,0.424,0,0,0,.29-0.07v-3.31a0.442,0.442,0,0,0-.31-0.09c-0.16,0-.24.04-0.25,0.12a7.122,7.122,0,0,1-.2.69,0.784,0.784,0,0,1-.25.37,1.022,1.022,0,0,1-.52.17c-0.23.02-.56,0.03-0.98,0.03h-0.91a4.353,4.353,0,0,1-.53-0.02c-0.15-.01-0.23-0.04-0.23-0.09v-3.47c0-.2,0-0.4.01-0.59a1.857,1.857,0,0,1,.06-0.47,0.387,0.387,0,0,1,.29-0.13,4.563,4.563,0,0,1,.54-0.04c0.19-.01.32-0.01,0.4-0.01h1.51a2.4,2.4,0,0,1,1.22.29,2.06,2.06,0,0,1,.81,1.35c0.01,0.08.1,0.12,0.25,0.12a0.425,0.425,0,0,0,.31-0.09c-0.08-.39-0.17-0.78-0.27-1.15a9.824,9.824,0,0,1-.23-1.22c-0.95,0-1.92.01-2.92,0.05s-1.91.05-2.74,0.05C1269.63,4958.24,1269.29,4958.23,1268.94,4958.22Zm12.44,0.01c-0.4.01-.77,0.01-1.12,0.01s-0.68-.01-1.02-0.02-0.69-.04-1.05-0.05a0.3,0.3,0,0,0-.06.25,0.433,0.433,0,0,0,.06.26,3.481,3.481,0,0,1,.39.02c0.18,0.02.36,0.05,0.54,0.08a0.323,0.323,0,0,1,.28.17,2.49,2.49,0,0,1,.08.56c0,0.24.01,0.49,0.01,0.75l0.01,7.51c0,0.26,0,.51-0.01.73a1.706,1.706,0,0,1-.08.56,0.329,0.329,0,0,1-.28.16,3.039,3.039,0,0,1-.54.1c-0.2.02-.33,0.03-0.4,0.03a0.4,0.4,0,0,0-.06.25,0.292,0.292,0,0,0,.06.25l1.06-.06c0.35-.02.69-0.03,1.03-0.03s0.68,0.01,1.01.03l1.04,0.06a0.292,0.292,0,0,0,.06-0.25,0.4,0.4,0,0,0-.06-0.25c-0.07,0-.2-0.01-0.4-0.03a3.039,3.039,0,0,1-.54-0.1,0.391,0.391,0,0,1-.28-0.16,1.784,1.784,0,0,1-.07-0.46c0-.18-0.01-0.39-0.01-0.62v-3.49h0.92a0.577,0.577,0,0,1,.54.22q0.42,0.645.87,1.32c0.3,0.45.58,0.87,0.84,1.27s0.49,0.73.69,1.01,0.32,0.46.39,0.55a1.827,1.827,0,0,0,.63.55c0.22,0.1.39,0.18,0.51,0.23a4.293,4.293,0,0,0,.85.15q0.585,0.06,1.47.06a1.2,1.2,0,0,0,.05-0.23,0.317,0.317,0,0,0-.03-0.27,2.854,2.854,0,0,1-1.17-.31,2.693,2.693,0,0,1-.81-0.75c-0.39-.52-0.74-0.99-1.05-1.42s-0.61-.85-0.9-1.28-0.59-.91-0.9-1.42a3.642,3.642,0,0,0,1.14-.65,3.752,3.752,0,0,0,.9-1.05,2.3,2.3,0,0,0,.36-1.22,2.561,2.561,0,0,0-.33-1.32,2.872,2.872,0,0,0-.85-0.95,4.176,4.176,0,0,0-1.16-.57,3.858,3.858,0,0,0-1.23-.2C1282.25,4958.21,1281.79,4958.21,1281.38,4958.23Zm2.91,4.52a2.557,2.557,0,0,1-1.02.88,2.808,2.808,0,0,1-1.3.32h-0.94l-0.01-3.67v-0.79a1.513,1.513,0,0,1,.09-0.54,0.389,0.389,0,0,1,.38-0.15c0.22-.01.39-0.02,0.5-0.02a2.6,2.6,0,0,1,2.08.74,2.848,2.848,0,0,1,.62,1.89A2.236,2.236,0,0,1,1284.29,4962.75Zm6.93-4.27a3.29,3.29,0,0,0-1.29,1.07,2.712,2.712,0,0,0-.49,1.63,2.436,2.436,0,0,0,.49,1.53,4.715,4.715,0,0,0,1.19,1.12c0.48,0.32.93,0.61,1.38,0.88,0.41,0.22.79,0.44,1.14,0.64a3.311,3.311,0,0,1,.87.72,1.82,1.82,0,0,1,.33,1.16,2.035,2.035,0,0,1-.63,1.59,2.129,2.129,0,0,1-1.48.57,2.529,2.529,0,0,1-1.32-.32,2.813,2.813,0,0,1-.86-0.78,4.214,4.214,0,0,1-.51-0.91,5.058,5.058,0,0,1-.22-0.69,0.2,0.2,0,0,0-.2-0.17,0.4,0.4,0,0,0-.24.07,0.8,0.8,0,0,0-.21.15c0,0.07.01,0.26,0.04,0.56s0.08,0.65.13,1.04,0.12,0.77.19,1.12c0.43,0.08.92,0.19,1.47,0.32a7.261,7.261,0,0,0,1.7.2,4.03,4.03,0,0,0,1.77-.41,3.6,3.6,0,0,0,1.37-1.13,2.822,2.822,0,0,0,.53-1.68,2.167,2.167,0,0,0-.31-1.16,3.109,3.109,0,0,0-.79-0.91,7.751,7.751,0,0,0-1.01-.72c-0.35-.22-0.66-0.42-0.95-0.6-0.39-.25-0.77-0.49-1.14-0.73a3.807,3.807,0,0,1-.94-0.83,1.8,1.8,0,0,1-.37-1.17,2.347,2.347,0,0,1,.18-0.88,1.7,1.7,0,0,1,.6-0.76,1.873,1.873,0,0,1,1.13-.31,1.987,1.987,0,0,1,1,.26,2.968,2.968,0,0,1,.75.66,3.6,3.6,0,0,1,.5.83,3.1,3.1,0,0,1,.22.76,0.274,0.274,0,0,0,.19.07,0.93,0.93,0,0,0,.24-0.05c0.09-.03.13-0.07,0.12-0.13-0.01-.24-0.04-0.61-0.08-1.09s-0.1-.96-0.17-1.41c-0.38-.1-0.7-0.18-0.96-0.26s-0.51-.12-0.76-0.17a5.8,5.8,0,0,0-.92-0.06A3.9,3.9,0,0,0,1291.22,4958.48Zm7.76-.26c-0.35-.02-0.7-0.04-1.06-0.05a0.34,0.34,0,0,0-.07.25,0.507,0.507,0,0,0,.07.26,3.481,3.481,0,0,1,.39.02c0.19,0.02.38,0.05,0.55,0.08a0.3,0.3,0,0,1,.28.17,1.706,1.706,0,0,1,.08.56c0.01,0.24.01,0.49,0.01,0.75v7.51c0,0.26,0,.51-0.01.73a1.706,1.706,0,0,1-.08.56,0.329,0.329,0,0,1-.28.16,3.153,3.153,0,0,1-.55.1q-0.285.03-.39,0.03a0.466,0.466,0,0,0-.07.25,0.325,0.325,0,0,0,.07.25l1.06-.06q0.525-.03,1.02-0.03,0.525,0,1.02.03l1.04,0.06a0.329,0.329,0,0,0,.06-0.25,0.6,0.6,0,0,0-.06-0.25c-0.08,0-.21-0.01-0.4-0.03a3.039,3.039,0,0,1-.54-0.1,0.42,0.42,0,0,1-.29-0.16,2.46,2.46,0,0,1-.06-0.46c-0.01-.18-0.01-0.39-0.01-0.62v-7.94c0-.22,0-0.43.01-0.63a2.46,2.46,0,0,1,.06-0.46,0.361,0.361,0,0,1,.29-0.17c0.17-.03.35-0.06,0.54-0.08a3.536,3.536,0,0,1,.4-0.02,0.659,0.659,0,0,0,.06-0.26,0.343,0.343,0,0,0-.06-0.25c-0.36.01-.71,0.03-1.04,0.05s-0.67.02-1.02,0.02C1299.67,4958.24,1299.33,4958.23,1298.98,4958.22Zm5.88-.05a2.2,2.2,0,0,1-.51-0.08,2.753,2.753,0,0,1-.46-0.15,0.655,0.655,0,0,0-.2-0.07,0.48,0.48,0,0,0-.21.01c-0.06.54-.13,1.07-0.2,1.57s-0.16.99-.25,1.46a0.894,0.894,0,0,0,.12.09,0.261,0.261,0,0,0,.2.03,0.268,0.268,0,0,0,.25-0.09,4.457,4.457,0,0,1,.62-1.53,1.255,1.255,0,0,1,1.08-.61h2.26v9.7a1.981,1.981,0,0,1-.09.56,0.324,0.324,0,0,1-.27.16,3.333,3.333,0,0,1-.55.1c-0.2.02-.33,0.03-0.4,0.03a0.4,0.4,0,0,0-.06.25,0.292,0.292,0,0,0,.06.25l1.06-.06c0.35-.02.69-0.03,1.03-0.03s0.69,0.01,1.02.03l1.03,0.06a0.292,0.292,0,0,0,.06-0.25,0.4,0.4,0,0,0-.06-0.25q-0.105,0-.39-0.03a3.1,3.1,0,0,1-.53-0.1,0.42,0.42,0,0,1-.29-0.16,2.49,2.49,0,0,1-.08-0.56c0-.22-0.01-0.47-0.01-0.73v-8.97h2.24a1.28,1.28,0,0,1,1.08.61,4.254,4.254,0,0,1,.59,1.53,0.279,0.279,0,0,0,.25.09,0.315,0.315,0,0,0,.22-0.03,0.894,0.894,0,0,0,.12-0.09c-0.09-.47-0.18-0.96-0.26-1.46s-0.14-1.03-.2-1.57a0.345,0.345,0,0,0-.13-0.03,0.516,0.516,0,0,0-.2.07,3.306,3.306,0,0,1-.5.16,2.354,2.354,0,0,1-.56.09h-6.88Zm13.53,10.33a1.706,1.706,0,0,1-.08.56,0.329,0.329,0,0,1-.28.16,3.153,3.153,0,0,1-.55.1q-0.285.03-.39,0.03a0.466,0.466,0,0,0-.07.25,0.325,0.325,0,0,0,.07.25l1.06-.06q0.525-.03,1.02-0.03,0.525,0,1.02.03l1.04,0.06a0.329,0.329,0,0,0,.06-0.25,0.6,0.6,0,0,0-.06-0.25c-0.08,0-.21-0.01-0.4-0.03a3.039,3.039,0,0,1-.54-0.1,0.42,0.42,0,0,1-.29-0.16,2.46,2.46,0,0,1-.06-0.46c-0.01-.18-0.01-0.39-0.01-0.62v-0.21c0.01-.62.02-1.14,0.02-1.56v-1.47a0.435,0.435,0,0,1,.07-0.23c0.19-.35.41-0.76,0.66-1.22s0.5-.93.76-1.42,0.52-.95.76-1.39,0.44-.8.61-1.08a1.11,1.11,0,0,1,.54-0.51,2.409,2.409,0,0,1,.65-0.17c0.2-.02.33-0.03,0.38-0.03a0.317,0.317,0,0,0,.05-0.22,0.619,0.619,0,0,0-.02-0.3c-0.23.01-.43,0.03-0.61,0.04l-0.57.03c-0.19.02-.45,0.02-0.76,0.02q-0.495,0-.87-0.03c-0.26-.03-0.55-0.05-0.88-0.06a1.577,1.577,0,0,0-.01.28,0.315,0.315,0,0,0,.05.24,1.929,1.929,0,0,1,.98.17,0.42,0.42,0,0,1,.24.3,0.389,0.389,0,0,1-.02.15,0.5,0.5,0,0,1-.03.12c-0.07.16-.19,0.41-0.35,0.76s-0.35.74-.57,1.18-0.44.89-.68,1.35-0.47.88-.69,1.27l-2.45-4.23a1.1,1.1,0,0,1-.19-0.53,0.4,0.4,0,0,1,.2-0.35,1.4,1.4,0,0,1,.46-0.16,2.309,2.309,0,0,1,.38-0.04c0.05,0,.07-0.08.07-0.22a0.929,0.929,0,0,0-.03-0.29c-0.35.01-.71,0.03-1.07,0.05s-0.75.02-1.18,0.02-0.8-.01-1.1-0.02-0.67-.04-1.1-0.05a0.424,0.424,0,0,0-.07.29c0,0.14.02,0.22,0.07,0.22a2.506,2.506,0,0,1,.46.06,1.549,1.549,0,0,1,.53.21,2.982,2.982,0,0,1,.61.47,4.309,4.309,0,0,1,.54.75c0.27,0.47.5,0.88,0.7,1.23s0.38,0.69.56,1,0.37,0.64.57,0.99,0.42,0.76.67,1.23a0.992,0.992,0,0,1,.13.48v2.67C1318.4,4968.03,1318.4,4968.28,1318.39,4968.5Zm-96.38,11.73c-0.17,0-.33-0.01-0.5-0.02s-0.39-.03-0.67-0.04a0.868,0.868,0,0,0-.02.26,0.721,0.721,0,0,0,.02.25,2.755,2.755,0,0,1,.39.04,3.531,3.531,0,0,1,.54.13,0.42,0.42,0,0,1,.3.19,1.4,1.4,0,0,1,.06.32c0,0.12.01,0.25,0.01,0.38,0,0.08-.01.37-0.02,0.85s-0.03,1.12-.05,1.89-0.04,1.65-.07,2.62-0.06,1.99-.1,3.04c-0.01.2-.03,0.36-0.05,0.5a0.95,0.95,0,0,1-.16.39,0.7,0.7,0,0,1-.38.18,6.165,6.165,0,0,1-.62.1,3.351,3.351,0,0,1-.42.04,0.512,0.512,0,0,0-.04.29,0.48,0.48,0,0,0,.04.21c0.4-.02.75-0.04,1.02-0.06s0.62-.03,1.03-0.03c0.38,0,.7.01,0.95,0.03s0.55,0.04.9,0.06a0.852,0.852,0,0,0,.04-0.23,0.341,0.341,0,0,0-.06-0.27c-0.04,0-.18-0.01-0.39-0.03a4.491,4.491,0,0,1-.64-0.1,0.5,0.5,0,0,1-.37-0.19,1.637,1.637,0,0,1-.05-0.27,1.322,1.322,0,0,1-.02-0.27c0-.04,0-0.25.02-0.63s0.02-.87.04-1.49,0.04-1.31.05-2.08,0.04-1.56.07-2.37,0.04-1.61.05-2.38l4.29,10.26a0.053,0.053,0,0,1,.03.02,0.226,0.226,0,0,0,.13.02,0.539,0.539,0,0,0,.24-0.21,4.1,4.1,0,0,0,.26-0.41,2.86,2.86,0,0,0,.16-0.28c0.34-.86.65-1.65,0.95-2.39s0.58-1.46.87-2.18,0.59-1.45.89-2.22,0.64-1.6,1-2.5a0.209,0.209,0,0,1,.09-0.13,0.16,0.16,0,0,1,.13.15,1.118,1.118,0,0,1,.03.19c0.04,0.95.07,1.84,0.09,2.66s0.05,1.63.08,2.41,0.04,1.61.07,2.46a5.084,5.084,0,0,0,.02.51c0.01,0.21.01,0.38,0.01,0.51a3.89,3.89,0,0,1-.03.44,0.439,0.439,0,0,1-.13.3,1.166,1.166,0,0,1-.34.1c-0.16.03-.31,0.05-0.47,0.07a2.919,2.919,0,0,1-.34.03,0.512,0.512,0,0,0-.04.29,1.5,1.5,0,0,0,.04.21c0.41-.02.76-0.04,1.06-0.06s0.66-.03,1.06-0.03,0.74,0.01,1.07.03l1.02,0.06a0.913,0.913,0,0,0,.03-0.2,0.668,0.668,0,0,0-.06-0.3q-0.075,0-.36-0.03a3.381,3.381,0,0,1-.54-0.09,0.434,0.434,0,0,1-.33-0.19,2.462,2.462,0,0,1-.16-0.75c-0.02-.3-0.04-0.62-0.05-0.96-0.02-.57-0.03-1.23-0.05-1.98s-0.04-1.49-.05-2.26-0.04-1.44-.05-2.06-0.02-1.06-.03-1.36c0-.11,0-0.23.01-0.36a1.226,1.226,0,0,1,.08-0.33,0.5,0.5,0,0,1,.3-0.16,4.522,4.522,0,0,1,.53-0.11c0.19-.02.32-0.03,0.41-0.03a3.022,3.022,0,0,0-.06-0.51c-0.21.01-.52,0.03-0.91,0.04s-0.74.02-1.05,0.02q-0.54,0-1.38-.06c-0.17.48-.32,0.88-0.44,1.21s-0.23.62-.34,0.9c-0.33.86-.64,1.65-0.93,2.36s-0.56,1.43-.83,2.15-0.59,1.51-.94,2.4a0.078,0.078,0,0,1-.14.04c-0.25-.63-0.53-1.3-0.83-2.03s-0.61-1.45-.92-2.19-0.6-1.42-.87-2.08-0.51-1.22-.7-1.7-0.34-.83-0.41-1.06c-0.19.01-.4,0.03-0.63,0.05s-0.49.02-.79,0.02C1222.4,4980.24,1222.18,4980.24,1222.01,4980.23Zm18.08,0.31a5.777,5.777,0,0,0-1.82,1.28,6.215,6.215,0,0,0-1.23,1.9,5.959,5.959,0,0,0-.45,2.32,6.153,6.153,0,0,0,.45,2.38,5.829,5.829,0,0,0,1.23,1.89,5.5,5.5,0,0,0,1.82,1.24,5.591,5.591,0,0,0,2.19.43,5.292,5.292,0,0,0,2.2-.46,5.819,5.819,0,0,0,1.83-1.28,5.933,5.933,0,0,0,1.25-1.89,5.707,5.707,0,0,0,.46-2.31,6.007,6.007,0,0,0-.46-2.4,5.72,5.72,0,0,0-1.25-1.89,5.545,5.545,0,0,0-1.83-1.24,5.789,5.789,0,0,0-2.2-.43A5.279,5.279,0,0,0,1240.09,4980.54Zm3.75,0.63a4.518,4.518,0,0,1,1.33,1.32,6.821,6.821,0,0,1,.83,1.84,7.568,7.568,0,0,1,.07,3.81,5.7,5.7,0,0,1-.66,1.63,3.48,3.48,0,0,1-1.15,1.17,3.067,3.067,0,0,1-1.69.45,3.225,3.225,0,0,1-1.81-.51,4.332,4.332,0,0,1-1.32-1.34,6.565,6.565,0,0,1-.82-1.85,7.561,7.561,0,0,1-.28-2.05,8.191,8.191,0,0,1,.2-1.76,5.543,5.543,0,0,1,.65-1.6,3.542,3.542,0,0,1,1.15-1.16,3.04,3.04,0,0,1,1.69-.44A3.342,3.342,0,0,1,1243.84,4981.17Zm9.15-.94c-0.48.01-.89,0.01-1.24,0.01s-0.68-.01-1.03-0.02-0.7-.04-1.06-0.05a0.3,0.3,0,0,0-.06.25,0.433,0.433,0,0,0,.06.26,3.73,3.73,0,0,1,.4.02c0.19,0.02.37,0.05,0.54,0.08a0.3,0.3,0,0,1,.28.17,1.706,1.706,0,0,1,.08.56c0.01,0.24.01,0.49,0.01,0.75v7.51c0,0.26,0,.51-0.01.73a1.706,1.706,0,0,1-.08.56,0.329,0.329,0,0,1-.28.16,3.039,3.039,0,0,1-.54.1c-0.2.02-.33,0.03-0.4,0.03a0.4,0.4,0,0,0-.06.25,0.292,0.292,0,0,0,.06.25h4.39a8.434,8.434,0,0,0,3.1-.49,5.022,5.022,0,0,0,1.97-1.34,5.075,5.075,0,0,0,1.03-1.91,7.608,7.608,0,0,0,.31-2.18,5.761,5.761,0,0,0-.74-2.92,5.278,5.278,0,0,0-2.12-2.04,7,7,0,0,0-3.31-.74h-1.3Zm-0.47,1.96v-0.11c0-.22,0-0.42.01-0.62a2.589,2.589,0,0,1,.06-0.48,0.355,0.355,0,0,1,.29-0.12,4.507,4.507,0,0,1,.54-0.05c0.19-.01.33-0.01,0.4-0.01a5.558,5.558,0,0,1,1.82.3,4.168,4.168,0,0,1,1.57.95,4.676,4.676,0,0,1,1.1,1.7,7.091,7.091,0,0,1,.4,2.54,5.553,5.553,0,0,1-.64,2.82,4.168,4.168,0,0,1-1.71,1.65,4.976,4.976,0,0,1-2.31.54,6.518,6.518,0,0,1-.91-0.06,0.755,0.755,0,0,1-.53-0.2,1.122,1.122,0,0,1-.06-0.31,4.626,4.626,0,0,1-.03-0.54v-8Zm10.68-1.97c-0.35-.02-0.71-0.04-1.07-0.05a0.343,0.343,0,0,0-.06.25,0.659,0.659,0,0,0,.06.26,3.536,3.536,0,0,1,.4.02c0.19,0.02.37,0.05,0.55,0.08a0.309,0.309,0,0,1,.28.17,2.024,2.024,0,0,1,.08.56c0,0.24.01,0.49,0.01,0.75v7.51c0,0.26-.01.51-0.01,0.73a2.024,2.024,0,0,1-.08.56,0.348,0.348,0,0,1-.28.16,3.333,3.333,0,0,1-.55.1c-0.19.02-.32,0.03-0.4,0.03a0.6,0.6,0,0,0-.06.25,0.329,0.329,0,0,0,.06.25c0.35,0,.69-0.01,1.01-0.02s0.69-.03,1.1-0.03c1.18,0,2.23.01,3.17,0.04s1.88,0.03,2.82.03a7.457,7.457,0,0,1,.39-1.38c0.2-.54.38-1.05,0.55-1.53a0.585,0.585,0,0,0-.43-0.11c-0.15,0-.23.03-0.25,0.11-0.15.37-.3,0.71-0.45,1.03a1.783,1.783,0,0,1-.65.73,2.734,2.734,0,0,1-.97.36,6.547,6.547,0,0,1-1.25.13h-0.84a7.954,7.954,0,0,1-.82-0.03,0.957,0.957,0,0,1-.44-0.15,0.722,0.722,0,0,1-.08-0.45c-0.01-.27-0.01-0.48-0.01-0.65v-3.46q0-.09.21-0.12c0.15-.01.32-0.02,0.52-0.03s0.37-.01.53-0.01c0.23,0,.47,0,0.73.01l0.71,0.03a1.024,1.024,0,0,1,.41.1,0.5,0.5,0,0,1,.15.14,1.009,1.009,0,0,1,.15.3c0.05,0.16.12,0.4,0.21,0.73a0.244,0.244,0,0,0,.27.13,0.378,0.378,0,0,0,.28-0.07v-3.31a0.414,0.414,0,0,0-.3-0.09c-0.16,0-.24.04-0.25,0.12-0.08.29-.14,0.52-0.2,0.69a0.863,0.863,0,0,1-.25.37,1.022,1.022,0,0,1-.52.17c-0.23.02-.56,0.03-0.98,0.03h-0.92a4.267,4.267,0,0,1-.52-0.02c-0.15-.01-0.23-0.04-0.23-0.09v-3.47c0-.2,0-0.4.01-0.59a1.491,1.491,0,0,1,.06-0.47,0.366,0.366,0,0,1,.29-0.13,4.563,4.563,0,0,1,.54-0.04c0.19-.01.32-0.01,0.39-0.01h1.52a2.421,2.421,0,0,1,1.22.29,2.06,2.06,0,0,1,.81,1.35c0.01,0.08.1,0.12,0.25,0.12a0.425,0.425,0,0,0,.31-0.09c-0.09-.39-0.18-0.78-0.27-1.15a9.764,9.764,0,0,1-.24-1.22c-0.94,0-1.92.01-2.91,0.05s-1.91.05-2.74,0.05C1263.89,4980.24,1263.54,4980.23,1263.2,4980.22Z" transform="translate(-1027.31 -4829.53)"/>
  </g>
  <g id="trust">
    <path id="TRUST-2" data-name="TRUST" class="cls-4" d="M1366.35,5083.94a2.52,2.52,0,0,1-.66-0.1,4.149,4.149,0,0,1-.58-0.2,1.651,1.651,0,0,0-.26-0.08,0.483,0.483,0,0,0-.27.01c-0.08.69-.16,1.36-0.26,2s-0.19,1.27-.32,1.87a0.725,0.725,0,0,0,.15.11,0.389,0.389,0,0,0,.27.05,0.345,0.345,0,0,0,.32-0.12,5.6,5.6,0,0,1,.78-1.95,1.6,1.6,0,0,1,1.38-.78h2.9v11.45c0,0.34-.01.65-0.01,0.94a2.661,2.661,0,0,1-.11.72,0.454,0.454,0,0,1-.35.2,3.324,3.324,0,0,1-.7.13q-0.375.03-.51,0.03a0.633,0.633,0,0,0-.08.33,0.411,0.411,0,0,0,.08.32c0.46-.03.91-0.06,1.36-0.08s0.88-.04,1.31-0.04,0.88,0.02,1.3.04,0.86,0.05,1.32.08a0.411,0.411,0,0,0,.08-0.32,0.633,0.633,0,0,0-.08-0.33c-0.09,0-.26-0.01-0.49-0.03a2.927,2.927,0,0,1-.68-0.13,0.567,0.567,0,0,1-.37-0.2,2.351,2.351,0,0,1-.1-0.72c-0.01-.29-0.02-0.6-0.02-0.94v-11.45h2.86a1.621,1.621,0,0,1,1.38.78,5.23,5.23,0,0,1,.75,1.95,0.365,0.365,0,0,0,.33.12,0.4,0.4,0,0,0,.27-0.05,0.609,0.609,0,0,0,.16-0.11c-0.12-.6-0.23-1.22-0.33-1.87s-0.19-1.31-.26-2a0.412,0.412,0,0,0-.17-0.04,0.75,0.75,0,0,0-.25.09,5.3,5.3,0,0,1-.64.21,3.238,3.238,0,0,1-.72.11h-8.78Zm16.52,0.07c-0.51.02-.99,0.02-1.43,0.02s-0.87-.01-1.3-0.03l-1.35-.06a0.411,0.411,0,0,0-.08.32,0.749,0.749,0,0,0,.08.33c0.09,0,.26.01,0.5,0.03s0.46,0.06.69,0.1a0.388,0.388,0,0,1,.35.21,2.677,2.677,0,0,1,.11.73c0,0.29.01,0.61,0.01,0.95l0.02,9.59c0,0.34,0,.65-0.01.94a2.706,2.706,0,0,1-.1.72,0.507,0.507,0,0,1-.36.2,3.209,3.209,0,0,1-.7.13q-0.375.03-.51,0.03a0.749,0.749,0,0,0-.08.33,0.411,0.411,0,0,0,.08.32c0.46-.03.91-0.06,1.36-0.08s0.88-.04,1.31-0.04,0.88,0.02,1.3.04,0.86,0.05,1.32.08a0.411,0.411,0,0,0,.08-0.32,0.633,0.633,0,0,0-.08-0.33c-0.09,0-.26-0.01-0.5-0.03a2.914,2.914,0,0,1-.69-0.13,0.567,0.567,0,0,1-.37-0.2,1.955,1.955,0,0,1-.08-0.59c-0.01-.24-0.01-0.5-0.01-0.79v-4.47h1.17a0.775,0.775,0,0,1,.69.28c0.35,0.55.72,1.12,1.1,1.69s0.75,1.12,1.08,1.62,0.63,0.94.88,1.29,0.41,0.59.5,0.71a2.276,2.276,0,0,0,.81.71c0.27,0.13.49,0.22,0.64,0.28a5.981,5.981,0,0,0,1.09.2c0.5,0.05,1.13.08,1.88,0.08a2.266,2.266,0,0,0,.07-0.3,0.411,0.411,0,0,0-.05-0.35,3.087,3.087,0,0,1-2.53-1.35c-0.49-.66-0.93-1.26-1.33-1.81s-0.78-1.09-1.15-1.64-0.75-1.16-1.15-1.82a4.6,4.6,0,0,0,1.46-.83,5.015,5.015,0,0,0,1.15-1.33,3.051,3.051,0,0,0,.45-1.57,3.337,3.337,0,0,0-.42-1.69,3.683,3.683,0,0,0-1.09-1.2,5.136,5.136,0,0,0-1.48-.74,5.19,5.19,0,0,0-1.57-.25C1383.97,5083.99,1383.39,5084,1382.87,5084.01Zm3.72,5.79a3.52,3.52,0,0,1-1.3,1.12,3.636,3.636,0,0,1-1.67.4h-1.19l-0.03-4.69c0-.33.01-0.67,0.01-1a2.06,2.06,0,0,1,.11-0.7,0.514,0.514,0,0,1,.49-0.18q0.435-.03.63-0.03a3.3,3.3,0,0,1,2.66.95,3.606,3.606,0,0,1,.79,2.41A2.928,2.928,0,0,1,1386.59,5089.8Zm7.14-5.8-1.35-.06a0.457,0.457,0,0,0-.08.32,0.749,0.749,0,0,0,.08.33c0.1,0,.26.01,0.5,0.03s0.47,0.06.69,0.1a0.425,0.425,0,0,1,.36.21,2.726,2.726,0,0,1,.1.73c0.01,0.29.01,0.61,0.01,0.95v6.55a6.439,6.439,0,0,0,.44,2.42,4.947,4.947,0,0,0,1.22,1.82,5.15,5.15,0,0,0,1.77,1.1,6.26,6.26,0,0,0,2.23.39,6.933,6.933,0,0,0,3.07-.64,4.566,4.566,0,0,0,2.06-2.04,7.739,7.739,0,0,0,.73-3.62v-6.05a7.93,7.93,0,0,1,.04-0.97,1.375,1.375,0,0,1,.19-0.57,0.867,0.867,0,0,1,.46-0.24,4.865,4.865,0,0,1,.76-0.15c0.26-.03.44-0.05,0.53-0.05a0.6,0.6,0,0,0,.07-0.37,1.03,1.03,0,0,0-.07-0.27c-0.34.01-.62,0.03-0.86,0.04s-0.47.03-.69,0.04-0.51.01-.86,0.01c-0.49,0-.92-0.01-1.28-0.03s-0.76-.05-1.21-0.06c-0.01.06-.02,0.16-0.03,0.31a0.451,0.451,0,0,0,.08.33,3.61,3.61,0,0,1,.54.06,4.82,4.82,0,0,1,.68.16,0.745,0.745,0,0,1,.39.22,1.31,1.31,0,0,1,.21.62c0.01,0.23.02,0.55,0.02,0.94v6.08a6.441,6.441,0,0,1-.63,3,3.5,3.5,0,0,1-1.58,1.5,5,5,0,0,1-2.14.44,3.743,3.743,0,0,1-3.08-1.29,4.728,4.728,0,0,1-.82-1.7,9.251,9.251,0,0,1-.28-2.44v-5.54c0-.34,0-0.66.01-0.95a2.374,2.374,0,0,1,.1-0.73,0.466,0.466,0,0,1,.37-0.21,6.519,6.519,0,0,1,.68-0.1c0.23-.02.4-0.03,0.49-0.03a0.633,0.633,0,0,0,.08-0.33,0.411,0.411,0,0,0-.08-0.32l-1.32.06c-0.42.02-.86,0.03-1.3,0.03S1394.17,5084.02,1393.73,5084Zm17.95,0.33a4.211,4.211,0,0,0-1.64,1.37,3.447,3.447,0,0,0-.64,2.08,3.2,3.2,0,0,0,.62,1.96,6.572,6.572,0,0,0,1.53,1.44c0.61,0.4,1.2.77,1.76,1.11,0.53,0.29,1.01.57,1.46,0.83a3.925,3.925,0,0,1,1.11.92,2.3,2.3,0,0,1,.42,1.47,2.609,2.609,0,0,1-.8,2.04,2.756,2.756,0,0,1-1.89.72,3.253,3.253,0,0,1-1.69-.4,3.537,3.537,0,0,1-1.1-1,5.489,5.489,0,0,1-.65-1.16,6,6,0,0,1-.28-0.89,0.243,0.243,0,0,0-.26-0.21,0.714,0.714,0,0,0-.31.08,1.284,1.284,0,0,0-.26.2c0,0.09.02,0.33,0.06,0.71s0.09,0.83.16,1.34,0.15,0.98.24,1.42c0.55,0.11,1.18.25,1.87,0.42a9.225,9.225,0,0,0,2.18.25,5.06,5.06,0,0,0,2.26-.52,4.511,4.511,0,0,0,1.75-1.45,3.554,3.554,0,0,0,.68-2.15,2.846,2.846,0,0,0-.39-1.48,4.443,4.443,0,0,0-1.01-1.16,12.209,12.209,0,0,0-1.29-.92l-1.22-.76c-0.49-.32-0.98-0.64-1.46-0.94a4.957,4.957,0,0,1-1.2-1.06,2.378,2.378,0,0,1-.47-1.5,3.032,3.032,0,0,1,.23-1.12,2.174,2.174,0,0,1,.76-0.97,2.4,2.4,0,0,1,1.45-.39,2.517,2.517,0,0,1,1.28.33,3.5,3.5,0,0,1,.96.84,4.3,4.3,0,0,1,.63,1.06,3.391,3.391,0,0,1,.28.97,0.349,0.349,0,0,0,.25.09,0.987,0.987,0,0,0,.3-0.06c0.12-.04.18-0.1,0.16-0.17-0.01-.31-0.05-0.77-0.1-1.39s-0.13-1.23-.22-1.81c-0.49-.12-0.9-0.23-1.23-0.32a8.967,8.967,0,0,0-.97-0.22,7.523,7.523,0,0,0-1.18-.08A4.956,4.956,0,0,0,1411.68,5084.33Zm10.17-.39a2.463,2.463,0,0,1-.66-0.1,4.927,4.927,0,0,1-.59-0.2,1.482,1.482,0,0,0-.25-0.08,0.478,0.478,0,0,0-.27.01c-0.08.69-.17,1.36-0.26,2s-0.2,1.27-.32,1.87a0.725,0.725,0,0,0,.15.11,0.373,0.373,0,0,0,.26.05,0.365,0.365,0,0,0,.33-0.12,5.6,5.6,0,0,1,.78-1.95,1.6,1.6,0,0,1,1.38-.78h2.9v11.45c0,0.34-.01.65-0.01,0.94a2.661,2.661,0,0,1-.11.72,0.454,0.454,0,0,1-.35.2,3.3,3.3,0,0,1-.71.13c-0.24.02-.41,0.03-0.5,0.03a0.549,0.549,0,0,0-.08.33,0.411,0.411,0,0,0,.08.32c0.46-.03.91-0.06,1.35-0.08s0.89-.04,1.32-0.04,0.87,0.02,1.3.04,0.86,0.05,1.32.08a0.411,0.411,0,0,0,.08-0.32,0.749,0.749,0,0,0-.08-0.33c-0.09,0-.26-0.01-0.5-0.03a3.143,3.143,0,0,1-.68-0.13,0.564,0.564,0,0,1-.36-0.2,2.661,2.661,0,0,1-.11-0.72c0-.29-0.01-0.6-0.01-0.94v-11.45h2.85a1.6,1.6,0,0,1,1.38.78,5.07,5.07,0,0,1,.76,1.95,0.356,0.356,0,0,0,.32.12,0.43,0.43,0,0,0,.28-0.05,0.609,0.609,0,0,0,.16-0.11c-0.12-.6-0.23-1.22-0.33-1.87s-0.19-1.31-.27-2a0.343,0.343,0,0,0-.16-0.04,0.75,0.75,0,0,0-.25.09,5.3,5.3,0,0,1-.64.21,3.322,3.322,0,0,1-.72.11h-8.78Z" transform="translate(-1027.31 -4829.53)"/>
    <path id="信頼_共有_" data-name="信頼（共有）" class="cls-3" d="M1373.62,5119.74c0-.64.03-0.94,0.03-1.02s-0.02-.1-0.1-0.1-0.53.03-1.81,0.03h-2.93c-1.28,0-1.73-.03-1.82-0.03s-0.11.01-.11,0.1,0.03,0.38.03,1.16v1.04c0,1.31-.03,1.65-0.03,1.72,0,0.1.02,0.11,0.11,0.11h0.63c0.1,0,.12-0.01.12-0.11v-0.63h5.04v0.59c0,0.08.01,0.1,0.11,0.1h0.66c0.08,0,.1-0.02.1-0.1s-0.03-.42-0.03-1.72v-1.14Zm-0.84,1.56h-5.04v-1.94h5.04v1.94Zm-8.78-.83c0,1.48-.03,2.13-0.03,2.2,0,0.1.01,0.11,0.1,0.11h0.67c0.1,0,.11-0.01.11-0.11,0-.07-0.03-0.72-0.03-2.2v-7.17c0.31-.68.56-1.35,0.8-2.02a1.554,1.554,0,0,1,.27-0.55,0.276,0.276,0,0,0,.11-0.21,0.211,0.211,0,0,0-.17-0.15,4.612,4.612,0,0,0-.83-0.24,3.813,3.813,0,0,1-.18.95,14.569,14.569,0,0,1-2.7,5.05,1.574,1.574,0,0,1,.35.54,0.212,0.212,0,0,0,.11.16,0.376,0.376,0,0,0,.18-0.16,14.039,14.039,0,0,0,1.25-1.82c-0.01.72-.01,1.51-0.01,2.06v3.56Zm10.98-7.47c0-.09-0.02-0.11-0.13-0.11-0.07,0-.53.03-1.96,0.03h-4.94c-1.43,0-1.9-.03-1.97-0.03-0.09,0-.11.02-0.11,0.11v0.59c0,0.1.02,0.11,0.11,0.11,0.07,0,.54-0.02,1.97-0.02h4.94c1.43,0,1.89.02,1.96,0.02,0.11,0,.13-0.01.13-0.11V5113Zm-1.5-1.89c0-.1-0.02-0.11-0.13-0.11-0.07,0-.46.03-1.71,0.03h-2.62c-1.24,0-1.63-.03-1.72-0.03s-0.11.01-.11,0.11v0.58c0,0.08.01,0.09,0.11,0.09s0.48-.02,1.72-0.02h2.62c1.25,0,1.64.02,1.71,0.02,0.11,0,.13-0.01.13-0.09v-0.58Zm-0.13,5.72c0-.1-0.01-0.11-0.11-0.11-0.07,0-.46.02-1.69,0.02H1369c-1.24,0-1.64-.02-1.71-0.02-0.1,0-.11.01-0.11,0.11v0.54c0,0.1.01,0.12,0.11,0.12,0.07,0,.47-0.03,1.71-0.03h2.55c1.23,0,1.62.03,1.69,0.03,0.1,0,.11-0.02.11-0.12v-0.54Zm0-1.89c0-.1-0.01-0.12-0.11-0.12-0.07,0-.46.03-1.69,0.03H1369c-1.24,0-1.64-.03-1.71-0.03-0.1,0-.11.02-0.11,0.12v0.54c0,0.1.01,0.11,0.11,0.11,0.07,0,.47-0.02,1.71-0.02h2.55c1.23,0,1.62.02,1.69,0.02,0.1,0,.11-0.01.11-0.11v-0.54Zm15.66-4.01c0-.1-0.02-0.11-0.12-0.11-0.07,0-.5.03-1.82,0.03h-3.05c-1.3,0-1.72-.03-1.79-0.03-0.1,0-.12.01-0.12,0.11v0.57c0,0.1.02,0.12,0.12,0.12,0.07,0,.49-0.03,1.79-0.03h1.02a9.547,9.547,0,0,1-.53,1.4c-1.04,0-1.39-.03-1.46-0.03-0.11,0-.12.02-0.12,0.11,0,0.07.02,0.51,0.02,1.67v3.57c0,1.15-.02,1.58-0.02,1.65,0,0.1.01,0.12,0.12,0.12,0.07,0,.45-0.03,1.6-0.03h1.85c1.15,0,1.51.03,1.6,0.03s0.11-.02.11-0.12c0-.07-0.03-0.5-0.03-1.65v-3.6c0-1.13.03-1.57,0.03-1.64,0-.09-0.02-0.11-0.11-0.11s-0.45.03-1.6,0.03h-1.15a12.737,12.737,0,0,0,.56-1.4h1.16c1.32,0,1.75.03,1.82,0.03,0.1,0,.12-0.02.12-0.12v-0.57Zm-1.62,8.42h-3.64v-1.53h3.64v1.53Zm0-4.26h-3.64v-1.4h3.64v1.4Zm0,2.07h-3.64v-1.4h3.64v1.4Zm-4.88-5.14c0-.08-0.02-0.1-0.12-0.1-0.07,0-.46.03-1.68,0.03h-0.81v-0.31a2.446,2.446,0,0,1,.1-0.96,0.8,0.8,0,0,0,.07-0.24,0.183,0.183,0,0,0-.18-0.11,6.615,6.615,0,0,0-.84-0.07,6.573,6.573,0,0,1,.08,1.43v0.26h-0.84c-1.22,0-1.61-.03-1.68-0.03-0.1,0-.11.02-0.11,0.1v0.56c0,0.1.01,0.11,0.11,0.11,0.07,0,.46-0.02,1.68-0.02h0.84v1.44h-0.48c-1.06,0-1.41-.03-1.49-0.03-0.1,0-.12.02-0.12,0.11,0,0.07.03,0.33,0.03,1.1v1.17c0,0.77-.03,1.03-0.03,1.1,0,0.09.02,0.11,0.12,0.11,0.08,0,.43-0.03,1.49-0.03h0.26a9.133,9.133,0,0,1-2.68,3.33,1.447,1.447,0,0,1,.37.44,0.31,0.31,0,0,0,.15.18,0.4,0.4,0,0,0,.17-0.11,9.809,9.809,0,0,0,2.25-3.15c-0.03,2.48-.08,4.2-0.08,4.39,0,0.09.01,0.1,0.11,0.1h0.64c0.1,0,.12-0.01.12-0.1,0-.19-0.09-1.9-0.1-4.44a9.1,9.1,0,0,0,1.6,2.16,0.186,0.186,0,0,0,.37-0.03,1.626,1.626,0,0,1,.38-0.36,8.474,8.474,0,0,1-2.16-2.41h0.37c1.08,0,1.43.03,1.5,0.03,0.1,0,.11-0.02.11-0.11,0-.07-0.03-0.33-0.03-1.1v-1.17c0-.77.03-1.03,0.03-1.1,0-.09-0.01-0.11-0.11-0.11-0.07,0-.42.03-1.5,0.03h-0.52v-1.44h0.81c1.22,0,1.61.02,1.68,0.02,0.1,0,.12-0.01.12-0.11v-0.56Zm-1.25,4.98h-1.36v-2.25h1.36V5117Zm-2.13,0h-1.3v-2.25h1.3V5117Zm5.49,3.97a0.257,0.257,0,0,0-.11-0.18c-0.17-.12-0.35-0.25-0.59-0.39a3.406,3.406,0,0,1-.41.48,7.1,7.1,0,0,1-2.5,1.37,1.394,1.394,0,0,1,.36.4,0.351,0.351,0,0,0,.2.23,0.851,0.851,0,0,0,.22-0.07,9.045,9.045,0,0,0,2.38-1.49c0.13-.08.23-0.16,0.33-0.21A0.151,0.151,0,0,0,1384.62,5120.97Zm1.65-.25c-0.15.13-.15,0.16-0.07,0.24a8.666,8.666,0,0,0,2.32,1.65,0.424,0.424,0,0,0,.22.09,0.328,0.328,0,0,0,.2-0.23,1.269,1.269,0,0,1,.35-0.43,7.646,7.646,0,0,1-2.53-1.58c-0.08-.07-0.09-0.07-0.22.02Zm16.51-11.06c-2.65,2.03-3.67,4.09-3.67,6.82s1.02,4.79,3.67,6.82l0.35-.41a8.171,8.171,0,0,1,0-12.83Zm14.07,7.83c0-.1-0.01-0.12-0.11-0.12-0.07,0-.5.03-1.82,0.03h-1.64v-3.22h0.85c1.39,0,1.85.03,1.94,0.03s0.11-.02.11-0.11v-0.62c0-.1-0.01-0.11-0.11-0.11s-0.55.03-1.94,0.03h-0.85v-1.11a6.269,6.269,0,0,1,.06-1.36,0.911,0.911,0,0,0,.09-0.31,0.173,0.173,0,0,0-.16-0.11,8.912,8.912,0,0,0-.94-0.08,11.068,11.068,0,0,1,.1,1.86v1.11h-3.52v-1.11a6.269,6.269,0,0,1,.06-1.36,0.911,0.911,0,0,0,.09-0.31,0.173,0.173,0,0,0-.16-0.11,8.686,8.686,0,0,0-.94-0.08,11.3,11.3,0,0,1,.09,1.86v1.11h-0.65c-1.4,0-1.87-.03-1.95-0.03-0.1,0-.11.01-0.11,0.11v0.62c0,0.09.01,0.11,0.11,0.11,0.08,0,.55-0.03,1.95-0.03h0.65v3.22h-1.51c-1.3,0-1.75-.03-1.82-0.03-0.1,0-.11.02-0.11,0.12v0.61c0,0.1.01,0.11,0.11,0.11,0.07,0,.52-0.02,1.82-0.02h8.38c1.32,0,1.75.02,1.82,0.02,0.1,0,.11-0.01.11-0.11v-0.61Zm-4.42-.09h-3.52v-3.22h3.52v3.22Zm-0.33,1.79c-0.14.09-.15,0.1-0.08,0.2a11.761,11.761,0,0,0,3.81,3.14,0.425,0.425,0,0,0,.18.08,0.357,0.357,0,0,0,.21-0.22,2.343,2.343,0,0,1,.45-0.52,10.113,10.113,0,0,1-3.95-2.91,0.133,0.133,0,0,0-.2-0.02Zm-2.71.17a0.2,0.2,0,0,0-.13-0.15,6.921,6.921,0,0,0-.77-0.38,2.272,2.272,0,0,1-.58.9,10.2,10.2,0,0,1-3.27,2.22,1.756,1.756,0,0,1,.46.45,0.312,0.312,0,0,0,.21.18,0.461,0.461,0,0,0,.21-0.07,10.935,10.935,0,0,0,3.35-2.6,1.637,1.637,0,0,1,.35-0.35A0.258,0.258,0,0,0,1409.39,5119.36Zm21.46-6.88c0-.09-0.01-0.11-0.1-0.11s-0.51.03-1.83,0.03h-5.18c0.14-.38.26-0.78,0.39-1.19a1.733,1.733,0,0,1,.24-0.53,0.455,0.455,0,0,0,.12-0.21,0.2,0.2,0,0,0-.19-0.17,6.751,6.751,0,0,0-.89-0.17,4.675,4.675,0,0,1-.21,1.18c-0.09.36-.22,0.73-0.35,1.09h-2.28c-1.32,0-1.75-.03-1.83-0.03-0.1,0-.12.02-0.12,0.11v0.61c0,0.1.02,0.11,0.12,0.11,0.08,0,.51-0.03,1.83-0.03h1.98a11.028,11.028,0,0,1-4.05,4.83,1.893,1.893,0,0,1,.49.42,0.274,0.274,0,0,0,.19.16,0.444,0.444,0,0,0,.2-0.11,12.505,12.505,0,0,0,2.48-2.51v4.97c0,1.22-.03,1.6-0.03,1.67,0,0.1.01,0.11,0.13,0.11h0.63c0.1,0,.11-0.01.11-0.11,0-.07-0.03-0.45-0.03-1.67v-1.16h5.24v1.43a0.513,0.513,0,0,1-.63.57c-0.49,0-.83-0.01-1.29-0.05a1.846,1.846,0,0,1,.28.6c0.07,0.28.07,0.28,0.34,0.28a2.826,2.826,0,0,0,1.82-.31,1.24,1.24,0,0,0,.33-0.99c0-.28-0.02-1.01-0.02-1.83v-2.78c0-1.21.02-1.75,0.02-1.82,0-.1-0.01-0.12-0.11-0.12-0.08,0-.64.03-1.92,0.03h-4.1a13.4,13.4,0,0,0,.8-1.61h5.49c1.32,0,1.75.03,1.83,0.03s0.1-.01.1-0.11v-0.61Zm-2.94,6.57h-5.24v-1.44h5.24v1.44Zm0-2.15h-5.24v-1.39h5.24v1.39Zm4.45-6.84a8.171,8.171,0,0,1,0,12.83l0.35,0.41c2.64-2.03,3.67-4.09,3.67-6.82s-1.03-4.79-3.67-6.82Z" transform="translate(-1027.31 -4829.53)"/>
    <circle id="mark" class="cls-5" cx="318.69" cy="240.47" r="3"/>
  </g>
  <g id="accept">
    <path id="ACCEPT-2" data-name="ACCEPT" class="cls-4" d="M1048.51,5096.81a4.525,4.525,0,0,1-.58.98,1.073,1.073,0,0,1-.66.33,3.764,3.764,0,0,1-.7.1,1.063,1.063,0,0,0-.05.36,0.516,0.516,0,0,0,.05.29c0.35-.02.64-0.03,0.87-0.05s0.46-.03.69-0.04,0.52-.03.86-0.03,0.61,0.01.81,0.03,0.42,0.03.62,0.04,0.46,0.03.75,0.05a0.787,0.787,0,0,0,.02-0.36,0.491,0.491,0,0,0-.07-0.29c-0.06,0-.21-0.01-0.47-0.04a2.637,2.637,0,0,1-.73-0.2,0.463,0.463,0,0,1-.36-0.4,4.35,4.35,0,0,1,.06-0.62,5.285,5.285,0,0,1,.26-0.97c0.13-.36.27-0.76,0.43-1.18s0.35-.94.58-1.55a0.313,0.313,0,0,1,.12-0.07c0.51-.03.92-0.05,1.24-0.06s0.71-.01,1.17-0.01h1.38c0.34,0,.63.01,0.86,0.02a0.245,0.245,0,0,1,.13.09c0.2,0.51.38,0.96,0.53,1.35s0.31,0.79.46,1.21,0.28,0.78.38,1.11a2.912,2.912,0,0,1,.15.7,0.483,0.483,0,0,1-.09.33,1.358,1.358,0,0,1-.6.21,3.284,3.284,0,0,1-.64.08,0.534,0.534,0,0,0-.11.33,0.457,0.457,0,0,0,.08.32c0.53-.03.96-0.06,1.3-0.08s0.78-.04,1.3-0.04c0.49,0,.92.02,1.27,0.04s0.75,0.05,1.19.08a0.817,0.817,0,0,0,.05-0.29,0.488,0.488,0,0,0-.07-0.36,1.924,1.924,0,0,1-.42-0.08,2.512,2.512,0,0,1-.67-0.26,1.007,1.007,0,0,1-.45-0.44q-0.075-.135-0.57-1.47l-4.58-12.01a0.163,0.163,0,0,1-.06-0.03,0.092,0.092,0,0,0-.06-0.01,1.016,1.016,0,0,0-.47.23,1.362,1.362,0,0,0-.4.41c-0.23.59-.49,1.26-0.79,2.03s-0.61,1.56-.94,2.4-0.64,1.65-.95,2.44-0.59,1.5-.84,2.15-0.51,1.34-.8,2.09C1048.83,5096.07,1048.68,5096.45,1048.51,5096.81Zm6.85-4.75c-0.02.08-.04,0.12-0.07,0.12-0.34.01-.65,0.03-0.93,0.04s-0.61.02-.96,0.02c-0.24,0-.57,0-0.98-0.01s-0.75-.02-1.04-0.03a0.111,0.111,0,0,1-.05-0.09l2.05-5.48Zm11.19-7.62a7.2,7.2,0,0,0-2.41,1.69,7.873,7.873,0,0,0-1.57,2.47,7.789,7.789,0,0,0-.57,2.98,7.449,7.449,0,0,0,.54,2.82,7.31,7.31,0,0,0,3.93,3.95,7.687,7.687,0,0,0,3.03.59,13.009,13.009,0,0,0,2.74-.26,7.591,7.591,0,0,0,2.09-.75,1.476,1.476,0,0,0,.25-0.56,8.45,8.45,0,0,0,.26-1c0.07-.37.14-0.72,0.19-1.04a4.09,4.09,0,0,0,.08-0.65,0.993,0.993,0,0,0-.71-0.18,7.789,7.789,0,0,1-.41,1.29,3.586,3.586,0,0,1-.97,1.33,4.321,4.321,0,0,1-1.21.76,4.393,4.393,0,0,1-1.76.32,5.131,5.131,0,0,1-2.56-.61,5.466,5.466,0,0,1-1.82-1.63,7.542,7.542,0,0,1-1.08-2.29,9.346,9.346,0,0,1-.36-2.58,7.444,7.444,0,0,1,1.49-4.45,5.538,5.538,0,0,1,1.73-1.51,4.544,4.544,0,0,1,2.26-.57,5.26,5.26,0,0,1,2.25.41,3.437,3.437,0,0,1,1.3.97,3.574,3.574,0,0,1,.62,1.11,5.612,5.612,0,0,1,.22.78,0.61,0.61,0,0,0,.28.07,0.665,0.665,0,0,0,.34-0.09,0.2,0.2,0,0,0,.14-0.19c0-.06-0.03-0.26-0.08-0.61s-0.11-.73-0.17-1.15-0.15-.94-0.26-1.57a16.194,16.194,0,0,0-2.44-.37c-0.81-.06-1.58-0.09-2.32-0.09A7.4,7.4,0,0,0,1066.55,5084.44Zm15.13,0a7.059,7.059,0,0,0-2.4,1.69,7.827,7.827,0,0,0-2.14,5.45,7.449,7.449,0,0,0,.54,2.82,7.16,7.16,0,0,0,1.54,2.34,7.308,7.308,0,0,0,2.38,1.61,7.7,7.7,0,0,0,3.04.59,12.909,12.909,0,0,0,2.73-.26,7.781,7.781,0,0,0,2.1-.75,1.656,1.656,0,0,0,.25-0.56c0.09-.29.17-0.62,0.25-1s0.14-.72.2-1.04a5.874,5.874,0,0,0,.08-0.65,1.031,1.031,0,0,0-.72-0.18,6.942,6.942,0,0,1-.41,1.29,3.586,3.586,0,0,1-.97,1.33,4.2,4.2,0,0,1-2.96,1.08,5.17,5.17,0,0,1-2.57-.61,5.339,5.339,0,0,1-1.81-1.63,7.335,7.335,0,0,1-1.09-2.29,9.73,9.73,0,0,1-.35-2.58,7.523,7.523,0,0,1,1.48-4.45,5.464,5.464,0,0,1,1.74-1.51,4.48,4.48,0,0,1,2.25-.57,5.309,5.309,0,0,1,2.26.41,3.518,3.518,0,0,1,1.3.97,4.036,4.036,0,0,1,.62,1.11c0.11,0.35.18,0.61,0.22,0.78a0.538,0.538,0,0,0,.27.07,0.73,0.73,0,0,0,.35-0.09,0.2,0.2,0,0,0,.13-0.19,5.047,5.047,0,0,0-.08-0.61c-0.05-.34-0.11-0.73-0.17-1.15s-0.14-.94-0.25-1.57a16.515,16.515,0,0,0-2.45-.37q-1.215-.09-2.31-0.09A7.452,7.452,0,0,0,1081.68,5084.44Zm11.88-.44-1.36-.06a0.411,0.411,0,0,0-.08.32,0.749,0.749,0,0,0,.08.33q0.135,0,.51.03c0.24,0.02.48,0.06,0.7,0.1a0.425,0.425,0,0,1,.36.21,2.726,2.726,0,0,1,.1.73c0.01,0.29.01,0.61,0.01,0.95v9.59c0,0.34,0,.65-0.01.94a2.706,2.706,0,0,1-.1.72,0.507,0.507,0,0,1-.36.2,3.209,3.209,0,0,1-.7.13q-0.375.03-.51,0.03a0.749,0.749,0,0,0-.08.33,0.411,0.411,0,0,0,.08.32c0.45,0,.88-0.01,1.29-0.04s0.88-.03,1.4-0.03c1.51,0,2.86.01,4.05,0.05s2.4,0.04,3.61.04a9.419,9.419,0,0,1,.5-1.77c0.25-.69.48-1.34,0.7-1.95a0.759,0.759,0,0,0-.55-0.14,0.3,0.3,0,0,0-.33.14q-0.27.7-.57,1.32a2.216,2.216,0,0,1-.83.93,3.7,3.7,0,0,1-1.24.46,7.659,7.659,0,0,1-1.59.16h-1.08q-0.7,0-1.05-.03a1.208,1.208,0,0,1-.56-0.2,1.03,1.03,0,0,1-.1-0.57c-0.01-.34-0.01-0.62-0.01-0.83v-4.42q0-.1.27-0.15a5.991,5.991,0,0,1,.66-0.04c0.25-.01.48-0.02,0.68-0.02,0.29,0,.6.01,0.93,0.02s0.63,0.02.91,0.04a1.271,1.271,0,0,1,.53.13,0.614,0.614,0,0,1,.19.17,1.443,1.443,0,0,1,.18.39q0.105,0.285.27,0.93a0.328,0.328,0,0,0,.34.16,0.535,0.535,0,0,0,.37-0.09v-4.23a0.506,0.506,0,0,0-.39-0.11c-0.2,0-.31.05-0.32,0.16-0.09.36-.18,0.66-0.25,0.87a0.979,0.979,0,0,1-.33.48,1.209,1.209,0,0,1-.65.21c-0.3.03-.72,0.05-1.25,0.05h-1.18a6.523,6.523,0,0,1-.66-0.03c-0.2-.01-0.3-0.05-0.3-0.11v-4.44c0-.26,0-0.51.01-0.76a2.421,2.421,0,0,1,.08-0.6,0.466,0.466,0,0,1,.37-0.16,6.829,6.829,0,0,1,.69-0.06c0.24,0,.41-0.01.5-0.01h1.93a3.281,3.281,0,0,1,1.57.37,2.674,2.674,0,0,1,1.03,1.73,0.286,0.286,0,0,0,.33.16,0.536,0.536,0,0,0,.39-0.12c-0.11-.5-0.23-0.99-0.35-1.47a15.459,15.459,0,0,1-.3-1.56q-1.815,0-3.72.06c-1.28.05-2.44,0.07-3.5,0.07C1094.44,5084.03,1094,5084.02,1093.56,5084Zm21.75,1.83a4.466,4.466,0,0,0-1.8-1.37,5.793,5.793,0,0,0-2.29-.47c-0.66,0-1.24.01-1.76,0.02s-0.99.02-1.43,0.02-0.87-.01-1.3-0.03l-1.35-.06a0.411,0.411,0,0,0-.08.32,0.749,0.749,0,0,0,.08.33c0.09,0,.26.01,0.5,0.03s0.46,0.06.69,0.1a0.388,0.388,0,0,1,.35.21,2.677,2.677,0,0,1,.11.73c0,0.29.01,0.61,0.01,0.95v9.59c0,0.34-.01.65-0.01,0.94a2.661,2.661,0,0,1-.11.72,0.454,0.454,0,0,1-.35.2,3.353,3.353,0,0,1-.69.13c-0.24.02-.41,0.03-0.5,0.03a0.749,0.749,0,0,0-.08.33,0.411,0.411,0,0,0,.08.32c0.46-.03.91-0.06,1.35-0.08s0.87-.04,1.3-0.04,0.87,0.02,1.3.04,0.86,0.05,1.32.08a0.411,0.411,0,0,0,.08-0.32,0.749,0.749,0,0,0-.08-0.33c-0.09,0-.26-0.01-0.5-0.03a2.945,2.945,0,0,1-.67-0.13,0.567,0.567,0,0,1-.37-0.2,2.661,2.661,0,0,1-.11-0.72c0-.29-0.01-0.6-0.01-0.94v-9.57c0-.33.01-0.67,0.01-1a2.06,2.06,0,0,1,.11-0.7,0.514,0.514,0,0,1,.49-0.18q0.435-.03.63-0.03a3.575,3.575,0,0,1,2.79,1.02,3.85,3.85,0,0,1,.92,2.69,3.46,3.46,0,0,1-.92,2.58,3.122,3.122,0,0,1-2.28.91,2.161,2.161,0,0,1-.46-0.05c-0.14-.04-0.27-0.08-0.39-0.11-0.08-.01-0.12.02-0.12,0.12a0.437,0.437,0,0,0,.14.33c0.09,0.08.16,0.14,0.19,0.17a1.62,1.62,0,0,0,.48.14,3.547,3.547,0,0,0,.48.05,5.615,5.615,0,0,0,2.59-.57,4.224,4.224,0,0,0,1.74-1.58,4.564,4.564,0,0,0,.62-2.38A3.517,3.517,0,0,0,1115.31,5085.83Zm3.99-1.89a2.463,2.463,0,0,1-.66-0.1,4.927,4.927,0,0,1-.59-0.2,1.482,1.482,0,0,0-.25-0.08,0.519,0.519,0,0,0-.28.01c-0.07.69-.16,1.36-0.25,2s-0.2,1.27-.32,1.87a0.725,0.725,0,0,0,.15.11,0.373,0.373,0,0,0,.26.05,0.365,0.365,0,0,0,.33-0.12,5.244,5.244,0,0,1,.78-1.95,1.6,1.6,0,0,1,1.38-.78h2.9v11.45c0,0.34-.01.65-0.02,0.94a2.351,2.351,0,0,1-.1.72,0.459,0.459,0,0,1-.36.2,3.1,3.1,0,0,1-.7.13c-0.24.02-.41,0.03-0.5,0.03a0.549,0.549,0,0,0-.08.33,0.411,0.411,0,0,0,.08.32c0.46-.03.91-0.06,1.35-0.08s0.89-.04,1.31-0.04c0.45,0,.88.02,1.3,0.04s0.87,0.05,1.33.08a0.457,0.457,0,0,0,.08-0.32,0.749,0.749,0,0,0-.08-0.33c-0.1,0-.26-0.01-0.5-0.03a3.032,3.032,0,0,1-.68-0.13,0.564,0.564,0,0,1-.36-0.2,2.319,2.319,0,0,1-.11-0.72c-0.01-.29-0.01-0.6-0.01-0.94v-11.45h2.85a1.6,1.6,0,0,1,1.38.78,5.07,5.07,0,0,1,.76,1.95,0.345,0.345,0,0,0,.32.12,0.43,0.43,0,0,0,.28-0.05,0.609,0.609,0,0,0,.16-0.11c-0.12-.6-0.23-1.22-0.33-1.87s-0.19-1.31-.27-2a0.343,0.343,0,0,0-.16-0.04,0.75,0.75,0,0,0-.25.09,5.007,5.007,0,0,1-.65.21,3.163,3.163,0,0,1-.71.11h-8.78Z" transform="translate(-1027.31 -4829.53)"/>
    <path id="受容_承認_" data-name="受容（承認）" class="cls-3" d="M1054.55,5116.58c-1.39,0-1.85-.03-1.92-0.03-0.1,0-.12.01-0.12,0.11v0.6c0,0.1.02,0.11,0.12,0.11,0.05,0,.43-0.01,1.21-0.02a8.839,8.839,0,0,0,2.22,2.84,15.964,15.964,0,0,1-5.38,1.65,1.739,1.739,0,0,1,.36.58c0.12,0.26.13,0.26,0.4,0.21a17.271,17.271,0,0,0,5.35-1.89,16.456,16.456,0,0,0,5.45,1.96c0.26,0.05.26,0.05,0.39-.23a2.1,2.1,0,0,1,.38-0.61,16.747,16.747,0,0,1-5.45-1.64,10.426,10.426,0,0,0,2.39-2.51,1.123,1.123,0,0,1,.38-0.36,0.228,0.228,0,0,0,.13-0.17,0.742,0.742,0,0,0-.27-0.38,0.662,0.662,0,0,0-.42-0.31c-0.03,0-.08.03-0.14,0.04a0.819,0.819,0,0,1-.34.05h-4.74Zm4.65,0.77a9.094,9.094,0,0,1-2.4,2.39,7.093,7.093,0,0,1-2.07-2.39h4.47Zm3.33-2.27c0-.37.03-0.56,0.03-0.65s-0.02-.11-0.11-0.11c-0.07,0-.56.03-1.92,0.03h-0.9a13.919,13.919,0,0,0,.83-1.42,1.5,1.5,0,0,1,.26-0.39,0.362,0.362,0,0,0,.14-0.22,0.2,0.2,0,0,0-.15-0.16c-0.2-.08-0.46-0.18-0.76-0.28a2.675,2.675,0,0,1-.18.62,12.371,12.371,0,0,1-1.02,1.85h-5.8c-1.36,0-1.84-.03-1.92-0.03-0.1,0-.11.01-0.11,0.11s0.03,0.28.03,0.72v0.53c0,1.06-.03,1.27-0.03,1.36s0.01,0.11.11,0.11h0.63c0.1,0,.11-0.01.11-0.11v-1.92h9.92v1.92c0,0.1.01,0.11,0.11,0.11h0.65c0.09,0,.11-0.01.11-0.11s-0.03-.3-0.03-1.35v-0.61Zm-1.01-4.07a0.293,0.293,0,0,0-.11-0.19,4.9,4.9,0,0,0-.69-0.55,5.175,5.175,0,0,1-1.05.32,24.689,24.689,0,0,1-3.02.44c-1.75.17-3.34,0.25-5.13,0.28a1.816,1.816,0,0,1,.29.54c0.1,0.28.1,0.28,0.33,0.27,1.52-.06,3.02-0.17,4.62-0.32,1.74-.18,2.8-0.35,4.03-0.59a3.464,3.464,0,0,1,.55-0.06A0.145,0.145,0,0,0,1061.52,5111.01Zm-5.42,1.32c-0.2.07-.2,0.1-0.14,0.2a7.385,7.385,0,0,1,.55,1.5c0.02,0.12.05,0.12,0.23,0.07l0.41-.13c0.17-.06.18-0.07,0.15-0.17a6.859,6.859,0,0,0-.6-1.54c-0.05-.1-0.08-0.11-0.22-0.06Zm-3.05.21c-0.17.07-.2,0.08-0.13,0.18a5.121,5.121,0,0,1,.64,1.33c0.05,0.13.07,0.14,0.27,0.07l0.39-.14c0.17-.07.17-0.09,0.14-0.18a6.373,6.373,0,0,0-.73-1.37c-0.05-.09-0.08-0.1-0.22-0.04Zm18.21,2.14a0.174,0.174,0,0,0,.11-0.12,0.182,0.182,0,0,0-.15-0.16,8.562,8.562,0,0,0-.85-0.19,4.084,4.084,0,0,1-.59.94,12.932,12.932,0,0,1-5.31,3.61,1.407,1.407,0,0,1,.36.48,0.284,0.284,0,0,0,.19.22,0.657,0.657,0,0,0,.22-0.08,20.053,20.053,0,0,0,1.9-1.01c0,0.19.02,0.54,0.02,1.19v0.97c0,1.86-.03,2.15-0.03,2.24s0.01,0.09.11,0.09h0.63c0.1,0,.11-0.01.11-0.09v-0.73h5.44v0.66c0,0.09.01,0.11,0.13,0.11h0.61c0.1,0,.11-0.02.11-0.11,0-.07-0.02-0.37-0.02-2.22v-1.09c0-.56.01-0.88,0.01-1.06a22.585,22.585,0,0,0,2.09,1.06,0.763,0.763,0,0,0,.19.07c0.07,0,.1-0.07.17-0.24a1.667,1.667,0,0,1,.35-0.56,12.408,12.408,0,0,1-5.85-3.93Zm2.16,6.62h-5.44v-2.47h5.44v2.47Zm-4.33-3.21c-0.74,0-1.2,0-1.48-.02a12.067,12.067,0,0,0,3.12-2.81,10.608,10.608,0,0,0,3.11,2.81c-0.28.02-.74,0.02-1.53,0.02h-3.22Zm7.23-5.68c0-.37.03-0.57,0.03-0.64,0-.1-0.02-0.11-0.11-0.11-0.07,0-.56.03-1.94,0.03h-3.26v-0.12a2.914,2.914,0,0,1,.07-0.98,0.528,0.528,0,0,0,.08-0.25,0.171,0.171,0,0,0-.18-0.11c-0.27-.03-0.57-0.06-0.91-0.07a6.218,6.218,0,0,1,.1,1.43v0.1h-3.06c-1.37,0-1.86-.03-1.93-0.03-0.1,0-.11.01-0.11,0.11,0,0.08.03,0.27,0.03,0.71v0.45c0,1.21-.03,1.36-0.03,1.45s0.01,0.11.11,0.11h0.65c0.09,0,.11-0.02.11-0.11v-1.95h9.51v1.95c0,0.09.01,0.11,0.11,0.11h0.65c0.09,0,.11-0.02.11-0.11,0-.07-0.03-0.24-0.03-1.45v-0.52Zm-7.03,1.29a0.189,0.189,0,0,0-.13-0.16,3.734,3.734,0,0,0-.73-0.4,2.972,2.972,0,0,1-.53.75,7.379,7.379,0,0,1-2.35,1.59,1.442,1.442,0,0,1,.4.45,0.32,0.32,0,0,0,.19.2,0.5,0.5,0,0,0,.22-0.09,9.023,9.023,0,0,0,2.34-1.8,1.769,1.769,0,0,1,.39-0.35A0.31,0.31,0,0,0,1069.29,5113.7Zm3.11-.16c-0.16.11-.17,0.12-0.1,0.21a9.562,9.562,0,0,0,3.04,2.29,0.481,0.481,0,0,0,.19.09,0.3,0.3,0,0,0,.17-0.23,2.374,2.374,0,0,1,.35-0.52,8.094,8.094,0,0,1-3.13-2.08c-0.06-.07-0.09-0.07-0.19,0Zm18.38-3.88c-2.65,2.03-3.67,4.09-3.67,6.82s1.02,4.79,3.67,6.82l0.35-.41a8.171,8.171,0,0,1,0-12.83Zm5.82,1.28c-1.39,0-1.85-.02-1.92-0.02-0.1,0-.11.01-0.11,0.11v0.59c0,0.09.01,0.11,0.11,0.11,0.07,0,.53-0.03,1.92-0.03h4.76a18.3,18.3,0,0,1-2.48,1.68l-0.63-.12a7.08,7.08,0,0,1,.1,1.59v0.31h-0.31c-0.92,0-1.21-.03-1.28-0.03-0.1,0-.1.02-0.1,0.11v0.51c0,0.1,0,.11.1,0.11,0.07,0,.36-0.03,1.28-0.03h0.31v1.26h-0.45c-1.05,0-1.35-.02-1.44-0.02s-0.11.01-.11,0.11v0.49c0,0.1.01,0.11,0.11,0.11s0.39-.03,1.44-0.03h0.45v1.32h-0.92c-1.25,0-1.67-.03-1.74-0.03-0.11,0-.13.01-0.13,0.11v0.51c0,0.09.02,0.11,0.13,0.11,0.07,0,.49-0.03,1.74-0.03h0.92v1.37c0,0.42-.19.52-0.66,0.52a10.253,10.253,0,0,1-1.44-.08,1.778,1.778,0,0,1,.3.6c0.08,0.29.08,0.29,0.35,0.29,1.3,0.03,1.72-.05,1.98-0.29a0.98,0.98,0,0,0,.3-0.88c0-.52-0.03-0.98-0.03-1.53h0.93c1.24,0,1.66.03,1.73,0.03,0.1,0,.11-0.02.11-0.11v-0.51c0-.1-0.01-0.11-0.11-0.11-0.07,0-.49.03-1.73,0.03h-0.93v-1.32h0.42c1.05,0,1.36.03,1.43,0.03,0.1,0,.11-0.01.11-0.11v-0.49c0-.1-0.01-0.11-0.11-0.11-0.07,0-.38.02-1.43,0.02h-0.42v-1.26h0.25c0.94,0,1.22.03,1.31,0.03s0.09-.01.09-0.11v-0.51c0-.09-0.01-0.11-0.09-0.11s-0.37.03-1.31,0.03h-0.25v-1.12a22.279,22.279,0,0,0,2.9-1.88,1.876,1.876,0,0,1,.56-0.35,0.182,0.182,0,0,0,.17-0.17,0.762,0.762,0,0,0-.31-0.5,0.664,0.664,0,0,0-.39-0.29,0.317,0.317,0,0,0-.16.04,0.877,0.877,0,0,1-.39.05h-4.93Zm4.61,2.97c-0.18.05-.21,0.06-0.18,0.17a12.752,12.752,0,0,0,3.36,7.2,0.385,0.385,0,0,0,.21.17,0.3,0.3,0,0,0,.18-0.17,2.206,2.206,0,0,1,.52-0.46,9.72,9.72,0,0,1-2.8-3.99,22.647,22.647,0,0,0,1.79-1.82,1.763,1.763,0,0,1,.58-0.52,0.228,0.228,0,0,0,.15-0.17,0.31,0.31,0,0,0-.13-0.21,4.615,4.615,0,0,0-.64-0.49,2.684,2.684,0,0,1-.41.67,14.693,14.693,0,0,1-1.61,1.75,21.479,21.479,0,0,1-.49-2.15c-0.01-.1-0.03-0.12-0.17-0.07Zm-7.09.31c-0.88,0-1.13-.03-1.22-0.03s-0.11.02-.11,0.13v0.56c0,0.1.02,0.11,0.11,0.11s0.34-.03,1.22-0.03h1.42a10.741,10.741,0,0,1-3.34,5.93,1.53,1.53,0,0,1,.47.41,0.332,0.332,0,0,0,.19.16,0.376,0.376,0,0,0,.2-0.14,12.031,12.031,0,0,0,3.18-6.08,0.554,0.554,0,0,1,.21-0.35,0.175,0.175,0,0,0,.11-0.16,0.683,0.683,0,0,0-.27-0.35,0.59,0.59,0,0,0-.36-0.24,0.549,0.549,0,0,0-.17.05,0.584,0.584,0,0,1-.25.03h-1.39Zm19.6-3.35c-1.27,0-1.68-.02-1.76-0.02-0.1,0-.11.01-0.11,0.11v0.56c0,0.1.01,0.11,0.11,0.11,0.08,0,.49-0.03,1.76-0.03h0.59a6.642,6.642,0,0,1-.32,1.74c-0.53-.24-1.08-0.43-1.57-0.6-0.1-.05-0.14-0.03-0.19.08l-0.17.37c-0.07.14-.09,0.16,0.01,0.19a16.536,16.536,0,0,1,1.64.66,5.072,5.072,0,0,1-2.69,2.39,1.372,1.372,0,0,1,.42.41,0.262,0.262,0,0,0,.2.18,0.527,0.527,0,0,0,.22-0.08,5.784,5.784,0,0,0,2.55-2.56c0.42,0.22.83,0.44,1.18,0.65,0.1,0.06.14,0.06,0.22-.11l0.18-.38c0.07-.14.1-0.16,0-0.21-0.4-.22-0.84-0.44-1.28-0.67a8.27,8.27,0,0,0,.42-2.06h2.46a14.8,14.8,0,0,1-.38,3.71,0.668,0.668,0,0,1-.68.38,6.441,6.441,0,0,1-1.21-.12,1.548,1.548,0,0,1,.2.57c0.04,0.28.05,0.28,0.26,0.31a8.459,8.459,0,0,0,.94.04,1.224,1.224,0,0,0,1.26-.78,15.515,15.515,0,0,0,.44-3.84c0.01-.3.01-0.58,0.05-0.9,0-.1-0.02-0.12-0.12-0.12-0.07,0-.51.02-1.8,0.02h-2.83Zm-2.94,8.65c0-.63.03-0.93,0.03-1.01,0-.1-0.01-0.1-0.11-0.1-0.07,0-.34.03-1.21,0.03h-1.03c-0.86,0-1.12-.03-1.19-0.03-0.11,0-.13,0-0.13.1,0,0.08.03,0.4,0.03,1.24v0.85c0,1.7-.03,1.97-0.03,2.04,0,0.1.02,0.11,0.13,0.11h0.56c0.1,0,.11-0.01.11-0.11v-0.73h2.09v0.45c0,0.1.01,0.11,0.11,0.11h0.56c0.1,0,.11-0.01.11-0.11,0-.07-0.03-0.38-0.03-1.99v-0.85Zm-0.75,1.71h-2.09v-2.11h2.09v2.11Zm4.14-2.26a1.8,1.8,0,0,1,.07-0.66,0.436,0.436,0,0,0,.06-0.17c0-.05-0.04-0.08-0.17-0.11a6.04,6.04,0,0,0-.78-0.08,9.537,9.537,0,0,1,.05,1.08v2.43a0.835,0.835,0,0,0,.51.93,3.476,3.476,0,0,0,1.29.15,2.708,2.708,0,0,0,1.44-.24,1.663,1.663,0,0,0,.68-1.51c0.02-.24.02-0.26-0.22-0.35a1.747,1.747,0,0,1-.52-0.28,1.8,1.8,0,0,1-.38,1.47,1.824,1.824,0,0,1-.98.14,2.367,2.367,0,0,1-.78-0.08c-0.22-.1-0.27-0.18-0.27-0.56v-2.16Zm-2.88-6.15c0-.1-0.02-0.11-0.11-0.11s-0.4.03-1.46,0.03h-1.63c-1.05,0-1.38-.03-1.45-0.03-0.09,0-.1.01-0.1,0.11v0.59c0,0.1.01,0.11,0.1,0.11,0.07,0,.4-0.03,1.45-0.03h1.63c1.06,0,1.37.03,1.46,0.03s0.11-.01.11-0.11v-0.59Zm-0.42-1.88c0-.09-0.02-0.11-0.11-0.11-0.07,0-.33.03-1.22,0.03h-1.1c-0.88,0-1.13-.03-1.21-0.03-0.1,0-.12.02-0.12,0.11v0.56c0,0.1.02,0.12,0.12,0.12,0.08,0,.33-0.03,1.21-0.03h1.1c0.89,0,1.15.03,1.22,0.03,0.09,0,.11-0.02.11-0.12v-0.56Zm-0.23,5.66c0-.1-0.01-0.11-0.11-0.11-0.07,0-.31.03-1.13,0.03h-0.89c-0.82,0-1.06-.03-1.13-0.03-0.1,0-.11.01-0.11,0.11v0.55c0,0.1.01,0.11,0.11,0.11,0.07,0,.31-0.03,1.13-0.03h0.89c0.82,0,1.06.03,1.13,0.03,0.1,0,.11-0.01.11-0.11v-0.55Zm0-1.87c0-.1-0.01-0.12-0.11-0.12-0.07,0-.31.03-1.13,0.03h-0.89c-0.82,0-1.06-.03-1.13-0.03-0.1,0-.11.02-0.11,0.12v0.54c0,0.1.01,0.11,0.11,0.11,0.07,0,.31-0.02,1.13-0.02h0.89c0.82,0,1.06.02,1.13,0.02,0.1,0,.11-0.01.11-0.11v-0.54Zm1.49,3.78c-0.18-.06-0.21-0.04-0.23.07a7.727,7.727,0,0,1-.75,2.48c-0.04.08-.04,0.11,0.14,0.21l0.33,0.17c0.17,0.07.19,0.07,0.24-.03a9.253,9.253,0,0,0,.79-2.64c0.01-.09,0-0.11-0.14-0.15Zm5.22,0c-0.18.08-.19,0.1-0.14,0.17a8.809,8.809,0,0,1,1.25,2.39c0.04,0.1.06,0.1,0.24,0l0.33-.17c0.17-.09.19-0.09,0.16-0.19a10.163,10.163,0,0,0-1.29-2.33c-0.07-.1-0.08-0.1-0.24-0.01Zm-3.27-1.65c-0.13.12-.15,0.12-0.05,0.19a6.783,6.783,0,0,1,1.7,1.47c0.07,0.09.1,0.06,0.24-.08l0.26-.27c0.14-.14.14-0.17,0.06-0.25a11.011,11.011,0,0,0-1.72-1.37c-0.1-.07-0.12-0.06-0.23.05Zm6.28-6.8a8.171,8.171,0,0,1,0,12.83l0.35,0.41c2.64-2.03,3.67-4.09,3.67-6.82s-1.03-4.79-3.67-6.82Z" transform="translate(-1027.31 -4829.53)"/>
    <circle id="mark-2" data-name="mark" class="cls-5" cx="117.69" cy="240.47" r="3"/>
  </g>
  <g id="respect">
    <path id="RESPECT-2" data-name="RESPECT" class="cls-4" d="M1365.82,4830.01c-0.51.02-.99,0.02-1.44,0.02-0.43,0-.86-0.01-1.3-0.03l-1.34-.06a0.411,0.411,0,0,0-.08.32,0.633,0.633,0,0,0,.08.33c0.09,0,.26.01,0.49,0.03s0.47,0.06.69,0.1a0.409,0.409,0,0,1,.36.21,2.374,2.374,0,0,1,.1.73c0.01,0.29.01,0.61,0.01,0.95l0.03,9.59c0,0.34-.01.65-0.01,0.94a2.661,2.661,0,0,1-.11.72,0.454,0.454,0,0,1-.35.2,3.3,3.3,0,0,1-.71.13c-0.24.02-.41,0.03-0.5,0.03a0.633,0.633,0,0,0-.08.33,0.411,0.411,0,0,0,.08.32c0.46-.03.91-0.06,1.36-0.08s0.88-.04,1.31-0.04,0.87,0.02,1.3.04,0.86,0.05,1.32.08a0.411,0.411,0,0,0,.08-0.32,0.749,0.749,0,0,0-.08-0.33q-0.135,0-.51-0.03a3.12,3.12,0,0,1-.69-0.13,0.633,0.633,0,0,1-.37-0.2,2.9,2.9,0,0,1-.08-0.59c0-.24-0.01-0.5-0.01-0.79v-4.47h1.18a0.8,0.8,0,0,1,.69.28c0.35,0.55.72,1.12,1.1,1.69s0.74,1.12,1.08,1.62,0.63,0.94.87,1.29,0.42,0.59.51,0.71a2.276,2.276,0,0,0,.81.71c0.27,0.13.49,0.22,0.64,0.28a5.81,5.81,0,0,0,1.09.2c0.5,0.05,1.13.08,1.88,0.08,0.01-.03.03-0.13,0.07-0.3a0.411,0.411,0,0,0-.05-0.35,3.087,3.087,0,0,1-2.53-1.35c-0.49-.66-0.94-1.26-1.33-1.81s-0.79-1.09-1.15-1.64-0.76-1.16-1.15-1.82a4.6,4.6,0,0,0,1.46-.83,5.2,5.2,0,0,0,1.15-1.33,3.038,3.038,0,0,0,.44-1.57,3.332,3.332,0,0,0-.41-1.69,3.8,3.8,0,0,0-1.09-1.2,5.39,5.39,0,0,0-3.05-.99C1366.92,4829.99,1366.33,4830,1365.82,4830.01Zm3.72,5.79a3.52,3.52,0,0,1-1.3,1.12,3.636,3.636,0,0,1-1.67.4h-1.2l-0.02-4.69c0-.33,0-0.67.01-1a2.117,2.117,0,0,1,.1-0.7,0.548,0.548,0,0,1,.5-0.18q0.42-.03.63-0.03a3.309,3.309,0,0,1,2.66.95,3.606,3.606,0,0,1,.79,2.41A3,3,0,0,1,1369.54,4835.8Zm7.49-5.8-1.35-.06a0.376,0.376,0,0,0-.08.32,0.549,0.549,0,0,0,.08.33c0.09,0,.26.01,0.5,0.03a6.931,6.931,0,0,1,.7.1,0.409,0.409,0,0,1,.36.21,2.374,2.374,0,0,1,.1.73c0.01,0.29.02,0.61,0.02,0.95v9.59c0,0.34-.01.65-0.02,0.94a2.351,2.351,0,0,1-.1.72,0.482,0.482,0,0,1-.36.2,3.1,3.1,0,0,1-.7.13c-0.24.02-.41,0.03-0.5,0.03a0.549,0.549,0,0,0-.08.33,0.376,0.376,0,0,0,.08.32c0.44,0,.87-0.01,1.28-0.04s0.89-.03,1.41-0.03c1.5,0,2.85.01,4.05,0.05s2.39,0.04,3.61.04a9.293,9.293,0,0,1,.49-1.77c0.25-.69.49-1.34,0.7-1.95a0.743,0.743,0,0,0-.55-0.14,0.287,0.287,0,0,0-.32.14c-0.19.47-.38,0.91-0.58,1.32a2.195,2.195,0,0,1-.82.93,3.764,3.764,0,0,1-1.25.46,7.632,7.632,0,0,1-1.58.16h-1.08q-0.72,0-1.05-.03a1.208,1.208,0,0,1-.56-0.2,0.913,0.913,0,0,1-.11-0.57c-0.01-.34-0.01-0.62-0.01-0.83v-4.42c0-.07.09-0.12,0.28-0.15a5.8,5.8,0,0,1,.65-0.04c0.25-.01.48-0.02,0.68-0.02,0.29,0,.6.01,0.93,0.02s0.63,0.02.91,0.04a1.224,1.224,0,0,1,.53.13,0.519,0.519,0,0,1,.19.17,1.4,1.4,0,0,1,.19.39,8.407,8.407,0,0,1,.26.93,0.335,0.335,0,0,0,.35.16,0.571,0.571,0,0,0,.37-0.09v-4.23a0.536,0.536,0,0,0-.39-0.11c-0.2,0-.31.05-0.33,0.16a8.464,8.464,0,0,1-.25.87,0.967,0.967,0,0,1-.32.48,1.281,1.281,0,0,1-.66.21c-0.3.03-.71,0.05-1.25,0.05h-1.17c-0.25,0-.47-0.01-0.67-0.03s-0.3-.05-0.3-0.11v-4.44c0-.26,0-0.51.01-0.76a3.011,3.011,0,0,1,.08-0.6,0.486,0.486,0,0,1,.37-0.16,6.829,6.829,0,0,1,.69-0.06c0.25,0,.41-0.01.51-0.01h1.93a3.212,3.212,0,0,1,1.56.37,2.679,2.679,0,0,1,1.04,1.73c0.01,0.1.12,0.16,0.32,0.16a0.536,0.536,0,0,0,.39-0.12c-0.11-.5-0.22-0.99-0.34-1.47a11.366,11.366,0,0,1-.3-1.56c-1.22,0-2.46.02-3.73,0.06s-2.44.07-3.5,0.07C1377.91,4830.03,1377.48,4830.02,1377.03,4830Zm14.54,0.33a4.241,4.241,0,0,0-1.65,1.37,3.507,3.507,0,0,0-.63,2.08,3.2,3.2,0,0,0,.62,1.96,6.572,6.572,0,0,0,1.53,1.44c0.61,0.4,1.19.77,1.76,1.11,0.52,0.29,1.01.57,1.46,0.83a4.07,4.07,0,0,1,1.11.92,2.3,2.3,0,0,1,.42,1.47,2.643,2.643,0,0,1-.8,2.04,2.756,2.756,0,0,1-1.89.72,3.253,3.253,0,0,1-1.69-.4,3.537,3.537,0,0,1-1.1-1,5.489,5.489,0,0,1-.65-1.16,6,6,0,0,1-.28-0.89,0.249,0.249,0,0,0-.26-0.21,0.681,0.681,0,0,0-.31.08,1.056,1.056,0,0,0-.26.2c0,0.09.02,0.33,0.05,0.71s0.1,0.83.17,1.34,0.15,0.98.24,1.42c0.55,0.11,1.17.25,1.87,0.42a9.164,9.164,0,0,0,2.18.25,5.06,5.06,0,0,0,2.26-.52,4.584,4.584,0,0,0,1.75-1.45,3.554,3.554,0,0,0,.68-2.15,2.846,2.846,0,0,0-.39-1.48,4.306,4.306,0,0,0-1.02-1.16,11.153,11.153,0,0,0-1.28-.92l-1.22-.76c-0.49-.32-0.98-0.64-1.46-0.94a4.608,4.608,0,0,1-1.2-1.06,2.378,2.378,0,0,1-.47-1.5,3.032,3.032,0,0,1,.23-1.12,2.174,2.174,0,0,1,.76-0.97,2.379,2.379,0,0,1,1.45-.39,2.454,2.454,0,0,1,1.27.33,3.4,3.4,0,0,1,.97.84,4.3,4.3,0,0,1,.63,1.06,3.391,3.391,0,0,1,.28.97,0.333,0.333,0,0,0,.25.09,0.987,0.987,0,0,0,.3-0.06c0.12-.04.18-0.1,0.16-0.17-0.01-.31-0.05-0.77-0.1-1.39s-0.13-1.23-.22-1.81c-0.49-.12-0.9-0.23-1.23-0.32a8.967,8.967,0,0,0-.97-0.22,7.617,7.617,0,0,0-1.18-.08A4.924,4.924,0,0,0,1391.57,4830.33Zm18.48,1.5a4.5,4.5,0,0,0-1.79-1.37,5.829,5.829,0,0,0-2.29-.47c-0.66,0-1.25.01-1.76,0.02s-1,.02-1.44.02-0.86-.01-1.3-0.03l-1.34-.06a0.41,0.41,0,0,0-.09.32,0.621,0.621,0,0,0,.09.33c0.09,0,.25.01,0.49,0.03s0.47,0.06.69,0.1a0.425,0.425,0,0,1,.36.21,2.726,2.726,0,0,1,.1.73c0.01,0.29.01,0.61,0.01,0.95v9.59c0,0.34,0,.65-0.01.94a2.706,2.706,0,0,1-.1.72,0.507,0.507,0,0,1-.36.2,3.12,3.12,0,0,1-.69.13c-0.24.02-.4,0.03-0.49,0.03a0.621,0.621,0,0,0-.09.33,0.41,0.41,0,0,0,.09.32c0.46-.03.9-0.06,1.34-0.08s0.87-.04,1.3-0.04,0.88,0.02,1.3.04,0.86,0.05,1.32.08a0.411,0.411,0,0,0,.08-0.32,0.633,0.633,0,0,0-.08-0.33c-0.09,0-.25-0.01-0.49-0.03a2.927,2.927,0,0,1-.68-0.13,0.567,0.567,0,0,1-.37-0.2,2.706,2.706,0,0,1-.1-0.72c-0.01-.29-0.01-0.6-0.01-0.94v-9.57c0-.33,0-0.67.01-1a2.117,2.117,0,0,1,.1-0.7,0.535,0.535,0,0,1,.5-0.18q0.42-.03.63-0.03a3.552,3.552,0,0,1,2.78,1.02,3.85,3.85,0,0,1,.92,2.69,3.46,3.46,0,0,1-.92,2.58,3.09,3.09,0,0,1-2.28.91,2.236,2.236,0,0,1-.46-0.05c-0.13-.04-0.26-0.08-0.39-0.11-0.07-.01-0.11.02-0.11,0.12a0.4,0.4,0,0,0,.14.33c0.09,0.08.15,0.14,0.18,0.17a1.62,1.62,0,0,0,.48.14,3.517,3.517,0,0,0,.49.05,5.573,5.573,0,0,0,2.58-.57,4.1,4.1,0,0,0,1.74-1.58,4.564,4.564,0,0,0,.62-2.38A3.458,3.458,0,0,0,1410.05,4831.83Zm3.74-1.83-1.36-.06a0.411,0.411,0,0,0-.08.32,0.633,0.633,0,0,0,.08.33q0.135,0,.51.03c0.24,0.02.47,0.06,0.7,0.1a0.388,0.388,0,0,1,.35.21,2.677,2.677,0,0,1,.11.73c0,0.29.01,0.61,0.01,0.95v9.59c0,0.34-.01.65-0.01,0.94a2.661,2.661,0,0,1-.11.72,0.454,0.454,0,0,1-.35.2,3.324,3.324,0,0,1-.7.13q-0.375.03-.51,0.03a0.633,0.633,0,0,0-.08.33,0.411,0.411,0,0,0,.08.32c0.44,0,.87-0.01,1.29-0.04s0.88-.03,1.4-0.03c1.5,0,2.85.01,4.05,0.05s2.4,0.04,3.61.04a10.1,10.1,0,0,1,.49-1.77c0.26-.69.49-1.34,0.71-1.95a0.788,0.788,0,0,0-.56-0.14,0.287,0.287,0,0,0-.32.14q-0.27.7-.57,1.32a2.216,2.216,0,0,1-.83.93,3.7,3.7,0,0,1-1.24.46,7.659,7.659,0,0,1-1.59.16h-1.08q-0.72,0-1.05-.03a1.208,1.208,0,0,1-.56-0.2,0.941,0.941,0,0,1-.1-0.57c-0.01-.34-0.02-0.62-0.02-0.83v-4.42c0-.07.1-0.12,0.28-0.15a5.834,5.834,0,0,1,.66-0.04c0.25-.01.47-0.02,0.67-0.02,0.29,0,.61.01,0.94,0.02s0.63,0.02.9,0.04a1.179,1.179,0,0,1,.53.13,0.648,0.648,0,0,1,.2.17,1.84,1.84,0,0,1,.18.39q0.105,0.285.27,0.93a0.319,0.319,0,0,0,.34.16,0.535,0.535,0,0,0,.37-0.09v-4.23a0.536,0.536,0,0,0-.39-0.11c-0.2,0-.31.05-0.32,0.16-0.1.36-.18,0.66-0.26,0.87a0.907,0.907,0,0,1-.32.48,1.241,1.241,0,0,1-.65.21c-0.3.03-.72,0.05-1.26,0.05h-1.17c-0.25,0-.47-0.01-0.67-0.03s-0.3-.05-0.3-0.11v-4.44c0-.26.01-0.51,0.02-0.76a2.026,2.026,0,0,1,.08-0.6,0.458,0.458,0,0,1,.36-0.16q0.33-.045.69-0.06c0.25,0,.42-0.01.51-0.01h1.93a3.281,3.281,0,0,1,1.57.37,2.674,2.674,0,0,1,1.03,1.73,0.272,0.272,0,0,0,.32.16,0.5,0.5,0,0,0,.39-0.12c-0.1-.5-0.22-0.99-0.34-1.47a15.459,15.459,0,0,1-.3-1.56c-1.21,0-2.45.02-3.73,0.06s-2.43.07-3.49,0.07C1414.67,4830.03,1414.23,4830.02,1413.79,4830Zm16.43,0.44a7.059,7.059,0,0,0-2.4,1.69,7.827,7.827,0,0,0-2.14,5.45,7.449,7.449,0,0,0,.54,2.82,7.16,7.16,0,0,0,1.54,2.34,7.308,7.308,0,0,0,2.38,1.61,7.7,7.7,0,0,0,3.04.59,12.909,12.909,0,0,0,2.73-.26,7.781,7.781,0,0,0,2.1-.75,1.656,1.656,0,0,0,.25-0.56c0.09-.29.17-0.62,0.25-1s0.14-.72.2-1.04a5.874,5.874,0,0,0,.08-0.65,1.018,1.018,0,0,0-.72-0.18,6.942,6.942,0,0,1-.41,1.29,3.586,3.586,0,0,1-.97,1.33,4.2,4.2,0,0,1-2.96,1.08,5.17,5.17,0,0,1-2.57-.61,5.339,5.339,0,0,1-1.81-1.63,7.1,7.1,0,0,1-1.08-2.29,9.346,9.346,0,0,1-.36-2.58,7.526,7.526,0,0,1,.38-2.33,7.251,7.251,0,0,1,1.1-2.12,5.573,5.573,0,0,1,1.74-1.51,4.48,4.48,0,0,1,2.25-.57,5.309,5.309,0,0,1,2.26.41,3.518,3.518,0,0,1,1.3.97,3.791,3.791,0,0,1,.62,1.11c0.11,0.35.18,0.61,0.22,0.78a0.538,0.538,0,0,0,.27.07,0.73,0.73,0,0,0,.35-0.09,0.2,0.2,0,0,0,.13-0.19,5.047,5.047,0,0,0-.08-0.61c-0.05-.34-0.11-0.73-0.17-1.15s-0.14-.94-0.25-1.57a16.515,16.515,0,0,0-2.45-.37q-1.215-.09-2.31-0.09A7.452,7.452,0,0,0,1430.22,4830.44Zm12.13-.5a2.453,2.453,0,0,1-.65-0.1,4.37,4.37,0,0,1-.59-0.2,1.864,1.864,0,0,0-.25-0.08,0.519,0.519,0,0,0-.28.01c-0.08.69-.16,1.36-0.25,2s-0.2,1.27-.32,1.87a0.725,0.725,0,0,0,.15.11,0.351,0.351,0,0,0,.26.05,0.334,0.334,0,0,0,.32-0.12,5.6,5.6,0,0,1,.78-1.95,1.621,1.621,0,0,1,1.38-.78h2.9v11.45c0,0.34,0,.65-0.01.94a2.706,2.706,0,0,1-.1.72,0.507,0.507,0,0,1-.36.2,3.209,3.209,0,0,1-.7.13c-0.25.02-.41,0.03-0.51,0.03a0.749,0.749,0,0,0-.08.33,0.457,0.457,0,0,0,.08.32c0.46-.03.92-0.06,1.36-0.08s0.88-.04,1.31-0.04c0.45,0,.88.02,1.3,0.04s0.86,0.05,1.32.08a0.411,0.411,0,0,0,.08-0.32,0.549,0.549,0,0,0-.08-0.33c-0.09,0-.25-0.01-0.49-0.03a3.032,3.032,0,0,1-.68-0.13,0.6,0.6,0,0,1-.37-0.2,2.706,2.706,0,0,1-.1-0.72c-0.01-.29-0.01-0.6-0.01-0.94v-11.45h2.85a1.6,1.6,0,0,1,1.38.78,5.234,5.234,0,0,1,.76,1.95,0.334,0.334,0,0,0,.32.12,0.43,0.43,0,0,0,.28-0.05,0.855,0.855,0,0,0,.16-0.11c-0.13-.6-0.24-1.22-0.34-1.87s-0.18-1.31-.26-2a0.373,0.373,0,0,0-.16-0.04,0.683,0.683,0,0,0-.25.09,5.6,5.6,0,0,1-.65.21,3.247,3.247,0,0,1-.71.11h-8.79Z" transform="translate(-1027.31 -4829.53)"/>
    <path id="尊敬_聴く_" data-name="尊敬（聴く）" class="cls-3" d="M1382.99,4865.47c0-.09-0.01-0.11-0.11-0.11-0.07,0-.5.03-1.79,0.03h-1.56v-0.92c1.18,0.01,1.64.02,1.71,0.02,0.1,0,.11-0.01.11-0.11,0-.07-0.03-0.4-0.03-1.36v-2.15c0-.93.03-1.26,0.03-1.33,0-.1-0.01-0.12-0.11-0.12-0.07,0-.57.03-2,0.03h-1.19v-1.05h2.7c1.33,0,1.77.03,1.85,0.03,0.1,0,.11-0.02.11-0.11v-0.49c0-.1-0.01-0.12-0.11-0.12-0.08,0-.52.03-1.85,0.03h-2.07c0.19-.28.36-0.54,0.49-0.77a1.093,1.093,0,0,1,.22-0.28,0.22,0.22,0,0,0,.13-0.18,0.168,0.168,0,0,0-.14-0.15,4.184,4.184,0,0,0-.77-0.21,2.571,2.571,0,0,1-.21.61,10.047,10.047,0,0,1-.55.98h-3.09l0.51-.22c0.17-.07.16-0.1,0.1-0.2a5.922,5.922,0,0,0-.81-1.09c-0.08-.08-0.1-0.07-0.22-0.01l-0.38.16c-0.17.07-.17,0.12-0.09,0.2a5.282,5.282,0,0,1,.8,1.16h-1.99c-1.33,0-1.76-.03-1.85-0.03s-0.11.02-.11,0.12v0.49c0,0.09.02,0.11,0.11,0.11s0.52-.03,1.85-0.03h2.61v0.42c0,0.24-.02.45-0.03,0.63h-0.98c-1.43,0-1.92-.03-2-0.03-0.1,0-.12.02-0.12,0.12,0,0.07.03,0.4,0.03,1.33v2.18c0,0.93-.03,1.26-0.03,1.33,0,0.1.02,0.11,0.12,0.11,0.08,0,.57-0.02,2-0.02h4.43v0.92h-6.31c-1.29,0-1.72-.03-1.79-0.03-0.1,0-.11.02-0.11,0.11v0.52c0,0.1.01,0.11,0.11,0.11,0.07,0,.5-0.02,1.79-0.02h6.31v1.38c0,0.42-.23.55-0.66,0.55a11.782,11.782,0,0,1-1.21-.06,1.443,1.443,0,0,1,.25.55c0.07,0.28.07,0.27,0.35,0.27a3.069,3.069,0,0,0,1.71-.23,0.921,0.921,0,0,0,.4-0.92c0-.48-0.02-0.98-0.02-1.54h1.56c1.29,0,1.72.02,1.79,0.02,0.1,0,.11-0.01.11-0.11v-0.52Zm-2.45-3.02h-7.56v-2.38h2.17c-0.27.92-.9,1.2-1.94,1.5a1.178,1.178,0,0,1,.42.32,0.433,0.433,0,0,0,.24.18,0.817,0.817,0,0,0,.21-0.07,2.434,2.434,0,0,0,1.82-1.93h1.43v0.8a0.666,0.666,0,0,0,.38.77,3.421,3.421,0,0,0,1.07.12,2.254,2.254,0,0,0,.95-0.15,0.867,0.867,0,0,0,.4-0.79c0.02-.19,0-0.23-0.15-0.26a1.5,1.5,0,0,1-.5-0.2c0,0.56-.1.67-0.23,0.73a1.4,1.4,0,0,1-.5.07,1.436,1.436,0,0,1-.48-0.06c-0.17-.05-0.22-0.15-0.22-0.43v-0.6h2.49v2.38Zm0,1.37h-7.56v-0.75h7.56v0.75Zm-3.21-4.37h-1.34c0.01-.24.03-0.52,0.03-0.81v-0.24h1.31v1.05Zm-3.75,7.27c-0.13.11-.16,0.14-0.07,0.21a5.916,5.916,0,0,1,1.27,1.33c0.07,0.09.09,0.1,0.26-.05l0.3-.26c0.14-.12.16-0.14,0.07-0.23a8.519,8.519,0,0,0-1.27-1.28c-0.1-.07-0.13-0.05-0.25.04Zm21.13-1.89a13.332,13.332,0,0,0,1.29-5.18c0.67,0.01.91,0.03,0.96,0.03,0.1,0,.12-0.02.12-0.12v-0.54c0-.11-0.02-0.13-0.12-0.13-0.07,0-.43.03-1.55,0.03h-2.26c0.14-.51.27-1.01,0.38-1.51a2.254,2.254,0,0,1,.23-0.7,0.331,0.331,0,0,0,.09-0.2,0.238,0.238,0,0,0-.19-0.17,5.416,5.416,0,0,0-.77-0.19,7.959,7.959,0,0,1-.17,1.27,12.331,12.331,0,0,1-1.81,4.51,1.711,1.711,0,0,1,.44.45,0.191,0.191,0,0,0,.14.12,0.355,0.355,0,0,0,.15-0.18c0.22-.38.44-0.74,0.62-1.12a15.921,15.921,0,0,0,1.41,3.85,8.777,8.777,0,0,1-3.28,2.95,1.279,1.279,0,0,1,.44.43,0.333,0.333,0,0,0,.21.2,0.732,0.732,0,0,0,.21-0.1,9.64,9.64,0,0,0,2.88-2.73,13.1,13.1,0,0,0,2.41,2.6,0.422,0.422,0,0,0,.21.13,0.283,0.283,0,0,0,.19-0.18,1.538,1.538,0,0,1,.43-0.52,9.878,9.878,0,0,1-2.77-2.79Zm0.47-5.18a12.669,12.669,0,0,1-1.06,4.61,15.593,15.593,0,0,1-1.39-4.14,4.43,4.43,0,0,0,.17-0.47h2.28Zm-8.67.88,0.06-.13a2.466,2.466,0,0,1,.28-0.49,0.3,0.3,0,0,0,.13-0.21,0.28,0.28,0,0,0-.19-0.15,5.442,5.442,0,0,0-.7-0.21,3.989,3.989,0,0,1-.26.94,8.911,8.911,0,0,1-1.64,2.51,1.532,1.532,0,0,1,.38.33,0.177,0.177,0,0,0,.35.03,10.939,10.939,0,0,0,1.24-1.89H1390a32.813,32.813,0,0,1-.32,5.08c-0.14.79-.34,1.36-1.04,1.36a7.851,7.851,0,0,1-1.3-.12,2.6,2.6,0,0,1,.2.63c0.04,0.25.05,0.25,0.29,0.26,0.28,0.03.62,0.03,0.88,0.03,1.11,0,1.52-.59,1.73-1.86a30.607,30.607,0,0,0,.36-4.28c0.03-.85.04-1.27,0.07-1.73,0-.1-0.03-0.13-0.14-0.13-0.07,0-.42.03-1.48,0.03h-2.74Zm2.23,2.84c0-.54.03-0.81,0.03-0.89,0-.1-0.01-0.12-0.11-0.12-0.07,0-.28.03-1.03,0.03h-0.84c-0.71,0-.93-0.03-1-0.03-0.09,0-.1.02-0.1,0.12,0,0.08.03,0.36,0.03,1.08v0.71c0,1.68-.03,1.92-0.03,2,0,0.1.01,0.12,0.1,0.12h0.51c0.1,0,.12-0.02.12-0.12v-0.68h1.61v0.47c0,0.1.01,0.11,0.11,0.11h0.52c0.1,0,.11-0.01.11-0.11,0-.07-0.03-0.31-0.03-1.87v-0.82Zm-0.71,1.56h-1.61v-1.88h1.61v1.88Zm3.58-7.17c0-.1-0.01-0.12-0.1-0.12-0.07,0-.5.03-1.79,0.03a2.676,2.676,0,0,1,.09-0.95,0.394,0.394,0,0,0,.05-0.2,0.141,0.141,0,0,0-.14-0.12,5.957,5.957,0,0,0-.8-0.07,10.029,10.029,0,0,1,.07,1.34h-1.72a3.144,3.144,0,0,1,.08-0.96,0.3,0.3,0,0,0,.06-0.19,0.137,0.137,0,0,0-.15-0.12,5.513,5.513,0,0,0-.79-0.07,11.642,11.642,0,0,1,.07,1.34h-0.12c-1.35,0-1.78-.03-1.85-0.03-0.1,0-.12.02-0.12,0.12v0.51c0,0.1.02,0.12,0.12,0.12,0.07,0,.5-0.03,1.85-0.03h0.12c-0.01.55-.03,0.76-0.03,0.83,0,0.09.02,0.11,0.12,0.11h0.56c0.09,0,.11-0.02.11-0.11,0-.07-0.03-0.28-0.03-0.83h1.72c0,0.71-.02.97-0.02,1.05,0,0.1.01,0.11,0.11,0.11h0.57c0.09,0,.1-0.01.1-0.11,0-.07-0.03-0.34-0.03-1.05,1.29,0,1.72.03,1.79,0.03,0.09,0,.1-0.02.1-0.12v-0.51Zm19.17-2.1c-2.65,2.03-3.67,4.09-3.67,6.82s1.02,4.79,3.67,6.82l0.35-.41a8.171,8.171,0,0,1,0-12.83Zm6.61,1.24c0-.1-0.02-0.11-0.13-0.11-0.07,0-.41.03-1.47,0.03h-1.72c-1.07,0-1.39-.03-1.46-0.03-0.1,0-.11.01-0.11,0.11v0.56c0,0.1.01,0.11,0.11,0.11,0.04,0,.25-0.01.76-0.02v8.32a8.746,8.746,0,0,1-1.04.18c0.07,0.27.14,0.52,0.22,0.77a0.194,0.194,0,0,0,.14.14,0.34,0.34,0,0,0,.19-0.08,1.455,1.455,0,0,1,.56-0.21c0.78-.24,1.52-0.48,2.29-0.76v1.16c0,1-.03,1.42-0.03,1.49,0,0.09.02,0.11,0.12,0.11h0.57c0.1,0,.11-0.02.11-0.11,0-.07-0.02-0.49-0.02-1.49v-9.52c0.51,0.01.72,0.02,0.78,0.02,0.11,0,.13-0.01.13-0.11v-0.56Zm-1.66,8.27a16.649,16.649,0,0,1-1.62.51v-2.46h1.62v1.95Zm0-2.68h-1.62v-2.11h1.62v2.11Zm0-2.84h-1.62v-2.1h1.62v2.1Zm9.23-1.81c0-.1-0.01-0.11-0.11-0.11-0.08,0-.54.03-1.92,0.03h-1.71v-0.2a2.518,2.518,0,0,1,.09-0.95,0.568,0.568,0,0,0,.07-0.21,0.167,0.167,0,0,0-.17-0.13c-0.28-.04-0.5-0.05-0.84-0.07a6.42,6.42,0,0,1,.1,1.35v0.21h-1.24c-1.35,0-1.82-.03-1.9-0.03-0.1,0-.11.01-0.11,0.11v0.56c0,0.1.01,0.11,0.11,0.11,0.08,0,.55-0.03,1.9-0.03h1.24v1.32h-1.08c-1.3,0-1.75-.03-1.84-0.03s-0.11.02-.11,0.12c0,0.08.03,0.3,0.03,0.99v1.19c0,0.7-.03.93-0.03,1,0,0.09.02,0.11,0.11,0.11s0.54-.03,1.84-0.03h3.09c1.31,0,1.77.03,1.85,0.03,0.1,0,.12-0.02.12-0.11,0-.07-0.03-0.3-0.03-1v-1.19c0-.69.03-0.91,0.03-0.99,0-.1-0.02-0.12-0.12-0.12-0.08,0-.54.03-1.85,0.03h-1.26v-1.32h1.71c1.38,0,1.84.03,1.92,0.03,0.1,0,.11-0.01.11-0.11v-0.56Zm-1.26,4.66h-1.43v-2.05h1.43v2.05Zm-4.16,0h-1.37v-2.05h1.37v2.05Zm2.05,0h-1.36v-2.05h1.36v2.05Zm-1.49,3.23a1.422,1.422,0,0,1,.1-0.79,0.252,0.252,0,0,0,.06-0.17,0.2,0.2,0,0,0-.17-0.11,4.777,4.777,0,0,0-.83-0.11,5.129,5.129,0,0,1,.09,1.11v1.71a0.96,0.96,0,0,0,.44,1.02,2.68,2.68,0,0,0,1.34.17,2.8,2.8,0,0,0,1.59-.27,1.717,1.717,0,0,0,.63-1.48c0.03-.26.03-0.26-0.21-0.35a1.634,1.634,0,0,1-.54-0.29c-0.02.79-.07,1.31-0.37,1.46a1.757,1.757,0,0,1-1.08.18,2.272,2.272,0,0,1-.78-0.07c-0.21-.08-0.27-0.22-0.27-0.63v-1.38Zm3.24-.96c-0.17.07-.2,0.12-0.13,0.21a9.283,9.283,0,0,1,1.17,2.54c0.02,0.11.08,0.13,0.25,0.04l0.38-.17c0.16-.08.18-0.11,0.14-0.21a10.427,10.427,0,0,0-1.26-2.52c-0.06-.08-0.1-0.1-0.23-0.04Zm-5.28.14c-0.18-.07-0.2-0.05-0.23.06a6.888,6.888,0,0,1-1,2.45c-0.06.09-.05,0.11,0.14,0.23l0.3,0.19c0.17,0.11.21,0.1,0.27,0a8.46,8.46,0,0,0,1.04-2.63c0.02-.11-0.02-0.13-0.19-0.18Zm2.23-1.23c-0.14.14-.13,0.17-0.03,0.24a8.016,8.016,0,0,1,1.45,1.41c0.09,0.09.1,0.09,0.24-.04l0.31-.28c0.1-.1.1-0.12,0.04-0.19a8.84,8.84,0,0,0-1.58-1.39c-0.08-.06-0.11-0.04-0.22.06Zm13.84-6.96a3.392,3.392,0,0,1-.62.87c-1.24,1.26-2.77,2.74-3.9,3.95a1.249,1.249,0,0,0-.49.91,1.069,1.069,0,0,0,.54.88,37.242,37.242,0,0,1,5.28,4.75c0.1,0.13.16,0.11,0.27,0.03,0.14-.13.36-0.34,0.53-0.53,0.11-.14.09-0.17-0.01-0.28a45.891,45.891,0,0,0-5.41-4.63,0.287,0.287,0,0,1-.18-0.25,0.493,0.493,0,0,1,.2-0.35c1.05-1.12,2.75-2.7,4.13-3.95a1.576,1.576,0,0,1,.52-0.36,0.227,0.227,0,0,0,.14-0.19,0.366,0.366,0,0,0-.1-0.18A7.516,7.516,0,0,0,1434.13,4856.72Zm6.23-.66a8.171,8.171,0,0,1,0,12.83l0.35,0.41c2.64-2.03,3.67-4.09,3.67-6.82s-1.03-4.79-3.67-6.82Z" transform="translate(-1027.31 -4829.53)"/>
    <circle id="mark-3" data-name="mark" class="cls-5" cx="319.69" cy="46.47" r="3"/>
  </g>
  <g id="interest">
    <path id="INTEREST-2" data-name="INTEREST" class="cls-4" d="M1028.75,4830l-1.36-.06a0.411,0.411,0,0,0-.08.32,0.633,0.633,0,0,0,.08.33c0.09,0,.26.01,0.5,0.03s0.48,0.06.71,0.1a0.388,0.388,0,0,1,.35.21,2.677,2.677,0,0,1,.11.73c0,0.29.01,0.61,0.01,0.95v9.59c0,0.34-.01.65-0.01,0.94a2.661,2.661,0,0,1-.11.72,0.454,0.454,0,0,1-.35.2,3.3,3.3,0,0,1-.71.13c-0.24.02-.41,0.03-0.5,0.03a0.633,0.633,0,0,0-.08.33,0.411,0.411,0,0,0,.08.32c0.46-.03.91-0.06,1.36-0.08s0.88-.04,1.31-0.04,0.87,0.02,1.3.04,0.86,0.05,1.32.08a0.411,0.411,0,0,0,.08-0.32,0.749,0.749,0,0,0-.08-0.33q-0.135,0-.51-0.03a3.12,3.12,0,0,1-.69-0.13,0.633,0.633,0,0,1-.37-0.2,2.9,2.9,0,0,1-.08-0.59c0-.24-0.01-0.5-0.01-0.79v-10.15c0-.29.01-0.56,0.01-0.8a2.812,2.812,0,0,1,.08-0.6,0.507,0.507,0,0,1,.37-0.21c0.22-.04.45-0.08,0.69-0.1s0.42-.03.51-0.03a0.749,0.749,0,0,0,.08-0.33,0.411,0.411,0,0,0-.08-0.32l-1.32.06c-0.43.02-.86,0.03-1.3,0.03S1029.19,4830.02,1028.75,4830Zm7.08-.07c-0.32-.02-0.74-0.04-1.27-0.06a0.84,0.84,0,0,0-.06.28,0.619,0.619,0,0,0,.06.37,5.624,5.624,0,0,1,1.3.19,0.689,0.689,0,0,1,.45.24,1.256,1.256,0,0,1,.2.58c0.02,0.21.03,0.54,0.03,0.96v9.76c0,0.43-.01.74-0.03,0.95a1.179,1.179,0,0,1-.2.56,0.648,0.648,0,0,1-.45.25,6.57,6.57,0,0,1-.77.16,3.614,3.614,0,0,1-.53.05,0.619,0.619,0,0,0-.06.37,0.783,0.783,0,0,0,.06.28c0.36-.02.64-0.03,0.87-0.05s0.45-.03.69-0.04,0.52-.03.86-0.03c0.49,0,.93.02,1.31,0.04s0.8,0.05,1.24.08a0.933,0.933,0,0,0,.05-0.32,0.539,0.539,0,0,0-.09-0.33,4.062,4.062,0,0,1-.57-0.06,6.684,6.684,0,0,1-.71-0.18,0.7,0.7,0,0,1-.4-0.22,1.522,1.522,0,0,1-.2-0.6c-0.02-.23-0.03-0.54-0.03-0.94v-10.21l9.8,12.38a1.546,1.546,0,0,0,.47.41,0.711,0.711,0,0,0,.31.11,0.6,0.6,0,0,0,.16-0.02,0.152,0.152,0,0,0,.14-0.11c-0.02-.4-0.03-0.75-0.04-1.05s-0.01-.61-0.01-0.93v-10.26c0-.43.01-0.75,0.02-0.97a1.246,1.246,0,0,1,.19-0.57,0.827,0.827,0,0,1,.46-0.24,4.565,4.565,0,0,1,.77-0.15c0.27-.03.45-0.05,0.54-0.05a0.682,0.682,0,0,0,.07-0.37,1.03,1.03,0,0,0-.07-0.27c-0.34.01-.63,0.03-0.86,0.04s-0.47.03-.69,0.04-0.51.01-.87,0.01q-0.735,0-1.32-.03c-0.39-.03-0.81-0.05-1.25-0.06a1.456,1.456,0,0,0-.04.31,0.5,0.5,0,0,0,.08.33,4.062,4.062,0,0,1,.57.06,5.4,5.4,0,0,1,.72.16,0.782,0.782,0,0,1,.42.22,1.2,1.2,0,0,1,.2.62c0.02,0.23.03,0.55,0.03,0.94v8.51c-0.5-.69-1.08-1.46-1.75-2.31s-1.37-1.71-2.1-2.59-1.41-1.72-2.09-2.54-1.26-1.55-1.77-2.19-0.87-1.15-1.1-1.5a6.785,6.785,0,0,1-.72.02h-0.99C1036.5,4829.96,1036.15,4829.95,1035.83,4829.93Zm17.85,0.01a2.52,2.52,0,0,1-.66-0.1,4.149,4.149,0,0,1-.58-0.2,2.076,2.076,0,0,0-.26-0.08,0.483,0.483,0,0,0-.27.01c-0.08.69-.16,1.36-0.26,2s-0.2,1.27-.32,1.87a0.725,0.725,0,0,0,.15.11,0.389,0.389,0,0,0,.27.05,0.356,0.356,0,0,0,.32-0.12,5.6,5.6,0,0,1,.78-1.95,1.6,1.6,0,0,1,1.38-.78h2.9v11.45c0,0.34-.01.65-0.01,0.94a2.661,2.661,0,0,1-.11.72,0.454,0.454,0,0,1-.35.2,3.3,3.3,0,0,1-.71.13c-0.24.02-.41,0.03-0.5,0.03a0.633,0.633,0,0,0-.08.33,0.411,0.411,0,0,0,.08.32c0.46-.03.91-0.06,1.36-0.08s0.88-.04,1.31-0.04,0.87,0.02,1.3.04,0.86,0.05,1.32.08a0.411,0.411,0,0,0,.08-0.32,0.749,0.749,0,0,0-.08-0.33c-0.09,0-.26-0.01-0.5-0.03a2.945,2.945,0,0,1-.67-0.13,0.567,0.567,0,0,1-.37-0.2,2.661,2.661,0,0,1-.11-0.72c0-.29-0.01-0.6-0.01-0.94v-11.45h2.85a1.6,1.6,0,0,1,1.38.78,5.07,5.07,0,0,1,.76,1.95,0.365,0.365,0,0,0,.33.12,0.413,0.413,0,0,0,.27-0.05,0.609,0.609,0,0,0,.16-0.11c-0.12-.6-0.23-1.22-0.33-1.87s-0.19-1.31-.27-2a0.343,0.343,0,0,0-.16-0.04,0.75,0.75,0,0,0-.25.09,5.3,5.3,0,0,1-.64.21,3.238,3.238,0,0,1-.72.11h-8.78Zm13.8,0.06-1.36-.06a0.411,0.411,0,0,0-.08.32,0.633,0.633,0,0,0,.08.33q0.135,0,.51.03c0.24,0.02.48,0.06,0.7,0.1a0.388,0.388,0,0,1,.35.21,2.338,2.338,0,0,1,.11.73c0.01,0.29.01,0.61,0.01,0.95v9.59c0,0.34,0,.65-0.01.94a2.319,2.319,0,0,1-.11.72,0.454,0.454,0,0,1-.35.2,3.209,3.209,0,0,1-.7.13q-0.375.03-.51,0.03a0.633,0.633,0,0,0-.08.33,0.411,0.411,0,0,0,.08.32c0.44,0,.87-0.01,1.29-0.04s0.88-.03,1.4-0.03c1.5,0,2.85.01,4.05,0.05s2.4,0.04,3.61.04a10.1,10.1,0,0,1,.49-1.77c0.26-.69.49-1.34,0.71-1.95a0.788,0.788,0,0,0-.56-0.14,0.287,0.287,0,0,0-.32.14q-0.27.7-.57,1.32a2.216,2.216,0,0,1-.83.93,3.7,3.7,0,0,1-1.24.46,7.659,7.659,0,0,1-1.59.16h-1.08q-0.72,0-1.05-.03a1.208,1.208,0,0,1-.56-0.2,0.941,0.941,0,0,1-.1-0.57c-0.01-.34-0.02-0.62-0.02-0.83v-4.42c0-.07.1-0.12,0.28-0.15a5.834,5.834,0,0,1,.66-0.04c0.25-.01.47-0.02,0.67-0.02,0.3,0,.61.01,0.94,0.02s0.63,0.02.9,0.04a1.179,1.179,0,0,1,.53.13,0.648,0.648,0,0,1,.2.17,1.84,1.84,0,0,1,.18.39q0.105,0.285.27,0.93a0.319,0.319,0,0,0,.34.16,0.535,0.535,0,0,0,.37-0.09v-4.23a0.536,0.536,0,0,0-.39-0.11c-0.2,0-.31.05-0.32,0.16a8.122,8.122,0,0,1-.26.87,0.907,0.907,0,0,1-.32.48,1.241,1.241,0,0,1-.65.21c-0.3.03-.72,0.05-1.26,0.05h-1.17c-0.25,0-.47-0.01-0.67-0.03s-0.3-.05-0.3-0.11v-4.44c0-.26.01-0.51,0.02-0.76a2.026,2.026,0,0,1,.08-0.6,0.458,0.458,0,0,1,.36-0.16q0.33-.045.69-0.06c0.25,0,.42-0.01.51-0.01h1.93a3.281,3.281,0,0,1,1.57.37,2.674,2.674,0,0,1,1.03,1.73,0.272,0.272,0,0,0,.32.16,0.5,0.5,0,0,0,.39-0.12c-0.1-.5-0.22-0.99-0.34-1.47a15.459,15.459,0,0,1-.3-1.56c-1.21,0-2.45.02-3.73,0.06s-2.43.07-3.49,0.07C1068.36,4830.03,1067.92,4830.02,1067.48,4830Zm15.9,0.01c-0.51.02-.99,0.02-1.44,0.02-0.43,0-.86-0.01-1.3-0.03l-1.34-.06a0.411,0.411,0,0,0-.08.32,0.633,0.633,0,0,0,.08.33c0.09,0,.26.01,0.49,0.03s0.47,0.06.69,0.1a0.409,0.409,0,0,1,.36.21,2.374,2.374,0,0,1,.1.73c0.01,0.29.02,0.61,0.02,0.95l0.02,9.59c0,0.34-.01.65-0.01,0.94a2.661,2.661,0,0,1-.11.72,0.454,0.454,0,0,1-.35.2,3.324,3.324,0,0,1-.7.13q-0.375.03-.51,0.03a0.633,0.633,0,0,0-.08.33,0.411,0.411,0,0,0,.08.32c0.46-.03.91-0.06,1.36-0.08s0.88-.04,1.31-0.04,0.87,0.02,1.3.04,0.86,0.05,1.32.08a0.411,0.411,0,0,0,.08-0.32,0.633,0.633,0,0,0-.08-0.33q-0.135,0-.51-0.03a3.12,3.12,0,0,1-.69-0.13,0.564,0.564,0,0,1-.36-0.2,2.291,2.291,0,0,1-.09-0.59c0-.24-0.01-0.5-0.01-0.79v-4.47h1.18a0.8,0.8,0,0,1,.69.28c0.35,0.55.72,1.12,1.1,1.69s0.74,1.12,1.08,1.62,0.63,0.94.88,1.29,0.41,0.59.5,0.71a2.276,2.276,0,0,0,.81.71c0.27,0.13.49,0.22,0.64,0.28a5.81,5.81,0,0,0,1.09.2c0.5,0.05,1.13.08,1.88,0.08a2.266,2.266,0,0,0,.07-0.3,0.411,0.411,0,0,0-.05-0.35,3.087,3.087,0,0,1-2.53-1.35c-0.49-.66-0.94-1.26-1.33-1.81s-0.79-1.09-1.15-1.64-0.76-1.16-1.15-1.82a4.6,4.6,0,0,0,1.46-.83,5.2,5.2,0,0,0,1.15-1.33,3.051,3.051,0,0,0,.45-1.57,3.337,3.337,0,0,0-.42-1.69,3.683,3.683,0,0,0-1.09-1.2,5.136,5.136,0,0,0-1.48-.74,5.19,5.19,0,0,0-1.57-.25C1084.48,4829.99,1083.9,4830,1083.38,4830.01Zm3.72,5.79a3.52,3.52,0,0,1-1.3,1.12,3.636,3.636,0,0,1-1.67.4h-1.2l-0.02-4.69c0-.33,0-0.67.01-1a1.836,1.836,0,0,1,.11-0.7,0.514,0.514,0,0,1,.49-0.18q0.42-.03.63-0.03a3.309,3.309,0,0,1,2.66.95,3.606,3.606,0,0,1,.79,2.41A3,3,0,0,1,1087.1,4835.8Zm7.49-5.8-1.35-.06a0.411,0.411,0,0,0-.08.32,0.549,0.549,0,0,0,.08.33c0.09,0,.26.01,0.5,0.03a6.931,6.931,0,0,1,.7.1,0.393,0.393,0,0,1,.36.21,2.374,2.374,0,0,1,.1.73c0.01,0.29.02,0.61,0.02,0.95v9.59c0,0.34-.01.65-0.02,0.94a2.351,2.351,0,0,1-.1.72,0.459,0.459,0,0,1-.36.2,3.1,3.1,0,0,1-.7.13c-0.24.02-.41,0.03-0.5,0.03a0.549,0.549,0,0,0-.08.33,0.411,0.411,0,0,0,.08.32c0.44,0,.87-0.01,1.29-0.04s0.88-.03,1.4-0.03c1.5,0,2.85.01,4.05,0.05s2.4,0.04,3.61.04a9.293,9.293,0,0,1,.49-1.77c0.25-.69.49-1.34,0.7-1.95a0.743,0.743,0,0,0-.55-0.14,0.287,0.287,0,0,0-.32.14c-0.18.47-.38,0.91-0.58,1.32a2.195,2.195,0,0,1-.82.93,3.681,3.681,0,0,1-1.25.46,7.632,7.632,0,0,1-1.58.16h-1.08q-0.72,0-1.05-.03a1.208,1.208,0,0,1-.56-0.2,0.913,0.913,0,0,1-.11-0.57c-0.01-.34-0.01-0.62-0.01-0.83v-4.42c0-.07.09-0.12,0.28-0.15a5.8,5.8,0,0,1,.65-0.04c0.26-.01.48-0.02,0.68-0.02,0.29,0,.6.01,0.93,0.02s0.64,0.02.91,0.04a1.224,1.224,0,0,1,.53.13,0.648,0.648,0,0,1,.2.17,1.84,1.84,0,0,1,.18.39,8.407,8.407,0,0,1,.26.93,0.344,0.344,0,0,0,.35.16,0.553,0.553,0,0,0,.37-0.09v-4.23a0.536,0.536,0,0,0-.39-0.11c-0.2,0-.31.05-0.33,0.16a8.464,8.464,0,0,1-.25.87,0.967,0.967,0,0,1-.32.48,1.281,1.281,0,0,1-.66.21c-0.3.03-.71,0.05-1.25,0.05h-1.17c-0.25,0-.47-0.01-0.67-0.03s-0.3-.05-0.3-0.11v-4.44c0-.26,0-0.51.01-0.76a3.011,3.011,0,0,1,.08-0.6,0.486,0.486,0,0,1,.37-0.16q0.33-.045.69-0.06c0.25,0,.42-0.01.51-0.01h1.93a3.212,3.212,0,0,1,1.56.37,2.679,2.679,0,0,1,1.04,1.73c0.01,0.1.12,0.16,0.32,0.16a0.536,0.536,0,0,0,.39-0.12c-0.11-.5-0.22-0.99-0.34-1.47a11.366,11.366,0,0,1-.3-1.56c-1.21,0-2.46.02-3.73,0.06s-2.44.07-3.49,0.07Q1095.265,4830.03,1094.59,4830Zm14.54,0.33a4.211,4.211,0,0,0-1.64,1.37,3.447,3.447,0,0,0-.64,2.08,3.2,3.2,0,0,0,.62,1.96,6.572,6.572,0,0,0,1.53,1.44c0.61,0.4,1.2.77,1.76,1.11,0.52,0.29,1.01.57,1.46,0.83a3.925,3.925,0,0,1,1.11.92,2.3,2.3,0,0,1,.42,1.47,2.643,2.643,0,0,1-.8,2.04,2.756,2.756,0,0,1-1.89.72,3.253,3.253,0,0,1-1.69-.4,3.537,3.537,0,0,1-1.1-1,5.489,5.489,0,0,1-.65-1.16,6,6,0,0,1-.28-0.89,0.243,0.243,0,0,0-.26-0.21,0.714,0.714,0,0,0-.31.08,1.056,1.056,0,0,0-.26.2c0,0.09.02,0.33,0.06,0.71s0.09,0.83.16,1.34,0.15,0.98.24,1.42c0.55,0.11,1.17.25,1.87,0.42a9.164,9.164,0,0,0,2.18.25,5.06,5.06,0,0,0,2.26-.52,4.584,4.584,0,0,0,1.75-1.45,3.554,3.554,0,0,0,.68-2.15,2.846,2.846,0,0,0-.39-1.48,4.443,4.443,0,0,0-1.01-1.16,12.209,12.209,0,0,0-1.29-.92l-1.22-.76c-0.49-.32-0.98-0.64-1.46-0.94a4.776,4.776,0,0,1-1.2-1.06,2.378,2.378,0,0,1-.47-1.5,3.032,3.032,0,0,1,.23-1.12,2.174,2.174,0,0,1,.76-0.97,2.379,2.379,0,0,1,1.45-.39,2.454,2.454,0,0,1,1.27.33,3.4,3.4,0,0,1,.97.84,4.3,4.3,0,0,1,.63,1.06,3.391,3.391,0,0,1,.28.97,0.333,0.333,0,0,0,.25.09,0.987,0.987,0,0,0,.3-0.06c0.12-.04.18-0.1,0.16-0.17-0.01-.31-0.05-0.77-0.1-1.39s-0.13-1.23-.22-1.81c-0.49-.12-0.9-0.23-1.23-0.32a8.967,8.967,0,0,0-.97-0.22,7.617,7.617,0,0,0-1.18-.08A4.924,4.924,0,0,0,1109.13,4830.33Zm10.17-.39a2.463,2.463,0,0,1-.66-0.1,4.927,4.927,0,0,1-.59-0.2,1.482,1.482,0,0,0-.25-0.08,0.519,0.519,0,0,0-.28.01c-0.07.69-.16,1.36-0.25,2s-0.2,1.27-.32,1.87a0.725,0.725,0,0,0,.15.11,0.373,0.373,0,0,0,.26.05,0.365,0.365,0,0,0,.33-0.12,5.244,5.244,0,0,1,.78-1.95,1.6,1.6,0,0,1,1.38-.78h2.9v11.45c0,0.34-.01.65-0.02,0.94a2.351,2.351,0,0,1-.1.72,0.459,0.459,0,0,1-.36.2,3.1,3.1,0,0,1-.7.13c-0.24.02-.41,0.03-0.5,0.03a0.549,0.549,0,0,0-.08.33,0.411,0.411,0,0,0,.08.32c0.46-.03.91-0.06,1.35-0.08s0.89-.04,1.31-0.04c0.45,0,.88.02,1.3,0.04s0.87,0.05,1.33.08a0.457,0.457,0,0,0,.08-0.32,0.749,0.749,0,0,0-.08-0.33c-0.1,0-.26-0.01-0.5-0.03a3.032,3.032,0,0,1-.68-0.13,0.564,0.564,0,0,1-.36-0.2,2.319,2.319,0,0,1-.11-0.72c-0.01-.29-0.01-0.6-0.01-0.94v-11.45h2.85a1.6,1.6,0,0,1,1.38.78,5.07,5.07,0,0,1,.76,1.95,0.345,0.345,0,0,0,.32.12,0.43,0.43,0,0,0,.28-0.05,0.609,0.609,0,0,0,.16-0.11c-0.12-.6-0.23-1.22-0.33-1.87s-0.19-1.31-.27-2a0.343,0.343,0,0,0-.16-0.04,0.75,0.75,0,0,0-.25.09,5.007,5.007,0,0,1-.65.21,3.163,3.163,0,0,1-.71.11h-8.78Z" transform="translate(-1027.31 -4829.53)"/>
    <path id="関心_観る_" data-name="関心（観る）" class="cls-3" d="M1053.36,4858.76c0-1.35.03-1.91,0.03-2s-0.01-.11-0.11-0.11c-0.07,0-.44.03-1.52,0.03h-1.86c-1.09,0-1.44-.03-1.51-0.03-0.11,0-.13.01-0.13,0.11s0.03,0.35.03,1.21v1.36c0,0.92-.03,1.19-0.03,1.26,0,0.09.02,0.11,0.13,0.11,0.07,0,.42-0.03,1.51-0.03h2.63v6.42c0,0.56-.12.67-0.74,0.67a8.18,8.18,0,0,1-.98-0.06,2.106,2.106,0,0,1,.25.62c0.07,0.26.07,0.26,0.33,0.26a2.4,2.4,0,0,0,1.65-.28,1.112,1.112,0,0,0,.36-1.06c0-.53-0.04-1.3-0.04-2.07v-6.41Zm-0.83,1.25h-3.44v-1.02h3.44v1.02Zm0-1.68h-3.44v-0.97h3.44v0.97Zm-5.54-.28c0-.85.03-1.2,0.03-1.29s-0.02-.11-0.12-0.11c-0.07,0-.42.03-1.4,0.03h-1.69c-1.04,0-1.5-.03-1.58-0.03-0.1,0-.12.01-0.12,0.11s0.03,0.94.03,2.94v6.07c0,1.93-.03,2.76-0.03,2.84,0,0.1.02,0.11,0.12,0.11h0.65c0.1,0,.12-0.01.12-0.11,0-.08-0.03-0.91-0.03-2.84v-5.1h2.53c0.98,0,1.33.03,1.4,0.03,0.1,0,.12-0.02.12-0.11,0-.07-0.03-0.42-0.03-1.35v-1.19Zm-0.8,1.96h-3.22v-1.02h3.22v1.02Zm0-1.68h-3.22v-0.97h3.22v0.97Zm5.24,6.21c0-.1-0.02-0.12-0.11-0.12s-0.54.03-1.87,0.03h-1.52a7.806,7.806,0,0,0,.14-1.16h1.15c1.3,0,1.72.03,1.8,0.03,0.1,0,.11-0.02.11-0.11v-0.49c0-.1-0.01-0.12-0.11-0.12-0.08,0-.5.03-1.78,0.03,0.19-.28.31-0.52,0.42-0.7a0.953,0.953,0,0,1,.23-0.29,0.234,0.234,0,0,0,.1-0.16,0.19,0.19,0,0,0-.16-0.15,6.3,6.3,0,0,0-.68-0.2,3.974,3.974,0,0,1-.2.58c-0.14.28-.3,0.58-0.48,0.92h-1.48a8.16,8.16,0,0,0-.84-1.36c-0.07-.08-0.1-0.07-0.24-0.01l-0.32.14c-0.14.05-.17,0.08-0.1,0.18a6.916,6.916,0,0,1,.66,1.05c-1.24,0-1.66-.03-1.73-0.03-0.09,0-.11.02-0.11,0.12v0.49c0,0.09.02,0.11,0.11,0.11,0.07,0,.51-0.03,1.81-0.03h1.05a6.348,6.348,0,0,1-.11,1.16h-1.19c-1.36,0-1.81-.03-1.88-0.03-0.1,0-.11.02-0.11,0.12v0.5c0,0.1.01,0.11,0.11,0.11,0.07,0,.52-0.03,1.88-0.03h0.98c-0.06.13-.11,0.26-0.18,0.38-0.48.84-1.43,1.43-3.18,1.88a1.939,1.939,0,0,1,.42.46c0.14,0.21.12,0.21,0.38,0.13a4.776,4.776,0,0,0,3.02-2.15l0.21-.43a5.931,5.931,0,0,0,3,2.13c0.25,0.1.27,0.08,0.36-.14a2.057,2.057,0,0,1,.31-0.5,5.306,5.306,0,0,1-3.09-1.76h1.24c1.33,0,1.78.03,1.87,0.03s0.11-.01.11-0.11v-0.5Zm8.84-3.13a2.353,2.353,0,0,1,.09-0.91,0.4,0.4,0,0,0,.07-0.19,0.186,0.186,0,0,0-.2-0.14,6,6,0,0,0-.94-0.12,7.066,7.066,0,0,1,.09,1.28v5.46a1.2,1.2,0,0,0,.61,1.28,4.868,4.868,0,0,0,2.08.26,4.081,4.081,0,0,0,2.45-.49c0.49-.32.7-0.95,0.74-2.62,0.01-.25.01-0.25-0.24-0.33a2.987,2.987,0,0,1-.67-0.31c0.01,1.89-.13,2.28-0.52,2.56a2.938,2.938,0,0,1-1.72.31,4.54,4.54,0,0,1-1.5-.15,0.743,0.743,0,0,1-.34-0.77v-5.12Zm5.13,0.07c-0.14.06-.15,0.14-0.1,0.23a15.424,15.424,0,0,1,1.88,4.18c0.03,0.1.06,0.09,0.27-.01l0.46-.22c0.18-.09.19-0.13,0.15-0.24a17.546,17.546,0,0,0-1.92-4.09c-0.07-.1-0.11-0.1-0.26-0.04Zm-5.7-4.47c-0.1.17-.1,0.2,0,0.24a14.588,14.588,0,0,1,3.66,1.99c0.09,0.07.11,0.06,0.23-.14l0.26-.45c0.09-.15.09-0.18,0.01-0.24a16.616,16.616,0,0,0-3.7-1.89c-0.1-.04-0.11-0.02-0.21.13Zm-2.33,4.51c-0.22-.05-0.23-0.07-0.25.05a12.358,12.358,0,0,1-1.48,4.38c-0.04.08-.04,0.14,0.18,0.24l0.45,0.2c0.15,0.07.21,0.05,0.26-.05a15.149,15.149,0,0,0,1.47-4.55c0.02-.1,0-0.13-0.18-0.17Zm24.41-5.86c-2.65,2.03-3.67,4.09-3.67,6.82s1.02,4.79,3.67,6.82l0.35-.41a8.171,8.171,0,0,1,0-12.83Zm12.12,8.75c0.89,0.01,1.21.03,1.29,0.03,0.1,0,.12-0.02.12-0.11s-0.03-.55-0.03-1.74v-3.91c0-1.18.03-1.65,0.03-1.72,0-.1-0.02-0.11-0.12-0.11-0.08,0-.44.02-1.55,0.02h-1.84c-1.1,0-1.45-.02-1.54-0.02s-0.11.01-.11,0.11c0,0.07.03,0.54,0.03,1.72v3.91c0,1.19-.03,1.65-0.03,1.74s0.01,0.11.11,0.11c0.07,0,.32-0.02,1.04-0.03a3.857,3.857,0,0,1-3.08,3.81,1.17,1.17,0,0,1,.47.43,0.264,0.264,0,0,0,.2.17,1.027,1.027,0,0,0,.24-0.08,4.663,4.663,0,0,0,2.98-4.33h1.01v3.25a0.783,0.783,0,0,0,.41.84,3,3,0,0,0,1.09.13,2.031,2.031,0,0,0,1.22-.27,1.973,1.973,0,0,0,.53-1.5c0.01-.22,0-0.24-0.17-0.31a1.74,1.74,0,0,1-.56-0.38c-0.04,1.14-.15,1.42-0.31,1.55a0.953,0.953,0,0,1-.65.15,1.527,1.527,0,0,1-.58-0.06c-0.17-.05-0.2-0.14-0.2-0.47v-2.93Zm0.59-.71h-3.53v-1.67h3.53v1.67Zm0-4.57h-3.53v-1.53h3.53v1.53Zm0,2.21h-3.53v-1.52h3.53v1.52Zm-4.82-1.79c0-.1-0.01-0.11-0.11-0.11-0.07,0-.47.03-1.72,0.03h-1.09c0.15-.44.29-0.9,0.42-1.42h0.5c1.09,0,1.42.03,1.5,0.03,0.1,0,.11-0.02.11-0.11v-0.48c0-.1-0.01-0.11-0.11-0.11-0.08,0-.41.03-1.5,0.03h-2.14l0.12-.24a1.839,1.839,0,0,1,.34-0.52,0.3,0.3,0,0,0,.13-0.18,0.164,0.164,0,0,0-.13-0.17c-0.24-.08-0.45-0.14-0.73-0.21a3.823,3.823,0,0,1-.32.91,7.009,7.009,0,0,1-1.34,1.82,1.436,1.436,0,0,1,.43.21,0.468,0.468,0,0,0,.21.13,0.307,0.307,0,0,0,.18-0.16,7,7,0,0,0,.72-0.95h1.24a12.05,12.05,0,0,1-.4,1.42h-0.73c-1.23,0-1.64-.03-1.73-0.03s-0.09.01-.09,0.11v0.5c0,0.1.01,0.12,0.09,0.12s0.5-.03,1.73-0.03h0.46a7.317,7.317,0,0,1-2.66,3.07,1.374,1.374,0,0,1,.32.42,0.276,0.276,0,0,0,.14.18,0.41,0.41,0,0,0,.2-0.13,9.068,9.068,0,0,0,.85-0.77v4.26c0,0.94-.03,1.2-0.03,1.29s0.02,0.1.12,0.1h0.51c0.12,0,.13-0.03.13-0.13v-0.83h2.4c1.07,0,1.38.03,1.45,0.03,0.1,0,.11-0.01.11-0.11v-0.43c0-.1-0.01-0.12-0.11-0.12-0.07,0-.38.03-1.45,0.03h-0.12v-1.22h0.09c1.03,0,1.36.03,1.43,0.03s0.09-.01.09-0.11v-0.44c0-.09-0.01-0.11-0.09-0.11s-0.4.03-1.43,0.03h-0.09v-1.12h0.1c1.05,0,1.36.03,1.43,0.03,0.1,0,.11-0.02.11-0.11v-0.44c0-.1-0.01-0.11-0.11-0.11-0.07,0-.38.03-1.43,0.03h-0.1v-1.12h0.47c0.96,0,1.23.02,1.3,0.02,0.1,0,.11-0.01.11-0.11v-0.43c0-.1-0.01-0.11-0.11-0.11-0.07,0-.34.02-1.3,0.02h-0.4a4.935,4.935,0,0,0,.3-0.57,0.585,0.585,0,0,1,.15-0.21,0.143,0.143,0,0,0-.05-0.28,4.376,4.376,0,0,0-.68-0.15,2.406,2.406,0,0,1-.18.7,4.666,4.666,0,0,1-.25.51h-1.37a8.172,8.172,0,0,0,.92-1.59h1.36c1.25,0,1.65.03,1.72,0.03,0.1,0,.11-0.02.11-0.12v-0.5Zm-2.8,7.45h-1.58v-1.22h1.58V4867Zm0-3.54h-1.58v-1.12h1.58v1.12Zm0,1.72h-1.58v-1.12h1.58v1.12Zm15.04-2.68c1.4-1.42,2.34-2.4,3.59-3.72a1.427,1.427,0,0,1,.65-0.49,0.3,0.3,0,0,0,.21-0.27,0.38,0.38,0,0,0-.09-0.24,3.875,3.875,0,0,0-.61-0.58,0.4,0.4,0,0,0-.25-0.12,0.439,0.439,0,0,0-.19.1,1.44,1.44,0,0,1-.44.13c-1.23.24-2.38,0.39-3.49,0.5a5.648,5.648,0,0,1-1.23-.01,3.982,3.982,0,0,0,.34.96,0.227,0.227,0,0,0,.22.17,0.671,0.671,0,0,0,.27-0.07,2.067,2.067,0,0,1,.49-0.12c1.24-.24,2.34-0.45,3.5-0.63-1.08,1.27-1.92,2.17-2.73,3.05a37.709,37.709,0,0,1-3.17,3.12c-0.1.09-.11,0.14-0.05,0.21a5.472,5.472,0,0,0,.51.56c0.1,0.1.17,0.09,0.28-.02a13.3,13.3,0,0,1,1.24-1.15,6.442,6.442,0,0,1,3.85-1.59,2.269,2.269,0,0,1,2.42,2.3,2.585,2.585,0,0,1-2.04,2.55,2.371,2.371,0,0,0-2.38-2,1.525,1.525,0,0,0-1.64,1.43c0,0.89.75,1.65,2.43,1.65,2.97,0,4.63-1.51,4.63-3.6a2.981,2.981,0,0,0-3.27-3.07,5.459,5.459,0,0,0-3.01,1Zm2.42,4.84a5.665,5.665,0,0,1-.91.07c-0.94,0-1.44-.39-1.44-0.86a0.746,0.746,0,0,1,.85-0.66A1.629,1.629,0,0,1,1104.33,4867.34Zm7.03-11.28a8.171,8.171,0,0,1,0,12.83l0.35,0.41c2.64-2.03,3.67-4.09,3.67-6.82s-1.03-4.79-3.67-6.82Z" transform="translate(-1027.31 -4829.53)"/>
    <circle id="mark-4" data-name="mark" class="cls-5" cx="117.69" cy="46.47" r="3"/>
  </g>
</svg>
