<svg id="co_concept_img.svg" xmlns="http://www.w3.org/2000/svg" width="320" height="545.38" viewBox="0 0 320 545.38">
  <defs>
    <style>
      .cls-1 {
        fill: #323232;
      }

      .cls-1, .cls-2, .cls-3, .cls-4, .cls-5 {
        fill-rule: evenodd;
      }

      .cls-2 {
        fill: #3c3c3c;
      }

      .cls-3 {
        fill: #464646;
      }

      .cls-4 {
        fill: #282828;
      }

      .cls-5 {
        fill: #b4b4b4;
      }
    </style>
  </defs>
  <g id="グループ_2" data-name="グループ 2">
    <path id="三角形_3" data-name="三角形 3" class="cls-1" d="M1180,3407.99L1020,2920h320Z" transform="translate(-1020 -2910)"/>
    <path id="三角形_3_のコピー" data-name="三角形 3 のコピー" class="cls-2" d="M1180,3407.99L1058.46,2920h243.08Z" transform="translate(-1020 -2910)"/>
    <path id="三角形_3_のコピー_2" data-name="三角形 3 のコピー 2" class="cls-3" d="M1180,3407.99L1096.92,2920h166.16Z" transform="translate(-1020 -2910)"/>
  </g>
  <g id="design">
    <path id="marker_のコピー" data-name="marker のコピー" class="cls-4" d="M1048,2910h264v21.99H1048V2910Z" transform="translate(-1020 -2910)"/>
    <path id="DESIGN_MANAGEMENT" data-name="DESIGN MANAGEMENT" class="cls-5" d="M1055.6,2912.75c-0.64,0-1.19.01-1.65,0.01s-0.91-.01-1.37-0.04l-1.42-.06a0.465,0.465,0,0,0-.08.34,0.528,0.528,0,0,0,.08.33c0.1,0,.27.02,0.53,0.04a5.57,5.57,0,0,1,.73.11,0.414,0.414,0,0,1,.37.21,2.605,2.605,0,0,1,.11.76c0.01,0.31.01,0.64,0.01,1v10c0,0.35,0,.68-0.01.98a2.48,2.48,0,0,1-.11.75,0.459,0.459,0,0,1-.37.21,4.285,4.285,0,0,1-.73.14c-0.26.02-.43,0.03-0.53,0.03a0.585,0.585,0,0,0-.08.34,0.425,0.425,0,0,0,.08.33h5.86a11.2,11.2,0,0,0,4.13-.66,6.393,6.393,0,0,0,4.01-4.33,10.113,10.113,0,0,0,.41-2.9,7.736,7.736,0,0,0-.98-3.9,7.008,7.008,0,0,0-2.84-2.71,9.219,9.219,0,0,0-4.42-1C1056.82,2912.73,1056.24,2912.74,1055.6,2912.75Zm-0.62,2.6v-0.14c0-.29,0-0.57.01-0.83a3.155,3.155,0,0,1,.08-0.64,0.519,0.519,0,0,1,.39-0.17q0.33-.045.72-0.06c0.26,0,.43-0.01.53-0.01a7.388,7.388,0,0,1,2.44.4,5.739,5.739,0,0,1,2.09,1.27,6.14,6.14,0,0,1,1.46,2.27,9.32,9.32,0,0,1,.54,3.38,7.38,7.38,0,0,1-.86,3.75,5.573,5.573,0,0,1-2.27,2.2,6.7,6.7,0,0,1-3.09.72,9.172,9.172,0,0,1-1.21-.07,1.081,1.081,0,0,1-.71-0.27,1.306,1.306,0,0,1-.09-0.42q-0.03-.345-0.03-0.72v-10.66Zm14.24-2.63-1.41-.06a0.422,0.422,0,0,0-.09.34,0.593,0.593,0,0,0,.09.33c0.09,0,.27.02,0.53,0.04a5.57,5.57,0,0,1,.73.11,0.43,0.43,0,0,1,.37.21,3,3,0,0,1,.11.76c0.01,0.31.01,0.64,0.01,1v10c0,0.35,0,.68-0.01.98a2.842,2.842,0,0,1-.11.75,0.479,0.479,0,0,1-.37.21,4.285,4.285,0,0,1-.73.14c-0.26.02-.44,0.03-0.53,0.03a0.663,0.663,0,0,0-.09.34,0.387,0.387,0,0,0,.09.33c0.46,0,.91-0.01,1.34-0.03s0.92-.04,1.47-0.04c1.57,0,2.98.02,4.23,0.05s2.5,0.05,3.77.05a10.351,10.351,0,0,1,.51-1.85c0.27-.72.51-1.4,0.74-2.04a0.831,0.831,0,0,0-.58-0.14,0.319,0.319,0,0,0-.34.14,15.018,15.018,0,0,1-.6,1.38,2.265,2.265,0,0,1-.86.97,3.765,3.765,0,0,1-1.3.48,8.348,8.348,0,0,1-1.66.17h-1.13a9.726,9.726,0,0,1-1.09-.04,1.219,1.219,0,0,1-.59-0.2,1.077,1.077,0,0,1-.11-0.6c0-.35-0.01-0.64-0.01-0.86v-4.61c0-.08.1-0.13,0.29-0.16a6.431,6.431,0,0,1,.69-0.04c0.26-.01.5-0.02,0.7-0.02,0.31,0,.63.01,0.98,0.02s0.66,0.02.95,0.04a1.165,1.165,0,0,1,.55.14,0.494,0.494,0,0,1,.2.18,1.348,1.348,0,0,1,.19.4,8.41,8.41,0,0,1,.28.98,0.351,0.351,0,0,0,.36.16,0.619,0.619,0,0,0,.39-0.09v-4.42a0.574,0.574,0,0,0-.41-0.12,0.286,0.286,0,0,0-.34.17c-0.1.38-.18,0.69-0.26,0.91a1.144,1.144,0,0,1-.34.51,1.33,1.33,0,0,1-.68.21c-0.32.03-.75,0.05-1.31,0.05h-1.23c-0.26,0-.49-0.01-0.7-0.02s-0.31-.06-0.31-0.12v-4.63c0-.28.01-0.54,0.01-0.8a2.477,2.477,0,0,1,.09-0.62,0.46,0.46,0,0,1,.38-0.17q0.345-.045.72-0.06c0.26-.01.44-0.01,0.53-0.01h2.02a3.383,3.383,0,0,1,1.63.38,2.757,2.757,0,0,1,1.08,1.8c0.02,0.12.13,0.17,0.34,0.17a0.574,0.574,0,0,0,.41-0.12q-0.165-.8-0.36-1.53a13.706,13.706,0,0,1-.31-1.64c-1.27,0-2.57.03-3.9,0.08s-2.54.07-3.65,0.07C1070.14,2912.76,1069.69,2912.75,1069.22,2912.72Zm15.19,0.35a4.372,4.372,0,0,0-1.72,1.43,3.624,3.624,0,0,0-.66,2.17,3.273,3.273,0,0,0,.65,2.04,6.7,6.7,0,0,0,1.59,1.5c0.64,0.42,1.25.81,1.84,1.16,0.55,0.31,1.05.59,1.53,0.87a4.2,4.2,0,0,1,1.15.95,2.373,2.373,0,0,1,.44,1.54,2.7,2.7,0,0,1-.84,2.12,2.816,2.816,0,0,1-1.97.76,3.4,3.4,0,0,1-1.76-.42,3.729,3.729,0,0,1-1.15-1.04,5.372,5.372,0,0,1-.68-1.22,7.211,7.211,0,0,1-.3-0.92,0.251,0.251,0,0,0-.26-0.22,0.684,0.684,0,0,0-.33.09,1.052,1.052,0,0,0-.27.2q0,0.15.06,0.75c0.04,0.4.09,0.86,0.17,1.39s0.15,1.02.25,1.49c0.57,0.11,1.23.25,1.96,0.43a9.87,9.87,0,0,0,2.27.26,5.336,5.336,0,0,0,2.36-.54,4.744,4.744,0,0,0,1.83-1.51,3.736,3.736,0,0,0,.71-2.24,2.965,2.965,0,0,0-.41-1.55,4.509,4.509,0,0,0-1.06-1.21,13.684,13.684,0,0,0-1.34-.96l-1.28-.79c-0.51-.34-1.02-0.67-1.52-0.99a4.985,4.985,0,0,1-1.25-1.1,2.444,2.444,0,0,1-.49-1.56,3.189,3.189,0,0,1,.24-1.18,2.252,2.252,0,0,1,.79-1,2.439,2.439,0,0,1,1.51-.41,2.531,2.531,0,0,1,1.34.35,3.629,3.629,0,0,1,1,.87,4.9,4.9,0,0,1,.67,1.11,4.039,4.039,0,0,1,.28,1,0.362,0.362,0,0,0,.27.1,1.1,1.1,0,0,0,.31-0.06,0.178,0.178,0,0,0,.17-0.18c-0.02-.32-0.05-0.8-0.11-1.45s-0.13-1.28-.23-1.89c-0.51-.12-0.94-0.24-1.28-0.33a10.351,10.351,0,0,0-1.01-.23,7.208,7.208,0,0,0-1.24-.08A5.05,5.05,0,0,0,1084.41,2913.07Zm10.35-.35-1.42-.06a0.465,0.465,0,0,0-.08.34,0.605,0.605,0,0,0,.08.33c0.1,0,.27.02,0.53,0.04a5.325,5.325,0,0,1,.73.11,0.436,0.436,0,0,1,.38.21,2.641,2.641,0,0,1,.1.76c0.01,0.31.02,0.64,0.02,1v10c0,0.35-.01.68-0.02,0.98a2.517,2.517,0,0,1-.1.75,0.485,0.485,0,0,1-.38.21,4.1,4.1,0,0,1-.73.14c-0.26.02-.43,0.03-0.53,0.03a0.675,0.675,0,0,0-.08.34,0.425,0.425,0,0,0,.08.33c0.48-.03.96-0.06,1.42-0.08s0.92-.04,1.37-0.04,0.92,0.01,1.36.04,0.9,0.05,1.38.08a0.425,0.425,0,0,0,.08-0.33,0.675,0.675,0,0,0-.08-0.34c-0.1,0-.27-0.01-0.53-0.03a3.829,3.829,0,0,1-.72-0.14,0.587,0.587,0,0,1-.39-0.21,3.124,3.124,0,0,1-.08-0.61c-0.01-.25-0.01-0.53-0.01-0.83v-10.58c0-.31,0-0.59.01-0.84a3.142,3.142,0,0,1,.08-0.63,0.516,0.516,0,0,1,.39-0.21,4.954,4.954,0,0,1,.72-0.11c0.26-.02.43-0.04,0.53-0.04a0.605,0.605,0,0,0,.08-0.33,0.465,0.465,0,0,0-.08-0.34l-1.38.06c-0.44.03-.9,0.04-1.36,0.04S1095.22,2912.75,1094.76,2912.72Zm17.66,13.71a1.248,1.248,0,0,1-.02.21,0.169,0.169,0,0,1-.13.13,10.1,10.1,0,0,1-1.24.52,5.01,5.01,0,0,1-1.62.25,5.4,5.4,0,0,1-2.68-.64,5.6,5.6,0,0,1-1.89-1.7,7.627,7.627,0,0,1-1.13-2.39,9.757,9.757,0,0,1-.37-2.69,7.912,7.912,0,0,1,.39-2.43,7.533,7.533,0,0,1,1.16-2.21,5.7,5.7,0,0,1,1.81-1.58,4.767,4.767,0,0,1,2.35-.59,5.6,5.6,0,0,1,2.36.42,3.708,3.708,0,0,1,2,2.17,6.62,6.62,0,0,1,.23.82,0.543,0.543,0,0,0,.29.07,0.653,0.653,0,0,0,.36-0.1,0.182,0.182,0,0,0,.14-0.19,5.388,5.388,0,0,0-.08-0.63q-0.09-.54-0.18-1.2c-0.06-.44-0.15-0.99-0.26-1.65a18,18,0,0,0-2.56-.38c-0.84-.07-1.65-0.1-2.42-0.1a7.756,7.756,0,0,0-3.18.64,7.446,7.446,0,0,0-2.51,1.76,8.144,8.144,0,0,0-2.23,5.69,7.618,7.618,0,0,0,.56,2.94,7.514,7.514,0,0,0,1.61,2.44,7.4,7.4,0,0,0,2.49,1.68,7.964,7.964,0,0,0,3.17.61,13.864,13.864,0,0,0,2.56-.19,7.1,7.1,0,0,0,1.65-.48c0.44-.19.83-0.37,1.17-0.55a1.8,1.8,0,0,0,.38-0.24,0.219,0.219,0,0,0,.07-0.17,0.733,0.733,0,0,0-.12-0.38,1.115,1.115,0,0,1-.12-0.58v-1.65c0-.35.01-0.68,0.02-0.99a2.494,2.494,0,0,1,.1-0.74,0.545,0.545,0,0,1,.36-0.23,6.38,6.38,0,0,1,.68-0.12c0.24-.02.41-0.03,0.5-0.03a0.663,0.663,0,0,0,.09-0.34,0.422,0.422,0,0,0-.09-0.33c-0.48.01-.92,0.04-1.33,0.07s-0.85.05-1.31,0.05-0.9-.02-1.35-0.05-0.91-.06-1.39-0.07a0.425,0.425,0,0,0-.08.33,0.585,0.585,0,0,0,.08.34c0.1,0,.27.01,0.52,0.03s0.49,0.07.72,0.12a0.457,0.457,0,0,1,.37.23,2.1,2.1,0,0,1,.08.61c0.01,0.25.02,0.53,0.02,0.83v2.66Zm6.63-13.78c-0.34-.02-0.78-0.04-1.33-0.06a1.109,1.109,0,0,0-.07.29,0.735,0.735,0,0,0,.07.38c0.1,0,.28.02,0.56,0.05a4.361,4.361,0,0,1,.8.16,0.708,0.708,0,0,1,.47.25,1.3,1.3,0,0,1,.2.6,8.472,8.472,0,0,1,.04,1.01v10.17a7.989,7.989,0,0,1-.04.99,1.3,1.3,0,0,1-.2.59,0.708,0.708,0,0,1-.47.25,5.419,5.419,0,0,1-.8.17,4.832,4.832,0,0,1-.56.06,0.772,0.772,0,0,0-.07.39,1.126,1.126,0,0,0,.07.28c0.37-.01.67-0.03,0.91-0.05s0.47-.03.72-0.04,0.54-.03.9-0.03c0.51,0,.97.01,1.37,0.04s0.83,0.05,1.29.08a0.763,0.763,0,0,0,.05-0.33,0.551,0.551,0,0,0-.09-0.34,3.334,3.334,0,0,1-.59-0.07,6.887,6.887,0,0,1-.75-0.18,0.776,0.776,0,0,1-.42-0.23,1.506,1.506,0,0,1-.2-0.63,8.44,8.44,0,0,1-.04-0.98v-10.65l10.24,12.91a1.67,1.67,0,0,0,.49.43,0.854,0.854,0,0,0,.32.12c0.03,0,.09-0.01.17-0.02a0.162,0.162,0,0,0,.14-0.12c-0.01-.42-0.02-0.78-0.03-1.09s-0.01-.64-0.01-0.98v-10.7c0-.44,0-0.78.02-1a1.289,1.289,0,0,1,.19-0.6,0.942,0.942,0,0,1,.48-0.26,5.271,5.271,0,0,1,.81-0.15c0.28-.03.47-0.05,0.56-0.05a0.589,0.589,0,0,0,.07-0.38,0.813,0.813,0,0,0-.07-0.29c-0.35.01-.65,0.03-0.9,0.05l-0.72.03c-0.23.01-.53,0.01-0.9,0.01q-0.765,0-1.38-.03c-0.41-.03-0.85-0.05-1.31-0.06a1.579,1.579,0,0,0-.04.32,0.522,0.522,0,0,0,.09.35,4.429,4.429,0,0,1,.59.06,5.859,5.859,0,0,1,.75.17,0.817,0.817,0,0,1,.44.23,1.281,1.281,0,0,1,.21.64q0.03,0.36.03,0.99v8.87c-0.52-.72-1.13-1.52-1.83-2.41s-1.43-1.78-2.19-2.7-1.48-1.79-2.18-2.65-1.32-1.62-1.85-2.29-0.91-1.19-1.16-1.56a6.488,6.488,0,0,1-.74.03h-1.03C1119.74,2912.69,1119.38,2912.67,1119.05,2912.65Zm25.87,0.1c-0.23-.01-0.45-0.02-0.67-0.04s-0.53-.03-0.89-0.05a0.924,0.924,0,0,0-.03.35,0.645,0.645,0,0,0,.03.32,3.945,3.945,0,0,1,.51.06,5.4,5.4,0,0,1,.72.17,0.565,0.565,0,0,1,.4.25,1.231,1.231,0,0,1,.08.44c0.01,0.16.02,0.32,0.02,0.5q0,0.165-.03,1.14-0.015.975-.06,2.52c-0.02,1.03-.05,2.19-0.09,3.49s-0.09,2.65-.14,4.05a5.149,5.149,0,0,1-.07.66,1.243,1.243,0,0,1-.21.52,0.856,0.856,0,0,1-.51.24,7.564,7.564,0,0,1-.83.14,4.293,4.293,0,0,1-.56.05,0.677,0.677,0,0,0-.05.39,1.051,1.051,0,0,0,.05.28c0.54-.03,1-0.06,1.37-0.08s0.82-.04,1.37-0.04c0.51,0,.93.01,1.27,0.04s0.74,0.05,1.2.08a1.21,1.21,0,0,0,.05-0.31,0.513,0.513,0,0,0-.07-0.36c-0.07,0-.24-0.01-0.53-0.03a6.027,6.027,0,0,1-.85-0.14,0.694,0.694,0,0,1-.5-0.26,2.4,2.4,0,0,1-.07-0.35,2.422,2.422,0,0,1-.02-0.37c0-.05,0-0.32.02-0.83s0.04-1.17.06-1.99,0.05-1.75.07-2.77,0.05-2.08.09-3.17,0.05-2.14.07-3.16l5.72,13.67a0.076,0.076,0,0,1,.04.02,0.238,0.238,0,0,0,.17.03,0.613,0.613,0,0,0,.33-0.28,6.339,6.339,0,0,0,.35-0.54c0.11-.19.18-0.32,0.21-0.38q0.675-1.71,1.26-3.18c0.4-.98.78-1.95,1.17-2.9s0.78-1.94,1.19-2.97,0.85-2.13,1.33-3.33a0.277,0.277,0,0,1,.12-0.17,0.2,0.2,0,0,1,.17.19,1.6,1.6,0,0,1,.05.27q0.06,1.89.12,3.54,0.045,1.635.09,3.21c0.03,1.05.07,2.14,0.1,3.28,0,0.17.01,0.4,0.02,0.68s0.03,0.51.03,0.68a4.542,4.542,0,0,1-.05.58,0.581,0.581,0,0,1-.17.41,1.884,1.884,0,0,1-.46.13c-0.2.04-.41,0.07-0.62,0.1s-0.36.03-.46,0.03a0.783,0.783,0,0,0-.04.39,1.286,1.286,0,0,0,.04.28c0.55-.03,1.02-0.06,1.42-0.08s0.87-.04,1.42-0.04c0.51,0,.99.01,1.43,0.04s0.89,0.05,1.35.08a0.816,0.816,0,0,0,.04-0.27,0.738,0.738,0,0,0-.08-0.4c-0.07,0-.22-0.01-0.47-0.03s-0.49-.07-0.73-0.12a0.6,0.6,0,0,1-.44-0.26,3.312,3.312,0,0,1-.21-1c-0.04-.4-0.06-0.83-0.08-1.28-0.01-.76-0.03-1.64-0.06-2.63s-0.04-2-.07-3.02-0.04-1.93-.06-2.74-0.03-1.43-.05-1.83a4.4,4.4,0,0,1,.03-0.48,1.54,1.54,0,0,1,.09-0.43,0.722,0.722,0,0,1,.41-0.21,4.064,4.064,0,0,1,.71-0.15c0.25-.03.43-0.05,0.54-0.05a4.217,4.217,0,0,0-.07-0.67c-0.29.02-.69,0.03-1.21,0.05s-0.99.02-1.41,0.02c-0.48,0-1.1-.02-1.85-0.07-0.22.64-.41,1.18-0.57,1.61s-0.32.83-.46,1.2c-0.45,1.15-.86,2.2-1.24,3.15s-0.75,1.91-1.12,2.86-0.78,2.02-1.24,3.2a0.106,0.106,0,0,1-.1.1,0.11,0.11,0,0,1-.1-0.05c-0.33-.83-0.7-1.73-1.1-2.7s-0.81-1.94-1.23-2.91-0.8-1.9-1.16-2.77-0.67-1.63-.94-2.27-0.44-1.11-.54-1.42q-0.39.03-.84,0.06c-0.3.03-.66,0.04-1.06,0.04C1145.43,2912.76,1145.14,2912.75,1144.92,2912.75Zm20.04,13.34a4.753,4.753,0,0,1-.61,1.02,1.059,1.059,0,0,1-.68.34,3.6,3.6,0,0,1-.74.11,1.181,1.181,0,0,0-.04.37,0.574,0.574,0,0,0,.04.3c0.37-.01.68-0.03,0.92-0.05s0.48-.03.72-0.04,0.53-.03.89-0.03,0.63,0.01.85,0.03,0.43,0.03.65,0.04,0.47,0.04.78,0.05a0.82,0.82,0,0,0,.02-0.37,0.565,0.565,0,0,0-.07-0.3,3.757,3.757,0,0,1-.49-0.05,2.912,2.912,0,0,1-.77-0.2,0.472,0.472,0,0,1-.37-0.42,4.7,4.7,0,0,1,.06-0.65,5.724,5.724,0,0,1,.27-1.01q0.195-.57.45-1.23c0.17-.44.37-0.98,0.61-1.62a0.313,0.313,0,0,1,.12-0.07c0.53-.03.96-0.05,1.3-0.06s0.74-.01,1.22-0.01h1.44c0.36,0,.65,0,0.89.02a0.251,0.251,0,0,1,.15.1c0.21,0.52.39,0.99,0.55,1.4s0.32,0.83.48,1.26,0.29,0.82.4,1.16a3.164,3.164,0,0,1,.15.73,0.5,0.5,0,0,1-.09.34,1.38,1.38,0,0,1-.63.23,4.787,4.787,0,0,1-.67.08,0.568,0.568,0,0,0-.11.34,0.387,0.387,0,0,0,.09.33c0.54-.03.99-0.06,1.35-0.08s0.82-.04,1.36-0.04c0.51,0,.95.01,1.32,0.04s0.79,0.05,1.25.08a1.19,1.19,0,0,0,.05-0.3,0.572,0.572,0,0,0-.07-0.37,3.041,3.041,0,0,1-.45-0.08,2.86,2.86,0,0,1-.69-0.28,1.028,1.028,0,0,1-.47-0.45c-0.05-.1-0.25-0.61-0.6-1.54l-4.78-12.52a0.108,0.108,0,0,1-.06-0.04,0.092,0.092,0,0,0-.06-0.01,0.989,0.989,0,0,0-.5.24,1.5,1.5,0,0,0-.42.43c-0.24.61-.51,1.31-0.83,2.11s-0.63,1.64-.97,2.51-0.67,1.72-1,2.54-0.62,1.57-.87,2.24-0.54,1.4-.84,2.19C1165.3,2925.31,1165.13,2925.71,1164.96,2926.09Zm7.15-4.96a0.113,0.113,0,0,1-.07.12c-0.35.02-.68,0.03-0.97,0.05s-0.63.02-1,.02c-0.26,0-.6,0-1.02-0.01s-0.79-.02-1.09-0.03a0.112,0.112,0,0,1-.05-0.1l2.14-5.71Zm8.1-8.48q-0.51-.03-1.32-0.06a0.784,0.784,0,0,0-.08.29,0.656,0.656,0,0,0,.08.38c0.09,0,.28.02,0.55,0.05a4.361,4.361,0,0,1,.8.16,0.708,0.708,0,0,1,.47.25,1.429,1.429,0,0,1,.21.6c0.02,0.22.03,0.56,0.03,1.01v10.17q0,0.675-.03.99a1.435,1.435,0,0,1-.21.59,0.708,0.708,0,0,1-.47.25,5.419,5.419,0,0,1-.8.17,4.733,4.733,0,0,1-.55.06,0.688,0.688,0,0,0-.08.39,0.784,0.784,0,0,0,.08.28c0.36-.01.66-0.03,0.9-0.05s0.47-.03.72-0.04,0.55-.03.9-0.03c0.51,0,.97.01,1.37,0.04s0.83,0.05,1.29.08a0.763,0.763,0,0,0,.05-0.33,0.551,0.551,0,0,0-.09-0.34,3.334,3.334,0,0,1-.59-0.07,7.5,7.5,0,0,1-.75-0.18,0.776,0.776,0,0,1-.42-0.23,1.506,1.506,0,0,1-.2-0.63,8.44,8.44,0,0,1-.04-0.98v-10.65l10.24,12.91a1.67,1.67,0,0,0,.49.43,0.854,0.854,0,0,0,.32.12c0.04,0,.09-0.01.17-0.02a0.191,0.191,0,0,0,.15-0.12c-0.02-.42-0.03-0.78-0.04-1.09s-0.01-.64-0.01-0.98v-10.7c0-.44.01-0.78,0.02-1a1.289,1.289,0,0,1,.19-0.6,0.942,0.942,0,0,1,.48-0.26,5.271,5.271,0,0,1,.81-0.15c0.28-.03.47-0.05,0.56-0.05a0.672,0.672,0,0,0,.08-0.38,0.784,0.784,0,0,0-.08-0.29c-0.35.01-.65,0.03-0.9,0.05l-0.72.03c-0.23.01-.53,0.01-0.9,0.01q-0.765,0-1.38-.03c-0.41-.03-0.85-0.05-1.31-0.06a1.579,1.579,0,0,0-.04.32,0.522,0.522,0,0,0,.09.35,4.429,4.429,0,0,1,.59.06,5.859,5.859,0,0,1,.75.17,0.817,0.817,0,0,1,.44.23,1.281,1.281,0,0,1,.21.64q0.03,0.36.03,0.99v8.87c-0.52-.72-1.12-1.52-1.83-2.41s-1.43-1.78-2.19-2.7-1.48-1.79-2.18-2.65-1.32-1.62-1.85-2.29-0.91-1.19-1.15-1.56a6.694,6.694,0,0,1-.75.03h-1.03C1180.9,2912.69,1180.54,2912.67,1180.21,2912.65Zm17.64,13.44a5.2,5.2,0,0,1-.61,1.02,1.062,1.062,0,0,1-.69.34,3.439,3.439,0,0,1-.73.11,1.131,1.131,0,0,0-.05.37,0.535,0.535,0,0,0,.05.3c0.37-.01.67-0.03,0.91-0.05s0.48-.03.72-0.04,0.54-.03.89-0.03,0.64,0.01.86,0.03,0.43,0.03.65,0.04,0.47,0.04.78,0.05a0.82,0.82,0,0,0,.02-0.37,0.69,0.69,0,0,0-.07-0.3,3.607,3.607,0,0,1-.49-0.05,2.816,2.816,0,0,1-.77-0.2,0.485,0.485,0,0,1-.38-0.42,4.7,4.7,0,0,1,.06-0.65,5.882,5.882,0,0,1,.28-1.01q0.2-.57.45-1.23c0.16-.44.37-0.98,0.61-1.62a0.256,0.256,0,0,1,.12-0.07c0.53-.03.96-0.05,1.3-0.06s0.74-.01,1.22-0.01h1.44c0.35,0,.65,0,0.89.02a0.238,0.238,0,0,1,.14.1c0.21,0.52.4,0.99,0.56,1.4s0.32,0.83.48,1.26,0.29,0.82.39,1.16a2.835,2.835,0,0,1,.16.73,0.446,0.446,0,0,1-.1.34,1.379,1.379,0,0,1-.62.23,4.958,4.958,0,0,1-.67.08,0.509,0.509,0,0,0-.11.34,0.425,0.425,0,0,0,.08.33c0.55-.03,1-0.06,1.36-0.08s0.81-.04,1.36-0.04c0.51,0,.95.01,1.32,0.04s0.78,0.05,1.25.08a2.069,2.069,0,0,0,.05-0.3,0.513,0.513,0,0,0-.08-0.37,3.244,3.244,0,0,1-.44-0.08,2.925,2.925,0,0,1-.7-0.28,1.08,1.08,0,0,1-.47-0.45c-0.04-.1-0.24-0.61-0.6-1.54l-4.78-12.52a0.592,0.592,0,0,1-.06-0.04,0.092,0.092,0,0,0-.06-0.01,1,1,0,0,0-.49.24,1.271,1.271,0,0,0-.42.43c-0.24.61-.52,1.31-0.83,2.11s-0.64,1.64-.97,2.51-0.67,1.72-1,2.54-0.62,1.57-.88,2.24-0.53,1.4-.84,2.19C1198.18,2925.31,1198.02,2925.71,1197.85,2926.09Zm7.15-4.96c-0.02.08-.04,0.12-0.07,0.12-0.36.02-.68,0.03-0.98,0.05s-0.63.02-.99,0.02c-0.26,0-.6,0-1.02-0.01s-0.79-.02-1.1-0.03a0.2,0.2,0,0,1-.05-0.1l2.14-5.71Zm18.35,5.3a1.342,1.342,0,0,1-.01.21,0.186,0.186,0,0,1-.13.13,11.618,11.618,0,0,1-1.24.52,5.01,5.01,0,0,1-1.62.25,5.342,5.342,0,0,1-2.68-.64,5.732,5.732,0,0,1-1.9-1.7,7.855,7.855,0,0,1-1.13-2.39,9.757,9.757,0,0,1-.37-2.69,7.637,7.637,0,0,1,.4-2.43,7.507,7.507,0,0,1,1.15-2.21,5.807,5.807,0,0,1,1.81-1.58,4.805,4.805,0,0,1,2.36-.59,5.554,5.554,0,0,1,2.35.42,3.683,3.683,0,0,1,1.36,1.02,3.872,3.872,0,0,1,.65,1.15c0.12,0.37.19,0.64,0.23,0.82a0.507,0.507,0,0,0,.28.07,0.711,0.711,0,0,0,.37-0.1,0.194,0.194,0,0,0,.14-0.19c0-.06-0.03-0.27-0.08-0.63s-0.12-.76-0.19-1.2-0.15-.99-0.26-1.65a17.79,17.79,0,0,0-2.56-.38c-0.84-.07-1.64-0.1-2.41-0.1a7.689,7.689,0,0,0-3.18.64,7.587,7.587,0,0,0-2.52,1.76,8.264,8.264,0,0,0-2.23,5.69,7.625,7.625,0,0,0,.57,2.94,7.486,7.486,0,0,0,1.6,2.44,7.4,7.4,0,0,0,2.49,1.68,8,8,0,0,0,3.17.61,13.791,13.791,0,0,0,2.56-.19,7.192,7.192,0,0,0,1.66-.48c0.44-.19.83-0.37,1.16-0.55a1.98,1.98,0,0,0,.39-0.24,0.219,0.219,0,0,0,.07-0.17,0.733,0.733,0,0,0-.12-0.38,1.115,1.115,0,0,1-.12-0.58v-1.65c0-.35,0-0.68.01-0.99a2.826,2.826,0,0,1,.11-0.74,0.5,0.5,0,0,1,.36-0.23,6.183,6.183,0,0,1,.67-0.12q0.36-.03.51-0.03a0.8,0.8,0,0,0,.08-0.34,0.425,0.425,0,0,0-.08-0.33c-0.48.01-.93,0.04-1.34,0.07s-0.84.05-1.31,0.05c-0.44,0-.89-0.02-1.34-0.05s-0.91-.06-1.39-0.07a0.387,0.387,0,0,0-.09.33,0.663,0.663,0,0,0,.09.34q0.135,0,.51.03,0.375,0.045.72,0.12a0.481,0.481,0,0,1,.38.23,3.124,3.124,0,0,1,.08.61c0.01,0.25.01,0.53,0.01,0.83v2.66Zm6.82-13.71-1.41-.06a0.422,0.422,0,0,0-.09.34,0.593,0.593,0,0,0,.09.33c0.09,0,.27.02,0.52,0.04a5.725,5.725,0,0,1,.74.11,0.43,0.43,0,0,1,.37.21,3,3,0,0,1,.11.76c0.01,0.31.01,0.64,0.01,1v10c0,0.35,0,.68-0.01.98a2.842,2.842,0,0,1-.11.75,0.479,0.479,0,0,1-.37.21,4.4,4.4,0,0,1-.74.14c-0.25.02-.43,0.03-0.52,0.03a0.663,0.663,0,0,0-.09.34,0.387,0.387,0,0,0,.09.33c0.46,0,.91-0.01,1.34-0.03s0.92-.04,1.47-0.04c1.57,0,2.98.02,4.22,0.05s2.51,0.05,3.78.05a10.351,10.351,0,0,1,.51-1.85c0.27-.72.51-1.4,0.74-2.04a0.831,0.831,0,0,0-.58-0.14,0.311,0.311,0,0,0-.34.14,15.018,15.018,0,0,1-.6,1.38,2.265,2.265,0,0,1-.86.97,3.765,3.765,0,0,1-1.3.48,8.348,8.348,0,0,1-1.66.17h-1.13a9.726,9.726,0,0,1-1.09-.04,1.219,1.219,0,0,1-.59-0.2,1.077,1.077,0,0,1-.11-0.6c0-.35-0.01-0.64-0.01-0.86v-4.61c0-.08.1-0.13,0.29-0.16a6.392,6.392,0,0,1,.68-0.04c0.27-.01.5-0.02,0.71-0.02,0.31,0,.63.01,0.98,0.02s0.66,0.02.95,0.04a1.165,1.165,0,0,1,.55.14,0.494,0.494,0,0,1,.2.18,1.348,1.348,0,0,1,.19.4,8.41,8.41,0,0,1,.28.98,0.351,0.351,0,0,0,.36.16,0.567,0.567,0,0,0,.38-0.09v-4.42a0.547,0.547,0,0,0-.4-0.12,0.286,0.286,0,0,0-.34.17c-0.1.38-.18,0.69-0.26,0.91a1.144,1.144,0,0,1-.34.51,1.338,1.338,0,0,1-.69.21c-0.31.03-.74,0.05-1.3,0.05h-1.23c-0.26,0-.49-0.01-0.7-0.02s-0.31-.06-0.31-0.12v-4.63c0-.28.01-0.54,0.01-0.8a2.477,2.477,0,0,1,.09-0.62,0.46,0.46,0,0,1,.38-0.17q0.345-.045.72-0.06c0.26-.01.44-0.01,0.53-0.01h2.02a3.383,3.383,0,0,1,1.63.38,2.757,2.757,0,0,1,1.08,1.8c0.02,0.12.13,0.17,0.34,0.17a0.574,0.574,0,0,0,.41-0.12q-0.165-.8-0.36-1.53a13.706,13.706,0,0,1-.31-1.64c-1.27,0-2.57.03-3.9,0.08s-2.54.07-3.65,0.07C1231.09,2912.76,1230.64,2912.75,1230.17,2912.72Zm14.25,0.03c-0.23-.01-0.45-0.02-0.67-0.04s-0.52-.03-0.89-0.05a0.924,0.924,0,0,0-.03.35,0.645,0.645,0,0,0,.03.32,3.765,3.765,0,0,1,.51.06,5.4,5.4,0,0,1,.72.17,0.565,0.565,0,0,1,.4.25,1.231,1.231,0,0,1,.08.44c0.01,0.16.02,0.32,0.02,0.5q0,0.165-.03,1.14-0.015.975-.06,2.52c-0.02,1.03-.05,2.19-0.09,3.49s-0.09,2.65-.14,4.05a5.149,5.149,0,0,1-.07.66,1.243,1.243,0,0,1-.21.52,0.856,0.856,0,0,1-.51.24,7.564,7.564,0,0,1-.83.14,4.293,4.293,0,0,1-.56.05,0.677,0.677,0,0,0-.05.39,1.051,1.051,0,0,0,.05.28c0.54-.03,1-0.06,1.37-0.08s0.82-.04,1.37-0.04c0.51,0,.93.01,1.27,0.04s0.74,0.05,1.2.08a1.21,1.21,0,0,0,.05-0.31,0.465,0.465,0,0,0-.07-0.36c-0.07,0-.24-0.01-0.53-0.03a6.027,6.027,0,0,1-.85-0.14,0.694,0.694,0,0,1-.5-0.26,2.4,2.4,0,0,1-.07-0.35c-0.01-.13-0.02-0.26-0.02-0.37,0-.05.01-0.32,0.02-0.83s0.04-1.17.06-1.99,0.05-1.75.07-2.77,0.06-2.08.09-3.17,0.05-2.14.07-3.16l5.72,13.67a0.169,0.169,0,0,1,.05.02,0.214,0.214,0,0,0,.16.03,0.613,0.613,0,0,0,.33-0.28,6.339,6.339,0,0,0,.35-0.54c0.11-.19.18-0.32,0.21-0.38q0.675-1.71,1.26-3.18c0.4-.98.78-1.95,1.17-2.9s0.78-1.94,1.19-2.97,0.85-2.13,1.33-3.33a0.277,0.277,0,0,1,.12-0.17,0.2,0.2,0,0,1,.17.19,1.6,1.6,0,0,1,.05.27q0.075,1.89.12,3.54,0.045,1.635.09,3.21c0.04,1.05.07,2.14,0.1,3.28,0,0.17.01,0.4,0.02,0.68s0.03,0.51.03,0.68a4.542,4.542,0,0,1-.05.58,0.581,0.581,0,0,1-.17.41,1.754,1.754,0,0,1-.46.13c-0.2.04-.41,0.07-0.62,0.1s-0.36.03-.46,0.03a0.783,0.783,0,0,0-.04.39,1.286,1.286,0,0,0,.04.28c0.55-.03,1.02-0.06,1.42-0.08s0.87-.04,1.42-0.04c0.51,0,.99.01,1.43,0.04s0.89,0.05,1.36.08a1.658,1.658,0,0,0,.03-0.27,0.738,0.738,0,0,0-.08-0.4c-0.07,0-.22-0.01-0.47-0.03s-0.49-.07-0.73-0.12a0.6,0.6,0,0,1-.44-0.26,3.312,3.312,0,0,1-.21-1c-0.03-.4-0.06-0.83-0.07-1.28-0.02-.76-0.04-1.64-0.06-2.63s-0.05-2-.08-3.02-0.04-1.93-.06-2.74-0.03-1.43-.04-1.83a4.186,4.186,0,0,1,.02-0.48,1.238,1.238,0,0,1,.1-0.43,0.651,0.651,0,0,1,.4-0.21,4.064,4.064,0,0,1,.71-0.15c0.25-.03.43-0.05,0.54-0.05a4.217,4.217,0,0,0-.07-0.67c-0.29.02-.69,0.03-1.21,0.05s-0.99.02-1.41,0.02c-0.48,0-1.09-.02-1.85-0.07-0.22.64-.41,1.18-0.57,1.61s-0.32.83-.46,1.2c-0.45,1.15-.86,2.2-1.24,3.15s-0.75,1.91-1.11,2.86-0.79,2.02-1.25,3.2a0.106,0.106,0,0,1-.1.1,0.11,0.11,0,0,1-.1-0.05c-0.33-.83-0.7-1.73-1.1-2.7s-0.81-1.94-1.23-2.91-0.8-1.9-1.16-2.77-0.67-1.63-.94-2.27-0.44-1.11-.54-1.42q-0.39.03-.84,0.06c-0.3.03-.66,0.04-1.06,0.04C1244.93,2912.76,1244.64,2912.75,1244.42,2912.75Zm20.78-.03-1.42-.06a0.465,0.465,0,0,0-.08.34,0.528,0.528,0,0,0,.08.33c0.1,0,.27.02,0.53,0.04a5.325,5.325,0,0,1,.73.11,0.414,0.414,0,0,1,.37.21,2.605,2.605,0,0,1,.11.76c0.01,0.31.01,0.64,0.01,1v10c0,0.35,0,.68-0.01.98a2.48,2.48,0,0,1-.11.75,0.459,0.459,0,0,1-.37.21,4.1,4.1,0,0,1-.73.14c-0.26.02-.43,0.03-0.53,0.03a0.585,0.585,0,0,0-.08.34,0.425,0.425,0,0,0,.08.33c0.47,0,.91-0.01,1.35-0.03s0.92-.04,1.46-0.04c1.57,0,2.98.02,4.23,0.05s2.51,0.05,3.77.05a9.691,9.691,0,0,1,.52-1.85c0.26-.72.51-1.4,0.73-2.04a0.831,0.831,0,0,0-.58-0.14,0.3,0.3,0,0,0-.33.14c-0.19.5-.4,0.96-0.6,1.38a2.286,2.286,0,0,1-.87.97,3.688,3.688,0,0,1-1.3.48,8.248,8.248,0,0,1-1.65.17h-1.13a9.612,9.612,0,0,1-1.09-.04,1.184,1.184,0,0,1-.59-0.2,0.99,0.99,0,0,1-.11-0.6c-0.01-.35-0.01-0.64-0.01-0.86v-4.61c0-.08.09-0.13,0.28-0.16a6.77,6.77,0,0,1,.69-0.04c0.26-.01.5-0.02,0.71-0.02,0.3,0,.63.01,0.97,0.02s0.66,0.02.95,0.04a1.127,1.127,0,0,1,.55.14,0.6,0.6,0,0,1,.21.18,1.662,1.662,0,0,1,.19.4c0.07,0.2.16,0.53,0.27,0.98a0.359,0.359,0,0,0,.37.16,0.567,0.567,0,0,0,.38-0.09v-4.42a0.574,0.574,0,0,0-.41-0.12,0.286,0.286,0,0,0-.34.17,8.567,8.567,0,0,1-.26.91,1.068,1.068,0,0,1-.34.51,1.33,1.33,0,0,1-.68.21c-0.31.03-.75,0.05-1.31,0.05h-1.22c-0.26,0-.49-0.01-0.7-0.02s-0.31-.06-0.31-0.12v-4.63c0-.28,0-0.54.01-0.8a2.529,2.529,0,0,1,.08-0.62,0.468,0.468,0,0,1,.39-0.17q0.33-.045.72-0.06c0.25-.01.43-0.01,0.53-0.01h2.01a3.424,3.424,0,0,1,1.64.38,2.838,2.838,0,0,1,1.08,1.8c0.01,0.12.13,0.17,0.33,0.17a0.558,0.558,0,0,0,.41-0.12q-0.165-.8-0.36-1.53a13.706,13.706,0,0,1-.31-1.64c-1.26,0-2.56.03-3.89,0.08s-2.55.07-3.65,0.07C1266.12,2912.76,1265.66,2912.75,1265.2,2912.72Zm13.57-.07q-0.51-.03-1.32-0.06a0.813,0.813,0,0,0-.07.29,0.647,0.647,0,0,0,.07.38c0.1,0,.28.02,0.55,0.05a4.641,4.641,0,0,1,.81.16,0.737,0.737,0,0,1,.47.25,1.3,1.3,0,0,1,.2.6c0.02,0.22.04,0.56,0.04,1.01v10.17c0,0.45-.02.78-0.04,0.99a1.3,1.3,0,0,1-.2.59,0.737,0.737,0,0,1-.47.25,5.84,5.84,0,0,1-.81.17,4.524,4.524,0,0,1-.55.06,0.679,0.679,0,0,0-.07.39,0.809,0.809,0,0,0,.07.28c0.37-.01.67-0.03,0.9-0.05s0.47-.03.72-0.04,0.55-.03.9-0.03c0.51,0,.97.01,1.37,0.04s0.83,0.05,1.3.08a0.954,0.954,0,0,0,.05-0.33,0.55,0.55,0,0,0-.1-0.34,3.437,3.437,0,0,1-.59-0.07,7.29,7.29,0,0,1-.74-0.18,0.7,0.7,0,0,1-.42-0.23,1.518,1.518,0,0,1-.21-0.63c-0.02-.24-0.03-0.56-0.03-0.98v-10.65l10.23,12.91a1.8,1.8,0,0,0,.49.43,0.828,0.828,0,0,0,.33.12c0.03,0,.08-0.01.17-0.02a0.175,0.175,0,0,0,.14-0.12c-0.02-.42-0.03-0.78-0.04-1.09s-0.01-.64-0.01-0.98v-10.7c0-.44.01-0.78,0.03-1a1.184,1.184,0,0,1,.19-0.6,0.858,0.858,0,0,1,.48-0.26,4.931,4.931,0,0,1,.8-0.15c0.28-.03.47-0.05,0.57-0.05a0.754,0.754,0,0,0,.07-0.38,1.109,1.109,0,0,0-.07-0.29c-0.36.01-.66,0.03-0.9,0.05l-0.72.03c-0.24.01-.54,0.01-0.91,0.01q-0.765,0-1.38-.03c-0.4-.03-0.84-0.05-1.31-0.06-0.01.06-.02,0.17-0.03,0.32a0.522,0.522,0,0,0,.08.35,4.28,4.28,0,0,1,.59.06,5.647,5.647,0,0,1,.76.17,0.776,0.776,0,0,1,.43.23,1.292,1.292,0,0,1,.22.64c0.01,0.24.02,0.57,0.02,0.99v8.87c-0.51-.72-1.12-1.52-1.83-2.41s-1.43-1.78-2.18-2.7-1.48-1.79-2.19-2.65-1.32-1.62-1.85-2.29-0.91-1.19-1.15-1.56a6.694,6.694,0,0,1-.75.03h-1.03C1279.47,2912.69,1279.11,2912.67,1278.77,2912.65Zm18.64,0.01a2.327,2.327,0,0,1-.68-0.11,5.088,5.088,0,0,1-.62-0.2,1.006,1.006,0,0,0-.26-0.08,0.469,0.469,0,0,0-.29.01c-0.08.72-.17,1.41-0.26,2.09s-0.21,1.32-.34,1.94a1.623,1.623,0,0,0,.16.12,0.389,0.389,0,0,0,.27.05,0.374,0.374,0,0,0,.34-0.12,5.769,5.769,0,0,1,.82-2.04,1.668,1.668,0,0,1,1.44-.82h3.03v11.95c0,0.35-.01.68-0.02,0.98a2.517,2.517,0,0,1-.1.75,0.485,0.485,0,0,1-.38.21,4.1,4.1,0,0,1-.73.14c-0.26.02-.43,0.03-0.53,0.03a0.675,0.675,0,0,0-.08.34,0.425,0.425,0,0,0,.08.33c0.48-.03.95-0.06,1.42-0.08s0.92-.04,1.37-0.04,0.92,0.01,1.36.04,0.9,0.05,1.38.08a0.425,0.425,0,0,0,.08-0.33,0.675,0.675,0,0,0-.08-0.34c-0.1,0-.27-0.01-0.52-0.03a4.056,4.056,0,0,1-.71-0.14,0.556,0.556,0,0,1-.38-0.21,2.48,2.48,0,0,1-.11-0.75c-0.01-.3-0.01-0.63-0.01-0.98V2913.5h2.98a1.668,1.668,0,0,1,1.44.82,5.407,5.407,0,0,1,.79,2.04,0.374,0.374,0,0,0,.34.12,0.43,0.43,0,0,0,.28-0.05,1.116,1.116,0,0,0,.17-0.12c-0.13-.62-0.24-1.27-0.35-1.94s-0.19-1.37-.27-2.09a0.451,0.451,0,0,0-.17-0.05,0.614,0.614,0,0,0-.26.1,5.845,5.845,0,0,1-.68.21,3.02,3.02,0,0,1-.74.12h-9.18Z" transform="translate(-1020 -2910)"/>
    <path id="デザイン経営" class="cls-5" d="M1156.7,2943.82c0.64,0,1.21.02,1.79,0.04a0.109,0.109,0,0,0,.13-0.13v-0.42c0-.12-0.02-0.16-0.11-0.16-0.62.04-1.13,0.05-1.82,0.05h-4.32c-0.56,0-1.06-.01-1.64-0.05a5.42,5.42,0,0,0,.06.58c0.02,0.12.03,0.16,0.14,0.15,0.42-.03.94-0.06,1.44-0.06h2.03a5.08,5.08,0,0,1-.52,2.41,4.093,4.093,0,0,1-1.95,1.82,1.927,1.927,0,0,1,.56.33c0.08,0.09.17,0.05,0.3-.03a4.5,4.5,0,0,0,1.77-1.87,5.746,5.746,0,0,0,.6-2.66h1.54Zm-1.4-2.2c0.52,0,1.14,0,1.68.02,0.1,0,.12-0.02.12-0.14a2.669,2.669,0,0,0,0-.4c0-.1-0.02-0.14-0.11-0.13-0.53.03-1.16,0.03-1.69,0.03h-1.75c-0.45,0-1.01-.01-1.6-0.05,0.01,0.19.03,0.42,0.05,0.58,0.01,0.1.03,0.14,0.13,0.13,0.48-.03.98-0.04,1.42-0.04h1.75Zm1.89-1.31a5.082,5.082,0,0,1,1,1.38,0.082,0.082,0,0,0,.13.03l0.31-.21a0.083,0.083,0,0,0,.03-0.11,5.1,5.1,0,0,0-.98-1.31,0.081,0.081,0,0,0-.1-0.02Zm0.94-.55a4.982,4.982,0,0,1,1,1.35c0.03,0.06.06,0.07,0.11,0.03l0.29-.22c0.05-.04.07-0.06,0.04-0.11a4.888,4.888,0,0,0-.99-1.27,0.078,0.078,0,0,0-.11,0Zm9.01,0.75a5.328,5.328,0,0,1,.92,1.42c0.02,0.06.06,0.07,0.12,0.04l0.33-.19a0.069,0.069,0,0,0,.03-0.1,5.616,5.616,0,0,0-.89-1.36,0.07,0.07,0,0,0-.1-0.02Zm0.96-.47a5.823,5.823,0,0,1,.91,1.39,0.072,0.072,0,0,0,.12.04l0.3-.19c0.06-.04.08-0.06,0.05-0.12a6.534,6.534,0,0,0-.91-1.31,0.079,0.079,0,0,0-.11-0.01Zm-1.5,2.8,0.01-.91a3.187,3.187,0,0,1,.08-1.07c0.06-.14.05-0.23-0.1-0.27a5.762,5.762,0,0,0-.75-0.13,8.47,8.47,0,0,1,.09,1.5l-0.01.88h-2.55v-0.81a3.637,3.637,0,0,1,.08-1c0.06-.13.1-0.24-0.05-0.28a4.261,4.261,0,0,0-.81-0.12,6.664,6.664,0,0,1,.11,1.4v0.81h-0.5c-0.64,0-1.17-.01-1.69-0.04,0.01,0.22.02,0.43,0.04,0.57,0.02,0.11.02,0.15,0.11,0.14,0.43-.02,1.01-0.04,1.54-0.04h0.5v0.51c0,0.57-.02,1.08-0.04,1.59,0,0.1.03,0.12,0.12,0.12a4.169,4.169,0,0,0,.5,0c0.09,0,.12-0.02.12-0.11-0.02-.53-0.03-1.06-0.03-1.62v-0.49h2.55a5.611,5.611,0,0,1-.61,2.83,4.377,4.377,0,0,1-2.68,1.85,1.4,1.4,0,0,1,.52.38c0.09,0.09.12,0.07,0.27,0.01a4.643,4.643,0,0,0,2.46-1.91,6.239,6.239,0,0,0,.71-3.16h0.38c0.56,0,1.09-.01,1.6.01,0.11,0.01.13-.02,0.13-0.12a3.084,3.084,0,0,0,0-.43c0-.09-0.01-0.12-0.12-0.12-0.55.03-1.06,0.03-1.62,0.03h-0.36Zm8.99,0.05a17.954,17.954,0,0,0,1.25-1.37,2.413,2.413,0,0,1,.56-0.53,0.161,0.161,0,0,0,.04-0.28,3.051,3.051,0,0,0-.69-0.45,3.122,3.122,0,0,1-.69,1.13,16.818,16.818,0,0,1-1.94,1.92,18.318,18.318,0,0,1-3.1,2.11,1.789,1.789,0,0,1,.5.32,0.172,0.172,0,0,0,.23.04,19.423,19.423,0,0,0,3.13-2.26v2.96c0,0.58-.02,1.17-0.04,1.77,0,0.09.02,0.12,0.1,0.12a5.61,5.61,0,0,0,.58,0c0.08,0,.11-0.03.1-0.12-0.02-.64-0.03-1.2-0.03-1.8v-3.56Zm5.82-1.02a9.846,9.846,0,0,1,1.89,1.47c0.07,0.07.1,0.06,0.16-.01a4.035,4.035,0,0,0,.34-0.43,0.125,0.125,0,0,0-.03-0.19,9.1,9.1,0,0,0-1.79-1.32,0.121,0.121,0,0,0-.18.02C1181.69,2941.53,1181.54,2941.71,1181.41,2941.87Zm0.24,5.24a3.639,3.639,0,0,0,.49.67,0.164,0.164,0,0,0,.27.01,3,3,0,0,1,.54-0.38,20.767,20.767,0,0,0,3-1.95,18.461,18.461,0,0,0,2.43-2.3,0.274,0.274,0,0,0,.07-0.35,2.993,2.993,0,0,1-.17-0.66,15.606,15.606,0,0,1-2.7,2.69,16.974,16.974,0,0,1-2.89,1.86A5.235,5.235,0,0,1,1181.65,2947.11Zm13.69-6.68c-0.91,0-1.19-.02-1.24-0.02-0.07,0-.08.01-0.08,0.08v0.4c0,0.07.01,0.08,0.08,0.08,0.03,0,.21-0.01.64-0.02a5.754,5.754,0,0,0,1.36,2.13,7.3,7.3,0,0,1-2.12,1.01,1.22,1.22,0,0,1,.24.32,0.206,0.206,0,0,0,.14.16,0.466,0.466,0,0,0,.16-0.05,8.283,8.283,0,0,0,2-1.08,7.317,7.317,0,0,0,2.17,1.13c0.19,0.07.22,0.07,0.29-.11a1.135,1.135,0,0,1,.25-0.39,7.126,7.126,0,0,1-2.26-1,6.1,6.1,0,0,0,1.36-1.77,0.785,0.785,0,0,1,.25-0.36,0.13,0.13,0,0,0,.09-0.12,0.555,0.555,0,0,0-.19-0.27,0.483,0.483,0,0,0-.29-0.19,0.224,0.224,0,0,0-.1.03,0.481,0.481,0,0,1-.21.04h-2.54Zm2.5,0.52a4.914,4.914,0,0,1-1.3,1.78,4.807,4.807,0,0,1-1.22-1.78h2.52Zm-4.82,2.32c-0.13.06-.14,0.07-0.1,0.14a5.793,5.793,0,0,1,.34.71c-0.56.05-1.09,0.08-1.6,0.11,0.55-.73,1.1-1.56,1.66-2.43a1.484,1.484,0,0,1,.35-0.45,0.148,0.148,0,0,0,.09-0.13,0.161,0.161,0,0,0-.09-0.12,4.316,4.316,0,0,0-.53-0.27,3.564,3.564,0,0,1-.31.68c-0.24.43-.48,0.83-0.74,1.24-0.24-.27-0.47-0.52-0.7-0.75,0.33-.47.6-0.89,0.95-1.48a0.56,0.56,0,0,1,.17-0.21,0.155,0.155,0,0,0,.08-0.12,0.137,0.137,0,0,0-.1-0.12,3.178,3.178,0,0,0-.53-0.24,2.509,2.509,0,0,1-.21.55,11.443,11.443,0,0,1-.72,1.25l-0.4-.38c-0.06-.06-0.08-0.05-0.15.04l-0.16.21c-0.08.1-.09,0.12-0.03,0.18a14.524,14.524,0,0,1,1.48,1.55c-0.24.35-.49,0.69-0.75,1.03h-0.14a4.516,4.516,0,0,1-.64-0.02c0.03,0.23.06,0.39,0.09,0.55a0.124,0.124,0,0,0,.1.13,0.21,0.21,0,0,0,.11-0.04,0.8,0.8,0,0,1,.38-0.09c0.34-.02.7-0.04,1.08-0.08v2.68c0,1.08-.02,1.33-0.02,1.39s0.01,0.07.08,0.07h0.44c0.07,0,.07,0,0.07-0.07,0-.05-0.01-0.31-0.01-1.39v-2.73c0.28-.03.57-0.06,0.86-0.1l0.18,0.55c0.02,0.08.04,0.09,0.17,0.04l0.21-.07c0.12-.05.14-0.06,0.11-0.14a9.547,9.547,0,0,0-.73-1.72c-0.04-.07-0.06-0.07-0.17-0.02Zm6.3,4.72c0-.06-0.01-0.07-0.08-0.07-0.05,0-.38.02-1.36,0.02h-1.14v-1.69h0.73c0.88,0,1.17.02,1.22,0.02,0.08,0,.09-0.01.09-0.08v-0.42c0-.06-0.01-0.07-0.09-0.07-0.05,0-.34.02-1.22,0.02h-0.73v-0.43a2.353,2.353,0,0,1,.06-0.72,0.408,0.408,0,0,0,.04-0.16,0.1,0.1,0,0,0-.11-0.09,5.4,5.4,0,0,0-.63-0.06,4.794,4.794,0,0,1,.07,1.06v0.4h-0.53c-0.88,0-1.17-.02-1.22-0.02-0.07,0-.08.01-0.08,0.07v0.42c0,0.07.01,0.08,0.08,0.08,0.05,0,.34-0.02,1.22-0.02h0.53v1.69h-1.02c-0.99,0-1.32-.02-1.37-0.02-0.07,0-.08.01-0.08,0.07v0.42c0,0.07.01,0.08,0.08,0.08,0.05,0,.38-0.02,1.37-0.02h2.73c0.98,0,1.31.02,1.36,0.02,0.07,0,.08-0.01.08-0.08v-0.42Zm-7.89-2.34c0-.04-0.04-0.07-0.14-0.1a3.987,3.987,0,0,0-.5-0.11,3.1,3.1,0,0,1-.03.59,8.04,8.04,0,0,1-.48,1.87,1.475,1.475,0,0,1,.35.15,0.277,0.277,0,0,0,.13.06c0.04,0,.07-0.04.1-0.14a9.933,9.933,0,0,0,.43-1.84,0.993,0.993,0,0,1,.1-0.36A0.284,0.284,0,0,0,1191.43,2945.65Zm1.78-.15c-0.11.03-.13,0.05-0.1,0.13a11.087,11.087,0,0,1,.38,1.69c0.01,0.08.02,0.08,0.15,0.05l0.23-.05c0.13-.03.13-0.06,0.12-0.14a8.875,8.875,0,0,0-.42-1.67c-0.03-.08-0.05-0.08-0.15-0.06Zm14.79,1.22c0-.45.01-0.66,0.01-0.71,0-.07,0-0.08-0.07-0.08s-0.42.01-1.43,0.01h-2.06a8.776,8.776,0,0,0,.38-0.98h0.92c0.92,0,1.24.02,1.3,0.02s0.07-.01.07-0.08c0-.05-0.02-0.2-0.02-0.68v-0.66c0-.48.02-0.63,0.02-0.68,0-.07-0.01-0.08-0.07-0.08s-0.38.02-1.3,0.02h-2.08c-0.92,0-1.23-.02-1.29-0.02s-0.07.01-.07,0.08c0,0.05.02,0.2,0.02,0.68v0.66c0,0.48-.02.62-0.02,0.68s0.01,0.08.07,0.08,0.37-.02,1.29-0.02h0.54a8.279,8.279,0,0,1-.38.98h-0.9c-1.01,0-1.36-.01-1.42-0.01s-0.08.01-.08,0.08c0,0.05.02,0.26,0.02,0.82v0.53c0,1.17-.02,1.36-0.02,1.42s0.01,0.07.08,0.07h0.47c0.06,0,.07-0.01.07-0.07v-0.42h5.35v0.38c0,0.06.01,0.07,0.08,0.07h0.46c0.07,0,.07-0.01.07-0.07s-0.01-.25-0.01-1.4v-0.62Zm-0.6,1.12h-5.35v-1.38h5.35v1.38Zm-0.88-3.36h-3.62v-1.18h3.62v1.18Zm2.25-2.47c0-.27.02-0.42,0.02-0.47,0-.07-0.01-0.08-0.08-0.08s-0.41.02-1.38,0.02h-0.37c0.19-.27.39-0.61,0.57-0.93a0.736,0.736,0,0,1,.21-0.26,0.116,0.116,0,0,0,.08-0.12,0.157,0.157,0,0,0-.12-0.12,5.906,5.906,0,0,0-.57-0.2,1.8,1.8,0,0,1-.13.41,9.894,9.894,0,0,1-.67,1.22h-4.2c-0.98,0-1.33-.02-1.39-0.02s-0.08.01-.08,0.08c0,0.05.02,0.2,0.02,0.53v0.32c0,0.86-.02.99-0.02,1.05s0.01,0.08.08,0.08h0.45c0.07,0,.08-0.01.08-0.08v-1.46h6.91v1.46c0,0.07.01,0.08,0.08,0.08h0.45c0.07,0,.08-0.01.08-0.08,0-.05-0.02-0.18-0.02-1.05v-0.38Zm-6.96-1.94c-0.13.05-.13,0.07-0.08,0.13a4.677,4.677,0,0,1,.63,1.03c0.05,0.13.07,0.13,0.2,0.07l0.27-.13c0.11-.05.11-0.06,0.08-0.12a5.524,5.524,0,0,0-.67-1.07c-0.04-.05-0.07-0.05-0.17-0.01Zm2.31-.1c-0.11.04-.13,0.05-0.08,0.12a5.438,5.438,0,0,1,.56,1.1c0.04,0.1.05,0.11,0.18,0.05l0.26-.12c0.13-.06.13-0.07,0.1-0.14a4.759,4.759,0,0,0-.59-1.08,0.1,0.1,0,0,0-.15-0.04Z" transform="translate(-1020 -2910)"/>
  </g>
  <g id="sustanable">
    <path id="marker" class="cls-4" d="M1103,3123.93h154v21.99H1103v-21.99Z" transform="translate(-1020 -2910)"/>
    <path id="SUSTAINABLE" class="cls-5" d="M1107.96,3127a4.443,4.443,0,0,0-1.72,1.43,3.646,3.646,0,0,0-.66,2.17,3.335,3.335,0,0,0,.65,2.04,6.371,6.371,0,0,0,1.6,1.5c0.63,0.42,1.24.81,1.84,1.16l1.52,0.87a3.924,3.924,0,0,1,1.15.96,2.345,2.345,0,0,1,.45,1.53,2.735,2.735,0,0,1-.84,2.13,2.869,2.869,0,0,1-1.97.75,3.41,3.41,0,0,1-1.77-.42,3.846,3.846,0,0,1-1.15-1.04,5.471,5.471,0,0,1-.67-1.21,5.026,5.026,0,0,1-.3-0.93,0.252,0.252,0,0,0-.27-0.21,0.609,0.609,0,0,0-.32.08,1.176,1.176,0,0,0-.28.2q0,0.15.06,0.75c0.04,0.4.1,0.86,0.17,1.39s0.16,1.02.25,1.49c0.58,0.11,1.23.25,1.96,0.43a10,10,0,0,0,2.27.26,5.41,5.41,0,0,0,2.37-.54,4.786,4.786,0,0,0,1.82-1.51,3.714,3.714,0,0,0,.71-2.24,2.991,2.991,0,0,0-.41-1.55,4.624,4.624,0,0,0-1.05-1.21,15.132,15.132,0,0,0-1.35-.96c-0.46-.29-0.89-0.55-1.27-0.79-0.52-.34-1.02-0.67-1.53-0.99a4.963,4.963,0,0,1-1.25-1.1,2.406,2.406,0,0,1-.49-1.56,3.139,3.139,0,0,1,.24-1.17,2.278,2.278,0,0,1,.79-1.01,2.539,2.539,0,0,1,1.52-.41,2.589,2.589,0,0,1,1.33.35,3.671,3.671,0,0,1,1.01.87,4.712,4.712,0,0,1,.66,1.11,3.668,3.668,0,0,1,.29,1.01,0.357,0.357,0,0,0,.26.09,1.042,1.042,0,0,0,.31-0.06c0.13-.04.19-0.1,0.17-0.18-0.01-.32-0.05-0.8-0.11-1.45s-0.13-1.28-.22-1.88c-0.52-.13-0.95-0.24-1.29-0.34a9.729,9.729,0,0,0-1.01-.23,8.385,8.385,0,0,0-1.24-.08A5.192,5.192,0,0,0,1107.96,3127Zm9.98-.35-1.4-.06a0.422,0.422,0,0,0-.09.34,0.663,0.663,0,0,0,.09.34q0.135,0,.51.03c0.25,0.03.49,0.06,0.72,0.11a0.419,0.419,0,0,1,.38.22,2.517,2.517,0,0,1,.1.75c0.01,0.31.02,0.65,0.02,1v6.84a6.717,6.717,0,0,0,.45,2.51,5.225,5.225,0,0,0,1.28,1.9,5.134,5.134,0,0,0,1.85,1.15,6.558,6.558,0,0,0,2.33.41,7.208,7.208,0,0,0,3.2-.67,4.762,4.762,0,0,0,2.15-2.13,8.038,8.038,0,0,0,.77-3.77v-6.31a8.472,8.472,0,0,1,.04-1.01,1.3,1.3,0,0,1,.2-0.6,0.876,0.876,0,0,1,.48-0.25,4.257,4.257,0,0,1,.79-0.16c0.28-.03.46-0.05,0.56-0.05a0.735,0.735,0,0,0,.07-0.38,1.109,1.109,0,0,0-.07-0.29c-0.36.02-.66,0.03-0.9,0.05s-0.49.03-.72,0.03-0.54.02-.91,0.02c-0.51,0-.95-0.02-1.33-0.04s-0.8-.04-1.26-0.06a1.579,1.579,0,0,0-.04.32,0.506,0.506,0,0,0,.09.35,3.817,3.817,0,0,1,.56.06,4.917,4.917,0,0,1,.71.17,0.737,0.737,0,0,1,.41.23,1.328,1.328,0,0,1,.22.65c0.01,0.24.02,0.56,0.02,0.98v6.33a6.6,6.6,0,0,1-.66,3.13,3.632,3.632,0,0,1-1.65,1.58,5.385,5.385,0,0,1-2.23.45,3.948,3.948,0,0,1-3.22-1.34,5,5,0,0,1-.85-1.78,9.515,9.515,0,0,1-.3-2.54v-5.78c0-.35,0-0.69.01-1a2.48,2.48,0,0,1,.11-0.75,0.467,0.467,0,0,1,.38-0.22c0.23-.05.46-0.08,0.71-0.11s0.42-.03.52-0.03a0.675,0.675,0,0,0,.08-0.34,0.465,0.465,0,0,0-.08-0.34l-1.38.06c-0.44.03-.9,0.04-1.36,0.04S1118.4,3126.68,1117.94,3126.65Zm18.75,0.35a4.443,4.443,0,0,0-1.72,1.43,3.646,3.646,0,0,0-.66,2.17,3.335,3.335,0,0,0,.65,2.04,6.371,6.371,0,0,0,1.6,1.5c0.63,0.42,1.24.81,1.84,1.16l1.52,0.87a3.924,3.924,0,0,1,1.15.96,2.345,2.345,0,0,1,.45,1.53,2.735,2.735,0,0,1-.84,2.13,2.869,2.869,0,0,1-1.97.75,3.436,3.436,0,0,1-1.77-.42,3.846,3.846,0,0,1-1.15-1.04,5.471,5.471,0,0,1-.67-1.21,5.937,5.937,0,0,1-.3-0.93,0.252,0.252,0,0,0-.27-0.21,0.609,0.609,0,0,0-.32.08,1.176,1.176,0,0,0-.28.2q0,0.15.06,0.75c0.04,0.4.1,0.86,0.17,1.39s0.16,1.02.25,1.49c0.58,0.11,1.23.25,1.96,0.43a10,10,0,0,0,2.27.26,5.41,5.41,0,0,0,2.37-.54,4.786,4.786,0,0,0,1.82-1.51,3.714,3.714,0,0,0,.71-2.24,2.9,2.9,0,0,0-.41-1.55,4.624,4.624,0,0,0-1.05-1.21,15.132,15.132,0,0,0-1.35-.96c-0.46-.29-0.89-0.55-1.27-0.79-0.52-.34-1.02-0.67-1.53-0.99a4.963,4.963,0,0,1-1.25-1.1,2.406,2.406,0,0,1-.49-1.56,3.139,3.139,0,0,1,.24-1.17,2.278,2.278,0,0,1,.79-1.01,2.539,2.539,0,0,1,1.52-.41,2.589,2.589,0,0,1,1.33.35,3.671,3.671,0,0,1,1.01.87,4.712,4.712,0,0,1,.66,1.11,3.668,3.668,0,0,1,.29,1.01,0.357,0.357,0,0,0,.26.09,1.042,1.042,0,0,0,.31-0.06c0.13-.04.19-0.1,0.17-0.18-0.01-.32-0.05-0.8-0.11-1.45s-0.13-1.28-.22-1.88c-0.52-.13-0.94-0.24-1.29-0.34a9.729,9.729,0,0,0-1.01-.23,8.385,8.385,0,0,0-1.24-.08A5.224,5.224,0,0,0,1136.69,3127Zm10.62-.41a2.788,2.788,0,0,1-.69-0.1,5.188,5.188,0,0,1-.61-0.21,1.006,1.006,0,0,0-.26-0.08,0.465,0.465,0,0,0-.29.01c-0.08.72-.17,1.42-0.27,2.09s-0.2,1.32-.33,1.94a1.276,1.276,0,0,0,.15.12,0.632,0.632,0,0,0,.62-0.07,5.766,5.766,0,0,1,.81-2.04,1.694,1.694,0,0,1,1.45-.82h3.02v11.95c0,0.35,0,.68-0.01.99a2.46,2.46,0,0,1-.11.74,0.486,0.486,0,0,1-.37.22,5.552,5.552,0,0,1-.73.13c-0.26.02-.44,0.03-0.53,0.03a0.663,0.663,0,0,0-.09.34,0.422,0.422,0,0,0,.09.33c0.48-.03.95-0.06,1.42-0.08s0.92-.04,1.36-0.04c0.47,0,.92.02,1.36,0.04s0.9,0.05,1.38.08a0.387,0.387,0,0,0,.09-0.33,0.663,0.663,0,0,0-.09-0.34q-0.135,0-.51-0.03a4.978,4.978,0,0,1-.71-0.13,0.629,0.629,0,0,1-.39-0.22,2.494,2.494,0,0,1-.1-0.74c-0.01-.31-0.02-0.64-0.02-0.99v-11.95h2.98a1.666,1.666,0,0,1,1.44.82,5.411,5.411,0,0,1,.8,2.04,0.354,0.354,0,0,0,.33.12,0.4,0.4,0,0,0,.29-0.05,1.116,1.116,0,0,0,.17-0.12c-0.13-.62-0.24-1.27-0.35-1.94s-0.2-1.37-.28-2.09a0.411,0.411,0,0,0-.16-0.05,0.916,0.916,0,0,0-.27.1,5.554,5.554,0,0,1-.67.21,3.02,3.02,0,0,1-.74.12h-9.18Zm13.68,13.43a5.2,5.2,0,0,1-.61,1.02,1.142,1.142,0,0,1-.69.35,4.1,4.1,0,0,1-.73.1,1.156,1.156,0,0,0-.05.38,0.516,0.516,0,0,0,.05.29c0.37-.01.67-0.03,0.91-0.04s0.48-.03.72-0.05,0.54-.03.89-0.03,0.64,0.01.85,0.03,0.44,0.03.65,0.05,0.48,0.03.78,0.04a0.775,0.775,0,0,0,.03-0.37,0.8,0.8,0,0,0-.07-0.3c-0.07,0-.23-0.01-0.5-0.04a3.039,3.039,0,0,1-.77-0.21,0.486,0.486,0,0,1-.37-0.42,4.838,4.838,0,0,1,.06-0.65,5.022,5.022,0,0,1,.28-1c0.13-.39.27-0.8,0.44-1.24s0.38-.98.62-1.62a0.256,0.256,0,0,1,.12-0.07c0.52-.03.96-0.05,1.29-0.06s0.75-.01,1.23-0.01h1.44c0.35,0,.65.01,0.89,0.02a0.238,0.238,0,0,1,.14.1c0.21,0.52.39,0.99,0.55,1.4s0.33,0.83.49,1.26,0.29,0.82.39,1.16a2.8,2.8,0,0,1,.16.74,0.421,0.421,0,0,1-.1.33,1.379,1.379,0,0,1-.62.23,3.7,3.7,0,0,1-.68.08,0.51,0.51,0,0,0-.1.34,0.425,0.425,0,0,0,.08.33c0.54-.03,1-0.06,1.36-0.08s0.81-.04,1.36-0.04c0.51,0,.95.02,1.32,0.04s0.78,0.05,1.25.08a1.437,1.437,0,0,0,.04-0.29,0.486,0.486,0,0,0-.07-0.38,2.128,2.128,0,0,1-.44-0.08,2.77,2.77,0,0,1-.7-0.28,1.028,1.028,0,0,1-.47-0.45c-0.05-.1-0.25-0.61-0.6-1.54l-4.78-12.52a0.592,0.592,0,0,1-.06-0.04,0.092,0.092,0,0,0-.06-0.01,0.968,0.968,0,0,0-.49.24,1.271,1.271,0,0,0-.42.43c-0.24.61-.52,1.31-0.83,2.11s-0.64,1.64-.97,2.51-0.67,1.72-1,2.54-0.62,1.58-.88,2.25-0.53,1.4-.84,2.18C1161.32,3139.25,1161.16,3139.64,1160.99,3140.02Zm7.15-4.96c-0.02.08-.04,0.12-0.08,0.12-0.35.02-.67,0.04-0.97,0.05s-0.63.03-1,.03c-0.25,0-.59-0.01-1.02-0.02s-0.79-.02-1.09-0.03a0.118,0.118,0,0,1-.05-0.1l2.14-5.71Zm8.28-8.41-1.41-.06a0.422,0.422,0,0,0-.09.34,0.663,0.663,0,0,0,.09.34c0.09,0,.27.01,0.52,0.03s0.51,0.06.74,0.11a0.413,0.413,0,0,1,.37.22,2.842,2.842,0,0,1,.11.75c0.01,0.31.01,0.65,0.01,1v10c0,0.35,0,.68-0.01.99a2.826,2.826,0,0,1-.11.74,0.509,0.509,0,0,1-.37.22,5.42,5.42,0,0,1-.74.13c-0.25.02-.43,0.03-0.52,0.03a0.663,0.663,0,0,0-.09.34,0.387,0.387,0,0,0,.09.33c0.48-.03.95-0.06,1.41-0.08s0.92-.04,1.37-0.04c0.47,0,.92.02,1.36,0.04s0.9,0.05,1.38.08a0.422,0.422,0,0,0,.09-0.33,0.663,0.663,0,0,0-.09-0.34c-0.09,0-.27-0.01-0.53-0.03a5.4,5.4,0,0,1-.72-0.13,0.6,0.6,0,0,1-.38-0.22,2.39,2.39,0,0,1-.09-0.61c0-.25-0.01-0.53-0.01-0.83v-10.58c0-.3.01-0.58,0.01-0.84a2.4,2.4,0,0,1,.09-0.62,0.467,0.467,0,0,1,.38-0.22c0.23-.05.47-0.08,0.72-0.11s0.44-.03.53-0.03a0.663,0.663,0,0,0,.09-0.34,0.462,0.462,0,0,0-.09-0.34l-1.38.06c-0.44.03-.89,0.04-1.36,0.04C1177.34,3126.69,1176.89,3126.68,1176.42,3126.65Zm7.4-.07q-0.495-.03-1.32-0.06a1.226,1.226,0,0,0-.07.29,0.633,0.633,0,0,0,.07.38c0.1,0,.28.02,0.55,0.05a5.526,5.526,0,0,1,.81.16,0.737,0.737,0,0,1,.47.25,1.378,1.378,0,0,1,.2.6,8.472,8.472,0,0,1,.04,1.01v10.17a8.281,8.281,0,0,1-.04,1,1.3,1.3,0,0,1-.2.58,0.784,0.784,0,0,1-.47.26,7.25,7.25,0,0,1-.81.16,4.524,4.524,0,0,1-.55.06,0.679,0.679,0,0,0-.07.39,1.016,1.016,0,0,0,.07.28c0.37-.01.67-0.03,0.9-0.04s0.47-.03.72-0.05,0.55-.03.9-0.03c0.52,0,.97.02,1.37,0.04s0.84,0.05,1.3.08a0.913,0.913,0,0,0,.05-0.33,0.511,0.511,0,0,0-.1-0.34,3.437,3.437,0,0,1-.59-0.07,7.29,7.29,0,0,1-.74-0.18,0.776,0.776,0,0,1-.42-0.23,1.676,1.676,0,0,1-.21-0.63c-0.02-.23-0.03-0.56-0.03-0.97v-10.66l10.23,12.91a1.8,1.8,0,0,0,.49.43,0.882,0.882,0,0,0,.33.12c0.03,0,.09-0.01.17-0.02a0.175,0.175,0,0,0,.14-0.12c-0.02-.42-0.03-0.78-0.04-1.09s-0.01-.64-0.01-0.97v-10.7c0-.45.01-0.79,0.03-1.01a1.184,1.184,0,0,1,.19-0.6,0.8,0.8,0,0,1,.48-0.25,4.2,4.2,0,0,1,.8-0.16c0.28-.03.47-0.05,0.57-0.05a0.647,0.647,0,0,0,.07-0.38,1.109,1.109,0,0,0-.07-0.29c-0.35.02-.65,0.03-0.9,0.05s-0.49.03-.72,0.03-0.54.02-.9,0.02c-0.52,0-.98-0.02-1.38-0.04s-0.85-.04-1.31-0.06a1.579,1.579,0,0,0-.04.32,0.507,0.507,0,0,0,.08.35,4.28,4.28,0,0,1,.59.06,5.647,5.647,0,0,1,.76.17,0.776,0.776,0,0,1,.43.23,1.328,1.328,0,0,1,.22.65c0.01,0.24.02,0.56,0.02,0.98v8.88c-0.51-.72-1.12-1.53-1.82-2.41s-1.44-1.79-2.19-2.7-1.48-1.8-2.19-2.65-1.32-1.62-1.85-2.3-0.91-1.19-1.15-1.56a6.61,6.61,0,0,1-.74.03h-1.04C1184.52,3126.62,1184.16,3126.61,1183.82,3126.58Zm17.65,13.44a5.237,5.237,0,0,1-.62,1.02,1.11,1.11,0,0,1-.68.35,4.1,4.1,0,0,1-.73.1,1.156,1.156,0,0,0-.05.38,0.516,0.516,0,0,0,.05.29c0.37-.01.67-0.03,0.91-0.04s0.48-.03.72-0.05,0.54-.03.89-0.03,0.64,0.01.85,0.03,0.43,0.03.65,0.05,0.48,0.03.78,0.04a0.931,0.931,0,0,0,.03-0.37,0.6,0.6,0,0,0-.08-0.3c-0.06,0-.22-0.01-0.49-0.04a3.039,3.039,0,0,1-.77-0.21,0.472,0.472,0,0,1-.37-0.42,4.838,4.838,0,0,1,.06-0.65,5.022,5.022,0,0,1,.28-1c0.12-.39.27-0.8,0.44-1.24s0.37-.98.61-1.62a0.414,0.414,0,0,1,.12-0.07c0.53-.03.96-0.05,1.3-0.06s0.75-.01,1.23-0.01h1.44c0.35,0,.65.01,0.89,0.02a0.238,0.238,0,0,1,.14.1c0.21,0.52.39,0.99,0.55,1.4s0.32,0.83.48,1.26,0.3,0.82.4,1.16a3.3,3.3,0,0,1,.16.74,0.462,0.462,0,0,1-.1.33,1.38,1.38,0,0,1-.63.23,3.53,3.53,0,0,1-.67.08,0.568,0.568,0,0,0-.11.34,0.422,0.422,0,0,0,.09.33c0.54-.03,1-0.06,1.36-0.08s0.81-.04,1.35-0.04c0.52,0,.96.02,1.32,0.04s0.79,0.05,1.25.08a0.817,0.817,0,0,0,.05-0.29,0.532,0.532,0,0,0-.07-0.38,2.179,2.179,0,0,1-.45-0.08,2.86,2.86,0,0,1-.69-0.28,1.028,1.028,0,0,1-.47-0.45c-0.05-.1-0.25-0.61-0.6-1.54l-4.78-12.52a0.592,0.592,0,0,1-.06-0.04,0.092,0.092,0,0,0-.06-0.01,0.968,0.968,0,0,0-.49.24,1.271,1.271,0,0,0-.42.43c-0.24.61-.52,1.31-0.83,2.11s-0.64,1.64-.98,2.51-0.66,1.72-.99,2.54-0.62,1.58-.88,2.25-0.54,1.4-.84,2.18C1201.8,3139.25,1201.64,3139.64,1201.47,3140.02Zm7.14-4.96a0.113,0.113,0,0,1-.07.12c-0.35.02-.68,0.04-0.97,0.05s-0.63.03-1,.03c-0.25,0-.6-0.01-1.02-0.02s-0.79-.02-1.09-0.03a0.118,0.118,0,0,1-.05-0.1l2.14-5.71Zm11.15-8.39c-0.53.01-1.03,0.02-1.49,0.02s-0.9-.01-1.37-0.04l-1.42-.06a0.465,0.465,0,0,0-.08.34,0.8,0.8,0,0,0,.08.34c0.1,0,.28.01,0.53,0.03s0.5,0.06.74,0.11a0.413,0.413,0,0,1,.37.22,2.842,2.842,0,0,1,.11.75c0,0.31.01,0.65,0.01,1v10c0,0.35-.01.68-0.01,0.99a2.826,2.826,0,0,1-.11.74,0.509,0.509,0,0,1-.37.22,5.706,5.706,0,0,1-.74.13c-0.25.02-.43,0.03-0.53,0.03a0.8,0.8,0,0,0-.08.34,0.425,0.425,0,0,0,.08.33h5.41a14.772,14.772,0,0,0,2.71-.29,4.9,4.9,0,0,0,2.21-.98,4.075,4.075,0,0,0,1.22-1.58,5.016,5.016,0,0,0,.35-1.87,3.211,3.211,0,0,0-.37-1.56,4,4,0,0,0-.92-1.19,4.658,4.658,0,0,0-1.14-.75,2.708,2.708,0,0,0-1.01-.29c-0.05-.03-0.05-0.07,0-0.1a4.117,4.117,0,0,0,.97-0.62,4.285,4.285,0,0,0,.99-1.18,3.376,3.376,0,0,0-.01-3.28,3.215,3.215,0,0,0-1.13-1.07,5.276,5.276,0,0,0-1.54-.58,7.82,7.82,0,0,0-1.63-.18Q1220.555,3126.64,1219.76,3126.67Zm0.94,7.65a5.548,5.548,0,0,1,2.75.55,2.862,2.862,0,0,1,1.28,1.38,4.4,4.4,0,0,1,.34,1.72,3.5,3.5,0,0,1-.58,2.17,2.842,2.842,0,0,1-1.43,1.02,6.062,6.062,0,0,1-1.74.26,7.368,7.368,0,0,1-1.12-.07,1.238,1.238,0,0,1-.73-0.36,0.946,0.946,0,0,1-.12-0.41q-0.045-.315-0.06-0.66c-0.01-.23-0.01-0.4-0.01-0.51v-5.09h1.42Zm-1.42-4.92v-0.31c0-.3,0-0.59.01-0.86a1.883,1.883,0,0,1,.09-0.6,0.543,0.543,0,0,1,.51-0.2c0.3-.01.52-0.02,0.66-0.02a3.887,3.887,0,0,1,2.63.85,2.984,2.984,0,0,1,1,2.41,3.023,3.023,0,0,1-.3,1.31,2.49,2.49,0,0,1-.95,1.04,3.081,3.081,0,0,1-1.7.41h-1.95v-4.03Zm13.98-.02v-0.29c0-.3,0-0.58.01-0.84a2.4,2.4,0,0,1,.09-0.62,0.467,0.467,0,0,1,.38-0.22,7.276,7.276,0,0,1,.72-0.11c0.26-.02.43-0.03,0.53-0.03a0.585,0.585,0,0,0,.08-0.34,0.465,0.465,0,0,0-.08-0.34l-1.38.06c-0.44.03-.89,0.04-1.36,0.04-0.45,0-.9-0.01-1.37-0.04l-1.42-.06a0.465,0.465,0,0,0-.08.34,0.8,0.8,0,0,0,.08.34c0.1,0,.28.01,0.53,0.03s0.5,0.06.74,0.11a0.413,0.413,0,0,1,.37.22,2.842,2.842,0,0,1,.11.75c0,0.31.01,0.65,0.01,1v10c0,0.35-.01.68-0.01,0.99a2.826,2.826,0,0,1-.11.74,0.509,0.509,0,0,1-.37.22,5.706,5.706,0,0,1-.74.13c-0.25.02-.43,0.03-0.53,0.03a0.8,0.8,0,0,0-.08.34,0.425,0.425,0,0,0,.08.33q0.7,0,1.35-.03c0.43-.03.92-0.04,1.47-0.04,1.56,0,2.97.02,4.22,0.05s2.51,0.05,3.77.05a10.491,10.491,0,0,1,.52-1.85c0.27-.72.51-1.4,0.73-2.04a0.836,0.836,0,0,0-.57-0.14,0.326,0.326,0,0,0-.34.14,5.5,5.5,0,0,1-.66,1.49,2.856,2.856,0,0,1-2.09,1.36,8.155,8.155,0,0,1-1.48.15h-1.32c-0.49,0-.86-0.01-1.09-0.03a1.338,1.338,0,0,1-.59-0.21,0.493,0.493,0,0,1-.1-0.33c-0.01-.2-0.02-0.41-0.02-0.64v-10.71Zm10.83-2.73-1.41-.06a0.422,0.422,0,0,0-.09.34,0.663,0.663,0,0,0,.09.34c0.09,0,.27.01,0.53,0.03s0.5,0.06.73,0.11a0.413,0.413,0,0,1,.37.22,2.842,2.842,0,0,1,.11.75c0.01,0.31.01,0.65,0.01,1v10c0,0.35,0,.68-0.01.99a2.826,2.826,0,0,1-.11.74,0.509,0.509,0,0,1-.37.22,5.552,5.552,0,0,1-.73.13c-0.26.02-.44,0.03-0.53,0.03a0.663,0.663,0,0,0-.09.34,0.387,0.387,0,0,0,.09.33c0.46,0,.91-0.01,1.34-0.03s0.92-.04,1.47-0.04c1.57,0,2.98.02,4.23,0.05s2.5,0.05,3.77.05a10.351,10.351,0,0,1,.51-1.85c0.27-.72.51-1.4,0.74-2.04a0.887,0.887,0,0,0-.58-0.14,0.335,0.335,0,0,0-.34.14,15.018,15.018,0,0,1-.6,1.38,2.209,2.209,0,0,1-.86.97,3.688,3.688,0,0,1-1.3.48,7.667,7.667,0,0,1-1.66.17h-1.13c-0.49,0-.86-0.01-1.09-0.03a1.338,1.338,0,0,1-.59-0.21,1.077,1.077,0,0,1-.11-0.6c0-.35-0.01-0.64-0.01-0.86v-4.61c0-.08.1-0.13,0.29-0.15a6.161,6.161,0,0,1,.69-0.05c0.26-.01.5-0.01,0.7-0.01,0.31,0,.63,0,0.98.01s0.66,0.02.95,0.05a1.078,1.078,0,0,1,.55.13,0.7,0.7,0,0,1,.2.18,1.441,1.441,0,0,1,.19.41,8.109,8.109,0,0,1,.28.97,0.351,0.351,0,0,0,.36.16,0.619,0.619,0,0,0,.39-0.09v-4.42a0.574,0.574,0,0,0-.41-0.12,0.286,0.286,0,0,0-.34.17c-0.1.39-.18,0.69-0.26,0.91a1.09,1.09,0,0,1-.34.51,1.33,1.33,0,0,1-.68.21,11.454,11.454,0,0,1-1.31.05h-1.23c-0.25,0-.49-0.01-0.7-0.02s-0.31-.06-0.31-0.12v-4.63c0-.27.01-0.54,0.01-0.79a2.492,2.492,0,0,1,.09-0.63,0.491,0.491,0,0,1,.38-0.17q0.345-.045.72-0.06c0.26,0,.44-0.01.53-0.01h2.02a3.276,3.276,0,0,1,1.63.39,2.7,2.7,0,0,1,1.08,1.8c0.02,0.11.13,0.16,0.34,0.16a0.574,0.574,0,0,0,.41-0.12c-0.11-.52-0.23-1.04-0.36-1.53a13.912,13.912,0,0,1-.31-1.63c-1.27,0-2.57.02-3.89,0.07s-2.55.07-3.66,0.07C1245.02,3126.69,1244.56,3126.68,1244.09,3126.65Z" transform="translate(-1020 -2910)"/>
    <path id="サステナブルな社会の実現" class="cls-5" d="M1126.7,3156.69l0.01-.92a3.187,3.187,0,0,1,.08-1.07c0.06-.14.05-0.23-0.1-0.27a5.762,5.762,0,0,0-.75-0.13,8.47,8.47,0,0,1,.09,1.5l-0.01.89h-2.55v-0.82a3.637,3.637,0,0,1,.08-1c0.06-.13.1-0.24-0.05-0.28a4.261,4.261,0,0,0-.81-0.12,6.664,6.664,0,0,1,.11,1.4v0.82h-0.5c-0.64,0-1.17-.01-1.69-0.04,0.01,0.22.02,0.43,0.04,0.56,0.02,0.11.02,0.15,0.11,0.14,0.43-.02,1.01-0.04,1.54-0.04h0.5v0.51c0,0.57-.02,1.08-0.04,1.59,0,0.1.03,0.12,0.12,0.12a4.169,4.169,0,0,0,.5,0c0.09,0,.12-0.02.12-0.11-0.02-.53-0.03-1.06-0.03-1.62v-0.49h2.55a5.611,5.611,0,0,1-.61,2.83,4.387,4.387,0,0,1-2.68,1.86,1.4,1.4,0,0,1,.52.38c0.09,0.09.12,0.07,0.27,0.01a4.61,4.61,0,0,0,2.46-1.92,6.239,6.239,0,0,0,.71-3.16h0.38c0.56,0,1.09-.01,1.6.01,0.11,0.01.13-.02,0.13-0.12a2.944,2.944,0,0,0,0-.42c0-.09-0.01-0.12-0.12-0.12-0.55.03-1.06,0.03-1.62,0.03h-0.36Zm6.52-1.3c-0.62,0-1.05,0-1.54-.04a3.873,3.873,0,0,0,.06.64c0.02,0.08.03,0.11,0.12,0.11,0.45-.03.87-0.06,1.43-0.06h3.01a12.744,12.744,0,0,1-1.9,2.67,12.877,12.877,0,0,1-3.67,2.71,1.711,1.711,0,0,1,.52.36,0.166,0.166,0,0,0,.25.02,15.455,15.455,0,0,0,3.56-2.79,18.274,18.274,0,0,1,2.76,2.54c0.07,0.08.11,0.08,0.18,0.02a4.076,4.076,0,0,0,.36-0.36c0.08-.1.08-0.13-0.01-0.21a20.482,20.482,0,0,0-2.87-2.51,18.9,18.9,0,0,0,1.48-2.14,1.321,1.321,0,0,1,.29-0.37,0.153,0.153,0,0,0,.05-0.23,2.649,2.649,0,0,0-.41-0.41,0.171,0.171,0,0,0-.2-0.03,1.046,1.046,0,0,1-.57.08h-2.9Zm13.54,2.32c0.64,0,1.21.02,1.79,0.04a0.109,0.109,0,0,0,.13-0.13v-0.42c0-.12-0.02-0.15-0.11-0.15-0.62.03-1.13,0.04-1.82,0.04h-4.32c-0.56,0-1.06-.01-1.64-0.04a5.509,5.509,0,0,0,.06.57c0.02,0.12.03,0.16,0.14,0.15,0.42-.03.94-0.06,1.44-0.06h2.03a5.08,5.08,0,0,1-.52,2.41,4.109,4.109,0,0,1-1.95,1.83,1.927,1.927,0,0,1,.56.33c0.08,0.09.17,0.05,0.3-.03a4.525,4.525,0,0,0,1.77-1.88,5.746,5.746,0,0,0,.6-2.66h1.54Zm-1.21-2.2c0.52,0,1.14,0,1.68.02,0.1,0,.12-0.02.12-0.14a2.669,2.669,0,0,0,0-.4c0-.1-0.02-0.14-0.11-0.13-0.53.03-1.16,0.03-1.69,0.03h-1.94c-0.45,0-1.02-.01-1.6-0.05,0.01,0.19.03,0.42,0.05,0.58,0.01,0.1.03,0.14,0.13,0.13,0.48-.03.98-0.04,1.42-0.04h1.94Zm9.74,1.37c0.01-.56.01-1.03,0.01-1.59a1.647,1.647,0,0,1,.1-0.59c0.05-.1.06-0.2-0.08-0.24a4.408,4.408,0,0,0-.84-0.11,4.958,4.958,0,0,1,.11,1.07c0.01,0.56.01,0.93,0.01,1.47h-2.11c-0.53,0-1.03,0-1.64-.05,0.01,0.2.04,0.47,0.06,0.59s0.03,0.14.13,0.13c0.48-.03.93-0.05,1.44-0.05h2.09a5.009,5.009,0,0,1-.64,2.6,5.284,5.284,0,0,1-2.23,1.87,1.473,1.473,0,0,1,.49.31,0.2,0.2,0,0,0,.28.03,5.732,5.732,0,0,0,2.11-1.94,5.5,5.5,0,0,0,.69-2.87h1.49c0.55,0,1.19.02,1.7,0.03,0.12,0,.14-0.02.14-0.13a3.085,3.085,0,0,0,0-.43c0-.11-0.03-0.13-0.15-0.12-0.57.02-1.16,0.02-1.7,0.02h-1.46Zm11.56-.67a9.456,9.456,0,0,1-1.88,3.19,9.64,9.64,0,0,1-3.22,2.47,1.736,1.736,0,0,1,.52.34,0.235,0.235,0,0,0,.33.02,10.917,10.917,0,0,0,2.97-2.41,10.775,10.775,0,0,0,1.96-3.27,0.909,0.909,0,0,1,.22-0.34,0.212,0.212,0,0,0,.03-0.31,2.556,2.556,0,0,0-.45-0.41,0.245,0.245,0,0,0-.26-0.01,0.908,0.908,0,0,1-.5.09h-3.54a18.85,18.85,0,0,1-1.91-.08c0.01,0.17.04,0.48,0.05,0.62s0.06,0.17.18,0.16c0.54-.04,1.09-0.06,1.67-0.06h3.83Zm0.32-1.72a4.318,4.318,0,0,1,1.16,1.28,0.08,0.08,0,0,0,.13.02l0.29-.24a0.072,0.072,0,0,0,.02-0.11,4.853,4.853,0,0,0-1.13-1.21,0.082,0.082,0,0,0-.12,0Zm0.88-.67a4.776,4.776,0,0,1,1.15,1.25c0.04,0.06.08,0.06,0.12,0.02l0.27-.24a0.079,0.079,0,0,0,.03-0.12,5.748,5.748,0,0,0-1.14-1.17,0.079,0.079,0,0,0-.11.01Zm7.39,3a4.775,4.775,0,0,1,.09-1.32c0.06-.14.09-0.24-0.06-0.29a6.95,6.95,0,0,0-.83-0.13,8.938,8.938,0,0,1,.1,1.75v2.83a5.126,5.126,0,0,1-.04.99,0.278,0.278,0,0,0,.02.25,2.058,2.058,0,0,0,.39.39,0.191,0.191,0,0,0,.27-0.01,1.4,1.4,0,0,1,.33-0.22,19.113,19.113,0,0,0,1.73-1.12,13.663,13.663,0,0,0,1.58-1.4,0.191,0.191,0,0,0,.06-0.26,1.685,1.685,0,0,1-.17-0.63,9.34,9.34,0,0,1-1.77,1.67,13.029,13.029,0,0,1-1.7,1.06v-3.56Zm-2.9-1.12a4.675,4.675,0,0,1,.08,1.04,5.849,5.849,0,0,1-.53,2.58,4.753,4.753,0,0,1-1.61,1.86,1.446,1.446,0,0,1,.53.25,0.191,0.191,0,0,0,.28-0.04,5.094,5.094,0,0,0,1.42-1.78,6.434,6.434,0,0,0,.62-2.73,2.368,2.368,0,0,1,.1-0.78c0.05-.12.04-0.21-0.07-0.25A3.784,3.784,0,0,0,1172.54,3155.7Zm13.27,4.39a4.962,4.962,0,0,0-1-.12,1.468,1.468,0,0,0-1.7,1.26,1.365,1.365,0,0,0,1.55,1.22c1.29,0,1.8-.55,1.79-1.56a6.047,6.047,0,0,1,1.52.95c0.06,0.05.11,0.06,0.16-.01a3.183,3.183,0,0,0,.24-0.44c0.03-.08.04-0.11-0.04-0.16a8.7,8.7,0,0,0-1.89-1,16.86,16.86,0,0,1-.12-1.84,1.542,1.542,0,0,1,.04-0.47,0.516,0.516,0,0,0,.06-0.18,0.127,0.127,0,0,0-.11-0.12,3.16,3.16,0,0,0-.68-0.13,3.108,3.108,0,0,1,.06.64C1185.7,3158.67,1185.75,3159.47,1185.81,3160.09Zm0.01,0.6a1.358,1.358,0,0,1,.01.24,0.937,0.937,0,0,1-1.12.94c-0.66,0-1.03-.21-1.03-0.67,0-.37.36-0.68,1.16-0.68A3.309,3.309,0,0,1,1185.82,3160.69Zm-2.13-4.72c0.1-.35.21-0.72,0.32-1.08a0.906,0.906,0,0,1,.14-0.31,0.2,0.2,0,0,0,.08-0.15,0.115,0.115,0,0,0-.09-0.11,4.19,4.19,0,0,0-.78-0.2,2.956,2.956,0,0,1-.08.78c-0.09.42-.18,0.79-0.3,1.17a12.518,12.518,0,0,1-1.35.08c-0.21,0-.47-0.01-0.79-0.04a3.113,3.113,0,0,0,.06.5c0.02,0.1.03,0.11,0.12,0.12,0.23,0.02.38,0.02,0.53,0.02,0.43,0,.83-0.03,1.25-0.07a17.229,17.229,0,0,1-1.87,3.71c-0.05.08-.05,0.12,0.01,0.17a2.31,2.31,0,0,0,.4.3,0.1,0.1,0,0,0,.16-0.03,24.319,24.319,0,0,0,2-4.21c0.59-.09,1.13-0.18,1.67-0.29,0.08-.01.1-0.03,0.09-0.12-0.01-.13-0.03-0.31-0.05-0.43-0.01-.06-0.04-0.08-0.13-0.06A13.718,13.718,0,0,1,1183.69,3155.97Zm2.59,0.54a6.71,6.71,0,0,1,2.04,1.01c0.06,0.04.09,0.05,0.14-.02a2.6,2.6,0,0,0,.23-0.4,0.1,0.1,0,0,0-.02-0.17,7.087,7.087,0,0,0-1.96-.94,0.115,0.115,0,0,0-.17.06C1186.46,3156.17,1186.38,3156.34,1186.28,3156.51Zm12.93,5.38c0-.07-0.01-0.08-0.08-0.08-0.05,0-.38.02-1.37,0.02h-1.21v-4.13h0.85c0.92,0,1.23.02,1.28,0.02,0.07,0,.08-0.01.08-0.08v-0.44c0-.07-0.01-0.08-0.08-0.08-0.05,0-.36.02-1.28,0.02h-0.85v-1.96a3.7,3.7,0,0,1,.07-1.04,0.678,0.678,0,0,0,.04-0.17,0.117,0.117,0,0,0-.12-0.08,5.737,5.737,0,0,0-.67-0.06,7.074,7.074,0,0,1,.07,1.37v1.94h-0.63c-0.92,0-1.23-.02-1.28-0.02-0.07,0-.08.01-0.08,0.08v0.44c0,0.07.01,0.08,0.08,0.08,0.05,0,.36-0.02,1.28-0.02h0.63v4.13h-1.01c-0.98,0-1.32-.02-1.37-0.02-0.08,0-.09.01-0.09,0.08v0.44c0,0.07.01,0.08,0.09,0.08,0.05,0,.39-0.02,1.37-0.02h2.83c0.99,0,1.32.02,1.37,0.02,0.07,0,.08-0.01.08-0.08v-0.44Zm-6.73-6.37v-0.6a2.229,2.229,0,0,1,.06-0.78,0.414,0.414,0,0,0,.05-0.19,0.117,0.117,0,0,0-.12-0.08,6.013,6.013,0,0,0-.65-0.06,5.478,5.478,0,0,1,.07,1.13v0.58h-0.33c-0.74,0-.97-0.02-1.02-0.02-0.07,0-.08.01-0.08,0.08v0.41c0,0.07.01,0.08,0.08,0.08,0.05,0,.28-0.02,1.02-0.02H1193a7.879,7.879,0,0,1-2.91,3.4,1.077,1.077,0,0,1,.24.37,0.159,0.159,0,0,0,.1.13,0.312,0.312,0,0,0,.15-0.08,10.507,10.507,0,0,0,1.31-1.17v2.79c0,0.8-.02,1.19-0.02,1.24,0,0.07.01,0.08,0.08,0.08h0.47c0.07,0,.08-0.01.08-0.08,0-.05-0.02-0.44-0.02-1.24v-3.12a6.543,6.543,0,0,0,1.12,1.11,0.234,0.234,0,0,0,.13.07,0.144,0.144,0,0,0,.11-0.11,1.5,1.5,0,0,1,.28-0.37,6.335,6.335,0,0,1-1.52-1.23,10.119,10.119,0,0,0,.96-1.6,0.566,0.566,0,0,1,.2-0.24,0.158,0.158,0,0,0,.08-0.13,0.556,0.556,0,0,0-.17-0.24,0.444,0.444,0,0,0-.25-0.17,0.292,0.292,0,0,0-.09.02,0.265,0.265,0,0,1-.18.04h-0.67Zm16.23,3.44c0-.07-0.01-0.08-0.08-0.08s-0.38.02-1.38,0.02h-4.94c-0.99,0-1.32-.02-1.37-0.02-0.08,0-.09.01-0.09,0.08v0.44c0,0.07.01,0.08,0.09,0.08,0.05,0,.38-0.02,1.37-0.02h1.19a19.5,19.5,0,0,1-1.04,2.35c-0.15.01-.29,0.02-0.43,0.02a9.829,9.829,0,0,1-1.09,0,5.38,5.38,0,0,0,.15.66,0.127,0.127,0,0,0,.11.11,0.176,0.176,0,0,0,.13-0.06,0.681,0.681,0,0,1,.38-0.08c1.74-.13,3.74-0.32,5.5-0.55,0.2,0.27.38,0.55,0.57,0.83a0.107,0.107,0,0,0,.08.06,0.31,0.31,0,0,0,.11-0.05l0.31-.21c0.09-.06.09-0.09,0.05-0.14a17.936,17.936,0,0,0-1.92-2.37c-0.04-.04-0.07-0.04-0.15,0l-0.29.16c-0.1.05-.12,0.08-0.06,0.14,0.34,0.37.65,0.73,0.94,1.1-1.15.13-2.5,0.26-3.7,0.34,0.4-.78.74-1.56,1.04-2.31h3.06c1,0,1.32.02,1.38,0.02s0.08-.01.08-0.08v-0.44Zm0.76-1.56a9.237,9.237,0,0,1-4.45-3.27,0.525,0.525,0,0,1,.11-0.07,0.11,0.11,0,0,0,.07-0.11c0-.06-0.04-0.09-0.14-0.12a3.683,3.683,0,0,0-.63-0.13,2.275,2.275,0,0,1-.26.56,8.736,8.736,0,0,1-4.06,3.23,1.1,1.1,0,0,1,.31.34c0.06,0.11.08,0.15,0.13,0.15a0.372,0.372,0,0,0,.15-0.06,10,10,0,0,0,4.01-3.33,9.729,9.729,0,0,0,4.2,3.31,0.348,0.348,0,0,0,.14.06,0.219,0.219,0,0,0,.13-0.16A1.412,1.412,0,0,1,1209.47,3157.4Zm-2.65-.26c0-.06-0.01-0.07-0.08-0.07-0.05,0-.33.01-1.17,0.01h-1.62c-0.84,0-1.12-.01-1.17-0.01-0.07,0-.08.01-0.08,0.07v0.43c0,0.07.01,0.08,0.08,0.08,0.05,0,.33-0.02,1.17-0.02h1.62c0.84,0,1.12.02,1.17,0.02,0.07,0,.08-0.01.08-0.08v-0.43Zm8.47-1.35a2.5,2.5,0,0,1,2.58,2.52c0,1.67-1.14,2.74-3.12,3.13a1.163,1.163,0,0,1,.39.37,0.2,0.2,0,0,0,.26.11c2.17-.55,3.18-1.86,3.18-3.49,0-1.9-1.33-3.21-3.57-3.21a4.221,4.221,0,0,0-2.99,1.11,3.61,3.61,0,0,0-1.16,2.58c0,1.45.71,2.27,1.46,2.27a1.666,1.666,0,0,0,1.46-1.03,11.165,11.165,0,0,0,1.32-4.36h0.19Zm-0.89.04a10.623,10.623,0,0,1-1.17,3.9,1.132,1.132,0,0,1-.92.73c-0.36,0-.81-0.47-0.81-1.56a3.062,3.062,0,0,1,.96-2.15A3.311,3.311,0,0,1,1214.4,3155.83Zm13.04,4.13c0.97,0,1.3.02,1.36,0.02s0.08-.01.08-0.08v-0.39c0-.07-0.01-0.08-0.08-0.08s-0.39.02-1.36,0.02h-2.61a5.97,5.97,0,0,0,.09-0.92h1.17c0.99,0,1.31.02,1.36,0.02,0.07,0,.08-0.01.08-0.08v-0.37c0-.08-0.01-0.09-0.08-0.09-0.05,0-.37.02-1.36,0.02h-1.15c0.01-.26.01-0.56,0.01-0.88h1.24c0.98,0,1.31.02,1.37,0.02s0.08-.01.08-0.08v-0.37c0-.07-0.01-0.08-0.08-0.08s-0.39.02-1.37,0.02h-1.24a2.114,2.114,0,0,1,.04-0.57,0.786,0.786,0,0,0,.07-0.22c0-.06-0.07-0.08-0.16-0.1a4.654,4.654,0,0,0-.61-0.06,7.434,7.434,0,0,1,.07.95h-1.12c-0.98,0-1.31-.02-1.37-0.02s-0.08.01-.08,0.08v0.37c0,0.07.01,0.08,0.08,0.08s0.39-.02,1.37-0.02h1.12c0,0.33-.01.62-0.01,0.88h-1.02c-0.96,0-1.29-.02-1.35-0.02s-0.08.01-.08,0.09v0.37c0,0.07.01,0.08,0.08,0.08s0.39-.02,1.35-0.02h1a6.836,6.836,0,0,1-.11.92h-2.12c-0.97,0-1.3-.02-1.35-0.02-0.07,0-.08.01-0.08,0.08v0.39c0,0.07.01,0.08,0.08,0.08,0.05,0,.38-0.02,1.35-0.02h1.96a2.933,2.933,0,0,1-.23.43,5.247,5.247,0,0,1-3.46,1.74,1.265,1.265,0,0,1,.25.37c0.05,0.13.07,0.17,0.14,0.17a0.556,0.556,0,0,0,.15-0.03,5.505,5.505,0,0,0,3.38-1.89,3.248,3.248,0,0,0,.33-0.57,5.7,5.7,0,0,0,4.03,2.48,1.148,1.148,0,0,0,.14.02c0.07,0,.09-0.04.14-0.17a1.663,1.663,0,0,1,.25-0.41,5.589,5.589,0,0,1-4.07-2.14h2.33Zm1.29-4.51c0-.27.02-0.42,0.02-0.47,0-.07-0.01-0.08-0.08-0.08-0.05,0-.39.02-1.38,0.02h-2.35v-0.12a2.483,2.483,0,0,1,.05-0.7,0.519,0.519,0,0,0,.06-0.19c0-.04-0.04-0.07-0.12-0.08-0.19-.02-0.42-0.04-0.67-0.05a4.166,4.166,0,0,1,.08,1.02v0.12h-2.18c-0.98,0-1.33-.02-1.39-0.02s-0.08.01-.08,0.08c0,0.05.02,0.2,0.02,0.53v0.32c0,0.87-.02,1-0.02,1.05,0,0.07.01,0.08,0.08,0.08h0.46c0.07,0,.08-0.01.08-0.08v-1.43h6.82v1.43c0,0.07.01,0.08,0.08,0.08h0.46c0.07,0,.08-0.01.08-0.08,0-.05-0.02-0.18-0.02-1.05v-0.38Zm8.32,4.15h0.04c0.89,0,1.18.02,1.24,0.02s0.08-.01.08-0.08-0.02-.38-0.02-1.23v-2.73c0-.84.02-1.17,0.02-1.22,0-.08-0.01-0.09-0.08-0.09s-0.35.02-1.24,0.02h-1.84c-0.9,0-1.19-.02-1.25-0.02s-0.08.01-.08,0.09c0,0.05.02,0.38,0.02,1.22v2.73c0,0.85-.02,1.17-0.02,1.23s0.01,0.08.08,0.08c0.05,0,.31-0.01,1.04-0.02-0.12,1.67-1.09,2.27-2.98,2.68a1.239,1.239,0,0,1,.29.31,0.239,0.239,0,0,0,.17.16,0.405,0.405,0,0,0,.12-0.03c1.9-.5,2.84-1.31,3.01-3.12h0.81v2.3a0.534,0.534,0,0,0,.36.61,4.325,4.325,0,0,0,1.03.09,1.91,1.91,0,0,0,1.11-.25,1.434,1.434,0,0,0,.4-1.11c0.02-.17.01-0.18-0.14-0.25a1.681,1.681,0,0,1-.38-0.22,1.448,1.448,0,0,1-.28,1.14,1.242,1.242,0,0,1-.7.14,3.567,3.567,0,0,1-.62-0.04c-0.17-.03-0.19-0.13-0.19-0.39v-2.02Zm0.76-.51h-3.28v-1.12h3.28v1.12Zm0-3.19h-3.28v-1.07h3.28v1.07Zm0,1.56h-3.28v-1.06h3.28v1.06Zm-4.29-2.87c0-.07-0.01-0.08-0.08-0.08s-0.26.02-.97,0.02h-1.05c-0.71,0-.92-0.02-0.98-0.02s-0.07.01-.07,0.08v0.42c0,0.08.01,0.09,0.07,0.09s0.27-.02.98-0.02h0.24v2.15h-0.17c-0.65,0-.85-0.02-0.9-0.02-0.07,0-.08.01-0.08,0.08v0.42c0,0.07.01,0.08,0.08,0.08,0.05,0,.25-0.02.9-0.02h0.17v2.42c-0.15.06-.3,0.12-0.45,0.17a5.77,5.77,0,0,1-.92.26,4.311,4.311,0,0,0,.2.58,0.111,0.111,0,0,0,.09.09,0.174,0.174,0,0,0,.11-0.06,1.288,1.288,0,0,1,.37-0.17,20.044,20.044,0,0,0,2.29-1.07,0.22,0.22,0,0,0,.15-0.3,1.711,1.711,0,0,1,.01-0.39,12.443,12.443,0,0,1-1.26.65v-2.18h0.13c0.65,0,.84.02,0.9,0.02s0.08-.01.08-0.08v-0.42c0-.07-0.01-0.08-0.08-0.08s-0.25.02-.9,0.02h-0.13v-2.15h0.22c0.71,0,.91.02,0.97,0.02s0.08-.01.08-0.09v-0.42Z" transform="translate(-1020 -2910)"/>
  </g>
  <g id="heart">
    <path id="marker-2" data-name="marker" class="cls-4" d="M1103,3416.83h154v21.99H1103v-21.99Z" transform="translate(-1020 -2910)"/>
    <path id="ENRICHES_THE_HEART" data-name="ENRICHES THE HEART" class="cls-5" d="M1058.88,3419.55l-1.41-.06a0.41,0.41,0,0,0-.09.34,0.593,0.593,0,0,0,.09.33,4.865,4.865,0,0,1,.52.04,5.725,5.725,0,0,1,.74.11,0.41,0.41,0,0,1,.37.21,2.926,2.926,0,0,1,.11.76c0,0.31.01,0.64,0.01,0.99v10.01c0,0.35-.01.68-0.01,0.98a2.759,2.759,0,0,1-.11.74,0.455,0.455,0,0,1-.37.22,4.4,4.4,0,0,1-.74.13,4.865,4.865,0,0,1-.52.04,0.621,0.621,0,0,0-.09.33,0.41,0.41,0,0,0,.09.34c0.46,0,.91-0.01,1.34-0.04s0.92-.03,1.47-0.03c1.57,0,2.97.01,4.22,0.05s2.51,0.04,3.78.04a10.276,10.276,0,0,1,.51-1.84c0.27-.72.51-1.4,0.73-2.04a0.779,0.779,0,0,0-.57-0.15,0.313,0.313,0,0,0-.34.15q-0.285.735-.6,1.38a2.331,2.331,0,0,1-.86.97,3.765,3.765,0,0,1-1.3.48,8.424,8.424,0,0,1-1.66.17h-1.13c-0.49,0-.86-0.02-1.09-0.04a1.219,1.219,0,0,1-.59-0.2,1.077,1.077,0,0,1-.11-0.6c-0.01-.35-0.01-0.64-0.01-0.87v-4.6c0-.08.1-0.13,0.29-0.16s0.42-.04.68-0.05,0.5-.01.71-0.01c0.31,0,.63.01,0.98,0.01s0.66,0.03.94,0.05a1.357,1.357,0,0,1,.56.13,0.86,0.86,0,0,1,.2.18,1.6,1.6,0,0,1,.19.41,8.727,8.727,0,0,1,.28.97,0.355,0.355,0,0,0,.36.17,0.51,0.51,0,0,0,.38-0.1v-4.41a0.547,0.547,0,0,0-.4-0.12,0.286,0.286,0,0,0-.34.17c-0.1.38-.18,0.69-0.26,0.91a1.193,1.193,0,0,1-.34.5,1.275,1.275,0,0,1-.69.22c-0.31.03-.74,0.05-1.31,0.05h-1.22c-0.26,0-.49-0.01-0.7-0.03s-0.31-.05-0.31-0.12v-4.63c0-.27,0-0.53.01-0.79a2.477,2.477,0,0,1,.09-0.62,0.46,0.46,0,0,1,.38-0.17q0.345-.045.72-0.06c0.26-.01.43-0.01,0.53-0.01h2.02a3.383,3.383,0,0,1,1.63.38,2.757,2.757,0,0,1,1.08,1.8,0.286,0.286,0,0,0,.34.17,0.574,0.574,0,0,0,.41-0.12c-0.11-.53-0.23-1.04-0.36-1.54a13.452,13.452,0,0,1-.32-1.63c-1.26,0-2.56.03-3.89,0.07s-2.54.08-3.65,0.08C1059.8,3419.59,1059.35,3419.57,1058.88,3419.55Zm13.58-.07c-0.34-.03-0.78-0.05-1.33-0.06a1.109,1.109,0,0,0-.07.29,0.754,0.754,0,0,0,.07.38c0.1,0,.28.02,0.56,0.05a5.373,5.373,0,0,1,.8.15,0.751,0.751,0,0,1,.47.26,1.3,1.3,0,0,1,.2.6,8.388,8.388,0,0,1,.04,1v10.18a8.093,8.093,0,0,1-.04.99,1.337,1.337,0,0,1-.2.59,0.754,0.754,0,0,1-.47.25,7.1,7.1,0,0,1-.8.17,4.832,4.832,0,0,1-.56.06,0.735,0.735,0,0,0-.07.38,1.109,1.109,0,0,0,.07.29c0.37-.02.67-0.03,0.9-0.05s0.48-.03.73-0.05,0.54-.02.9-0.02c0.51,0,.97.01,1.37,0.04s0.83,0.05,1.29.08a0.975,0.975,0,0,0,.05-0.34,0.483,0.483,0,0,0-.1-0.33,4.8,4.8,0,0,1-.58-0.07,6.887,6.887,0,0,1-.75-0.18,0.848,0.848,0,0,1-.42-0.23,1.5,1.5,0,0,1-.2-0.64,8.142,8.142,0,0,1-.04-0.97v-10.65l10.23,12.91a1.854,1.854,0,0,0,.5.43,0.49,0.49,0,0,0,.49.09,0.141,0.141,0,0,0,.14-0.12c-0.01-.41-0.02-0.78-0.03-1.09s-0.01-.63-0.01-0.97v-10.7c0-.45,0-0.78.02-1.01a1.367,1.367,0,0,1,.19-0.6,0.946,0.946,0,0,1,.48-0.25,5.271,5.271,0,0,1,.81-0.15,4.293,4.293,0,0,1,.56-0.05,0.607,0.607,0,0,0,.07-0.39,0.809,0.809,0,0,0-.07-0.28c-0.35.01-.65,0.03-0.9,0.04s-0.49.03-.72,0.04-0.53.01-.9,0.01q-0.765,0-1.38-.03c-0.41-.03-0.85-0.05-1.31-0.06a1.579,1.579,0,0,0-.04.32,0.472,0.472,0,0,0,.09.35,5.606,5.606,0,0,1,1.34.23,0.743,0.743,0,0,1,.43.22,1.363,1.363,0,0,1,.22.65c0.02,0.24.02,0.57,0.02,0.99v8.87c-0.51-.72-1.12-1.52-1.82-2.41s-1.43-1.79-2.19-2.7-1.48-1.79-2.18-2.65-1.32-1.62-1.85-2.29-0.92-1.19-1.16-1.56a7.111,7.111,0,0,1-.74.02h-1.03Q1072.955,3419.51,1072.46,3419.48Zm21.22,0.08q-0.81.03-1.5,0.03c-0.45,0-.9-0.02-1.36-0.04l-1.41-.06a0.451,0.451,0,0,0-.08.34,0.711,0.711,0,0,0,.08.33,4.7,4.7,0,0,1,.52.04,5.416,5.416,0,0,1,.72.11,0.4,0.4,0,0,1,.37.21,2.552,2.552,0,0,1,.11.76c0.01,0.31.01,0.64,0.01,0.99l0.03,10.01c0,0.35-.01.68-0.01,0.98a2.759,2.759,0,0,1-.11.74,0.455,0.455,0,0,1-.37.22,4.4,4.4,0,0,1-.74.13,4.827,4.827,0,0,1-.53.04,0.749,0.749,0,0,0-.08.33,0.451,0.451,0,0,0,.08.34c0.49-.03.96-0.06,1.42-0.08s0.92-.04,1.37-0.04c0.47,0,.92.01,1.36,0.04s0.9,0.05,1.38.08a0.451,0.451,0,0,0,.08-0.34,0.549,0.549,0,0,0-.08-0.33,5,5,0,0,1-.53-0.04,4.165,4.165,0,0,1-.72-0.13,0.522,0.522,0,0,1-.38-0.22,2.32,2.32,0,0,1-.09-0.61c-0.01-.24-0.01-0.52-0.01-0.82v-4.66h1.23a0.814,0.814,0,0,1,.72.29c0.36,0.57.75,1.16,1.15,1.76s0.78,1.17,1.13,1.69,0.65,0.98.91,1.35,0.43,0.61.53,0.74a2.321,2.321,0,0,0,.84.73c0.29,0.14.51,0.24,0.67,0.3a6.18,6.18,0,0,0,1.14.21c0.52,0.05,1.18.08,1.96,0.08a1.431,1.431,0,0,0,.07-0.31,0.392,0.392,0,0,0-.04-0.36,3.616,3.616,0,0,1-1.55-.41,3.568,3.568,0,0,1-1.1-1.01c-0.51-.68-0.97-1.31-1.39-1.88s-0.82-1.14-1.2-1.72-0.79-1.2-1.2-1.89a4.849,4.849,0,0,0,1.52-.86,5.163,5.163,0,0,0,1.2-1.4,3.07,3.07,0,0,0,.47-1.63,3.453,3.453,0,0,0-.43-1.76,4.041,4.041,0,0,0-1.14-1.26,5.48,5.48,0,0,0-1.55-.77,5.593,5.593,0,0,0-1.63-.26C1094.83,3419.54,1094.22,3419.55,1093.68,3419.56Zm3.88,6.04a3.665,3.665,0,0,1-1.36,1.17,3.784,3.784,0,0,1-1.74.42h-1.25l-0.02-4.89c0-.35,0-0.7.01-1.05a2.022,2.022,0,0,1,.11-0.73,0.568,0.568,0,0,1,.51-0.19c0.3-.02.52-0.02,0.66-0.02a3.439,3.439,0,0,1,2.78.98,3.806,3.806,0,0,1,.83,2.52A3.074,3.074,0,0,1,1097.56,3425.6Zm7.83-6.05-1.42-.06a0.451,0.451,0,0,0-.08.34,0.605,0.605,0,0,0,.08.33,5,5,0,0,1,.53.04,5.325,5.325,0,0,1,.73.11,0.416,0.416,0,0,1,.38.21,2.59,2.59,0,0,1,.1.76c0.01,0.31.02,0.64,0.02,0.99v10.01c0,0.35-.01.68-0.02,0.98a2.445,2.445,0,0,1-.1.74,0.46,0.46,0,0,1-.38.22,4.112,4.112,0,0,1-.73.13,5,5,0,0,1-.53.04,0.633,0.633,0,0,0-.08.33,0.451,0.451,0,0,0,.08.34c0.48-.03.95-0.06,1.42-0.08s0.92-.04,1.37-0.04,0.92,0.01,1.36.04,0.9,0.05,1.38.08a0.451,0.451,0,0,0,.08-0.34,0.633,0.633,0,0,0-.08-0.33,4.827,4.827,0,0,1-.53-0.04,3.844,3.844,0,0,1-.72-0.13,0.549,0.549,0,0,1-.39-0.22,2.92,2.92,0,0,1-.08-0.61c-0.01-.24-0.01-0.52-0.01-0.82v-10.58c0-.31,0-0.59.01-0.84a3.142,3.142,0,0,1,.08-0.63,0.487,0.487,0,0,1,.39-0.21,4.954,4.954,0,0,1,.72-0.11,4.827,4.827,0,0,1,.53-0.04,0.605,0.605,0,0,0,.08-0.33,0.451,0.451,0,0,0-.08-0.34l-1.38.06c-0.44.02-.9,0.04-1.36,0.04S1105.85,3419.57,1105.39,3419.55Zm10.99,0.46a7.446,7.446,0,0,0-2.51,1.76,8.144,8.144,0,0,0-2.23,5.69,7.559,7.559,0,0,0,4.66,7.06,7.964,7.964,0,0,0,3.17.61,14.163,14.163,0,0,0,2.86-.26,8.262,8.262,0,0,0,2.18-.79,1.633,1.633,0,0,0,.27-0.58c0.09-.3.18-0.65,0.26-1.04s0.15-.76.2-1.09a4.816,4.816,0,0,0,.09-0.68,1.052,1.052,0,0,0-.75-0.19,7.884,7.884,0,0,1-.43,1.35,3.783,3.783,0,0,1-1.01,1.39,4.529,4.529,0,0,1-1.26.79,4.586,4.586,0,0,1-1.84.33,5.5,5.5,0,0,1-2.68-.63,5.6,5.6,0,0,1-1.89-1.7,7.734,7.734,0,0,1-1.13-2.39,9.809,9.809,0,0,1-.37-2.69,7.864,7.864,0,0,1,.39-2.43,7.622,7.622,0,0,1,1.15-2.21,5.842,5.842,0,0,1,1.82-1.58,4.662,4.662,0,0,1,2.35-.59,5.6,5.6,0,0,1,2.36.42,3.708,3.708,0,0,1,2,2.17,7.128,7.128,0,0,1,.23.81,0.547,0.547,0,0,0,.29.08,0.749,0.749,0,0,0,.36-0.1,0.189,0.189,0,0,0,.14-0.19,5.434,5.434,0,0,0-.08-0.64q-0.09-.54-0.18-1.2c-0.06-.44-0.15-0.98-0.26-1.64a18,18,0,0,0-2.56-.38c-0.84-.07-1.65-0.1-2.42-0.1A7.756,7.756,0,0,0,1116.38,3420.01Zm12.41-.46-1.42-.06a0.507,0.507,0,0,0-.08.37,0.608,0.608,0,0,0,.08.37c0.1,0,.27.02,0.53,0.04a5.57,5.57,0,0,1,.73.11,0.414,0.414,0,0,1,.37.21,2.605,2.605,0,0,1,.11.76c0.01,0.31.01,0.64,0.01,1v9.86c0,0.35,0,.68-0.01.98a2.46,2.46,0,0,1-.11.74,0.459,0.459,0,0,1-.37.22,4.281,4.281,0,0,1-.73.13c-0.26.02-.43,0.04-0.53,0.04a0.63,0.63,0,0,0-.08.37,0.507,0.507,0,0,0,.08.37c0.48-.03.95-0.06,1.42-0.08s0.92-.04,1.37-0.04,0.91,0.01,1.35.04,0.9,0.05,1.39.08a0.507,0.507,0,0,0,.08-0.37,0.843,0.843,0,0,0-.08-0.37c-0.1,0-.28-0.02-0.53-0.04a3.844,3.844,0,0,1-.72-0.13,0.559,0.559,0,0,1-.39-0.22,2.44,2.44,0,0,1-.08-0.61c-0.01-.25-0.01-0.52-0.01-0.83v-4.94a0.065,0.065,0,0,1,.02-0.05,1.437,1.437,0,0,1,.29-0.04c0.16-.02.49-0.04,1.01-0.05s1.31-.03,2.4-0.03c0.61,0,1.22.02,1.84,0.04s1.19,0.04,1.74.06a0.087,0.087,0,0,1,.05.07v4.66c0,0.35-.01.68-0.02,0.98a2.494,2.494,0,0,1-.1.74,0.485,0.485,0,0,1-.38.22,4.165,4.165,0,0,1-.72.13c-0.25.02-.42,0.04-0.51,0.04a0.7,0.7,0,0,0-.09.37,0.46,0.46,0,0,0,.09.37c0.48-.03.95-0.06,1.4-0.08s0.91-.04,1.36-0.04,0.92,0.01,1.36.04,0.9,0.05,1.38.08a0.507,0.507,0,0,0,.08-0.37,0.72,0.72,0,0,0-.08-0.37c-0.1,0-.27-0.02-0.52-0.04a4.051,4.051,0,0,1-.71-0.13,0.556,0.556,0,0,1-.38-0.22,2.46,2.46,0,0,1-.11-0.74c-0.01-.3-0.01-0.63-0.01-0.98v-9.86c0-.36,0-0.69.01-1a2.605,2.605,0,0,1,.11-0.76,0.49,0.49,0,0,1,.38-0.21,5.265,5.265,0,0,1,.71-0.11c0.25-.02.42-0.04,0.52-0.04a0.692,0.692,0,0,0,.08-0.37,0.507,0.507,0,0,0-.08-0.37l-1.38.06c-0.44.02-.9,0.04-1.36,0.04s-0.9-.02-1.36-0.04l-1.4-.06a0.46,0.46,0,0,0-.09.37,0.672,0.672,0,0,0,.09.37c0.09,0,.26.02,0.51,0.04a5.416,5.416,0,0,1,.72.11,0.436,0.436,0,0,1,.38.21,2.641,2.641,0,0,1,.1.76c0.01,0.31.02,0.64,0.02,1v4.07a0.189,0.189,0,0,1-.05.08c-0.53.01-1.12,0.03-1.77,0.04s-1.25.03-1.81,0.03c-0.66,0-1.29-.01-1.9-0.03s-1.2-.03-1.78-0.04a0.076,0.076,0,0,1-.04-0.05v-4.39c0-.31,0-0.59.01-0.84a2.55,2.55,0,0,1,.08-0.63,0.5,0.5,0,0,1,.39-0.21,4.954,4.954,0,0,1,.72-0.11c0.25-.02.43-0.04,0.53-0.04a0.8,0.8,0,0,0,.08-0.37,0.507,0.507,0,0,0-.08-0.37c-0.49.02-.95,0.04-1.39,0.06s-0.89.04-1.35,0.04S1129.25,3419.57,1128.79,3419.55Zm17,0-1.41-.06a0.448,0.448,0,0,0-.09.34,0.593,0.593,0,0,0,.09.33,5.18,5.18,0,0,1,.53.04,5.57,5.57,0,0,1,.73.11,0.4,0.4,0,0,1,.37.21,2.552,2.552,0,0,1,.11.76c0.01,0.31.01,0.64,0.01,0.99v10.01c0,0.35,0,.68-0.01.98a2.409,2.409,0,0,1-.11.74,0.437,0.437,0,0,1-.37.22,4.281,4.281,0,0,1-.73.13,5.18,5.18,0,0,1-.53.04,0.621,0.621,0,0,0-.09.33,0.448,0.448,0,0,0,.09.34c0.46,0,.91-0.01,1.34-0.04s0.92-.03,1.47-0.03c1.57,0,2.98.01,4.23,0.05s2.5,0.04,3.77.04a10.276,10.276,0,0,1,.51-1.84c0.27-.72.51-1.4,0.74-2.04a0.825,0.825,0,0,0-.58-0.15,0.322,0.322,0,0,0-.34.15q-0.285.735-.6,1.38a2.2,2.2,0,0,1-.86.97,3.688,3.688,0,0,1-1.3.48,8.348,8.348,0,0,1-1.66.17h-1.13c-0.49,0-.86-0.02-1.09-0.04a1.219,1.219,0,0,1-.59-0.2,1.021,1.021,0,0,1-.1-0.6c-0.01-.35-0.02-0.64-0.02-0.87v-4.6c0-.08.1-0.13,0.29-0.16s0.42-.04.69-0.05,0.5-.01.7-0.01c0.31,0,.63.01,0.98,0.01s0.66,0.03.95,0.05a1.344,1.344,0,0,1,.55.13,0.7,0.7,0,0,1,.2.18,1.936,1.936,0,0,1,.2.41c0.07,0.2.16,0.53,0.27,0.97a0.355,0.355,0,0,0,.36.17,0.554,0.554,0,0,0,.39-0.1v-4.41a0.574,0.574,0,0,0-.41-0.12,0.286,0.286,0,0,0-.34.17,8.567,8.567,0,0,1-.26.91,1.036,1.036,0,0,1-.34.5,1.237,1.237,0,0,1-.68.22c-0.32.03-.75,0.05-1.31,0.05h-1.23c-0.25,0-.49-0.01-0.69-0.03s-0.32-.05-0.32-0.12v-4.63c0-.27.01-0.53,0.02-0.79a2.122,2.122,0,0,1,.08-0.62,0.46,0.46,0,0,1,.38-0.17q0.345-.045.72-0.06c0.26-.01.44-0.01,0.53-0.01h2.02a3.356,3.356,0,0,1,1.63.38,2.8,2.8,0,0,1,1.09,1.8c0.01,0.11.12,0.17,0.33,0.17a0.574,0.574,0,0,0,.41-0.12c-0.11-.53-0.23-1.04-0.36-1.54a13.525,13.525,0,0,1-.31-1.63c-1.27,0-2.57.03-3.89,0.07s-2.55.08-3.66,0.08C1146.72,3419.59,1146.26,3419.57,1145.79,3419.55Zm15.19,0.35a4.29,4.29,0,0,0-1.72,1.43,3.624,3.624,0,0,0-.66,2.17,3.335,3.335,0,0,0,.65,2.04,6.568,6.568,0,0,0,1.6,1.5c0.63,0.42,1.24.81,1.83,1.16,0.55,0.3,1.06.59,1.53,0.86a4.058,4.058,0,0,1,1.15.96,2.375,2.375,0,0,1,.45,1.54,2.672,2.672,0,0,1-.85,2.12,2.854,2.854,0,0,1-1.96.76,3.41,3.41,0,0,1-1.77-.42,3.637,3.637,0,0,1-1.15-1.05,5.73,5.73,0,0,1-.68-1.21,7.211,7.211,0,0,1-.3-0.92,0.243,0.243,0,0,0-.26-0.22,0.684,0.684,0,0,0-.33.09,1.052,1.052,0,0,0-.27.2c0,0.1.02,0.34,0.06,0.74s0.09,0.87.17,1.4,0.15,1.02.25,1.48c0.58,0.11,1.23.26,1.96,0.43a9.407,9.407,0,0,0,2.27.27,5.336,5.336,0,0,0,2.36-.54,4.744,4.744,0,0,0,1.83-1.51,3.744,3.744,0,0,0,.71-2.25,2.955,2.955,0,0,0-.41-1.54,4.509,4.509,0,0,0-1.06-1.21,10.992,10.992,0,0,0-1.34-.96c-0.47-.29-0.89-0.56-1.28-0.8-0.51-.33-1.02-0.66-1.52-0.98a4.985,4.985,0,0,1-1.25-1.1,2.444,2.444,0,0,1-.49-1.56,3.149,3.149,0,0,1,.24-1.18,2.334,2.334,0,0,1,.79-1.01,2.506,2.506,0,0,1,1.51-.4,2.619,2.619,0,0,1,1.34.34,4.052,4.052,0,0,1,1.01.88,4.656,4.656,0,0,1,.66,1.1,3.7,3.7,0,0,1,.28,1.01,0.406,0.406,0,0,0,.27.1,1.1,1.1,0,0,0,.31-0.06,0.178,0.178,0,0,0,.17-0.18c-0.02-.32-0.05-0.81-0.11-1.45s-0.13-1.28-.23-1.89c-0.51-.13-0.94-0.24-1.28-0.33a8.076,8.076,0,0,0-1.01-.23,7.084,7.084,0,0,0-1.24-.09A5.06,5.06,0,0,0,1160.98,3419.9Zm17.63-.41a2.863,2.863,0,0,1-.69-0.11,5.463,5.463,0,0,1-.61-0.2,1.52,1.52,0,0,0-.26-0.09,0.465,0.465,0,0,0-.29.02c-0.08.72-.17,1.41-0.26,2.08s-0.21,1.32-.34,1.95a0.919,0.919,0,0,0,.16.12,0.39,0.39,0,0,0,.27.04,0.351,0.351,0,0,0,.34-0.12,5.788,5.788,0,0,1,.81-2.03,1.672,1.672,0,0,1,1.45-.82h3.02v11.95c0,0.35,0,.68-0.01.98a2.409,2.409,0,0,1-.11.74,0.437,0.437,0,0,1-.37.22,4.281,4.281,0,0,1-.73.13,5,5,0,0,1-.53.04,0.549,0.549,0,0,0-.08.33,0.412,0.412,0,0,0,.08.34c0.48-.03.95-0.06,1.42-0.08s0.92-.04,1.37-0.04,0.91,0.01,1.35.04,0.9,0.05,1.38.08a0.41,0.41,0,0,0,.09-0.34,0.621,0.621,0,0,0-.09-0.33,4.735,4.735,0,0,1-.51-0.04,3.887,3.887,0,0,1-.71-0.13,0.549,0.549,0,0,1-.39-0.22,2.445,2.445,0,0,1-.1-0.74c-0.01-.3-0.02-0.63-0.02-0.98v-11.95h2.98a1.645,1.645,0,0,1,1.44.82,5.427,5.427,0,0,1,.8,2.03,0.342,0.342,0,0,0,.33.12,0.45,0.45,0,0,0,.29-0.04,1.116,1.116,0,0,0,.17-0.12c-0.13-.63-0.24-1.27-0.35-1.95s-0.19-1.36-.27-2.08a0.321,0.321,0,0,0-.17-0.05,0.807,0.807,0,0,0-.27.09,4,4,0,0,1-.67.22,3.02,3.02,0,0,1-.74.12h-9.18Zm14.41,0.06-1.41-.06a0.46,0.46,0,0,0-.09.37,0.672,0.672,0,0,0,.09.37c0.09,0,.27.02,0.52,0.04a5.725,5.725,0,0,1,.74.11,0.43,0.43,0,0,1,.37.21,3,3,0,0,1,.11.76c0,0.31.01,0.64,0.01,1v9.86c0,0.35-.01.68-0.01,0.98a2.826,2.826,0,0,1-.11.74,0.48,0.48,0,0,1-.37.22,4.4,4.4,0,0,1-.74.13c-0.25.02-.43,0.04-0.52,0.04a0.7,0.7,0,0,0-.09.37,0.46,0.46,0,0,0,.09.37c0.48-.03.95-0.06,1.41-0.08s0.92-.04,1.37-0.04c0.47,0,.92.01,1.36,0.04s0.9,0.05,1.38.08a0.507,0.507,0,0,0,.08-0.37,0.63,0.63,0,0,0-.08-0.37c-0.1,0-.27-0.02-0.53-0.04a4.165,4.165,0,0,1-.72-0.13,0.556,0.556,0,0,1-.38-0.22,2.39,2.39,0,0,1-.09-0.61c-0.01-.25-0.01-0.52-0.01-0.83v-4.94a0.169,0.169,0,0,1,.02-0.05,1.584,1.584,0,0,1,.29-0.04c0.16-.02.5-0.04,1.01-0.05s1.32-.03,2.4-0.03c0.61,0,1.23.02,1.84,0.04s1.2,0.04,1.74.06a0.071,0.071,0,0,1,.05.07v4.66c0,0.35,0,.68-0.01.98a2.46,2.46,0,0,1-.11.74,0.459,0.459,0,0,1-.37.22,4.165,4.165,0,0,1-.72.13c-0.25.02-.42,0.04-0.52,0.04a0.72,0.72,0,0,0-.08.37,0.507,0.507,0,0,0,.08.37c0.48-.03.95-0.06,1.41-0.08s0.91-.04,1.35-0.04c0.47,0,.92.01,1.36,0.04s0.9,0.05,1.38.08a0.46,0.46,0,0,0,.09-0.37,0.7,0.7,0,0,0-.09-0.37c-0.09,0-.26-0.02-0.51-0.04a3.887,3.887,0,0,1-.71-0.13,0.586,0.586,0,0,1-.39-0.22,2.494,2.494,0,0,1-.1-0.74c-0.01-.3-0.02-0.63-0.02-0.98v-9.86c0-.36.01-0.69,0.02-1a2.641,2.641,0,0,1,.1-0.76,0.516,0.516,0,0,1,.39-0.21,5.028,5.028,0,0,1,.71-0.11c0.25-.02.42-0.04,0.51-0.04a0.672,0.672,0,0,0,.09-0.37,0.46,0.46,0,0,0-.09-0.37l-1.38.06c-0.44.02-.89,0.04-1.36,0.04-0.44,0-.9-0.02-1.35-0.04l-1.41-.06a0.507,0.507,0,0,0-.08.37,0.692,0.692,0,0,0,.08.37c0.1,0,.27.02,0.52,0.04a5.416,5.416,0,0,1,.72.11,0.414,0.414,0,0,1,.37.21,2.605,2.605,0,0,1,.11.76c0.01,0.31.01,0.64,0.01,1v4.07a0.121,0.121,0,0,1-.05.08c-0.52.01-1.11,0.03-1.76,0.04s-1.26.03-1.82,0.03q-0.975,0-1.89-.03c-0.61-.01-1.2-0.03-1.78-0.04a0.11,0.11,0,0,1-.05-0.05v-4.39c0-.31,0-0.59.01-0.84a2.492,2.492,0,0,1,.09-0.63,0.49,0.49,0,0,1,.38-0.21,5.416,5.416,0,0,1,.72-0.11c0.26-.02.43-0.04,0.53-0.04a0.608,0.608,0,0,0,.08-0.37,0.507,0.507,0,0,0-.08-0.37l-1.38.06c-0.44.02-.89,0.04-1.36,0.04C1193.94,3419.59,1193.49,3419.57,1193.02,3419.55Zm17.01,0-1.42-.06a0.451,0.451,0,0,0-.08.34,0.711,0.711,0,0,0,.08.33,4.827,4.827,0,0,1,.53.04,5.325,5.325,0,0,1,.73.11,0.416,0.416,0,0,1,.38.21,2.59,2.59,0,0,1,.1.76c0.01,0.31.02,0.64,0.02,0.99v10.01c0,0.35-.01.68-0.02,0.98a2.445,2.445,0,0,1-.1.74,0.46,0.46,0,0,1-.38.22,4.112,4.112,0,0,1-.73.13,4.827,4.827,0,0,1-.53.04,0.749,0.749,0,0,0-.08.33,0.451,0.451,0,0,0,.08.34c0.47,0,.92-0.01,1.35-0.04s0.92-.03,1.46-0.03c1.57,0,2.98.01,4.23,0.05s2.51,0.04,3.77.04a10.417,10.417,0,0,1,.52-1.84c0.26-.72.51-1.4,0.73-2.04a0.8,0.8,0,0,0-.57-0.15,0.305,0.305,0,0,0-.34.15q-0.285.735-.6,1.38a2.286,2.286,0,0,1-.87.97,3.705,3.705,0,0,1-1.29.48,8.424,8.424,0,0,1-1.66.17h-1.13c-0.5,0-.86-0.02-1.09-0.04a1.219,1.219,0,0,1-.59-0.2,0.99,0.99,0,0,1-.11-0.6c-0.01-.35-0.01-0.64-0.01-0.87v-4.6c0-.08.09-0.13,0.29-0.16s0.42-.04.68-0.05,0.5-.01.71-0.01c0.3,0,.63.01,0.97,0.01s0.66,0.03.95,0.05a1.3,1.3,0,0,1,.55.13,0.909,0.909,0,0,1,.21.18,2.033,2.033,0,0,1,.19.41c0.07,0.2.17,0.53,0.28,0.97a0.355,0.355,0,0,0,.36.17,0.51,0.51,0,0,0,.38-0.1v-4.41a0.558,0.558,0,0,0-.41-0.12c-0.2,0-.32.06-0.33,0.17-0.1.38-.19,0.69-0.27,0.91a1.1,1.1,0,0,1-.33.5,1.306,1.306,0,0,1-.69.22c-0.31.03-.75,0.05-1.31,0.05h-1.22c-0.26,0-.49-0.01-0.7-0.03s-0.31-.05-0.31-0.12v-4.63c0-.27,0-0.53.01-0.79a3.131,3.131,0,0,1,.08-0.62,0.485,0.485,0,0,1,.39-0.17q0.33-.045.72-0.06c0.26-.01.43-0.01,0.53-0.01h2.02a3.383,3.383,0,0,1,1.63.38,2.838,2.838,0,0,1,1.08,1.8,0.286,0.286,0,0,0,.34.17,0.574,0.574,0,0,0,.41-0.12c-0.12-.53-0.24-1.04-0.36-1.54a13.452,13.452,0,0,1-.32-1.63c-1.26,0-2.56.03-3.89,0.07s-2.55.08-3.65,0.08C1210.95,3419.59,1210.49,3419.57,1210.03,3419.55Zm20.78,0-1.42-.06a0.507,0.507,0,0,0-.08.37,0.692,0.692,0,0,0,.08.37c0.1,0,.27.02,0.53,0.04a5.325,5.325,0,0,1,.73.11,0.436,0.436,0,0,1,.38.21,2.641,2.641,0,0,1,.1.76c0.01,0.31.02,0.64,0.02,1v9.86c0,0.35-.01.68-0.02,0.98a2.494,2.494,0,0,1-.1.74,0.485,0.485,0,0,1-.38.22,4.112,4.112,0,0,1-.73.13c-0.26.02-.43,0.04-0.53,0.04a0.72,0.72,0,0,0-.08.37,0.507,0.507,0,0,0,.08.37c0.48-.03.96-0.06,1.42-0.08s0.92-.04,1.37-0.04,0.92,0.01,1.36.04,0.9,0.05,1.38.08a0.507,0.507,0,0,0,.08-0.37,0.72,0.72,0,0,0-.08-0.37c-0.1,0-.27-0.02-0.53-0.04a3.844,3.844,0,0,1-.72-0.13,0.586,0.586,0,0,1-.39-0.22,3.019,3.019,0,0,1-.08-0.61c-0.01-.25-0.01-0.52-0.01-0.83v-4.94a0.169,0.169,0,0,1,.02-0.05,1.437,1.437,0,0,1,.29-0.04c0.16-.02.5-0.04,1.01-0.05s1.31-.03,2.4-0.03c0.61,0,1.22.02,1.84,0.04s1.2,0.04,1.74.06a0.087,0.087,0,0,1,.05.07v4.66c0,0.35-.01.68-0.01,0.98a2.826,2.826,0,0,1-.11.74,0.48,0.48,0,0,1-.37.22,4.54,4.54,0,0,1-.72.13c-0.25.02-.42,0.04-0.52,0.04a0.63,0.63,0,0,0-.08.37,0.507,0.507,0,0,0,.08.37c0.48-.03.95-0.06,1.4-0.08s0.91-.04,1.36-0.04c0.47,0,.92.01,1.36,0.04s0.9,0.05,1.38.08a0.507,0.507,0,0,0,.08-0.37,0.63,0.63,0,0,0-.08-0.37c-0.1,0-.27-0.02-0.52-0.04a3.939,3.939,0,0,1-.7-0.13,0.559,0.559,0,0,1-.39-0.22,2.826,2.826,0,0,1-.11-0.74c-0.01-.3-0.01-0.63-0.01-0.98v-9.86c0-.36,0-0.69.01-1a3,3,0,0,1,.11-0.76,0.5,0.5,0,0,1,.39-0.21,5.117,5.117,0,0,1,.7-0.11c0.25-.02.42-0.04,0.52-0.04a0.608,0.608,0,0,0,.08-0.37,0.507,0.507,0,0,0-.08-0.37l-1.38.06c-0.44.02-.89,0.04-1.36,0.04-0.45,0-.9-0.02-1.36-0.04l-1.4-.06a0.507,0.507,0,0,0-.08.37,0.608,0.608,0,0,0,.08.37c0.1,0,.27.02,0.52,0.04a5.968,5.968,0,0,1,.72.11,0.43,0.43,0,0,1,.37.21,3,3,0,0,1,.11.76c0,0.31.01,0.64,0.01,1v4.07a0.189,0.189,0,0,1-.05.08c-0.53.01-1.12,0.03-1.76,0.04s-1.26.03-1.82,0.03c-0.66,0-1.29-.01-1.9-0.03s-1.2-.03-1.77-0.04a0.073,0.073,0,0,1-.05-0.05v-4.39c0-.31,0-0.59.01-0.84a3.142,3.142,0,0,1,.08-0.63,0.516,0.516,0,0,1,.39-0.21,4.954,4.954,0,0,1,.72-0.11c0.26-.02.43-0.04,0.53-0.04a0.692,0.692,0,0,0,.08-0.37,0.507,0.507,0,0,0-.08-0.37l-1.38.06c-0.44.02-.9,0.04-1.36,0.04S1231.27,3419.57,1230.81,3419.55Zm17.01,0-1.42-.06a0.451,0.451,0,0,0-.08.34,0.528,0.528,0,0,0,.08.33,5,5,0,0,1,.53.04,5.57,5.57,0,0,1,.73.11,0.4,0.4,0,0,1,.37.21,2.552,2.552,0,0,1,.11.76c0.01,0.31.01,0.64,0.01,0.99v10.01c0,0.35,0,.68-0.01.98a2.409,2.409,0,0,1-.11.74,0.437,0.437,0,0,1-.37.22,4.281,4.281,0,0,1-.73.13,5,5,0,0,1-.53.04,0.549,0.549,0,0,0-.08.33,0.451,0.451,0,0,0,.08.34c0.46,0,.91-0.01,1.35-0.04s0.92-.03,1.46-0.03c1.57,0,2.98.01,4.23,0.05s2.51,0.04,3.77.04a9.621,9.621,0,0,1,.52-1.84c0.26-.72.51-1.4,0.73-2.04a0.825,0.825,0,0,0-.58-0.15,0.3,0.3,0,0,0-.33.15q-0.3.735-.6,1.38a2.286,2.286,0,0,1-.87.97,3.688,3.688,0,0,1-1.3.48,8.248,8.248,0,0,1-1.65.17H1252c-0.5,0-.86-0.02-1.1-0.04a1.181,1.181,0,0,1-.58-0.2,0.99,0.99,0,0,1-.11-0.6c-0.01-.35-0.01-0.64-0.01-0.87v-4.6c0-.08.09-0.13,0.28-0.16s0.42-.04.69-0.05,0.5-.01.71-0.01c0.3,0,.63.01,0.97,0.01s0.66,0.03.95,0.05a1.3,1.3,0,0,1,.55.13,0.909,0.909,0,0,1,.21.18,2.033,2.033,0,0,1,.19.41c0.07,0.2.16,0.53,0.27,0.97a0.355,0.355,0,0,0,.36.17,0.538,0.538,0,0,0,.39-0.1v-4.41a0.574,0.574,0,0,0-.41-0.12,0.286,0.286,0,0,0-.34.17,8.567,8.567,0,0,1-.26.91,1.036,1.036,0,0,1-.34.5,1.237,1.237,0,0,1-.68.22c-0.31.03-.75,0.05-1.31,0.05h-1.23q-0.375,0-.69-0.03c-0.21-.01-0.31-0.05-0.31-0.12v-4.63c0-.27,0-0.53.01-0.79a2.529,2.529,0,0,1,.08-0.62,0.468,0.468,0,0,1,.39-0.17q0.33-.045.72-0.06c0.25-.01.43-0.01,0.53-0.01h2.01a3.424,3.424,0,0,1,1.64.38,2.838,2.838,0,0,1,1.08,1.8c0.01,0.11.13,0.17,0.33,0.17a0.558,0.558,0,0,0,.41-0.12c-0.11-.53-0.23-1.04-0.36-1.54a13.525,13.525,0,0,1-.31-1.63c-1.27,0-2.56.03-3.89,0.07s-2.55.08-3.65,0.08C1248.74,3419.59,1248.28,3419.57,1247.82,3419.55Zm13.03,13.36a4.672,4.672,0,0,1-.61,1.02,1.064,1.064,0,0,1-.69.35,4.411,4.411,0,0,1-.73.11,1.088,1.088,0,0,0-.05.37,0.535,0.535,0,0,0,.05.3c0.37-.02.67-0.03,0.91-0.05s0.48-.03.72-0.05,0.54-.02.89-0.02,0.64,0.01.86,0.02,0.43,0.04.64,0.05,0.48,0.03.78,0.05a0.792,0.792,0,0,0,.03-0.37,0.69,0.69,0,0,0-.07-0.3c-0.07,0-.23-0.02-0.5-0.05a2.842,2.842,0,0,1-.76-0.2,0.506,0.506,0,0,1-.38-0.42,4.7,4.7,0,0,1,.06-0.65,5.882,5.882,0,0,1,.28-1.01c0.13-.38.28-0.79,0.44-1.23s0.38-.98.62-1.62a0.326,0.326,0,0,1,.12-0.08c0.52-.03.96-0.05,1.29-0.06s0.75-.01,1.23-0.01h1.44c0.35,0,.65.01,0.89,0.03a0.259,0.259,0,0,1,.14.09c0.21,0.53.4,1,.56,1.41s0.32,0.82.48,1.26,0.29,0.82.39,1.16a2.755,2.755,0,0,1,.16.73,0.461,0.461,0,0,1-.1.34,1.4,1.4,0,0,1-.62.22,3.985,3.985,0,0,1-.67.09,0.436,0.436,0,0,0-.11.33,0.451,0.451,0,0,0,.08.34c0.55-.03,1-0.06,1.36-0.08s0.81-.04,1.36-0.04c0.51,0,.95.01,1.32,0.04s0.78,0.05,1.25.08a1.459,1.459,0,0,0,.04-0.3,0.461,0.461,0,0,0-.07-0.37,2.484,2.484,0,0,1-.44-0.09,2.526,2.526,0,0,1-.7-0.27,1.045,1.045,0,0,1-.47-0.46q-0.075-.135-0.6-1.53l-4.78-12.53a0.163,0.163,0,0,1-.06-0.03,0.092,0.092,0,0,0-.06-0.01,1,1,0,0,0-.49.24,1.271,1.271,0,0,0-.42.43c-0.24.61-.52,1.31-0.83,2.11s-0.64,1.63-.97,2.51-0.67,1.72-1,2.54-0.62,1.57-.88,2.24-0.53,1.4-.84,2.19C1261.18,3432.14,1261.02,3432.54,1260.85,3432.91Zm7.15-4.95c-0.02.08-.04,0.12-0.08,0.12-0.35.02-.67,0.03-0.97,0.05s-0.63.02-1,.02c-0.25,0-.59,0-1.02-0.01s-0.79-.02-1.09-0.04a0.111,0.111,0,0,1-.05-0.09l2.14-5.71Zm11.13-8.4q-0.81.03-1.5,0.03c-0.45,0-.9-0.02-1.36-0.04l-1.4-.06a0.41,0.41,0,0,0-.09.34,0.593,0.593,0,0,0,.09.33,4.735,4.735,0,0,1,.51.04,5.416,5.416,0,0,1,.72.11,0.416,0.416,0,0,1,.38.21,2.59,2.59,0,0,1,.1.76c0.01,0.31.02,0.64,0.02,0.99l0.02,10.01c0,0.35,0,.68-0.01.98a2.759,2.759,0,0,1-.11.74,0.455,0.455,0,0,1-.37.22,4.281,4.281,0,0,1-.73.13,5.18,5.18,0,0,1-.53.04,0.621,0.621,0,0,0-.09.33,0.41,0.41,0,0,0,.09.34c0.48-.03.95-0.06,1.41-0.08s0.93-.04,1.37-0.04c0.47,0,.92.01,1.36,0.04s0.9,0.05,1.38.08a0.448,0.448,0,0,0,.09-0.34,0.621,0.621,0,0,0-.09-0.33,5.18,5.18,0,0,1-.53-0.04,4.165,4.165,0,0,1-.72-0.13,0.522,0.522,0,0,1-.38-0.22,2.32,2.32,0,0,1-.09-0.61c0-.24-0.01-0.52-0.01-0.82v-4.66h1.23a0.814,0.814,0,0,1,.72.29c0.37,0.57.75,1.16,1.15,1.76s0.78,1.17,1.13,1.69,0.66,0.98.91,1.35,0.44,0.61.53,0.74a2.321,2.321,0,0,0,.84.73c0.29,0.14.52,0.24,0.68,0.3a6.18,6.18,0,0,0,1.14.21c0.52,0.05,1.17.08,1.95,0.08a1.954,1.954,0,0,0,.08-0.31,0.418,0.418,0,0,0-.05-0.36,3.616,3.616,0,0,1-1.55-.41,3.542,3.542,0,0,1-1.09-1.01c-0.52-.68-0.98-1.31-1.4-1.88s-0.81-1.14-1.2-1.72-0.78-1.2-1.2-1.89a4.893,4.893,0,0,0,1.53-.86,5.538,5.538,0,0,0,1.2-1.4,3.162,3.162,0,0,0,.47-1.63,3.456,3.456,0,0,0-.44-1.76,4.041,4.041,0,0,0-1.14-1.26,5.48,5.48,0,0,0-1.55-.77,5.593,5.593,0,0,0-1.63-.26C1280.28,3419.54,1279.67,3419.55,1279.13,3419.56Zm3.88,6.04a3.589,3.589,0,0,1-1.36,1.17,3.784,3.784,0,0,1-1.74.42h-1.25l-0.02-4.89c0-.35,0-0.7.01-1.05a2.022,2.022,0,0,1,.11-0.73,0.591,0.591,0,0,1,.52-0.19c0.29-.02.51-0.02,0.66-0.02a3.43,3.43,0,0,1,2.77.98,3.806,3.806,0,0,1,.83,2.52A3.074,3.074,0,0,1,1283.01,3425.6Zm8.1-6.11a2.791,2.791,0,0,1-.69-0.11,4.84,4.84,0,0,1-.61-0.2,1.684,1.684,0,0,0-.27-0.09,0.433,0.433,0,0,0-.28.02c-0.08.72-.17,1.41-0.27,2.08s-0.21,1.32-.33,1.95a1.276,1.276,0,0,0,.15.12,0.419,0.419,0,0,0,.28.04,0.332,0.332,0,0,0,.33-0.12,5.793,5.793,0,0,1,.82-2.03,1.668,1.668,0,0,1,1.44-.82h3.03v11.95c0,0.35,0,.68-0.01.98a2.759,2.759,0,0,1-.11.74,0.455,0.455,0,0,1-.37.22,4.4,4.4,0,0,1-.74.13,4.865,4.865,0,0,1-.52.04,0.621,0.621,0,0,0-.09.33,0.41,0.41,0,0,0,.09.34c0.48-.03.95-0.06,1.41-0.08s0.92-.04,1.37-0.04c0.47,0,.92.01,1.36,0.04s0.9,0.05,1.38.08a0.451,0.451,0,0,0,.08-0.34,0.549,0.549,0,0,0-.08-0.33,4.7,4.7,0,0,1-.52-0.04,3.939,3.939,0,0,1-.7-0.13,0.526,0.526,0,0,1-.39-0.22,2.759,2.759,0,0,1-.11-0.74c-0.01-.3-0.01-0.63-0.01-0.98v-11.95h2.98a1.668,1.668,0,0,1,1.44.82,5.423,5.423,0,0,1,.79,2.03,0.351,0.351,0,0,0,.34.12,0.46,0.46,0,0,0,.29-0.04c0.08-.05.13-0.09,0.17-0.12-0.13-.63-0.25-1.27-0.35-1.95s-0.2-1.36-.28-2.08a0.3,0.3,0,0,0-.17-0.05,0.856,0.856,0,0,0-.26.09,4,4,0,0,1-.67.22,3.161,3.161,0,0,1-.75.12h-9.17Z" transform="translate(-1020 -2910)"/>
    <path id="心の豊かさ" class="cls-5" d="M1158.68,3450.43a1.8,1.8,0,0,1,.06-0.65,0.3,0.3,0,0,0,.05-0.14,0.137,0.137,0,0,0-.14-0.1,4.245,4.245,0,0,0-.67-0.08,5.017,5.017,0,0,1,.06.91v3.89a0.838,0.838,0,0,0,.44.91,3.416,3.416,0,0,0,1.48.19,2.936,2.936,0,0,0,1.75-.35c0.35-.23.5-0.68,0.53-1.87,0.01-.17.01-0.17-0.17-0.23a1.781,1.781,0,0,1-.48-0.22c0.01,1.34-.09,1.62-0.37,1.82a2.155,2.155,0,0,1-1.23.22,3.046,3.046,0,0,1-1.07-.11,0.527,0.527,0,0,1-.24-0.55v-3.64Zm3.66,0.05c-0.1.04-.11,0.1-0.07,0.16a11.022,11.022,0,0,1,1.34,2.98c0.02,0.07.04,0.06,0.19-.01l0.33-.16c0.13-.06.14-0.09,0.11-0.17a13.022,13.022,0,0,0-1.37-2.91c-0.05-.07-0.08-0.07-0.19-0.03Zm-4.07-3.18c-0.07.12-.07,0.14,0,0.17a9.788,9.788,0,0,1,2.61,1.41c0.07,0.05.08,0.04,0.17-.1l0.18-.32c0.07-.11.07-0.13,0.01-0.17a11.335,11.335,0,0,0-2.64-1.34c-0.07-.03-0.08-0.02-0.15.09Zm-1.65,3.21c-0.16-.04-0.17-0.05-0.18.03a8.688,8.688,0,0,1-1.06,3.12c-0.03.06-.03,0.1,0.13,0.17l0.32,0.14c0.11,0.05.15,0.04,0.19-.03a10.7,10.7,0,0,0,1.05-3.24c0.01-.07,0-0.09-0.13-0.12Zm13.67-1.83a2.5,2.5,0,0,1,2.58,2.53c0,1.67-1.14,2.73-3.12,3.12a1.163,1.163,0,0,1,.39.37,0.2,0.2,0,0,0,.26.11c2.17-.55,3.18-1.85,3.18-3.48,0-1.91-1.33-3.22-3.57-3.22a4.221,4.221,0,0,0-2.99,1.11,3.632,3.632,0,0,0-1.16,2.59c0,1.44.71,2.26,1.46,2.26a1.666,1.666,0,0,0,1.46-1.03,11.058,11.058,0,0,0,1.32-4.36h0.19Zm-0.89.04a10.618,10.618,0,0,1-1.17,3.91,1.136,1.136,0,0,1-.92.72c-0.36,0-.81-0.46-0.81-1.55a3.1,3.1,0,0,1,.96-2.16A3.311,3.311,0,0,1,1169.4,3448.72Zm13.69-.32c0-.58.02-0.78,0.02-0.83,0-.07-0.01-0.08-0.08-0.08s-0.41.02-1.43,0.02H1181v-0.08a1.366,1.366,0,0,1,.05-0.52,0.192,0.192,0,0,0,.04-0.12,0.092,0.092,0,0,0-.1-0.09c-0.16-.02-0.37-0.04-0.59-0.05a4.251,4.251,0,0,1,.05.77v0.09h-1.48v-0.1a1.048,1.048,0,0,1,.06-0.49,0.22,0.22,0,0,0,.04-0.13,0.1,0.1,0,0,0-.11-0.09c-0.17-.02-0.38-0.04-0.6-0.05a3.777,3.777,0,0,1,.06.8v0.06h-0.53c-1.01,0-1.37-.02-1.42-0.02-0.07,0-.08.01-0.08,0.08,0,0.05.02,0.25,0.02,0.83v1.08c0,0.59-.02.79-0.02,0.84,0,0.08.01,0.09,0.08,0.09,0.05,0,.41-0.02,1.42-0.02h3.71c1.02,0,1.37.02,1.43,0.02s0.08-.01.08-0.09c0-.05-0.02-0.25-0.02-0.84v-1.08Zm-0.56,1.55H1181v-0.82h1.53v0.82Zm-2.08,0h-1.48v-0.82h1.48v0.82Zm-2.03,0h-1.46v-0.82h1.46v0.82Zm4.11-1.25H1181v-0.75h1.53v0.75Zm-2.08,0h-1.48v-0.75h1.48v0.75Zm-2.03,0h-1.46v-0.75h1.46v0.75Zm4.06,3.98c0-.4.02-0.51,0.02-0.57s-0.01-.08-0.08-0.08c-0.05,0-.39.02-1.35,0.02h-2.67c-0.95,0-1.28-.02-1.34-0.02s-0.08.01-.08,0.08,0.02,0.17.02,0.57v0.48c0,0.39-.02.51-0.02,0.57s0.01,0.08.08,0.08,0.39-.02,1.34-0.02h2.67c0.96,0,1.3.02,1.35,0.02,0.07,0,.08-0.01.08-0.08s-0.02-.18-0.02-0.57v-0.48Zm-0.6.65h-4.3v-0.81h4.3v0.81Zm2.28,1.52c0-.07-0.01-0.08-0.07-0.08s-0.36.02-1.29,0.02h-1.64c0.1-.14.17-0.25,0.21-0.32a1.078,1.078,0,0,1,.18-0.25,0.126,0.126,0,0,0,.07-0.1,0.1,0.1,0,0,0-.09-0.09,3.862,3.862,0,0,0-.54-0.17,1.682,1.682,0,0,1-.16.46,4.059,4.059,0,0,1-.27.47h-1.68a6.7,6.7,0,0,0-.44-0.86c-0.04-.06-0.05-0.07-0.15-0.04l-0.29.1c-0.12.04-.13,0.06-0.09,0.13a3.8,3.8,0,0,1,.34.67h-1.53c-0.93,0-1.24-.02-1.29-0.02-0.07,0-.08.01-0.08,0.08v0.42c0,0.07.01,0.08,0.08,0.08,0.05,0,.36-0.02,1.29-0.02h6.08c0.93,0,1.23.02,1.29,0.02s0.07-.01.07-0.08v-0.42Zm-0.13-3.81c0-.08-0.01-0.09-0.08-0.09-0.05,0-.36.02-1.32,0.02h-5.73c-0.96,0-1.27-.02-1.32-0.02-0.08,0-.09.01-0.09,0.09v0.39c0,0.06.01,0.07,0.09,0.07,0.05,0,.36-0.01,1.32-0.01h5.73c0.96,0,1.27.01,1.32,0.01,0.07,0,.08-0.01.08-0.07v-0.39Zm4.17-1.46c-0.47.07-.85,0.13-1.4,0.19a6.773,6.773,0,0,1-1.04.05,3.807,3.807,0,0,0,.23.68c0.06,0.12.15,0.12,0.26,0.05a1.454,1.454,0,0,1,.44-0.13c0.5-.09.9-0.16,1.31-0.22a20.565,20.565,0,0,1-1.91,4.25,0.113,0.113,0,0,0,.02.16,2.816,2.816,0,0,0,.4.27,0.12,0.12,0,0,0,.17-0.05,27.048,27.048,0,0,0,2.03-4.72,7.064,7.064,0,0,1,1.08-.11c0.54,0,.69.28,0.69,1.06a7.5,7.5,0,0,1-.45,2.8,0.672,0.672,0,0,1-.67.52,2.913,2.913,0,0,1-1.16-.28,1.773,1.773,0,0,1,.12.6,0.163,0.163,0,0,0,.12.17,2.627,2.627,0,0,0,1.02.18,1.2,1.2,0,0,0,1.14-.79,8.3,8.3,0,0,0,.55-3.22c0-1.17-.43-1.61-1.3-1.61a9.2,9.2,0,0,0-.97.07c0.15-.49.28-0.96,0.43-1.45a0.678,0.678,0,0,1,.17-0.33,0.14,0.14,0,0,0-.04-0.25,4.2,4.2,0,0,0-.78-0.27,3.369,3.369,0,0,1-.09.95C1188.44,3448.71,1188.33,3449.11,1188.2,3449.58Zm3.59-.3a5.557,5.557,0,0,1,1.6,2.53c0.02,0.1.09,0.11,0.17,0.06a2.235,2.235,0,0,0,.41-0.27,0.136,0.136,0,0,0,.03-0.17,5.7,5.7,0,0,0-1.61-2.42,0.127,0.127,0,0,0-.15-0.04A4.5,4.5,0,0,0,1191.79,3449.28Zm7.76-.2a16.738,16.738,0,0,1-1.96.23,8.01,8.01,0,0,1-.98,0,3.039,3.039,0,0,0,.11.52c0.03,0.08.05,0.12,0.12,0.12a8.242,8.242,0,0,0,.84-0.03c0.69-.05,1.38-0.12,2.15-0.25a8.794,8.794,0,0,0,1.54,2.31,4.954,4.954,0,0,0-2.12-.45c-1.38,0-2.47.58-2.47,1.73,0,1.34,1.53,1.93,3.36,1.93,0.44,0,.97-0.03,1.15-0.05a0.141,0.141,0,0,0,.13-0.1,3.386,3.386,0,0,0,.13-0.65,7.9,7.9,0,0,1-1.44.12c-1.46,0-2.69-.38-2.69-1.3,0-.7.65-1.13,1.85-1.13a4.751,4.751,0,0,1,2.27.54c0.12,0.07.23,0.13,0.36,0.22a0.22,0.22,0,0,0,.12.06,0.216,0.216,0,0,0,.13-0.1c0.07-.1.19-0.28,0.26-0.4a0.2,0.2,0,0,0,.03-0.11,0.113,0.113,0,0,0-.07-0.09,1.634,1.634,0,0,1-.27-0.22,9.52,9.52,0,0,1-1.66-2.44c0.81-.19,1.54-0.39,2.16-0.6a0.1,0.1,0,0,0,.05-0.13,2.1,2.1,0,0,0-.13-0.44,0.1,0.1,0,0,0-.14-0.05,17.459,17.459,0,0,1-2.19.64c-0.13-.31-0.22-0.54-0.33-0.84a3.364,3.364,0,0,1-.18-0.66,1.21,1.21,0,0,1-.01-0.26,0.17,0.17,0,0,0-.21-0.15,6.119,6.119,0,0,0-.79.09,2.452,2.452,0,0,1,.42.77C1199.27,3448.38,1199.38,3448.66,1199.55,3449.08Z" transform="translate(-1020 -2910)"/>
  </g>
</svg>
