<svg id="service_cons_img02.svg" xmlns="http://www.w3.org/2000/svg" width="546.621" height="505.38" viewBox="0 0 546.621 505.38">
  <defs>
    <style>
      .cls-1 {
        fill: #fff;
        stroke: #ebebeb;
        stroke-width: 20px;
      }

      .cls-1, .cls-3, .cls-6 {
        stroke-linejoin: round;
      }

      .cls-2, .cls-3, .cls-9 {
        fill: #787878;
      }

      .cls-3, .cls-6 {
        fill-opacity: 0;
        stroke-width: 1px;
      }

      .cls-3 {
        stroke: #787878;
      }

      .cls-4 {
        fill: #dcdcdc;
      }

      .cls-4, .cls-7, .cls-8, .cls-9 {
        fill-rule: evenodd;
      }

      .cls-5, .cls-6 {
        fill: #b4b4b4;
      }

      .cls-6 {
        stroke: #b4b4b4;
      }

      .cls-7 {
        fill: #fafafa;
      }

      .cls-8 {
        fill: #1e1e1e;
      }
    </style>
  </defs>
  <circle id="bg" class="cls-1" cx="271.373" cy="250.19" r="224.998"/>
  <g id="degital">
    <circle id="楕円形_2_のコピー" data-name="楕円形 2 のコピー" class="cls-2" cx="80.217" cy="425.19" r="74.374"/>
    <circle id="楕円形_2_のコピー_4" data-name="楕円形 2 のコピー 4" class="cls-3" cx="80.2" cy="425.19" r="79.7"/>
    <path id="DIGITAL" class="cls-4" d="M914,5167.11c-0.694.01-1.292,0.01-1.794,0.01-0.486,0-.98-0.01-1.482-0.04s-1.014-.05-1.534-0.06a0.463,0.463,0,0,0-.091.36,0.649,0.649,0,0,0,.091.36c0.1,0,.294.02,0.572,0.04s0.541,0.07.793,0.12a0.449,0.449,0,0,1,.4.23,2.98,2.98,0,0,1,.117.82c0.008,0.34.013,0.7,0.013,1.08v10.84c0,0.39,0,.74-0.013,1.07a2.9,2.9,0,0,1-.117.81,0.547,0.547,0,0,1-.4.23,4.043,4.043,0,0,1-.793.14c-0.278.03-.468,0.04-0.572,0.04a0.69,0.69,0,0,0-.091.37,0.463,0.463,0,0,0,.091.36h6.344a12.3,12.3,0,0,0,4.472-.71,6.979,6.979,0,0,0,4.342-4.7,11.3,11.3,0,0,0,.442-3.14,8.36,8.36,0,0,0-1.066-4.23,7.612,7.612,0,0,0-3.068-2.94,9.944,9.944,0,0,0-4.784-1.08C915.315,5167.09,914.691,5167.1,914,5167.11Zm-0.676,2.82v-0.16c0-.31,0-0.61.013-0.89a2.693,2.693,0,0,1,.091-0.69,0.515,0.515,0,0,1,.416-0.19q0.363-.045.78-0.06c0.277-.01.468-0.01,0.572-0.01a8.036,8.036,0,0,1,2.639.43,6.073,6.073,0,0,1,2.262,1.37,6.744,6.744,0,0,1,1.586,2.46,10.2,10.2,0,0,1,.585,3.67,8,8,0,0,1-.936,4.07,6.012,6.012,0,0,1-2.457,2.37,7.214,7.214,0,0,1-3.341.78,10.835,10.835,0,0,1-1.313-.07,1.2,1.2,0,0,1-.767-0.29,1.315,1.315,0,0,1-.091-0.45q-0.039-.39-0.039-0.78v-11.56Zm15.937-2.85c-0.5-.02-1.014-0.05-1.534-0.06a0.471,0.471,0,0,0-.091.36,0.658,0.658,0,0,0,.091.36c0.1,0,.295.02,0.572,0.04s0.542,0.07.793,0.12a0.446,0.446,0,0,1,.4.23,2.906,2.906,0,0,1,.117.82q0.014,0.51.013,1.08v10.84c0,0.39,0,.74-0.013,1.07a2.83,2.83,0,0,1-.117.81,0.543,0.543,0,0,1-.4.23,4.017,4.017,0,0,1-.793.14c-0.277.03-.468,0.04-0.572,0.04a0.7,0.7,0,0,0-.091.37,0.471,0.471,0,0,0,.091.36l1.534-.09c0.5-.03,1-0.04,1.482-0.04,0.5,0,.993.01,1.469,0.04s0.975,0.06,1.5.09a0.463,0.463,0,0,0,.091-0.36,0.69,0.69,0,0,0-.091-0.37c-0.1,0-.294-0.01-0.572-0.04a3.8,3.8,0,0,1-.78-0.14,0.662,0.662,0,0,1-.416-0.23,2.772,2.772,0,0,1-.091-0.67c-0.008-.26-0.013-0.56-0.013-0.89v-11.47c0-.33,0-0.63.013-0.91a2.789,2.789,0,0,1,.091-0.68,0.522,0.522,0,0,1,.416-0.23q0.365-.075.78-0.12c0.278-.02.468-0.04,0.572-0.04a0.649,0.649,0,0,0,.091-0.36,0.463,0.463,0,0,0-.091-0.36c-0.52.01-1.018,0.04-1.5,0.06s-0.966.04-1.469,0.04C930.256,5167.12,929.762,5167.11,929.259,5167.08Zm19.63,14.86a1.492,1.492,0,0,1-.013.22,0.187,0.187,0,0,1-.143.14,10.213,10.213,0,0,1-1.339.56,5.019,5.019,0,0,1-1.755.28,5.848,5.848,0,0,1-2.9-.69,6.2,6.2,0,0,1-2.054-1.85,8.305,8.305,0,0,1-1.222-2.59,10.63,10.63,0,0,1-.4-2.91,8.5,8.5,0,0,1,.429-2.64,8.136,8.136,0,0,1,1.248-2.39,6.2,6.2,0,0,1,1.963-1.71,5.1,5.1,0,0,1,2.548-.64,6.073,6.073,0,0,1,2.548.45,4,4,0,0,1,2.171,2.36,7.748,7.748,0,0,1,.247.88,0.617,0.617,0,0,0,.312.08,0.771,0.771,0,0,0,.39-0.11,0.2,0.2,0,0,0,.156-0.2q0-.105-0.091-0.69c-0.061-.39-0.126-0.83-0.195-1.3s-0.165-1.07-.286-1.78a19.459,19.459,0,0,0-2.769-.42c-0.91-.07-1.781-0.1-2.613-0.1a8.483,8.483,0,0,0-3.445.69,8.1,8.1,0,0,0-2.717,1.91,8.891,8.891,0,0,0-2.418,6.16,8.2,8.2,0,0,0,5.044,7.66,8.72,8.72,0,0,0,3.432.66,14.94,14.94,0,0,0,2.769-.21,8.6,8.6,0,0,0,1.794-.52q0.716-.315,1.261-0.6a2.292,2.292,0,0,0,.416-0.26,0.241,0.241,0,0,0,.078-0.18,0.789,0.789,0,0,0-.13-0.42,1.15,1.15,0,0,1-.13-0.62v-1.79c0-.38,0-0.74.013-1.07a2.9,2.9,0,0,1,.117-0.81,0.523,0.523,0,0,1,.39-0.24,4.009,4.009,0,0,1,.728-0.13,5.146,5.146,0,0,1,.546-0.04,0.7,0.7,0,0,0,.091-0.37,0.467,0.467,0,0,0-.091-0.36c-0.52.02-1,.04-1.443,0.08s-0.914.05-1.417,0.05c-0.485,0-.971-0.02-1.456-0.05s-0.988-.06-1.508-0.08a0.467,0.467,0,0,0-.091.36,0.7,0.7,0,0,0,.091.37,5.486,5.486,0,0,1,.559.04,4.922,4.922,0,0,1,.78.13,0.47,0.47,0,0,1,.4.24,2.772,2.772,0,0,1,.091.67c0.009,0.27.013,0.57,0.013,0.89v2.89Zm7.9-14.86c-0.5-.02-1.014-0.05-1.534-0.06a0.467,0.467,0,0,0-.091.36,0.658,0.658,0,0,0,.091.36c0.1,0,.295.02,0.572,0.04s0.542,0.07.793,0.12a0.448,0.448,0,0,1,.4.23,2.98,2.98,0,0,1,.117.82q0.014,0.51.013,1.08v10.84c0,0.39,0,.74-0.013,1.07a2.9,2.9,0,0,1-.117.81,0.545,0.545,0,0,1-.4.23,4.03,4.03,0,0,1-.793.14c-0.277.03-.468,0.04-0.572,0.04a0.7,0.7,0,0,0-.091.37,0.467,0.467,0,0,0,.091.36l1.534-.09c0.5-.03,1-0.04,1.482-0.04,0.5,0,.992.01,1.469,0.04s0.975,0.06,1.5.09a0.467,0.467,0,0,0,.091-0.36,0.7,0.7,0,0,0-.091-0.37c-0.1,0-.3-0.01-0.572-0.04a3.8,3.8,0,0,1-.78-0.14,0.659,0.659,0,0,1-.416-0.23,2.772,2.772,0,0,1-.091-0.67c-0.009-.26-0.013-0.56-0.013-0.89v-11.47c0-.33,0-0.63.013-0.91a2.789,2.789,0,0,1,.091-0.68,0.52,0.52,0,0,1,.416-0.23q0.365-.075.78-0.12c0.277-.02.468-0.04,0.572-0.04a0.658,0.658,0,0,0,.091-0.36,0.467,0.467,0,0,0-.091-0.36c-0.52.01-1.018,0.04-1.5,0.06s-0.966.04-1.469,0.04C957.79,5167.12,957.3,5167.11,956.793,5167.08Zm9.022-.06a2.814,2.814,0,0,1-.741-0.12,5.082,5.082,0,0,1-.663-0.22,0.868,0.868,0,0,0-.286-0.09,0.539,0.539,0,0,0-.312.01c-0.087.78-.182,1.53-0.286,2.26s-0.226,1.43-.364,2.11a1.345,1.345,0,0,0,.169.13,0.413,0.413,0,0,0,.3.05,0.392,0.392,0,0,0,.364-0.13,6.293,6.293,0,0,1,.884-2.21,1.8,1.8,0,0,1,1.56-.88h3.276v12.94c0,0.39,0,.74-0.013,1.07a2.9,2.9,0,0,1-.117.81,0.547,0.547,0,0,1-.4.23,4.043,4.043,0,0,1-.793.14c-0.278.03-.468,0.04-0.572,0.04a0.69,0.69,0,0,0-.091.37,0.463,0.463,0,0,0,.091.36l1.534-.09c0.5-.03,1-0.04,1.482-0.04,0.5,0,.992.01,1.469,0.04s0.975,0.06,1.5.09a0.471,0.471,0,0,0,.091-0.36,0.7,0.7,0,0,0-.091-0.37,5.468,5.468,0,0,1-.559-0.04,3.759,3.759,0,0,1-.767-0.14,0.655,0.655,0,0,1-.416-0.23,2.83,2.83,0,0,1-.117-0.81c-0.009-.33-0.013-0.68-0.013-1.07v-12.94h3.224a1.807,1.807,0,0,1,1.56.88,6.009,6.009,0,0,1,.858,2.21,0.391,0.391,0,0,0,.364.13,0.46,0.46,0,0,0,.312-0.05,1.21,1.21,0,0,0,.182-0.13c-0.139-.68-0.265-1.38-0.377-2.11s-0.213-1.48-.3-2.26a0.491,0.491,0,0,0-.182-0.05,0.766,0.766,0,0,0-.286.1,5.421,5.421,0,0,1-.728.24,3.686,3.686,0,0,1-.806.13h-9.932Zm15.327,14.54a5.179,5.179,0,0,1-.663,1.11,1.2,1.2,0,0,1-.741.38,5.175,5.175,0,0,1-.793.11,1.177,1.177,0,0,0-.052.41,0.546,0.546,0,0,0,.052.32c0.4-.02.728-0.03,0.988-0.05s0.52-.04.78-0.05,0.58-.03.962-0.03,0.689,0.01.923,0.03,0.468,0.03.7,0.05,0.515,0.03.845,0.05a0.931,0.931,0,0,0,.026-0.4,0.744,0.744,0,0,0-.078-0.33,4.409,4.409,0,0,1-.533-0.05,3.028,3.028,0,0,1-.832-0.22,0.519,0.519,0,0,1-.4-0.46,5.083,5.083,0,0,1,.065-0.7,5.862,5.862,0,0,1,.3-1.09c0.138-.42.3-0.86,0.481-1.34s0.4-1.06.663-1.75a0.282,0.282,0,0,1,.13-0.08c0.572-.04,1.04-0.06,1.4-0.07s0.806-.01,1.326-0.01h1.56q0.571,0,.962.03a0.276,0.276,0,0,1,.156.1c0.225,0.57.424,1.08,0.6,1.52s0.346,0.9.52,1.37,0.316,0.89.429,1.26a3.181,3.181,0,0,1,.169.79,0.488,0.488,0,0,1-.1.36,1.433,1.433,0,0,1-.676.25,4.544,4.544,0,0,1-.728.09,0.547,0.547,0,0,0-.117.37,0.463,0.463,0,0,0,.091.36q0.884-.045,1.469-0.09c0.39-.03.879-0.04,1.469-0.04,0.554,0,1.031.01,1.43,0.04s0.849,0.06,1.352.09a1.345,1.345,0,0,0,.052-0.32,0.571,0.571,0,0,0-.078-0.41,2.852,2.852,0,0,1-.481-0.09,2.95,2.95,0,0,1-.754-0.3,1.115,1.115,0,0,1-.507-0.49c-0.052-.11-0.269-0.66-0.65-1.67l-5.174-13.57a0.133,0.133,0,0,1-.065-0.04,0.35,0.35,0,0,0-.065-0.01,1.1,1.1,0,0,0-.533.26,1.444,1.444,0,0,0-.455.47c-0.26.66-.559,1.42-0.9,2.29s-0.689,1.77-1.053,2.71-0.724,1.87-1.079,2.76-0.672,1.7-.949,2.43-0.581,1.52-.91,2.37C981.5,5180.73,981.324,5181.16,981.142,5181.56Zm7.735-5.37c-0.018.09-.044,0.13-0.078,0.13q-0.573.03-1.053,0.06c-0.321.01-.681,0.02-1.079,0.02-0.278,0-.646,0-1.105-0.01s-0.854-.02-1.183-0.04a0.115,0.115,0,0,1-.052-0.1l2.314-6.19Zm12.063-6.16v-0.31c0-.33,0-0.63.01-0.91a2.951,2.951,0,0,1,.09-0.68,0.545,0.545,0,0,1,.42-0.23q0.36-.075.78-0.12c0.28-.02.47-0.04,0.57-0.04a0.687,0.687,0,0,0,.09-0.36,0.46,0.46,0,0,0-.09-0.36c-0.52.01-1.02,0.04-1.49,0.06s-0.97.04-1.471,0.04-0.98-.01-1.482-0.04-1.014-.05-1.534-0.06a0.463,0.463,0,0,0-.091.36,0.649,0.649,0,0,0,.091.36c0.1,0,.294.02,0.572,0.04s0.541,0.07.793,0.12a0.449,0.449,0,0,1,.4.23,2.98,2.98,0,0,1,.117.82c0.008,0.34.013,0.7,0.013,1.08v10.84c0,0.39,0,.74-0.013,1.07a2.9,2.9,0,0,1-.117.81,0.547,0.547,0,0,1-.4.23,4.043,4.043,0,0,1-.793.14c-0.278.03-.468,0.04-0.572,0.04a0.69,0.69,0,0,0-.091.37,0.463,0.463,0,0,0,.091.36c0.5,0,.988-0.01,1.456-0.04s1-.04,1.586-0.04c1.7,0,3.225.02,4.575,0.05s2.71,0.06,4.08.06a11.624,11.624,0,0,1,.56-2.01c0.29-.78.55-1.51,0.79-2.21a0.914,0.914,0,0,0-.62-0.15,0.329,0.329,0,0,0-.36.15,6.188,6.188,0,0,1-.72,1.62,3.568,3.568,0,0,1-.87.93,3.638,3.638,0,0,1-1.39.54,8.576,8.576,0,0,1-1.6.16h-1.43c-0.54,0-.93-0.01-1.18-0.03a1.293,1.293,0,0,1-.64-0.23,0.5,0.5,0,0,1-.1-0.36q-0.03-.315-0.03-0.69v-11.61Z" transform="translate(-878.719 -4749.81)"/>
  </g>
  <g id="design">
    <circle id="楕円形_2_のコピー-2" data-name="楕円形 2 のコピー" class="cls-5" cx="466.406" cy="80.19" r="74.405"/>
    <circle id="楕円形_2_のコピー_5" data-name="楕円形 2 のコピー 5" class="cls-6" cx="466.406" cy="80.19" r="79.715"/>
    <path id="DESIGN-2" data-name="DESIGN" class="cls-7" d="M1300.46,4820.82c-0.75.01-1.4,0.02-1.94,0.02-0.52,0-1.05-.02-1.59-0.05s-1.09-.05-1.65-0.07a0.508,0.508,0,0,0-.1.4,0.734,0.734,0,0,0,.1.39c0.11,0,.31.01,0.61,0.04a7.728,7.728,0,0,1,.86.13,0.467,0.467,0,0,1,.43.25,3.28,3.28,0,0,1,.13.88c0,0.36.01,0.75,0.01,1.16v11.68c0,0.41-.01.79-0.01,1.15a3.183,3.183,0,0,1-.13.86,0.554,0.554,0,0,1-.43.26,5.937,5.937,0,0,1-.86.15c-0.3.03-.5,0.04-0.61,0.04a0.734,0.734,0,0,0-.1.39,0.508,0.508,0,0,0,.1.4h6.83a13.1,13.1,0,0,0,4.81-.77,7.516,7.516,0,0,0,4.68-5.06,12.075,12.075,0,0,0,.48-3.39,9.074,9.074,0,0,0-1.15-4.55,8.272,8.272,0,0,0-3.31-3.16,10.732,10.732,0,0,0-5.15-1.16C1301.87,4820.81,1301.2,4820.81,1300.46,4820.82Zm-0.73,3.04v-0.17c0-.33,0-0.66.01-0.96a2.893,2.893,0,0,1,.1-0.75,0.585,0.585,0,0,1,.45-0.19,7.128,7.128,0,0,1,.84-0.07c0.3-.01.5-0.02,0.61-0.02a8.781,8.781,0,0,1,2.85.47,6.53,6.53,0,0,1,2.43,1.48,7.065,7.065,0,0,1,1.71,2.65,10.923,10.923,0,0,1,.63,3.94,8.617,8.617,0,0,1-1.01,4.39,6.49,6.49,0,0,1-2.64,2.56,7.82,7.82,0,0,1-3.6.84,10.493,10.493,0,0,1-1.42-.09,1.2,1.2,0,0,1-.82-0.3,1.471,1.471,0,0,1-.1-0.49,7.628,7.628,0,0,1-.04-0.84v-12.45Zm17.16-3.07c-0.54-.02-1.09-0.05-1.65-0.07a0.508,0.508,0,0,0-.1.4,0.734,0.734,0,0,0,.1.39c0.11,0,.32.01,0.62,0.04a7.547,7.547,0,0,1,.85.13,0.467,0.467,0,0,1,.43.25,2.923,2.923,0,0,1,.13.88c0.01,0.36.01,0.75,0.01,1.16v11.68c0,0.41,0,.79-0.01,1.15a2.832,2.832,0,0,1-.13.86,0.554,0.554,0,0,1-.43.26,5.8,5.8,0,0,1-.85.15c-0.3.03-.51,0.04-0.62,0.04a0.734,0.734,0,0,0-.1.39,0.508,0.508,0,0,0,.1.4c0.54,0,1.06-.02,1.57-0.05s1.07-.04,1.71-0.04c1.82,0,3.47.02,4.92,0.06s2.92,0.05,4.4.05a11.389,11.389,0,0,1,.6-2.15c0.31-.84.59-1.63,0.86-2.38a1.015,1.015,0,0,0-.68-0.17,0.369,0.369,0,0,0-.39.17c-0.22.58-.46,1.11-0.7,1.61a2.65,2.65,0,0,1-1.01,1.13,4.188,4.188,0,0,1-1.51.56,9.578,9.578,0,0,1-1.93.2h-1.32c-0.58,0-1-.02-1.27-0.04a1.493,1.493,0,0,1-.69-0.24,1.272,1.272,0,0,1-.12-0.7c-0.01-.41-0.02-0.75-0.02-1.01v-5.38c0-.09.12-0.15,0.34-0.18s0.49-.04.8-0.05,0.58-.02.82-0.02c0.36,0,.74.01,1.14,0.02s0.77,0.02,1.1.05a1.346,1.346,0,0,1,.65.16,0.791,0.791,0,0,1,.24.21,1.9,1.9,0,0,1,.22.47c0.08,0.24.19,0.61,0.32,1.14a0.412,0.412,0,0,0,.42.19,0.628,0.628,0,0,0,.45-0.11v-5.15a0.67,0.67,0,0,0-.48-0.14c-0.24,0-.37.06-0.39,0.19a9.42,9.42,0,0,1-.31,1.07,1.225,1.225,0,0,1-.39.59,1.6,1.6,0,0,1-.8.25c-0.36.04-.87,0.05-1.52,0.05h-1.43c-0.3,0-.57,0-0.81-0.02s-0.37-.07-0.37-0.14v-5.41c0-.31.01-0.62,0.02-0.92a2.789,2.789,0,0,1,.1-0.73,0.537,0.537,0,0,1,.44-0.2c0.26-.03.54-0.06,0.84-0.07s0.51-.01.62-0.01h2.35a3.908,3.908,0,0,1,1.91.45,3.265,3.265,0,0,1,1.26,2.1c0.01,0.13.14,0.19,0.39,0.19a0.616,0.616,0,0,0,.47-0.14c-0.13-.61-0.27-1.21-0.42-1.79a15.686,15.686,0,0,1-.36-1.9c-1.48,0-2.99.03-4.54,0.08s-2.96.09-4.25,0.09C1317.96,4820.84,1317.43,4820.82,1316.89,4820.79Zm18.26,0.41a5.091,5.091,0,0,0-2,1.67,4.193,4.193,0,0,0-.77,2.53,3.861,3.861,0,0,0,.75,2.38,7.765,7.765,0,0,0,1.86,1.75c0.74,0.5,1.45.95,2.15,1.36,0.63,0.35,1.22.69,1.77,1.01a4.7,4.7,0,0,1,1.35,1.12,2.805,2.805,0,0,1,.52,1.79,3.187,3.187,0,0,1-.98,2.48,3.375,3.375,0,0,1-2.3.88,3.953,3.953,0,0,1-2.06-.49,4.262,4.262,0,0,1-1.34-1.22,6.524,6.524,0,0,1-.79-1.41,9.784,9.784,0,0,1-.35-1.08,0.278,0.278,0,0,0-.3-0.25,0.819,0.819,0,0,0-.38.09,1.574,1.574,0,0,0-.32.24c0,0.11.02,0.4,0.07,0.87s0.11,1.01.19,1.62,0.18,1.2.3,1.74c0.67,0.13,1.43.3,2.28,0.5a10.965,10.965,0,0,0,2.64.31,6.269,6.269,0,0,0,2.76-.63,5.639,5.639,0,0,0,2.13-1.76,4.351,4.351,0,0,0,.83-2.62,3.475,3.475,0,0,0-.48-1.81,5.479,5.479,0,0,0-1.23-1.41,16.675,16.675,0,0,0-1.57-1.12c-0.54-.34-1.04-0.64-1.48-0.92-0.6-.4-1.19-0.78-1.78-1.15a5.564,5.564,0,0,1-1.46-1.29,2.848,2.848,0,0,1-.57-1.82,3.609,3.609,0,0,1,.28-1.37,2.632,2.632,0,0,1,.92-1.18,2.975,2.975,0,0,1,1.77-.47,3.01,3.01,0,0,1,1.55.4,4.283,4.283,0,0,1,1.18,1.02,5.945,5.945,0,0,1,.77,1.29,4.74,4.74,0,0,1,.33,1.18,0.45,0.45,0,0,0,.31.11,1.175,1.175,0,0,0,.36-0.07c0.15-.05.22-0.12,0.2-0.21-0.02-.37-0.06-0.94-0.13-1.69s-0.15-1.49-.26-2.2q-0.9-.225-1.5-0.39a10.509,10.509,0,0,0-1.18-.27,9.339,9.339,0,0,0-1.44-.1A6,6,0,0,0,1335.15,4821.2Zm12.63-.41c-0.55-.02-1.1-0.05-1.66-0.07a0.554,0.554,0,0,0-.09.4,0.744,0.744,0,0,0,.09.39c0.12,0,.32.01,0.62,0.04a7.212,7.212,0,0,1,.85.13,0.486,0.486,0,0,1,.44.25,3.329,3.329,0,0,1,.12.88c0.01,0.36.02,0.75,0.02,1.16v11.68c0,0.41-.01.79-0.02,1.15a3.227,3.227,0,0,1-.12.86,0.581,0.581,0,0,1-.44.26,5.574,5.574,0,0,1-.85.15c-0.3.03-.5,0.04-0.62,0.04a0.744,0.744,0,0,0-.09.39,0.554,0.554,0,0,0,.09.4c0.56-.04,1.11-0.07,1.66-0.1s1.07-.04,1.59-0.04c0.54,0,1.07.01,1.58,0.04s1.05,0.06,1.61.1a0.508,0.508,0,0,0,.1-0.4,0.734,0.734,0,0,0-.1-0.39c-0.11,0-.31-0.01-0.61-0.04a5.234,5.234,0,0,1-.84-0.15,0.686,0.686,0,0,1-.45-0.26,2.625,2.625,0,0,1-.1-0.71c-0.01-.29-0.01-0.61-0.01-0.97v-12.34c0-.36,0-0.68.01-0.98a2.789,2.789,0,0,1,.1-0.73,0.556,0.556,0,0,1,.45-0.25,6.734,6.734,0,0,1,.84-0.13c0.3-.03.5-0.04,0.61-0.04a0.734,0.734,0,0,0,.1-0.39,0.508,0.508,0,0,0-.1-0.4c-0.56.02-1.09,0.05-1.61,0.07s-1.04.05-1.58,0.05C1348.85,4820.84,1348.32,4820.82,1347.78,4820.79Zm21.13,16.01a1.552,1.552,0,0,1-.01.23,0.216,0.216,0,0,1-.15.16,14.26,14.26,0,0,1-1.45.6,5.519,5.519,0,0,1-1.89.29,6.261,6.261,0,0,1-3.12-.74,6.576,6.576,0,0,1-2.21-1.99,8.914,8.914,0,0,1-1.32-2.78,11.891,11.891,0,0,1-.43-3.14,9.026,9.026,0,0,1,.46-2.84,8.83,8.83,0,0,1,1.35-2.58,6.624,6.624,0,0,1,2.11-1.84,5.521,5.521,0,0,1,2.74-.69,6.449,6.449,0,0,1,2.75.49,4.241,4.241,0,0,1,1.58,1.19,4.751,4.751,0,0,1,.76,1.34,6.562,6.562,0,0,1,.26.96,0.742,0.742,0,0,0,.34.08,0.877,0.877,0,0,0,.42-0.11,0.239,0.239,0,0,0,.17-0.23c0-.07-0.04-0.32-0.1-0.74s-0.14-.88-0.21-1.4-0.18-1.15-.31-1.92a21.027,21.027,0,0,0-2.98-.44q-1.47-.12-2.82-0.12a9.077,9.077,0,0,0-3.71.75,8.868,8.868,0,0,0-2.92,2.05,9.9,9.9,0,0,0-1.92,3.01,9.534,9.534,0,0,0-.69,3.63,8.846,8.846,0,0,0,5.44,8.25,9.444,9.444,0,0,0,3.69.71,16.127,16.127,0,0,0,2.98-.22,9.707,9.707,0,0,0,1.94-.56c0.51-.23.96-0.44,1.35-0.65a1.862,1.862,0,0,0,.45-0.28,0.246,0.246,0,0,0,.09-0.19,0.876,0.876,0,0,0-.14-0.45,1.216,1.216,0,0,1-.14-0.67v-1.94c0-.41,0-0.79.01-1.14a2.851,2.851,0,0,1,.13-0.87,0.544,0.544,0,0,1,.42-0.27,5.721,5.721,0,0,1,.78-0.14c0.28-.03.48-0.04,0.59-0.04a0.771,0.771,0,0,0,.1-0.39,0.509,0.509,0,0,0-.1-0.39c-0.56.02-1.08,0.04-1.56,0.08s-0.98.06-1.52,0.06c-0.52,0-1.05-.02-1.57-0.06s-1.06-.06-1.62-0.08a0.471,0.471,0,0,0-.1.39,0.681,0.681,0,0,0,.1.39c0.11,0,.31.01,0.6,0.04a7.357,7.357,0,0,1,.84.14,0.511,0.511,0,0,1,.43.27,2.688,2.688,0,0,1,.1.71c0.01,0.29.01,0.61,0.01,0.97v3.11Zm8.29-16.09c-0.39-.03-0.9-0.05-1.54-0.07a1.131,1.131,0,0,0-.08.34,0.755,0.755,0,0,0,.08.44,6.51,6.51,0,0,1,.65.06,7.272,7.272,0,0,1,.93.18,0.873,0.873,0,0,1,.55.3,1.621,1.621,0,0,1,.24.7,11.439,11.439,0,0,1,.04,1.17v11.87a11.314,11.314,0,0,1-.04,1.17,1.583,1.583,0,0,1-.24.68,0.922,0.922,0,0,1-.55.3,7.3,7.3,0,0,1-.93.19,4.922,4.922,0,0,1-.65.07,0.8,0.8,0,0,0-.08.45,1.131,1.131,0,0,0,.08.34q0.645-.03,1.05-0.06l0.84-.06c0.29-.01.64-0.02,1.05-0.02,0.6,0,1.13.01,1.6,0.04s0.97,0.06,1.51.1a1.087,1.087,0,0,0,.06-0.4,0.605,0.605,0,0,0-.12-0.39,4.889,4.889,0,0,1-.68-0.08q-0.465-.09-0.87-0.21a0.916,0.916,0,0,1-.49-0.27,1.845,1.845,0,0,1-.24-0.74,11.18,11.18,0,0,1-.04-1.13v-12.44l11.93,15.07a1.919,1.919,0,0,0,.57.5,0.928,0.928,0,0,0,.38.14,1.189,1.189,0,0,0,.2-0.03,0.162,0.162,0,0,0,.16-0.14c-0.01-.48-0.03-0.91-0.04-1.27s-0.01-.74-0.01-1.13v-12.49c0-.52.01-0.92,0.03-1.18a1.41,1.41,0,0,1,.22-0.7,0.977,0.977,0,0,1,.56-0.29,4.74,4.74,0,0,1,.94-0.18,6.387,6.387,0,0,1,.66-0.06,0.8,0.8,0,0,0,.08-0.45,1.314,1.314,0,0,0-.08-0.33c-0.41.02-.76,0.03-1.05,0.05s-0.57.04-.84,0.04-0.62.02-1.05,0.02c-0.6,0-1.14-.02-1.61-0.04s-0.99-.05-1.53-0.07a2.148,2.148,0,0,0-.04.37,0.559,0.559,0,0,0,.1.41,4.525,4.525,0,0,1,.68.07,5.953,5.953,0,0,1,.88.2,0.964,0.964,0,0,1,.51.26,1.56,1.56,0,0,1,.25.76c0.02,0.28.03,0.66,0.03,1.15v10.36q-0.9-1.26-2.13-2.82-1.23-1.545-2.55-3.15c-0.88-1.06-1.72-2.09-2.55-3.09s-1.54-1.89-2.15-2.68-1.07-1.39-1.35-1.82c-0.18.02-.47,0.03-0.86,0.03h-1.21C1378.01,4820.75,1377.59,4820.74,1377.2,4820.71Z" transform="translate(-878.719 -4749.81)"/>
  </g>
  <g id="h">
    <path id="これならできる_ファッションのように選べる_分らしいデジタルスタイル" data-name="これならできる！ ファッションのように選べる ⾃分らしいデジタルスタイル" class="cls-8" d="M1088.95,5039.99a4.227,4.227,0,0,0,1.12.93,4.511,4.511,0,0,0,1.83.43c0.29,0,.85-0.02,1.2-0.05-0.26.16-.26,0.16-1.35,0.75-0.41.23-.67,0.39-1.17,0.67l0.12,0.24c0.3-.11.3-0.12,0.62-0.25,0.93-.4.93-0.4,1.31-0.55a13.435,13.435,0,0,1,2.34-.78c1.07-.24,1.17-0.29,1.17-0.56a1.105,1.105,0,0,0-.96-0.83,1.655,1.655,0,0,0-.29.06,12.4,12.4,0,0,1-3.33.48,3.789,3.789,0,0,1-2.45-.7Zm-0.61,6.1a4.368,4.368,0,0,0-.25,1.34,3.07,3.07,0,0,0,1.33,2.53,6.565,6.565,0,0,0,3.73.77,18.6,18.6,0,0,0,3.73-.32,0.551,0.551,0,0,0,.51-0.5,0.783,0.783,0,0,0-.35-0.56,2.016,2.016,0,0,0-.88-0.32,0.785,0.785,0,0,0-.28.06,10.524,10.524,0,0,1-3.53.58c-2.58,0-3.78-.9-3.78-2.8a5.519,5.519,0,0,1,.05-0.72Zm15.35,0.49a8.029,8.029,0,0,1-1.04,1.43,0.515,0.515,0,0,0-.27.48,3.179,3.179,0,0,0,.17.88,0.482,0.482,0,0,0,.37.37c0.16,0,.22-0.1.54-0.87a10.944,10.944,0,0,1,1.41,1.75c0.05,0.11.23,0.6,0.27,0.76a0.449,0.449,0,0,0,.39.44c0.38,0,.69-0.76.69-1.67a4.555,4.555,0,0,0-.05-0.75c-0.11-1.23-.16-2-0.16-2.87,0-.24,0-0.44.01-0.83a23.785,23.785,0,0,1,2.44-2.53c1.28-1.13,2.11-1.61,2.8-1.61a1.02,1.02,0,0,1,.98,1.23,10.511,10.511,0,0,1-.41,2.53,17.314,17.314,0,0,0-.4,2.85c0,1.45.66,2.24,1.88,2.24a5.234,5.234,0,0,0,3.53-1.84l-0.12-.2a5.886,5.886,0,0,1-2.98,1.14,1.437,1.437,0,0,1-.82-0.24,1.317,1.317,0,0,1-.4-1.18,15.679,15.679,0,0,1,.29-2.63,10.1,10.1,0,0,0,.32-2.37,2.052,2.052,0,0,0-.43-1.41,1.682,1.682,0,0,0-1.27-.57,4.611,4.611,0,0,0-2.57,1.13,26.2,26.2,0,0,0-2.79,2.45,4.021,4.021,0,0,1,.03-0.59,9.17,9.17,0,0,1,.52-1.04,0.964,0.964,0,0,0,.22-0.46,1.26,1.26,0,0,0-.46-0.63,6.8,6.8,0,0,1,.28-1.26,1.594,1.594,0,0,0,.16-0.66,1.664,1.664,0,0,0-.83-1.06,2.161,2.161,0,0,0-1.02-.43,0.347,0.347,0,0,0-.21.08,1.735,1.735,0,0,1,.91,1.78,13.169,13.169,0,0,1-.11,1.7,8.175,8.175,0,0,1-2.3.96,1.447,1.447,0,0,1-1.05-.77,1.314,1.314,0,0,0-.04.27,1.952,1.952,0,0,0,1.18,1.46,0.958,0.958,0,0,0,.55-0.26c0.28-.21,1.13-0.78,1.61-1.1a4.577,4.577,0,0,1-.05.56c-0.01.41-.01,0.41-0.03,0.67Zm1.73-1.49c-0.05.66-.07,1.03-0.07,1.81-0.01,2.39-.01,2.39-0.05,3a14.947,14.947,0,0,1-1.69-1.3c0.3-.64.48-0.99,0.85-1.7C1105.18,5045.56,1105.19,5045.56,1105.42,5045.09Zm13.72-3.77a3.247,3.247,0,0,0,1.17,1.16,2.588,2.588,0,0,0,1.41.34,5.728,5.728,0,0,0,.75-0.06,21.058,21.058,0,0,1-2,3.76,7.01,7.01,0,0,1-.77.96,0.677,0.677,0,0,0-.17.57,1.048,1.048,0,0,0,.49,1.14,0.78,0.78,0,0,0,.58-0.58c0.14-.27,1.38-2.96,1.86-4.06,0.43-.96.7-1.62,0.84-1.94,2.55-.59,3.54-0.99,3.54-1.41a0.972,0.972,0,0,0-1.09-.48,0.391,0.391,0,0,0-.33.13,4.032,4.032,0,0,1-1.78.88c0.58-1.18.91-1.84,0.98-1.97a0.65,0.65,0,0,0,.16-0.41,1.015,1.015,0,0,0-.75-0.68,3.472,3.472,0,0,0-1.29-.36,0.656,0.656,0,0,0-.38.11,1.334,1.334,0,0,1,1.02,1.23,6.571,6.571,0,0,1-.57,2.27,6.97,6.97,0,0,1-1.46.2,2.547,2.547,0,0,1-2.01-.93Zm8.61,1.02a4.456,4.456,0,0,1,2.07,1.1c-0.59.13-.62,0.15-0.86,0.21a2.951,2.951,0,0,0-1.53.76c-0.43.48-.56,0.97-0.56,2.28,0,0.2,0,.32.05,1.59a4.663,4.663,0,0,0-.96-0.08c-1.77,0-2.99.78-2.99,1.9,0,1.01.99,1.7,2.43,1.7a2.953,2.953,0,0,0,2.08-.69,1.793,1.793,0,0,0,.45-1.36v-0.3a5.817,5.817,0,0,1,1.94,1.41,0.771,0.771,0,0,0,.56.41,0.45,0.45,0,0,0,.32-0.54,1.55,1.55,0,0,0-.64-1.27,7.292,7.292,0,0,0-2.28-1.04,22.854,22.854,0,0,1-.32-2.75c0-1.1.4-1.46,1.69-1.46a2.5,2.5,0,0,1,1.56.34,0.6,0.6,0,0,0,.37.13,0.419,0.419,0,0,0,.42-0.47,1.882,1.882,0,0,0-1.01-1.25,5.769,5.769,0,0,0-2.74-.88Zm-0.81,7.19c0,1.01-.67,1.53-1.97,1.53-0.99,0-1.6-.35-1.6-0.94,0-.75.83-1.22,2.19-1.22a4.645,4.645,0,0,1,1.38.19v0.44Zm12.49-11.1a3.294,3.294,0,0,0,.82,1.29,5.3,5.3,0,0,0,1.46.91,14.642,14.642,0,0,1-1.89.61,3.844,3.844,0,0,0-1.65.73,1.014,1.014,0,0,0-.26.91,17,17,0,0,1-.3,2.12c-0.08.56-.16,1.01-0.19,1.33a7.245,7.245,0,0,1-.18.96c-0.02.11-.05,0.24-0.05,0.25a1.885,1.885,0,0,0,.34.82,0.913,0.913,0,0,0,.7.53,0.518,0.518,0,0,0,.45-0.32,3.739,3.739,0,0,1,.88-1.01,6.37,6.37,0,0,1,3.83-1.75,1.738,1.738,0,0,1,1.93,1.75,3.077,3.077,0,0,1-1.6,2.59,9.241,9.241,0,0,1-4.02,1.43l0.05,0.25a11.784,11.784,0,0,0,3.64-.62c2-.69,3.15-1.94,3.15-3.41s-1.26-2.5-3.06-2.5a10.049,10.049,0,0,0-5.22,1.99c0.04-1.08.15-2.4,0.26-3.25,0.03-.29.05-0.44,0.05-0.52a1.367,1.367,0,0,0-.11-0.51,1.415,1.415,0,0,1-.1-0.46,0.582,0.582,0,0,1,.18-0.43,1.42,1.42,0,0,1,.73-0.29,13.878,13.878,0,0,1,3.06-.45,5.562,5.562,0,0,1,.78.05c0.21,0.03.29,0.05,0.34,0.05a0.354,0.354,0,0,0,.38-0.34,1.143,1.143,0,0,0-.35-0.7,0.953,0.953,0,0,0-.65-0.4c-0.37-.08-0.85-0.21-1.16-0.31a3.334,3.334,0,0,1-2.03-1.41Zm12,2.45a0.721,0.721,0,0,0-.17.44,2.373,2.373,0,0,0,.41,1.07,1.784,1.784,0,0,0,1.23.94,1.054,1.054,0,0,0,.64-0.22,26.968,26.968,0,0,1,7.16-2.15,8.4,8.4,0,0,0-2.61,1.84,5.952,5.952,0,0,0-1.74,3.91,4.279,4.279,0,0,0,1.85,3.59,6.631,6.631,0,0,0,3.27,1.15,0.5,0.5,0,0,0,.57-0.45,1.293,1.293,0,0,0-.48-0.77,0.779,0.779,0,0,0-.67-0.25,4.836,4.836,0,0,1-1.62-.39,3.255,3.255,0,0,1-2.12-3.12,5.677,5.677,0,0,1,5.37-5.35,1.753,1.753,0,0,1,.45.04c0.13,0.01.23,0.01,0.31,0.01a0.423,0.423,0,0,0,.49-0.4,0.772,0.772,0,0,0-.46-0.61,2.118,2.118,0,0,0-.87-0.33,1.953,1.953,0,0,0-.56.13,17.178,17.178,0,0,1-2.16.52c-1.1.21-2.01,0.42-2.59,0.56-3.6.87-4,.95-4.45,0.95a0.928,0.928,0,0,1-.72-0.27A1.817,1.817,0,0,1,1151.43,5040.88Zm9.83,2.48a8.021,8.021,0,0,1,1.23,1.7c0.5,1.04.5,1.04,0.71,1.04a0.6,0.6,0,0,0,.49-0.67,1.841,1.841,0,0,0-.8-1.28,7.979,7.979,0,0,0-1.42-.99Zm1.68-.91a7.6,7.6,0,0,1,1.76,2.28,0.434,0.434,0,0,0,.37.3,0.549,0.549,0,0,0,.4-0.66,1.532,1.532,0,0,0-.82-1.23,7.361,7.361,0,0,0-1.53-.91Zm6.08-1.26a3.051,3.051,0,0,0,2.33,1.17,10.275,10.275,0,0,0,2.98-.52c0.37,0.58.78,1.3,1.12,1.92a12.068,12.068,0,0,1-3.43.61,2.069,2.069,0,0,1-1.88-.94l-0.2.14a2.379,2.379,0,0,0,.77.96,2.79,2.79,0,0,0,1.67.47,11.648,11.648,0,0,0,3.41-.61,16.615,16.615,0,0,1,1.2,2.72,13.2,13.2,0,0,0-3.01-.35c-2.53,0-4.23.96-4.23,2.4a2.322,2.322,0,0,0,1.55,2.02,8.528,8.528,0,0,0,3.08.48,8.393,8.393,0,0,0,2.19-.24,0.342,0.342,0,0,0,.24-0.31,1.116,1.116,0,0,0-1.06-.85,1.08,1.08,0,0,0-.19.04,8.045,8.045,0,0,1-2.01.22c-1.97,0-3.03-.53-3.03-1.52a1.439,1.439,0,0,1,.96-1.3,4.368,4.368,0,0,1,2-.45,6.333,6.333,0,0,1,3.71,1.11,0.641,0.641,0,0,0,.45.24c0.32,0,.53-0.42.53-1.04a1.555,1.555,0,0,0-.27-0.87c-0.37-.6-0.37-0.6-0.74-1.26-0.14-.26-0.22-0.4-0.72-1.25,2.18-.77,3.11-1.26,3.11-1.65a0.4,0.4,0,0,0-.43-0.4,0.318,0.318,0,0,0-.13.02l-0.29.03a3.247,3.247,0,0,1-1.35-.45l-0.11.16a6.706,6.706,0,0,1,.84.75,11.153,11.153,0,0,1-1.99.88c-0.43-.7-0.69-1.15-0.78-1.31-0.2-.32-0.2-0.32-0.36-0.59,1.32-.42,2.1-0.69,2.36-0.8,0.83-.35,1.04-0.48,1.04-0.7,0-.28-0.32-0.42-0.95-0.42a0.71,0.71,0,0,0-.51.16,5.227,5.227,0,0,1-2.29,1.18c-0.64-1.26-.64-1.26-0.65-1.58a0.7,0.7,0,0,0-.2-0.63,1.962,1.962,0,0,0-1.08-.2,2.51,2.51,0,0,0-.74.08,0.641,0.641,0,0,0-.64.41,2.809,2.809,0,0,1,1.23.34,6.609,6.609,0,0,1,1.38,1.79,8.842,8.842,0,0,1-2.63.48,3.165,3.165,0,0,1-2.13-.72Zm22.94-1.14a0.241,0.241,0,0,0,.08-0.03h0.05a0.02,0.02,0,0,1,.02-0.02,0.151,0.151,0,0,1,.04.04,0.742,0.742,0,0,1-.16.25c-1.26,1.63-1.87,2.34-3.82,4.53a14.748,14.748,0,0,1-2.23,2.23,0.751,0.751,0,0,0-.33.56,1.1,1.1,0,0,0,.53,1.04,0.791,0.791,0,0,0,.54-0.44c1.33-1.69,3.52-2.97,5.09-2.97a3.554,3.554,0,0,1,1.58.32,2.182,2.182,0,0,1,1,1.98,3.161,3.161,0,0,1-1.94,3,3.508,3.508,0,0,0-.7-1,2.99,2.99,0,0,0-2.04-.78,1.538,1.538,0,0,0-1.73,1.36c0,0.98,1.01,1.6,2.58,1.6,2.9,0,5.03-1.7,5.03-3.99,0-1.79-1.38-2.99-3.43-2.99a8.036,8.036,0,0,0-4.35,1.52l-0.03-.03c0.33-.34.33-0.34,1.87-1.99,0.75-.8,1.34-1.39,2.35-2.4a4.64,4.64,0,0,1,1.33-1.07,0.367,0.367,0,0,0,.27-0.3,1.09,1.09,0,0,0-.48-0.72,1.451,1.451,0,0,0-.86-0.56,0.4,0.4,0,0,0-.23.08,1.9,1.9,0,0,1-.99.49,17.239,17.239,0,0,1-3.02.69,1.373,1.373,0,0,1-1.2-1.17,0.638,0.638,0,0,0-.15.42,2.244,2.244,0,0,0,.45,1.18,1.244,1.244,0,0,0,.91.68,2,2,0,0,0,.66-0.21c1.1-.48,2.61-1.07,3.23-1.27Zm-0.59,10.87a4.326,4.326,0,0,1-1.14.14c-1.12,0-1.82-.38-1.82-0.97a0.871,0.871,0,0,1,1.01-.82A2.105,2.105,0,0,1,1191.37,5050.92Zm15.81-3.23c0.06-2.15.35-5.94,0.59-7.45a4.043,4.043,0,0,0,.05-0.52c0-.4-0.31-0.58-0.93-0.58-0.59,0-.91.19-0.91,0.56a2.274,2.274,0,0,0,.06.54,66.736,66.736,0,0,1,.56,7.45h0.58Zm-0.29,1.34a1.075,1.075,0,1,0,1.07,1.07A1.035,1.035,0,0,0,1206.89,5049.03Zm-158.75,30.69a17.172,17.172,0,0,0,3.29-2.38,23.475,23.475,0,0,0,4.63-6.49,3,3,0,0,1,.54-0.88,0.527,0.527,0,0,0,.23-0.43,1.335,1.335,0,0,0-.5-0.77,2.4,2.4,0,0,0-1.17-.73,0.476,0.476,0,0,0-.32.11,5.366,5.366,0,0,1-1.85.45,41.612,41.612,0,0,1-4.55.65,1.515,1.515,0,0,1-1.5-.93,0.558,0.558,0,0,0-.12.34,1.846,1.846,0,0,0,.42.99,1.723,1.723,0,0,0,1.14.87,1.453,1.453,0,0,0,.59-0.16,16.739,16.739,0,0,1,2.93-.9,26.187,26.187,0,0,1,2.96-.54c0.24,0,.32.04,0.32,0.2a15.545,15.545,0,0,1-1.9,4.28,22.023,22.023,0,0,1-5.29,6.13Zm16.81,0.11c2.04-1.33,3.22-3.2,3.94-6.18,1.19-.52,1.59-0.72,1.86-0.86a9.557,9.557,0,0,1,1.87-.91c0.37-.07.48-0.15,0.48-0.36a1.692,1.692,0,0,0-.64-0.94,1.891,1.891,0,0,0-.96-0.62,0.458,0.458,0,0,0-.24.08c-0.26.16-.4,0.17-2.55,0.41-0.65.07-1.23,0.15-1.76,0.21a20.838,20.838,0,0,1-2.16.22,1.254,1.254,0,0,1-1.21-.81,0.358,0.358,0,0,0-.12.29,2.011,2.011,0,0,0,1.37,1.69,1.691,1.691,0,0,0,.41-0.09,9.932,9.932,0,0,1,1.92-.61,24.163,24.163,0,0,1,4.04-.56c0.28,0,.41.05,0.41,0.14a13.191,13.191,0,0,1-2.82,2.36,3.058,3.058,0,0,0-1.5-.66,0.542,0.542,0,0,0-.43.21,0.886,0.886,0,0,1,.81.86,9.867,9.867,0,0,1-1.07,3.44,9.1,9.1,0,0,1-1.84,2.5Zm14.85-8.39a8.849,8.849,0,0,1,1.47,2.52,0.535,0.535,0,0,0,.4.45,0.879,0.879,0,0,0,.52-0.93c0-.61-0.63-1.22-2.23-2.2Zm2.88-.56a5.409,5.409,0,0,1,1.23,2.23c0.12,0.37.21,0.5,0.39,0.5a0.975,0.975,0,0,0,.53-0.98,1.235,1.235,0,0,0-.6-0.99,5.978,5.978,0,0,0-1.4-.93Zm-1.07,8.87a12.236,12.236,0,0,0,4.13-3.36,18.765,18.765,0,0,0,2.21-3.31,6.058,6.058,0,0,1,.56-0.87,0.47,0.47,0,0,0,.22-0.4,0.974,0.974,0,0,0-.61-0.73,2.679,2.679,0,0,0-1.34-.52,0.6,0.6,0,0,0-.38.15c0.67,0.3.83,0.48,0.83,0.85a2.624,2.624,0,0,1-.31,1.01,17.719,17.719,0,0,1-3.09,4.75,14.152,14.152,0,0,1-2.38,2.19Zm14.86-11.44a7.433,7.433,0,0,1,2.2,1.77c0.68,0.85.68,0.85,0.86,0.85a0.7,0.7,0,0,0,.43-0.8c0-.94-0.81-1.44-3.38-2.05Zm-1.74,2.83a8.048,8.048,0,0,1,2.56,2.19,0.627,0.627,0,0,0,.5.37,0.686,0.686,0,0,0,.44-0.77,1.129,1.129,0,0,0-.6-1.05,8.393,8.393,0,0,0-2.81-.95Zm12.26-.77a33.8,33.8,0,0,1-7.01,5.52,9.8,9.8,0,0,1-3.14,1.46,1.458,1.458,0,0,1-1.22-1.01,0.6,0.6,0,0,0-.12.39,2.719,2.719,0,0,0,.49,1.28,1.784,1.784,0,0,0,1.14.94,0.552,0.552,0,0,0,.37-0.16,3.087,3.087,0,0,1,.77-0.54,31.879,31.879,0,0,0,5.55-3.96,22,22,0,0,0,3.39-3.74Zm6.52,0.51a1.686,1.686,0,0,0-.04.32,1.731,1.731,0,0,0,.43.98,0.868,0.868,0,0,0,.69.42,0.841,0.841,0,0,0,.36-0.08,26.29,26.29,0,0,1,4.6-.58c-0.02.39-.11,1.6-0.19,2.31-1.64.12-1.75,0.12-3.19,0.3a11.1,11.1,0,0,1-1.41.13,1.1,1.1,0,0,1-1.05-.63,0.5,0.5,0,0,0-.07.24,1.811,1.811,0,0,0,1.07,1.32,1.07,1.07,0,0,0,.32-0.07,21.108,21.108,0,0,1,4.29-.65c-0.14,1.28-.24,2.2-0.32,2.69-1.36.12-2.97,0.28-3.66,0.38a5.176,5.176,0,0,1-.8.08,1.61,1.61,0,0,1-1.28-.77,0.525,0.525,0,0,0-.07.23,1.233,1.233,0,0,0,.24.6,1.591,1.591,0,0,0,1.12.88,0.937,0.937,0,0,0,.37-0.08,14.744,14.744,0,0,1,4.04-.51,7.3,7.3,0,0,1,.97.05,2.009,2.009,0,0,0,.32.02,0.284,0.284,0,0,0,.29-0.29,0.989,0.989,0,0,0-.62-0.67c0.25-1.69.41-2.82,0.51-3.38,0.13-.82.13-0.82,0.19-1.22a0.686,0.686,0,0,1,.19-0.49,0.268,0.268,0,0,0,.08-0.21,1.082,1.082,0,0,0-.35-0.61,1.355,1.355,0,0,0-.78-0.55,0.567,0.567,0,0,0-.26.08,1.819,1.819,0,0,1-.91.21c-1.75.18-3.12,0.29-3.81,0.29A1.135,1.135,0,0,1,1113.51,5070.88Zm14.71-2.11a8.411,8.411,0,0,1,2.61,2.35,1.063,1.063,0,0,0,.68.64c0.28,0,.45-0.36.45-0.89a1.229,1.229,0,0,0-.54-1.09,9.038,9.038,0,0,0-3.09-1.2Zm11.23,0.58a25.2,25.2,0,0,1-4.3,4.27,23.573,23.573,0,0,1-3.83,2.64,3.849,3.849,0,0,1-1.55.67,1.035,1.035,0,0,1-.64-0.33,2.356,2.356,0,0,1-.58-0.71,0.857,0.857,0,0,0-.08.32c0,0.82,1.22,2.36,1.88,2.36a0.708,0.708,0,0,0,.56-0.39,4.381,4.381,0,0,1,.94-0.73,32.4,32.4,0,0,0,4.5-3.65,16.717,16.717,0,0,0,3.36-4.31Zm10.3,9.86a9.692,9.692,0,0,0,3.13-.99,5.532,5.532,0,0,0,3.18-4.85,4.886,4.886,0,0,0-1.54-3.77,6.088,6.088,0,0,0-4.13-1.47,7.792,7.792,0,0,0-5.5,2.24,4.989,4.989,0,0,0-1.44,3.17,3.045,3.045,0,0,0,.37,1.46,9.817,9.817,0,0,1,.7,1.5,2.961,2.961,0,0,0,.45,1.03,0.9,0.9,0,0,0,.7.33c0.6,0,1.38-.78,2.39-2.38a13.209,13.209,0,0,0,2.11-5.54,2.073,2.073,0,0,0-.5-1.33,3.968,3.968,0,0,1,.56-0.03,5.22,5.22,0,0,1,2.77.74,3.948,3.948,0,0,1,1.81,3.53,5.7,5.7,0,0,1-1.42,3.86,7.312,7.312,0,0,1-3.75,2.23Zm-0.41-10.53a1.852,1.852,0,0,1,.22.8,12.428,12.428,0,0,1-2.03,4.94c-0.78,1.25-1.55,2.11-1.91,2.11a0.951,0.951,0,0,1-.6-0.46,3.732,3.732,0,0,1-.64-2.11C1144.38,5071.49,1146.55,5069.17,1149.34,5068.68Zm14.65-1.7a1.3,1.3,0,0,1,1.4,1.36c0.12,1.07.12,1.07,0.22,7.51-0.27-.02-0.48-0.02-0.61-0.02a6.877,6.877,0,0,0-2.32.38,1.994,1.994,0,0,0-1.55,1.77c0,1.07,1.06,1.74,2.74,1.74a5.5,5.5,0,0,0,1.63-.24,1.551,1.551,0,0,0,1.13-1.58c0-.29,0-0.29-0.03-1.05a8.591,8.591,0,0,1,3.6,2.04,0.71,0.71,0,0,0,.39.21c0.21,0,.32-0.23.32-0.61a1.582,1.582,0,0,0-.99-1.38,10.465,10.465,0,0,0-3.38-1.17c-0.1-1.04-.18-2.91-0.18-4.18v-0.7a1.429,1.429,0,0,0,1.08.4,6.793,6.793,0,0,0,2.22-.5c0.74-.27.94-0.4,0.94-0.64a0.46,0.46,0,0,0-.33-0.38,2.176,2.176,0,0,0-.69-0.21,0.6,0.6,0,0,0-.35.18,5.3,5.3,0,0,1-2.44.94,0.53,0.53,0,0,1-.43-0.17v-0.31a8.424,8.424,0,0,1,.32-2.3,0.907,0.907,0,0,0,.13-0.45,0.827,0.827,0,0,0-.8-0.69,4.784,4.784,0,0,0-1.28-.19A1.006,1.006,0,0,0,1163.99,5066.98Zm1.6,9.63a2.678,2.678,0,0,1-.25,1.69,2.619,2.619,0,0,1-2,.65c-1.14,0-1.8-.37-1.8-1.01,0-.8,1.19-1.36,2.84-1.36C1164.89,5076.58,1165.08,5076.58,1165.59,5076.61Zm14.71-10.69a3.71,3.71,0,0,0,2.7,1.75c-0.4.14-1.5,0.64-2.7,1.18l0.08,0.23c3.31-.96,3.31-0.96,3.98-0.98,0.44,0,.66-0.13.66-0.35a0.807,0.807,0,0,0-.34-0.55,1.231,1.231,0,0,0-.86-0.38h-0.37a4.672,4.672,0,0,1-2.99-1.03Zm1.18,14.6a7.514,7.514,0,0,0,2.52-1.87,7.83,7.83,0,0,0,1.98-5.17,4.2,4.2,0,0,0-.61-2.36,2.541,2.541,0,0,0-1.98-1.07,5.143,5.143,0,0,0-2.71.91,4.371,4.371,0,0,1-1.47.63,1.1,1.1,0,0,1-.88-1.11,0.9,0.9,0,0,0-.26.6,2,2,0,0,0,.44,1.07,1.465,1.465,0,0,0,1.05.72,0.8,0.8,0,0,0,.66-0.37,4.891,4.891,0,0,1,3.07-1.89c0.95,0,1.52.98,1.52,2.56a9.877,9.877,0,0,1-1.36,4.87,8.694,8.694,0,0,1-2.11,2.3Zm14.08-7.23-0.85,2.24a11.8,11.8,0,0,1-.57,1.36,5.994,5.994,0,0,1-.31-2.12,9.038,9.038,0,0,1,.21-1.98,13.221,13.221,0,0,1,.87-2.55,1.736,1.736,0,0,0,.33-0.96,2.161,2.161,0,0,0-.59-1.26,1.532,1.532,0,0,0-1.07-.79,2.855,2.855,0,0,1,.44,1.51,7.354,7.354,0,0,1-.22,1.49,24.066,24.066,0,0,0-.56,3.02,14.583,14.583,0,0,0-.13,1.72,9.568,9.568,0,0,0,.56,3.41,0.848,0.848,0,0,0,.69.65,0.4,0.4,0,0,0,.39-0.27,2.62,2.62,0,0,0,.04-0.69,6.236,6.236,0,0,1,.28-1.7c0.44-1.85.68-2.86,0.72-3Zm2.07-4.02a2.819,2.819,0,0,0,2.17.89c0.15,0,.32-0.01.66-0.03-0.26.19-.8,0.64-1.52,1.25l0.16,0.16a16.559,16.559,0,0,1,2.06-1.14,9.554,9.554,0,0,1,2.28-.56c0.33-.06.44-0.16,0.44-0.36a0.788,0.788,0,0,0-.49-0.6,1.264,1.264,0,0,0-.56-0.22,0.623,0.623,0,0,0-.35.13,8.524,8.524,0,0,1-3.22.72,2.543,2.543,0,0,1-1.49-.43Zm-0.1,4.83a4.5,4.5,0,0,0-.19,1.27,2.678,2.678,0,0,0,.86,2.08c0.72,0.64,2.15.97,4.15,0.97a8.282,8.282,0,0,0,2-.17,0.438,0.438,0,0,0,.35-0.4,1.228,1.228,0,0,0-1.01-.95,0.93,0.93,0,0,0-.24.05,2.491,2.491,0,0,1-.85.26,7.493,7.493,0,0,1-1.36.11c-2.48,0-3.49-.72-3.49-2.48,0-.21.02-0.35,0.05-0.67Zm18.24,2.75a0.593,0.593,0,0,0,.29-0.08,0.225,0.225,0,0,0,.06-0.14,0.134,0.134,0,0,0-.11-0.13c-0.13-.06-0.96-0.3-1.55-0.46a7.325,7.325,0,0,1-1.2,1.36,7.589,7.589,0,0,1-1.2.94,2.4,2.4,0,0,1-1.44-1.34v-3.84a0.917,0.917,0,0,0,.51-0.48,0.293,0.293,0,0,0-.11-0.19,9.492,9.492,0,0,0-.93-0.71c-0.27.32-.35,0.4-0.59,0.71h-0.92a5.494,5.494,0,0,1-1.12-.15l0.21,0.63a4.136,4.136,0,0,1,.91-0.12h1v4.39a9.941,9.941,0,0,1-2.05,1.23c0.72,1.43.86,1.67,1.02,1.67a0.261,0.261,0,0,0,.19-0.29,4.748,4.748,0,0,0-.06-0.51,16,16,0,0,0,1.58-2.34,3.937,3.937,0,0,0,1.69,2.05,5.253,5.253,0,0,0,2.84.77c0.71,0.03,1.65.04,4.71,0.04,0.85,0,1.38-.01,2.15-0.06a1.18,1.18,0,0,1,.94-1.12v-0.21c-3.06.23-5.09,0.31-6.98,0.31a10.917,10.917,0,0,1-3.25-.32,11.779,11.779,0,0,0,2.96-1.57,0.9,0.9,0,0,1,.23-0.02Zm-0.58-8.14v0.06a0.207,0.207,0,0,0,.21.19,3.128,3.128,0,0,0,.66-0.06,0.235,0.235,0,0,0,.1-0.13c0-.37,0-0.37-0.02-0.7,0-.5,0-0.5-0.02-0.88a0.9,0.9,0,0,0,.52-0.44,0.23,0.23,0,0,0-.1-0.14c-0.37-.26-0.48-0.34-0.88-0.58a6.935,6.935,0,0,0-.5.58h-2.48a4.674,4.674,0,0,1-1.02-.13l0.11,0.59a6.631,6.631,0,0,1,.91-0.09h2.51v1.36h-2.17a11.143,11.143,0,0,0-1.12-.61,6.63,6.63,0,0,1,.03.83c0,2,0,2,.1,2.15,0.17,0.27.57,0.33,2.27,0.33a13.938,13.938,0,0,0,2.08-.14,0.469,0.469,0,0,0,.35-0.42,0.433,0.433,0,0,0-.22-0.36c-0.15-.07-0.15-0.07-0.15-0.13v-0.11l0.07-.71-0.19-.03a1.888,1.888,0,0,1-.73,1.07,9.189,9.189,0,0,1-1.29.07,4.735,4.735,0,0,1-1.27-.07,0.343,0.343,0,0,1-.11-0.33v-1.17h2.35Zm5.32,0v0.16c0.01,0.11.06,0.14,0.22,0.14,0.5,0,.69-0.06.72-0.24-0.01-.19-0.01-0.32-0.01-0.35v-1.26c0.37-.26.4-0.28,0.4-0.37a0.306,0.306,0,0,0-.15-0.18,7.5,7.5,0,0,0-.81-0.58c-0.2.24-.26,0.32-0.47,0.58h-2.38a7.218,7.218,0,0,1-.99-0.1l0.14,0.55a8.14,8.14,0,0,1,.85-0.08h2.48v1.36h-2.08a4.2,4.2,0,0,0-1.14-.67,6.269,6.269,0,0,1,.05.81c0,2.1,0,2.1.19,2.29s0.59,0.24,1.78.24a10.476,10.476,0,0,0,2.3-.13,0.518,0.518,0,0,0,.45-0.43,0.36,0.36,0,0,0-.25-0.32c-0.18-.09-0.21-0.14-0.21-0.21a0.951,0.951,0,0,1,.01-0.14l0.07-.59-0.18-.05a1.993,1.993,0,0,1-.67,1.01,4.93,4.93,0,0,1-1.09.08h-0.06c-0.36-.02-0.63-0.03-0.8-0.03h-0.23c-0.32,0-.41-0.07-0.41-0.23v-1.26h2.27Zm-5.19,4.24v-0.88c0.45-.18.51-0.21,0.51-0.32,0-.19-0.27-0.26-1.6-0.37a3.442,3.442,0,0,1,.13,1.11v0.46h-1.26a4.712,4.712,0,0,1-1.06-.11l0.13,0.56a3.793,3.793,0,0,1,.93-0.08h1.26v1.93h-1.93a6.055,6.055,0,0,1-1.01-.14l0.16,0.62a5.9,5.9,0,0,1,.83-0.11h9.8a0.154,0.154,0,0,0,.16-0.13c0-.01-0.04-0.06-0.07-0.11-0.53-.49-0.7-0.64-1.29-1.12-0.33.42-.44,0.55-0.76,0.99h-1.52v-1.93h2.72c0.13,0,.21-0.05.21-0.11a0.309,0.309,0,0,0-.05-0.1c-0.56-.48-0.73-0.62-1.31-1.06-0.32.39-.4,0.52-0.7,0.9h-0.87v-0.87a0.726,0.726,0,0,0,.56-0.36,0.181,0.181,0,0,0-.17-0.15,10.239,10.239,0,0,0-1.46-.21,3.589,3.589,0,0,1,.11,1.14v0.45h-2.45Zm0,0.37h2.45v1.93h-2.45v-1.93Zm2.24,2.89a7.02,7.02,0,0,1,2.04,1.37,5.334,5.334,0,0,0,.76.62,1.03,1.03,0,0,0,.36.11c0.17,0,.24-0.13.24-0.43a1.224,1.224,0,0,0-.55-1.06,17.719,17.719,0,0,0-2.73-.81Zm-9.6-9.9a8.49,8.49,0,0,1,1.44,2.46c0.29,0.82.38,0.98,0.56,0.98a1.3,1.3,0,0,0,.64-1.14,1.132,1.132,0,0,0-.48-0.88,18.794,18.794,0,0,0-1.98-1.6Zm16.46,6.64a1.744,1.744,0,0,0-.06.22,2.674,2.674,0,0,0,1.95,1.84,0.571,0.571,0,0,0,.35-0.12,0.977,0.977,0,0,0,.28-0.47,2.727,2.727,0,0,1,.28-0.57,10.035,10.035,0,0,1,.92-1.41c0.8-1.11,1.25-1.48,1.71-1.48,0.53,0,1.01.37,2.45,1.91a28.488,28.488,0,0,0,4.26,3.9,4.151,4.151,0,0,0,1.44.73,0.333,0.333,0,0,0,.32-0.34,2.333,2.333,0,0,0-.27-0.96,1.024,1.024,0,0,0-.66-0.61,18.807,18.807,0,0,1-4.69-3.44c-1.59-1.43-2.1-1.76-2.77-1.76-0.62,0-1.28.43-2.51,1.69-1.6,1.64-1.6,1.64-1.94,1.64A1.629,1.629,0,0,1,1224.42,5072.95Zm8.98-4.29a7.42,7.42,0,0,1,1.22,1.7c0.51,1.04.51,1.04,0.72,1.04a0.606,0.606,0,0,0,.5-0.68,1.878,1.878,0,0,0-.8-1.28,8.65,8.65,0,0,0-1.43-.99Zm1.68-.91a7.9,7.9,0,0,1,1.76,2.27,0.445,0.445,0,0,0,.37.3,0.544,0.544,0,0,0,.4-0.65,1.5,1.5,0,0,0-.83-1.23,7.239,7.239,0,0,0-1.52-.92Zm14,0.3a0.241,0.241,0,0,0,.08-0.03h0.05a0.02,0.02,0,0,1,.02-0.02,0.218,0.218,0,0,1,.05.04,1.42,1.42,0,0,1-.16.25c-1.27,1.63-1.88,2.34-3.83,4.53a14.748,14.748,0,0,1-2.23,2.23,0.751,0.751,0,0,0-.33.56,1.1,1.1,0,0,0,.53,1.04,0.791,0.791,0,0,0,.54-0.44c1.33-1.69,3.52-2.97,5.09-2.97a3.6,3.6,0,0,1,1.59.32,2.2,2.2,0,0,1,.99,1.98,3.161,3.161,0,0,1-1.94,3,3.321,3.321,0,0,0-.7-1,2.99,2.99,0,0,0-2.04-.78,1.528,1.528,0,0,0-1.72,1.36c0,0.98,1,1.6,2.57,1.6,2.9,0,5.03-1.7,5.03-3.99,0-1.79-1.38-2.99-3.43-2.99a8.036,8.036,0,0,0-4.35,1.52l-0.03-.03c0.33-.34.33-0.34,1.87-1.99,0.75-.8,1.34-1.39,2.35-2.4a4.64,4.64,0,0,1,1.33-1.07,0.367,0.367,0,0,0,.27-0.3,1.09,1.09,0,0,0-.48-0.72,1.451,1.451,0,0,0-.86-0.56,0.349,0.349,0,0,0-.22.08,1.98,1.98,0,0,1-1,.49,17.239,17.239,0,0,1-3.02.69,1.373,1.373,0,0,1-1.2-1.17,0.7,0.7,0,0,0-.15.42,2.244,2.244,0,0,0,.45,1.18,1.278,1.278,0,0,0,.91.68,2,2,0,0,0,.66-0.21c1.1-.48,2.61-1.07,3.23-1.27Zm-0.59,10.87a4.326,4.326,0,0,1-1.14.14c-1.12,0-1.82-.38-1.82-0.97a0.871,0.871,0,0,1,1.01-.82A2.105,2.105,0,0,1,1248.49,5078.92Zm-198.02,17.28a9.408,9.408,0,0,0,1.08-1.27c0.08-.1.2-0.27,0.38-0.48,0.59-.13.74-0.19,0.74-0.32,0-.16-0.05-0.18-1.89-0.66a10.155,10.155,0,0,1-.79,2.73h-1.74c-0.59-.42-0.79-0.55-1.39-0.92,0.04,0.93.06,2.79,0.06,6.69,0,1.73-.03,4.25-0.08,6.18v0.03c0,0.15.08,0.2,0.3,0.2,0.18,0,.65-0.04.73-0.05a0.2,0.2,0,0,0,.16-0.21v-1.07h7.45v1.17a0.155,0.155,0,0,0,.18.19,4.442,4.442,0,0,0,.88-0.11,0.215,0.215,0,0,0,.16-0.23c-0.11-2.54-.11-2.75-0.11-8.31v-2.91a0.734,0.734,0,0,0,.53-0.41,0.4,0.4,0,0,0-.16-0.26c-0.4-.34-0.53-0.43-0.98-0.78a6.728,6.728,0,0,0-.69.8h-4.82Zm-2.44,3.31v-2.95h7.45v2.95h-7.45Zm7.45,0.37V5103h-7.45v-3.12h7.45Zm0,3.49v3.31h-7.45v-3.31h7.45Zm15.96-2.74a40.447,40.447,0,0,1-.36,4.91c-0.2,1.25-.38,1.51-1,1.51-0.55,0-1.22-.07-3.57-0.34l-0.02.29a7.783,7.783,0,0,1,1.9.45,0.83,0.83,0,0,1,.52.81c1.89-.04,2.46-0.25,2.78-0.92,0.4-.84.69-2.93,0.85-6.31,0.45-.22.56-0.3,0.56-0.43a0.364,0.364,0,0,0-.18-0.24,7.6,7.6,0,0,0-.99-0.71c-0.29.26-.38,0.34-0.67,0.61h-6.82a6.958,6.958,0,0,1-1.38-.13l0.12,0.61a9.214,9.214,0,0,1,1.28-.11h2.03a10.888,10.888,0,0,1-.83,3.3,9.08,9.08,0,0,1-4.31,4.32l0.11,0.22a10.527,10.527,0,0,0,1.86-.8,7.687,7.687,0,0,0,3.15-2.96,10.874,10.874,0,0,0,1.22-4.08h3.75Zm-10.65.74a13.954,13.954,0,0,0,3.12-2.52,16.021,16.021,0,0,0,2.68-3.81c0.59-.08.76-0.14,0.76-0.29,0-.11-0.14-0.17-0.96-0.46-0.17-.05-0.46-0.14-0.8-0.27a12.171,12.171,0,0,1-1.65,3.41,15.782,15.782,0,0,1-3.29,3.74Zm8.25-7.03a2.042,2.042,0,0,1,.51.73,12.565,12.565,0,0,0,1.93,3.13,13.329,13.329,0,0,0,3.05,2.57,1.7,1.7,0,0,1,1.29-1.1l-0.01-.21a9.844,9.844,0,0,1-3.62-1.86,8.384,8.384,0,0,1-2.45-3.12,0.964,0.964,0,0,1-.06-0.4Zm13.27,0.09a3.294,3.294,0,0,0,.82,1.29,5.3,5.3,0,0,0,1.46.91,14.642,14.642,0,0,1-1.89.61,3.844,3.844,0,0,0-1.65.73,1.014,1.014,0,0,0-.26.91,17,17,0,0,1-.3,2.12c-0.08.56-.16,1.01-0.19,1.33a7.245,7.245,0,0,1-.18.96c-0.02.11-.05,0.24-0.05,0.25a1.885,1.885,0,0,0,.34.82,0.928,0.928,0,0,0,.7.53,0.518,0.518,0,0,0,.45-0.32,3.739,3.739,0,0,1,.88-1.01,6.37,6.37,0,0,1,3.83-1.75,1.733,1.733,0,0,1,1.93,1.75,3.077,3.077,0,0,1-1.6,2.59,9.243,9.243,0,0,1-4.01,1.43l0.04,0.25a11.784,11.784,0,0,0,3.64-.62c2-.69,3.15-1.94,3.15-3.41s-1.26-2.5-3.06-2.5a9.991,9.991,0,0,0-5.21,1.99c0.03-1.08.14-2.4,0.25-3.25,0.03-.29.05-0.44,0.05-0.52a1.367,1.367,0,0,0-.11-0.51,1.415,1.415,0,0,1-.1-0.46,0.622,0.622,0,0,1,.18-0.43,1.466,1.466,0,0,1,.73-0.29,13.878,13.878,0,0,1,3.06-.45,5.829,5.829,0,0,1,.79.05c0.2,0.03.28,0.05,0.33,0.05a0.357,0.357,0,0,0,.39-0.34,1.168,1.168,0,0,0-.36-0.7,0.953,0.953,0,0,0-.65-0.4c-0.37-.08-0.85-0.21-1.16-0.31a3.334,3.334,0,0,1-2.03-1.41Zm23.73,9.77a9.694,9.694,0,0,1-2.03,1.42,8.3,8.3,0,0,1-3.65,1.03,2.35,2.35,0,0,1-1.42-.43,2.29,2.29,0,0,1-.64-1.93,49.938,49.938,0,0,1,.83-7.68,1.569,1.569,0,0,0,.14-0.57,1.288,1.288,0,0,0-.92-0.95,4.13,4.13,0,0,0-1.44-.37,0.626,0.626,0,0,0-.45.16c1.13,0.48,1.29.76,1.29,2.13,0,0.58-.01,1.03-0.11,2.75-0.08,1.46-.13,2.98-0.13,3.86a5.494,5.494,0,0,0,.45,2.71,2.917,2.917,0,0,0,2.66,1.36,7.36,7.36,0,0,0,5.62-3.32Zm10.13-3.43c-0.21.36-.21,0.36-0.46,0.77-0.84,1.39-.84,1.39-1.35,2.26-0.35.59-.35,0.59-0.53,0.85a2.374,2.374,0,0,1-.83-1.25,6.885,6.885,0,0,1-.37-2.32,12.758,12.758,0,0,1,.29-2.39,3.109,3.109,0,0,0,.05-0.41,1.949,1.949,0,0,0-.72-1.27,2.382,2.382,0,0,0-1.2-.78h-0.15a3.5,3.5,0,0,1,.82,2.75,19.18,19.18,0,0,0,.11,2.82,7.414,7.414,0,0,0,1.09,3.2,3,3,0,0,0,1.76,1.36,0.38,0.38,0,0,0,.35-0.4,1.153,1.153,0,0,0-.03-0.26,1.977,1.977,0,0,1-.09-0.54c0-.64.33-1.59,1.5-4.27Zm3.57-2.59a4.431,4.431,0,0,1,1.98,2.1,5.608,5.608,0,0,1,.5,2.09,0.4,0.4,0,0,1-.37.48c-0.14.05-.86,0.26-2.16,0.61l0.05,0.24c0.54-.03.85-0.03,1.22-0.03a2.2,2.2,0,0,1,1.2.19,0.739,0.739,0,0,0,.48.18,1.047,1.047,0,0,0,.8-1.27,4.992,4.992,0,0,0-3.62-4.78Zm9.89-2.43a2.71,2.71,0,0,0,2.59,1.47,21.869,21.869,0,0,0,3.66-.42c0.64-.14.84-0.22,0.84-0.43a1.333,1.333,0,0,0-1.09-.83,0.893,0.893,0,0,0-.48.13,8.843,8.843,0,0,1-3.36.78,2.614,2.614,0,0,1-1.92-.86Zm0.72,12.37a9.473,9.473,0,0,0,3.16-3.89,9.834,9.834,0,0,0,1.03-3.14,1.539,1.539,0,0,0-1.06-1.1,20.088,20.088,0,0,1,2.63-.16,14.826,14.826,0,0,1,2.57.21,1.837,1.837,0,0,0,.4.04,0.369,0.369,0,0,0,.45-0.32,1.146,1.146,0,0,0-.75-0.73,2.008,2.008,0,0,0-.85-0.24,0.914,0.914,0,0,0-.4.08,7.979,7.979,0,0,1-1.25.27c-2.97.3-3.63,0.38-4.93,0.59a16.381,16.381,0,0,1-2.73.42,1.517,1.517,0,0,1-1.32-.74,1.243,1.243,0,0,0-.06.31,1.631,1.631,0,0,0,.54.96,1.534,1.534,0,0,0,1.01.61,1.107,1.107,0,0,0,.5-0.16,12.831,12.831,0,0,1,3.55-1.01,0.8,0.8,0,0,1,.42.78,10.93,10.93,0,0,1-.77,3.27,11.337,11.337,0,0,1-2.32,3.77Zm6.64-13.41a6.981,6.981,0,0,1,1.21,1.68c0.52,1.04.52,1.04,0.72,1.04a0.6,0.6,0,0,0,.5-0.67,1.772,1.772,0,0,0-.8-1.27,6.681,6.681,0,0,0-1.42-.99Zm1.68-.93a8.118,8.118,0,0,1,1.76,2.29,0.434,0.434,0,0,0,.37.3,0.544,0.544,0,0,0,.4-0.65,1.524,1.524,0,0,0-.83-1.24,6.876,6.876,0,0,0-1.53-.91Zm4.94,5.63a7.828,7.828,0,0,1,2.56,2.2,0.632,0.632,0,0,0,.5.36,0.68,0.68,0,0,0,.44-0.76,1.134,1.134,0,0,0-.6-1.06,8.844,8.844,0,0,0-2.81-.95Zm1.74-2.81a7.241,7.241,0,0,1,2.2,1.76c0.68,0.84.68,0.84,0.86,0.84a0.7,0.7,0,0,0,.43-0.8c0-.92-0.81-1.42-3.38-2.03Zm10.52,2.06a37.186,37.186,0,0,1-7.08,5.44,10.578,10.578,0,0,1-3.07,1.57,1.51,1.51,0,0,1-1.2-.99,0.5,0.5,0,0,0-.14.37,2.639,2.639,0,0,0,.49,1.23,1.726,1.726,0,0,0,1.14.96,0.552,0.552,0,0,0,.37-0.16,7.918,7.918,0,0,1,1.23-.88,35.215,35.215,0,0,0,6.07-4.66,18.581,18.581,0,0,0,2.38-2.74Zm-3.76-3.46a6.79,6.79,0,0,1,1.21,1.68c0.52,1.04.52,1.04,0.72,1.04a0.589,0.589,0,0,0,.5-0.67,1.841,1.841,0,0,0-.8-1.28,7.969,7.969,0,0,0-1.42-.98Zm1.68-.93a8.22,8.22,0,0,1,1.76,2.28,0.43,0.43,0,0,0,.37.32,0.549,0.549,0,0,0,.4-0.66,1.506,1.506,0,0,0-.82-1.23,7.515,7.515,0,0,0-1.54-.93Zm7.31,13.67a17.183,17.183,0,0,0,4.09-2.57,22.453,22.453,0,0,0,5.41-6.98,2.3,2.3,0,0,1,.53-0.74,0.443,0.443,0,0,0,.23-0.32,1.114,1.114,0,0,0-.44-0.65,1.542,1.542,0,0,0-.89-0.55,0.524,0.524,0,0,0-.26.08,2.611,2.611,0,0,1-1.26.43,12.024,12.024,0,0,1-2.13.36,1.546,1.546,0,0,1-.45-0.07,2.516,2.516,0,0,0,.75-1.23,0.98,0.98,0,0,0-.65-0.67,3.4,3.4,0,0,0-1.43-.47,0.833,0.833,0,0,0-.35.08c0.75,0.34,1.02.59,1.02,0.96a7.481,7.481,0,0,1-1.58,2.79,20.057,20.057,0,0,1-3.09,3.31l0.18,0.24a14.858,14.858,0,0,0,2.96-2.38,8.917,8.917,0,0,1,2.22,2.38,1.015,1.015,0,0,0,.69.64,19.106,19.106,0,0,1-2.69,2.9,20.107,20.107,0,0,1-2.99,2.22Zm8.74-10.94a19.972,19.972,0,0,1-2.72,4.99,1.6,1.6,0,0,0-.21-0.72,3.4,3.4,0,0,0-1.4-1.25,9.882,9.882,0,0,0-1.53-.72,17.713,17.713,0,0,0,1.69-2.02,1.628,1.628,0,0,0,.96.44,1.234,1.234,0,0,0,.5-0.12c0.18-.06.18-0.06,1.47-0.38A7.259,7.259,0,0,1,1169.84,5097Zm6.18,9.81a8.224,8.224,0,0,0,3.03-3.43,15.078,15.078,0,0,0,1.09-2.94c0.14-.5.14-0.5,0.16-0.56a2.513,2.513,0,0,0,.21-0.74,1.39,1.39,0,0,0-.87-0.88,2.421,2.421,0,0,0-1.2-.4,0.652,0.652,0,0,0-.43.14,1.254,1.254,0,0,1,1.09,1.25,12.153,12.153,0,0,1-1.11,4.34,9.383,9.383,0,0,1-2.14,3.04Zm13.29-6.73a17.916,17.916,0,0,1-6.05,4.53,7.2,7.2,0,0,1-.03-0.73c0-.61.14-4.15,0.21-4.82a7.394,7.394,0,0,1,.22-1.57,1.294,1.294,0,0,0,.13-0.43,1.061,1.061,0,0,0-.66-0.74,2.906,2.906,0,0,0-1.41-.49,0.553,0.553,0,0,0-.51.24c1.17,0.25,1.23.46,1.23,4.1a33.627,33.627,0,0,1-.14,4.33,3.985,3.985,0,0,0-.11.5,1.615,1.615,0,0,0,.96,1.33,0.443,0.443,0,0,0,.32-0.18,10,10,0,0,1,.91-0.72,23.2,23.2,0,0,0,3.39-2.93,10.881,10.881,0,0,0,1.75-2.26Zm3.13,6.86a14.6,14.6,0,0,0,2.8-1.57,17.454,17.454,0,0,0,3.87-3.6,13.519,13.519,0,0,1,3.81,3.92,3.665,3.665,0,0,0,.39.64,0.5,0.5,0,0,0,.37.25c0.27,0,.43-0.32.43-0.83a2.109,2.109,0,0,0-.61-1.58,15.641,15.641,0,0,0-4.15-2.71c1.25-1.63,1.25-1.63,2.02-2.78a2.682,2.682,0,0,1,.91-1.09,0.365,0.365,0,0,0,.21-0.31,2.168,2.168,0,0,0-1.25-1.12,0.639,0.639,0,0,0-.36.15,4.405,4.405,0,0,1-1.51.45,25.18,25.18,0,0,1-3.36.44,1.545,1.545,0,0,1-1.51-1.07,0.668,0.668,0,0,0-.11.32,1.921,1.921,0,0,0,.34.96,1.372,1.372,0,0,0,1.04.91,0.766,0.766,0,0,0,.27-0.04,8.214,8.214,0,0,1,1.35-.44,17.21,17.21,0,0,1,3.37-.7,10.5,10.5,0,0,1-1.08,2.06,28.64,28.64,0,0,1-3.06,3.99,23.178,23.178,0,0,1-4.31,3.51Zm17.62,1a17.183,17.183,0,0,0,4.09-2.57,22.453,22.453,0,0,0,5.41-6.98,2.3,2.3,0,0,1,.53-0.74,0.443,0.443,0,0,0,.23-0.32,1.114,1.114,0,0,0-.44-0.65,1.542,1.542,0,0,0-.89-0.55,0.524,0.524,0,0,0-.26.08,2.611,2.611,0,0,1-1.26.43,12.024,12.024,0,0,1-2.13.36,1.546,1.546,0,0,1-.45-0.07,2.516,2.516,0,0,0,.75-1.23,0.98,0.98,0,0,0-.65-0.67,3.4,3.4,0,0,0-1.43-.47,0.833,0.833,0,0,0-.35.08c0.75,0.34,1.02.59,1.02,0.96a7.481,7.481,0,0,1-1.58,2.79,20.057,20.057,0,0,1-3.09,3.31l0.18,0.24a14.858,14.858,0,0,0,2.96-2.38,8.917,8.917,0,0,1,2.22,2.38,1.015,1.015,0,0,0,.69.64,19.106,19.106,0,0,1-2.69,2.9,20.107,20.107,0,0,1-2.99,2.22Zm8.74-10.94a19.972,19.972,0,0,1-2.72,4.99,1.6,1.6,0,0,0-.21-0.72,3.4,3.4,0,0,0-1.4-1.25,9.882,9.882,0,0,0-1.53-.72,17.713,17.713,0,0,0,1.69-2.02,1.628,1.628,0,0,0,.96.44,1.234,1.234,0,0,0,.5-0.12c0.18-.06.18-0.06,1.47-0.38A7.259,7.259,0,0,1,1218.8,5097Zm6.25,6.72a21.482,21.482,0,0,0,2.88-1.39,30.4,30.4,0,0,0,3.07-2.2,1.12,1.12,0,0,1,.35.5,6.983,6.983,0,0,1,.1,1.52,21.246,21.246,0,0,1-.29,3.94,1.09,1.09,0,0,0-.09.41,1.835,1.835,0,0,0,1.08,1.35c0.26,0,.37-0.24.37-0.8,0-.1-0.01-0.56-0.01-0.91-0.03-.92-0.07-1.94-0.08-3.06a15.448,15.448,0,0,0-.11-2.35,3.212,3.212,0,0,0-.98-0.9c0.69-.58.78-0.66,1.9-1.73,1.14-1.09,1.14-1.09,1.3-1.22,0.62-.52.64-0.56,0.64-0.7a1.562,1.562,0,0,0-.83-1.04,2.355,2.355,0,0,0-1.38-.48,0.75,0.75,0,0,0-.32.06,1.28,1.28,0,0,1,.9.92c0,0.46-1.03,1.76-2.61,3.31a26.825,26.825,0,0,1-6.02,4.54Zm16.25,3.09a8.224,8.224,0,0,0,3.03-3.43,15.078,15.078,0,0,0,1.09-2.94c0.14-.5.14-0.5,0.16-0.56a2.513,2.513,0,0,0,.21-0.74,1.39,1.39,0,0,0-.87-0.88,2.421,2.421,0,0,0-1.2-.4,0.652,0.652,0,0,0-.43.14,1.254,1.254,0,0,1,1.09,1.25,12.153,12.153,0,0,1-1.11,4.34,9.383,9.383,0,0,1-2.14,3.04Zm13.29-6.73a17.916,17.916,0,0,1-6.05,4.53,7.2,7.2,0,0,1-.03-0.73c0-.61.14-4.15,0.21-4.82a7.394,7.394,0,0,1,.22-1.57,1.294,1.294,0,0,0,.13-0.43,1.061,1.061,0,0,0-.66-0.74,2.906,2.906,0,0,0-1.41-.49,0.553,0.553,0,0,0-.51.24c1.17,0.25,1.23.46,1.23,4.1a33.627,33.627,0,0,1-.14,4.33,3.985,3.985,0,0,0-.11.5,1.615,1.615,0,0,0,.96,1.33,0.443,0.443,0,0,0,.32-0.18,10,10,0,0,1,.91-0.72,23.2,23.2,0,0,0,3.39-2.93,10.881,10.881,0,0,0,1.75-2.26Z" transform="translate(-878.719 -4749.81)"/>
    <rect id="border" class="cls-5" x="261.281" y="255.19" width="20" height="1"/>
    <path id="デジフォースブランド" class="cls-9" d="M1098.42,4968.61c0.76,0,1.45.02,2.14,0.05a0.135,0.135,0,0,0,.16-0.16V4968c0-.15-0.03-0.2-0.13-0.2-0.75.05-1.36,0.06-2.19,0.06h-5.19c-0.67,0-1.27-.01-1.97-0.06,0.01,0.21.04,0.51,0.07,0.7,0.03,0.14.04,0.19,0.17,0.18,0.51-.04,1.13-0.07,1.73-0.07h2.45a6.109,6.109,0,0,1-.63,2.89,4.856,4.856,0,0,1-2.35,2.19,2.337,2.337,0,0,1,.67.4c0.11,0.11.22,0.06,0.38-.04a5.48,5.48,0,0,0,2.12-2.25,6.931,6.931,0,0,0,.72-3.19h1.85Zm-1.68-2.65c0.62,0,1.36,0,2.01.02,0.12,0,.14-0.02.14-0.17a1.926,1.926,0,0,0,0-.48c0-.12-0.02-0.16-0.13-0.15-0.63.03-1.39,0.03-2.02,0.03h-2.1c-0.54,0-1.23-.01-1.93-0.06,0.01,0.23.03,0.51,0.06,0.7,0.01,0.12.03,0.17,0.15,0.15,0.59-.03,1.19-0.04,1.72-0.04h2.1Zm2.26-1.57a5.781,5.781,0,0,1,1.2,1.65,0.108,0.108,0,0,0,.16.04l0.37-.25a0.114,0.114,0,0,0,.04-0.14,6.334,6.334,0,0,0-1.18-1.57c-0.05-.03-0.08-0.05-0.12-0.02Zm1.13-.66a5.879,5.879,0,0,1,1.2,1.62c0.04,0.07.07,0.08,0.13,0.03l0.35-.26c0.06-.05.08-0.07,0.05-0.13a5.94,5.94,0,0,0-1.19-1.53,0.105,0.105,0,0,0-.13,0Zm3.4,4.77a8.626,8.626,0,0,1,2.21,1.21,0.136,0.136,0,0,0,.23-0.02c0.1-.15.22-0.35,0.31-0.52a0.162,0.162,0,0,0-.06-0.25,9.779,9.779,0,0,0-2.11-1.09,0.162,0.162,0,0,0-.21.08C1103.82,4968.03,1103.69,4968.27,1103.53,4968.5Zm1.42-2.76a7.812,7.812,0,0,1,2.14,1.36c0.1,0.08.15,0.1,0.22,0.02a3.933,3.933,0,0,0,.35-0.52,0.148,0.148,0,0,0-.04-0.24,9.6,9.6,0,0,0-2.09-1.24c-0.1-.05-0.14-0.05-0.21.06C1105.2,4965.35,1105.07,4965.57,1104.95,4965.74Zm-0.45,7.23a6.933,6.933,0,0,0,.57.81,0.2,0.2,0,0,0,.33.03,2.359,2.359,0,0,1,.58-0.41,27.194,27.194,0,0,0,3.5-2.24,20.147,20.147,0,0,0,3.17-2.94,0.262,0.262,0,0,0,.06-0.32,2.929,2.929,0,0,1-.23-0.78,20.612,20.612,0,0,1-3.42,3.32,22.036,22.036,0,0,1-3.3,2.07A4.855,4.855,0,0,1,1104.5,4972.97Zm5.6-8a5.131,5.131,0,0,1,1.39,1.54,0.1,0.1,0,0,0,.16.02l0.35-.29a0.08,0.08,0,0,0,.02-0.13,6.046,6.046,0,0,0-1.35-1.45,0.12,0.12,0,0,0-.14,0Zm1.06-.8a5.833,5.833,0,0,1,1.38,1.5c0.05,0.07.09,0.07,0.14,0.02l0.33-.28a0.1,0.1,0,0,0,.03-0.15,6.992,6.992,0,0,0-1.37-1.4,0.086,0.086,0,0,0-.13.01Zm11.82,2.43a11.156,11.156,0,0,1-2.26,3.84,11.349,11.349,0,0,1-3.87,2.96,2.153,2.153,0,0,1,.62.41,0.306,0.306,0,0,0,.41.03,13.125,13.125,0,0,0,3.56-2.89,12.65,12.65,0,0,0,2.35-3.94,1.214,1.214,0,0,1,.27-0.41,0.249,0.249,0,0,0,.03-0.37,2.873,2.873,0,0,0-.54-0.49,0.289,0.289,0,0,0-.31-0.01,1.094,1.094,0,0,1-.6.11h-4.24c-0.89,0-1.56-.03-2.31-0.1,0.02,0.21.05,0.58,0.06,0.74,0.03,0.16.08,0.21,0.22,0.2,0.65-.05,1.31-0.08,2.02-0.08h4.59Zm9.47,6.23c0.01,0.37-.04.45-0.29,0.53a5.173,5.173,0,0,1-1.24.1,1.35,1.35,0,0,1,.42.59,0.2,0.2,0,0,0,.23.12,3.657,3.657,0,0,0,1.2-.26,0.912,0.912,0,0,0,.41-1.07l-0.16-3.43h1.01c0.64,0,1.14.01,1.68,0.03a0.116,0.116,0,0,0,.14-0.14v-0.46c0-.11-0.03-0.12-0.14-0.12-0.55.01-1.1,0.03-1.69,0.03h-1.04l-0.05-.72a1.675,1.675,0,0,1,.07-0.92,0.138,0.138,0,0,0-.08-0.23,4.892,4.892,0,0,0-.89-0.11,4.8,4.8,0,0,1,.17,1.2l0.04,0.79h-2.29c-0.55,0-.93,0-1.6-0.04a4.648,4.648,0,0,0,.06.62c0.01,0.12.04,0.16,0.14,0.14,0.5-.04.94-0.07,1.42-0.07h1.85a9.411,9.411,0,0,1-1.48,1.63,10.891,10.891,0,0,1-2.21,1.49,1.192,1.192,0,0,1,.52.36c0.08,0.1.14,0.08,0.26,0.02a11.1,11.1,0,0,0,1.92-1.38,10.6,10.6,0,0,0,1.5-1.69Zm13.38-3.04c0.8,0,1.69,0,2.59.03,0.14,0.01.18-.01,0.18-0.15,0.01-.19.01-0.44,0-0.62,0-.13-0.04-0.15-0.18-0.14-0.91.02-1.8,0.03-2.63,0.03h-3.68a23.3,23.3,0,0,1-2.65-.1,6.326,6.326,0,0,0,.12.91,0.179,0.179,0,0,0,.2.16,9.847,9.847,0,0,1,1.62-.12h4.43Zm8.41-4.02c-0.74,0-1.27,0-1.86-.05a5.2,5.2,0,0,0,.07.76c0.03,0.1.04,0.14,0.15,0.14,0.54-.04,1.05-0.08,1.73-0.08h3.61a15.242,15.242,0,0,1-2.28,3.22,15.55,15.55,0,0,1-4.42,3.25,2.12,2.12,0,0,1,.63.43c0.09,0.11.16,0.1,0.3,0.02a18.451,18.451,0,0,0,4.28-3.34,21.5,21.5,0,0,1,3.31,3.05c0.08,0.09.13,0.09,0.21,0.02a5.929,5.929,0,0,0,.44-0.43c0.09-.12.09-0.16-0.02-0.25a23.118,23.118,0,0,0-3.44-3.01,22.256,22.256,0,0,0,1.78-2.58,1.59,1.59,0,0,1,.34-0.45c0.11-.09.14-0.18,0.06-0.27a2.84,2.84,0,0,0-.49-0.49,0.2,0.2,0,0,0-.24-0.04,1.252,1.252,0,0,1-.68.1h-3.48Zm16.35,0.98a11.234,11.234,0,0,1-2.25,3.84,11.549,11.549,0,0,1-3.87,2.96,1.967,1.967,0,0,1,.62.41,0.294,0.294,0,0,0,.41.02,13.092,13.092,0,0,0,3.56-2.89,12.91,12.91,0,0,0,2.35-3.93,1.034,1.034,0,0,1,.26-0.41,0.25,0.25,0,0,0,.04-0.37,2.844,2.844,0,0,0-.54-0.49,0.292,0.292,0,0,0-.31-0.02,1.008,1.008,0,0,1-.6.11h-4.25c-0.88,0-1.56-.02-2.3-0.09,0.01,0.2.05,0.57,0.06,0.74a0.175,0.175,0,0,0,.22.19c0.64-.05,1.3-0.07,2.01-0.07h4.59Zm0.39-2.06a5.106,5.106,0,0,1,1.39,1.53,0.1,0.1,0,0,0,.16.02l0.34-.28a0.09,0.09,0,0,0,.03-0.13,5.948,5.948,0,0,0-1.36-1.46,0.106,0.106,0,0,0-.14,0Zm1.05-.81a5.66,5.66,0,0,1,1.38,1.5,0.092,0.092,0,0,0,.15.03l0.32-.29a0.106,0.106,0,0,0,.04-0.15,6.992,6.992,0,0,0-1.37-1.4,0.094,0.094,0,0,0-.13.01Zm9.02,1.97c0.73,0,1.23.02,1.78,0.02,0.14,0.02.16-.02,0.16-0.15a4.86,4.86,0,0,0,0-.54c0-.11-0.02-0.15-0.13-0.15-0.58.04-1.1,0.06-1.86,0.06h-1.86a17.039,17.039,0,0,1-1.95-.08,5.236,5.236,0,0,0,.06.72c0.01,0.13.03,0.18,0.14,0.17,0.53-.04,1.07-0.05,1.7-0.05h1.96Zm1.62,2.49a9.868,9.868,0,0,1-5.22,5.34,2.179,2.179,0,0,1,.67.37,0.242,0.242,0,0,0,.33.03,10.547,10.547,0,0,0,5.06-5.41,0.834,0.834,0,0,1,.27-0.41c0.13-.1.15-0.17,0.03-0.32a2.351,2.351,0,0,0-.45-0.44,0.243,0.243,0,0,0-.32-0.01,1.329,1.329,0,0,1-.59.09h-4.29a19.778,19.778,0,0,1-1.99-.09,4.8,4.8,0,0,0,.08.76,0.141,0.141,0,0,0,.18.15c0.49-.04,1.02-0.06,1.69-0.06h4.55Zm5.39-2.08a12.4,12.4,0,0,1,2.28,1.77c0.08,0.09.12,0.07,0.19-.01a4.718,4.718,0,0,0,.41-0.52,0.145,0.145,0,0,0-.04-0.22,10.9,10.9,0,0,0-2.16-1.6,0.134,0.134,0,0,0-.21.03A5.55,5.55,0,0,0,1188.06,4966.26Zm0.29,6.29a4.262,4.262,0,0,0,.58.82,0.2,0.2,0,0,0,.33.01,4.522,4.522,0,0,1,.66-0.47,24.106,24.106,0,0,0,3.6-2.34,22.568,22.568,0,0,0,2.91-2.75,0.324,0.324,0,0,0,.08-0.42,4.041,4.041,0,0,1-.2-0.8,18.326,18.326,0,0,1-3.24,3.23,20.051,20.051,0,0,1-3.46,2.23A6.7,6.7,0,0,1,1188.35,4972.55Zm14.92-6.39a4.531,4.531,0,0,1,.09-1.33c0.06-.18.1-0.31-0.09-0.36a5.2,5.2,0,0,0-.99-0.16,10.567,10.567,0,0,1,.13,1.92v5.34c0,0.73-.01,1.67-0.05,2.43,0,0.14.04,0.17,0.17,0.17,0.19,0.01.43,0.01,0.61,0,0.13,0,.17-0.03.16-0.15-0.02-.78-0.04-1.72-0.04-2.45v-2.78a13.208,13.208,0,0,1,3.49,1.6,0.137,0.137,0,0,0,.23-0.04,6.519,6.519,0,0,0,.29-0.59,0.132,0.132,0,0,0-.09-0.19,17,17,0,0,0-3.91-1.67v-1.74Zm2.55-1.08a5.267,5.267,0,0,1,1.39,1.54,0.089,0.089,0,0,0,.15.02l0.35-.29a0.08,0.08,0,0,0,.02-0.13,5.683,5.683,0,0,0-1.35-1.45,0.085,0.085,0,0,0-.13,0Zm1.05-.8a5.833,5.833,0,0,1,1.38,1.5c0.05,0.07.1,0.07,0.14,0.02l0.33-.29a0.086,0.086,0,0,0,.03-0.14,6.684,6.684,0,0,0-1.36-1.4,0.1,0.1,0,0,0-.14.01Z" transform="translate(-878.719 -4749.81)"/>
    <path id="DIGIFORCE_BRAND" data-name="DIGIFORCE BRAND" class="cls-8" d="M1084.82,4890.82c-0.75.01-1.39,0.02-1.93,0.02s-1.06-.02-1.6-0.05-1.09-.05-1.65-0.07a0.508,0.508,0,0,0-.1.4,0.734,0.734,0,0,0,.1.39c0.11,0,.32.01,0.61,0.04a7.388,7.388,0,0,1,.86.13,0.467,0.467,0,0,1,.43.25,2.923,2.923,0,0,1,.13.88c0.01,0.36.01,0.75,0.01,1.16v11.68c0,0.41,0,.79-0.01,1.15a2.832,2.832,0,0,1-.13.86,0.554,0.554,0,0,1-.43.26,5.707,5.707,0,0,1-.86.15c-0.29.03-.5,0.04-0.61,0.04a0.734,0.734,0,0,0-.1.39,0.508,0.508,0,0,0,.1.4h6.83a13.194,13.194,0,0,0,4.82-.77,7.531,7.531,0,0,0,4.67-5.06,12.075,12.075,0,0,0,.48-3.39,8.972,8.972,0,0,0-1.15-4.55,8.245,8.245,0,0,0-3.3-3.16,10.8,10.8,0,0,0-5.16-1.16C1086.24,4890.81,1085.57,4890.81,1084.82,4890.82Zm-0.73,3.04v-0.17c0-.33.01-0.66,0.01-0.96a3.4,3.4,0,0,1,.1-0.75,0.585,0.585,0,0,1,.45-0.19,7.128,7.128,0,0,1,.84-0.07c0.3-.01.5-0.02,0.62-0.02a8.721,8.721,0,0,1,2.84.47,6.452,6.452,0,0,1,2.43,1.48,7.065,7.065,0,0,1,1.71,2.65,10.923,10.923,0,0,1,.63,3.94,8.516,8.516,0,0,1-1.01,4.39,6.49,6.49,0,0,1-2.64,2.56,7.761,7.761,0,0,1-3.6.84,10.449,10.449,0,0,1-1.41-.09,1.233,1.233,0,0,1-.83-0.3,1.471,1.471,0,0,1-.1-0.49,7.628,7.628,0,0,1-.04-0.84v-12.45Zm16.6-3.07c-0.54-.02-1.09-0.05-1.65-0.07a0.55,0.55,0,0,0-.1.4,0.84,0.84,0,0,0,.1.39c0.11,0,.32.01,0.62,0.04a7.212,7.212,0,0,1,.85.13,0.486,0.486,0,0,1,.44.25,3.329,3.329,0,0,1,.12.88c0.01,0.36.02,0.75,0.02,1.16v11.68c0,0.41-.01.79-0.02,1.15a3.227,3.227,0,0,1-.12.86,0.581,0.581,0,0,1-.44.26,5.574,5.574,0,0,1-.85.15c-0.3.03-.51,0.04-0.62,0.04a0.84,0.84,0,0,0-.1.39,0.55,0.55,0,0,0,.1.4c0.56-.04,1.11-0.07,1.65-0.1s1.08-.04,1.6-0.04c0.54,0,1.07.01,1.58,0.04s1.05,0.06,1.61.1a0.508,0.508,0,0,0,.1-0.4,0.734,0.734,0,0,0-.1-0.39c-0.11,0-.32-0.01-0.61-0.04a5.234,5.234,0,0,1-.84-0.15,0.658,0.658,0,0,1-.45-0.26,2.625,2.625,0,0,1-.1-0.71c-0.01-.29-0.01-0.61-0.01-0.97v-12.34c0-.36,0-0.68.01-0.98a2.789,2.789,0,0,1,.1-0.73,0.539,0.539,0,0,1,.45-0.25,6.734,6.734,0,0,1,.84-0.13c0.29-.03.5-0.04,0.61-0.04a0.734,0.734,0,0,0,.1-0.39,0.508,0.508,0,0,0-.1-0.4c-0.56.02-1.09,0.05-1.61,0.07s-1.04.05-1.58,0.05C1101.77,4890.84,1101.24,4890.82,1100.69,4890.79Zm20.58,16.01a1.552,1.552,0,0,1-.01.23,0.216,0.216,0,0,1-.15.16,15.286,15.286,0,0,1-1.45.6,5.519,5.519,0,0,1-1.89.29,6.261,6.261,0,0,1-3.12-.74,6.576,6.576,0,0,1-2.21-1.99,8.914,8.914,0,0,1-1.32-2.78,11.492,11.492,0,0,1-.43-3.14,9.026,9.026,0,0,1,.46-2.84,8.83,8.83,0,0,1,1.35-2.58,6.624,6.624,0,0,1,2.11-1.84,5.521,5.521,0,0,1,2.74-.69,6.449,6.449,0,0,1,2.75.49,4.241,4.241,0,0,1,1.58,1.19,4.751,4.751,0,0,1,.76,1.34,8.187,8.187,0,0,1,.26.96,0.742,0.742,0,0,0,.34.08,0.877,0.877,0,0,0,.42-0.11,0.254,0.254,0,0,0,.17-0.23c0-.07-0.04-0.32-0.1-0.74s-0.14-.88-0.21-1.4-0.18-1.15-.31-1.92a21.027,21.027,0,0,0-2.98-.44q-1.47-.12-2.82-0.12a9.077,9.077,0,0,0-3.71.75,8.766,8.766,0,0,0-2.92,2.05,9.9,9.9,0,0,0-1.92,3.01,9.534,9.534,0,0,0-.69,3.63,8.846,8.846,0,0,0,5.44,8.25,9.444,9.444,0,0,0,3.69.71,16.127,16.127,0,0,0,2.98-.22,9.707,9.707,0,0,0,1.94-.56c0.51-.23.96-0.44,1.35-0.65a1.862,1.862,0,0,0,.45-0.28,0.246,0.246,0,0,0,.09-0.19,0.876,0.876,0,0,0-.14-0.45,1.216,1.216,0,0,1-.14-0.67v-1.94c0-.41,0-0.79.01-1.14a2.851,2.851,0,0,1,.13-0.87,0.544,0.544,0,0,1,.42-0.27,5.721,5.721,0,0,1,.78-0.14c0.28-.03.48-0.04,0.59-0.04a0.771,0.771,0,0,0,.1-0.39,0.509,0.509,0,0,0-.1-0.39c-0.56.02-1.08,0.04-1.56,0.08s-0.98.06-1.52,0.06c-0.52,0-1.05-.02-1.57-0.06s-1.06-.06-1.62-0.08a0.471,0.471,0,0,0-.1.39,0.681,0.681,0,0,0,.1.39c0.11,0,.31.01,0.6,0.04a7.357,7.357,0,0,1,.84.14,0.511,0.511,0,0,1,.43.27,2.688,2.688,0,0,1,.1.71c0.01,0.29.01,0.61,0.01,0.97v3.11Zm7.96-16.01c-0.55-.02-1.1-0.05-1.66-0.07a0.554,0.554,0,0,0-.09.4,0.857,0.857,0,0,0,.09.39c0.12,0,.32.01,0.62,0.04a7.212,7.212,0,0,1,.85.13,0.486,0.486,0,0,1,.44.25,3.329,3.329,0,0,1,.12.88c0.01,0.36.02,0.75,0.02,1.16v11.68c0,0.41-.01.79-0.02,1.15a3.227,3.227,0,0,1-.12.86,0.581,0.581,0,0,1-.44.26,5.574,5.574,0,0,1-.85.15c-0.3.03-.5,0.04-0.62,0.04a0.857,0.857,0,0,0-.09.39,0.554,0.554,0,0,0,.09.4c0.56-.04,1.11-0.07,1.66-0.1s1.07-.04,1.59-0.04c0.54,0,1.07.01,1.58,0.04s1.05,0.06,1.61.1a0.508,0.508,0,0,0,.1-0.4,0.734,0.734,0,0,0-.1-0.39c-0.11,0-.31-0.01-0.61-0.04a5.234,5.234,0,0,1-.84-0.15,0.686,0.686,0,0,1-.45-0.26,2.625,2.625,0,0,1-.1-0.71c-0.01-.29-0.01-0.61-0.01-0.97v-12.34c0-.36,0-0.68.01-0.98a2.789,2.789,0,0,1,.1-0.73,0.556,0.556,0,0,1,.45-0.25,6.734,6.734,0,0,1,.84-0.13c0.3-.03.5-0.04,0.61-0.04a0.734,0.734,0,0,0,.1-0.39,0.508,0.508,0,0,0-.1-0.4c-0.56.02-1.09,0.05-1.61,0.07s-1.04.05-1.58,0.05C1130.3,4890.84,1129.77,4890.82,1129.23,4890.79Zm8.84,0c-0.54-.02-1.09-0.05-1.65-0.07a0.55,0.55,0,0,0-.1.4,0.84,0.84,0,0,0,.1.39c0.11,0,.32.01,0.62,0.04a7.212,7.212,0,0,1,.85.13,0.486,0.486,0,0,1,.44.25,3.329,3.329,0,0,1,.12.88c0.01,0.36.02,0.75,0.02,1.16v11.68c0,0.41-.01.79-0.02,1.15a3.227,3.227,0,0,1-.12.86,0.581,0.581,0,0,1-.44.26,5.574,5.574,0,0,1-.85.15c-0.3.03-.51,0.04-0.62,0.04a0.84,0.84,0,0,0-.1.39,0.55,0.55,0,0,0,.1.4c0.54,0,1.06-.03,1.56-0.07s1.06-.07,1.69-0.07c0.54,0,1.12.01,1.72,0.04s1.19,0.06,1.75.1a0.508,0.508,0,0,0,.1-0.4,0.734,0.734,0,0,0-.1-0.39c-0.11,0-.34-0.01-0.68-0.04a6.957,6.957,0,0,1-.98-0.15,0.77,0.77,0,0,1-.52-0.26,2.625,2.625,0,0,1-.1-0.71c-0.01-.29-0.01-0.61-0.01-0.97v-5.46q0-.135.33-0.18c0.23-.03.49-0.04,0.8-0.05s0.58-.02.83-0.02c0.35,0,.73.01,1.13,0.02s0.77,0.02,1.11.05a1.3,1.3,0,0,1,.64.16,0.791,0.791,0,0,1,.24.21,1.9,1.9,0,0,1,.22.47,11.336,11.336,0,0,1,.32,1.14,0.412,0.412,0,0,0,.42.19,0.612,0.612,0,0,0,.45-0.11v-5.15a0.659,0.659,0,0,0-.47-0.14c-0.25,0-.38.06-0.4,0.19-0.11.45-.21,0.81-0.3,1.07a1.312,1.312,0,0,1-.4.59,1.56,1.56,0,0,1-.79.25c-0.37.04-.88,0.05-1.53,0.05h-1.43c-0.3,0-.57,0-0.81-0.02s-0.36-.07-0.36-0.14v-5.41c0-.31,0-0.62.01-0.92a2.789,2.789,0,0,1,.1-0.73,0.563,0.563,0,0,1,.45-0.2c0.26-.03.54-0.06,0.84-0.07s0.5-.01.61-0.01h2.35a3.88,3.88,0,0,1,1.91.45,3.265,3.265,0,0,1,1.26,2.1c0.02,0.13.15,0.19,0.39,0.19a0.657,0.657,0,0,0,.48-0.14c-0.13-.61-0.27-1.21-0.42-1.79a17.8,17.8,0,0,1-.37-1.9c-1.47,0-2.98.03-4.53,0.08s-2.97.09-4.26,0.09C1139.15,4890.84,1138.62,4890.82,1138.07,4890.79Zm18.53,0.51a8.646,8.646,0,0,0-2.83,1.99,9.634,9.634,0,0,0-1.92,2.95,9.219,9.219,0,0,0-.7,3.61,9.541,9.541,0,0,0,.7,3.71,9.242,9.242,0,0,0,1.92,2.94,8.452,8.452,0,0,0,2.83,1.92,8.665,8.665,0,0,0,3.4.67,8.5,8.5,0,0,0,3.43-.71,9.062,9.062,0,0,0,2.84-1.99,9.794,9.794,0,0,0,1.95-2.94,9.14,9.14,0,0,0,.71-3.6,9.66,9.66,0,0,0-.71-3.74,9.551,9.551,0,0,0-1.95-2.94,8.517,8.517,0,0,0-2.84-1.91,8.82,8.82,0,0,0-3.43-.68A8.2,8.2,0,0,0,1156.6,4891.3Zm5.82,0.98a6.887,6.887,0,0,1,2.07,2.06,9.967,9.967,0,0,1,1.29,2.85,11.935,11.935,0,0,1,.11,5.92,8.354,8.354,0,0,1-1.02,2.54,5.5,5.5,0,0,1-1.79,1.83,4.84,4.84,0,0,1-2.63.69,5.03,5.03,0,0,1-2.82-.79,6.816,6.816,0,0,1-2.06-2.08,10.322,10.322,0,0,1-1.27-2.89,11.869,11.869,0,0,1-.43-3.17,11.732,11.732,0,0,1,.32-2.75,8.3,8.3,0,0,1,1.01-2.49,5.472,5.472,0,0,1,1.77-1.81,4.936,4.936,0,0,1,2.64-.68A5.173,5.173,0,0,1,1162.42,4892.28Zm14.03-1.47c-0.63.02-1.21,0.03-1.75,0.03s-1.05-.02-1.58-0.05-1.08-.05-1.64-0.07a0.508,0.508,0,0,0-.1.4,0.734,0.734,0,0,0,.1.39c0.11,0,.31.01,0.6,0.04a7.368,7.368,0,0,1,.84.13,0.467,0.467,0,0,1,.43.25,2.923,2.923,0,0,1,.13.88c0.01,0.36.01,0.75,0.01,1.16l0.03,11.68c0,0.41,0,.79-0.01,1.15a2.832,2.832,0,0,1-.13.86,0.554,0.554,0,0,1-.43.26,5.707,5.707,0,0,1-.86.15c-0.3.03-.5,0.04-0.61,0.04a0.734,0.734,0,0,0-.1.39,0.508,0.508,0,0,0,.1.4c0.56-.04,1.11-0.07,1.65-0.1s1.07-.04,1.6-0.04,1.06,0.01,1.58.04,1.05,0.06,1.61.1a0.6,0.6,0,0,0,.1-0.4,0.84,0.84,0,0,0-.1-0.39c-0.11,0-.32-0.01-0.62-0.04a5.234,5.234,0,0,1-.84-0.15,0.686,0.686,0,0,1-.45-0.26,2.672,2.672,0,0,1-.09-0.71c-0.01-.29-0.02-0.61-0.02-0.97v-5.43h1.43a0.927,0.927,0,0,1,.84.34c0.43,0.67.88,1.36,1.34,2.06s0.91,1.35,1.32,1.97,0.76,1.14,1.06,1.57,0.51,0.72.62,0.87a2.8,2.8,0,0,0,.98.85c0.34,0.16.6,0.28,0.78,0.35a7.735,7.735,0,0,0,1.33.24c0.61,0.06,1.37.1,2.29,0.1,0.01-.04.04-0.16,0.08-0.37a0.455,0.455,0,0,0-.06-0.42,4.191,4.191,0,0,1-1.8-.47,4.387,4.387,0,0,1-1.28-1.18c-0.59-.8-1.14-1.53-1.62-2.2s-0.95-1.33-1.4-2-0.92-1.41-1.4-2.21a5.608,5.608,0,0,0,1.78-1.01,6.337,6.337,0,0,0,1.4-1.62,3.741,3.741,0,0,0,.54-1.91,4.057,4.057,0,0,0-.5-2.06,4.79,4.79,0,0,0-1.33-1.47,6.232,6.232,0,0,0-1.81-.89,6.137,6.137,0,0,0-1.9-.31C1177.79,4890.78,1177.07,4890.79,1176.45,4890.81Zm4.52,7.04a4.177,4.177,0,0,1-1.58,1.37,4.4,4.4,0,0,1-2.03.49h-1.46l-0.03-5.71c0-.41.01-0.82,0.02-1.22a2.6,2.6,0,0,1,.12-0.85,0.685,0.685,0,0,1,.61-0.23c0.34-.01.6-0.02,0.77-0.02a4.021,4.021,0,0,1,3.23,1.14,4.45,4.45,0,0,1,.97,2.94A3.559,3.559,0,0,1,1180.97,4897.85Zm13.09-6.52a8.807,8.807,0,0,0-2.93,2.05,9.688,9.688,0,0,0-1.91,3.01,9.534,9.534,0,0,0-.69,3.63,8.823,8.823,0,0,0,5.43,8.25,9.458,9.458,0,0,0,3.7.71,15.59,15.59,0,0,0,3.33-.31,9.27,9.27,0,0,0,2.55-.92,2.093,2.093,0,0,0,.31-0.67,12.122,12.122,0,0,0,.3-1.22c0.1-.46.18-0.88,0.24-1.28a5.309,5.309,0,0,0,.1-0.78,1.174,1.174,0,0,0-.87-0.22,9.166,9.166,0,0,1-.5,1.56,4.56,4.56,0,0,1-1.18,1.63,5.515,5.515,0,0,1-1.47.92,5.279,5.279,0,0,1-2.14.39,6.209,6.209,0,0,1-3.12-.74,6.393,6.393,0,0,1-2.21-1.99,8.914,8.914,0,0,1-1.32-2.78,11.492,11.492,0,0,1-.43-3.14,9.026,9.026,0,0,1,.46-2.84,8.8,8.8,0,0,1,1.34-2.58,6.658,6.658,0,0,1,2.12-1.84,5.494,5.494,0,0,1,2.74-.69,6.4,6.4,0,0,1,2.74.49,4.366,4.366,0,0,1,1.59,1.19,4.7,4.7,0,0,1,.75,1.34,8.748,8.748,0,0,1,.27.96,0.671,0.671,0,0,0,.33.08,0.877,0.877,0,0,0,.42-0.11,0.239,0.239,0,0,0,.17-0.23,7.209,7.209,0,0,0-.1-0.74c-0.06-.42-0.13-0.88-0.21-1.4s-0.17-1.15-.3-1.92a21.161,21.161,0,0,0-2.99-.44c-0.98-.08-1.91-0.12-2.81-0.12A9.077,9.077,0,0,0,1194.06,4891.33Zm14.46-.54c-0.54-.02-1.09-0.05-1.65-0.07a0.508,0.508,0,0,0-.1.4,0.734,0.734,0,0,0,.1.39c0.11,0,.32.01,0.61,0.04a7.388,7.388,0,0,1,.86.13,0.467,0.467,0,0,1,.43.25,2.923,2.923,0,0,1,.13.88c0.01,0.36.01,0.75,0.01,1.16v11.68c0,0.41,0,.79-0.01,1.15a2.832,2.832,0,0,1-.13.86,0.554,0.554,0,0,1-.43.26,5.707,5.707,0,0,1-.86.15c-0.29.03-.5,0.04-0.61,0.04a0.734,0.734,0,0,0-.1.39,0.508,0.508,0,0,0,.1.4c0.54,0,1.06-.02,1.57-0.05s1.07-.04,1.7-0.04c1.83,0,3.48.02,4.93,0.06s2.92,0.05,4.4.05a11.389,11.389,0,0,1,.6-2.15c0.31-.84.59-1.63,0.85-2.38a0.965,0.965,0,0,0-.67-0.17,0.369,0.369,0,0,0-.39.17c-0.22.58-.46,1.11-0.7,1.61a2.65,2.65,0,0,1-1.01,1.13,4.188,4.188,0,0,1-1.51.56,9.578,9.578,0,0,1-1.93.2h-1.32c-0.58,0-1-.02-1.27-0.04a1.493,1.493,0,0,1-.69-0.24,1.272,1.272,0,0,1-.12-0.7c-0.01-.41-0.02-0.75-0.02-1.01v-5.38c0-.09.11-0.15,0.34-0.18s0.49-.04.8-0.05,0.58-.02.82-0.02c0.36,0,.74.01,1.14,0.02s0.77,0.02,1.1.05a1.346,1.346,0,0,1,.65.16,0.659,0.659,0,0,1,.23.21,1.832,1.832,0,0,1,.23.47c0.08,0.24.19,0.61,0.32,1.14a0.412,0.412,0,0,0,.42.19,0.644,0.644,0,0,0,.45-0.11v-5.15a0.67,0.67,0,0,0-.48-0.14c-0.24,0-.37.06-0.39,0.19a9.42,9.42,0,0,1-.31,1.07,1.225,1.225,0,0,1-.39.59,1.6,1.6,0,0,1-.8.25c-0.36.04-.87,0.05-1.52,0.05h-1.43c-0.3,0-.57,0-0.81-0.02s-0.37-.07-0.37-0.14v-5.41c0-.31.01-0.62,0.02-0.92a3.364,3.364,0,0,1,.09-0.73,0.583,0.583,0,0,1,.45-0.2c0.26-.03.54-0.06,0.84-0.07s0.51-.01.62-0.01h2.35a3.841,3.841,0,0,1,1.9.45,3.186,3.186,0,0,1,1.26,2.1c0.02,0.13.15,0.19,0.4,0.19a0.616,0.616,0,0,0,.47-0.14c-0.13-.61-0.27-1.21-0.42-1.79a15.686,15.686,0,0,1-.36-1.9c-1.48,0-2.99.03-4.54,0.08s-2.97.09-4.25,0.09C1209.59,4890.84,1209.06,4890.82,1208.52,4890.79Zm-97.76,34.02c-0.62.02-1.19,0.03-1.74,0.03-0.52,0-1.05-.02-1.59-0.05s-1.09-.05-1.65-0.07a0.508,0.508,0,0,0-.1.4,0.734,0.734,0,0,0,.1.39c0.11,0,.31.01,0.61,0.04a7.388,7.388,0,0,1,.86.13,0.467,0.467,0,0,1,.43.25,3.28,3.28,0,0,1,.13.88c0.01,0.36.01,0.75,0.01,1.16v11.68c0,0.41,0,.79-0.01,1.15a3.183,3.183,0,0,1-.13.86,0.554,0.554,0,0,1-.43.26,5.707,5.707,0,0,1-.86.15c-0.3.03-.5,0.04-0.61,0.04a0.734,0.734,0,0,0-.1.39,0.508,0.508,0,0,0,.1.4h6.3a18.086,18.086,0,0,0,3.16-.35,5.9,5.9,0,0,0,2.58-1.14,4.677,4.677,0,0,0,1.41-1.85,5.793,5.793,0,0,0,.41-2.18,3.9,3.9,0,0,0-.42-1.82,4.77,4.77,0,0,0-1.08-1.39,5.774,5.774,0,0,0-1.33-.88,3.478,3.478,0,0,0-1.18-.33,0.067,0.067,0,0,1,0-.12,4.92,4.92,0,0,0,1.14-.72,5.067,5.067,0,0,0,1.14-1.38,3.6,3.6,0,0,0,.49-1.87,3.5,3.5,0,0,0-.5-1.96,3.766,3.766,0,0,0-1.32-1.25,6.085,6.085,0,0,0-1.79-.67,9.06,9.06,0,0,0-1.9-.21Q1111.69,4924.78,1110.76,4924.81Zm1.09,8.93a6.6,6.6,0,0,1,3.21.64,3.4,3.4,0,0,1,1.5,1.61,5.365,5.365,0,0,1,.39,2.01,4.165,4.165,0,0,1-.67,2.53,3.271,3.271,0,0,1-1.67,1.19,6.666,6.666,0,0,1-2.03.31,8.1,8.1,0,0,1-1.3-.09,1.357,1.357,0,0,1-.86-0.42,1.309,1.309,0,0,1-.14-0.47c-0.03-.24-0.06-0.5-0.07-0.77s-0.01-.47-0.01-0.6v-5.94h1.65Zm-1.65-5.74v-0.36c0-.36,0-0.69.01-1.01a2.554,2.554,0,0,1,.1-0.7,0.676,0.676,0,0,1,.6-0.23c0.35-.01.61-0.02,0.77-0.02a4.567,4.567,0,0,1,3.07.99,3.507,3.507,0,0,1,1.16,2.81,3.426,3.426,0,0,1-.35,1.53,2.861,2.861,0,0,1-1.1,1.22,3.689,3.689,0,0,1-1.99.47h-2.27V4928Zm16.84-3.19c-0.62.02-1.21,0.03-1.75,0.03-0.52,0-1.05-.02-1.58-0.05s-1.08-.05-1.64-0.07a0.55,0.55,0,0,0-.1.4,0.84,0.84,0,0,0,.1.39c0.11,0,.31.01,0.6,0.04a7.368,7.368,0,0,1,.84.13,0.486,0.486,0,0,1,.44.25,3.329,3.329,0,0,1,.12.88c0.01,0.36.02,0.75,0.02,1.16l0.03,11.68c0,0.41-.01.79-0.02,1.15a3.227,3.227,0,0,1-.12.86,0.581,0.581,0,0,1-.44.26,5.574,5.574,0,0,1-.85.15c-0.3.03-.51,0.04-0.62,0.04a0.84,0.84,0,0,0-.1.39,0.55,0.55,0,0,0,.1.4c0.56-.04,1.11-0.07,1.65-0.1s1.08-.04,1.6-0.04c0.54,0,1.07.01,1.58,0.04s1.05,0.06,1.61.1a0.508,0.508,0,0,0,.1-0.4,0.734,0.734,0,0,0-.1-0.39c-0.11,0-.32-0.01-0.61-0.04a5.234,5.234,0,0,1-.84-0.15,0.658,0.658,0,0,1-.45-0.26,2.625,2.625,0,0,1-.1-0.71c-0.01-.29-0.01-0.61-0.01-0.97v-5.43h1.42a0.927,0.927,0,0,1,.84.34c0.43,0.67.88,1.36,1.35,2.06s0.9,1.35,1.31,1.97,0.77,1.14,1.07,1.57,0.5,0.72.61,0.87a2.885,2.885,0,0,0,.98.85c0.34,0.16.6,0.28,0.79,0.35a7.546,7.546,0,0,0,1.33.24c0.6,0.06,1.37.1,2.28,0.1a1.63,1.63,0,0,0,.08-0.37,0.491,0.491,0,0,0-.05-0.42,3.68,3.68,0,0,1-3.08-1.65c-0.6-.8-1.14-1.53-1.63-2.2s-0.95-1.33-1.4-2-0.91-1.41-1.4-2.21a5.608,5.608,0,0,0,1.78-1.01,6.148,6.148,0,0,0,1.4-1.62,3.659,3.659,0,0,0,.55-1.91,4.061,4.061,0,0,0-.51-2.06,4.667,4.667,0,0,0-1.33-1.47,6.634,6.634,0,0,0-3.71-1.2C1128.38,4924.78,1127.67,4924.79,1127.04,4924.81Zm4.52,7.04a4.1,4.1,0,0,1-1.58,1.37,4.374,4.374,0,0,1-2.03.49h-1.45l-0.03-5.71c0-.41,0-0.82.01-1.22a2.307,2.307,0,0,1,.13-0.85,0.649,0.649,0,0,1,.6-0.23c0.35-.01.6-0.02,0.77-0.02a4.021,4.021,0,0,1,3.23,1.14,4.4,4.4,0,0,1,.97,2.94A3.559,3.559,0,0,1,1131.56,4931.85Zm8.28,8.54a5.625,5.625,0,0,1-.72,1.19,1.248,1.248,0,0,1-.79.41,5.214,5.214,0,0,1-.86.12,1.258,1.258,0,0,0-.05.44,0.636,0.636,0,0,0,.05.35c0.43-.02.79-0.04,1.07-0.06l0.84-.06c0.28-.01.62-0.02,1.03-0.02s0.74,0.01,1,.02l0.75,0.06c0.25,0.02.56,0.04,0.91,0.06a0.96,0.96,0,0,0,.03-0.44,0.915,0.915,0,0,0-.08-0.35c-0.08,0-.27-0.02-0.58-0.05a3.346,3.346,0,0,1-.89-0.24,0.577,0.577,0,0,1-.44-0.49,5.046,5.046,0,0,1,.07-0.76,7.3,7.3,0,0,1,.32-1.17c0.15-.45.33-0.93,0.52-1.45s0.44-1.14.72-1.89a0.423,0.423,0,0,1,.14-0.08c0.61-.04,1.12-0.06,1.51-0.07s0.87-.01,1.43-0.01h1.68c0.41,0,.75.01,1.03,0.02a0.323,0.323,0,0,1,.17.12c0.24,0.61.46,1.16,0.64,1.63s0.38,0.97.56,1.47,0.34,0.96.47,1.36a3.507,3.507,0,0,1,.18.86,0.586,0.586,0,0,1-.11.39,1.674,1.674,0,0,1-.73.26,4.486,4.486,0,0,1-.79.1,0.644,0.644,0,0,0-.12.39,0.508,0.508,0,0,0,.1.4c0.63-.04,1.16-0.07,1.58-0.1s0.94-.04,1.58-0.04c0.6,0,1.11.01,1.54,0.04s0.91,0.06,1.46.1a3.313,3.313,0,0,0,.05-0.35,0.635,0.635,0,0,0-.08-0.44,2.624,2.624,0,0,1-.52-0.1,3.034,3.034,0,0,1-.81-0.32,1.18,1.18,0,0,1-.55-0.53c-0.05-.11-0.29-0.71-0.7-1.79l-5.57-14.62a0.322,0.322,0,0,1-.07-0.04,0.11,0.11,0,0,0-.07-0.01,1.109,1.109,0,0,0-.57.28,1.408,1.408,0,0,0-.49.5c-0.28.71-.61,1.53-0.97,2.46s-0.74,1.91-1.13,2.93-0.78,2.01-1.17,2.97-0.72,1.83-1.02,2.62-0.62,1.63-.98,2.54C1140.22,4939.49,1140.03,4939.95,1139.84,4940.39Zm8.33-5.78a0.143,0.143,0,0,1-.09.14c-0.41.02-.79,0.04-1.13,0.05s-0.73.03-1.16,0.03c-0.3,0-.7,0-1.19-0.01s-0.92-.02-1.28-0.04a0.158,0.158,0,0,1-.05-0.12l2.49-6.66Zm9.43-9.9c-0.39-.03-0.9-0.05-1.54-0.07a1.552,1.552,0,0,0-.08.34,0.755,0.755,0,0,0,.08.44,6.267,6.267,0,0,1,.65.06,7.779,7.779,0,0,1,.94.18,0.84,0.84,0,0,1,.54.3,1.621,1.621,0,0,1,.24.7,11.439,11.439,0,0,1,.04,1.17v11.87a11.314,11.314,0,0,1-.04,1.17,1.583,1.583,0,0,1-.24.68,0.886,0.886,0,0,1-.54.3,7.826,7.826,0,0,1-.94.19,4.764,4.764,0,0,1-.65.07,0.8,0.8,0,0,0-.08.45,1.552,1.552,0,0,0,.08.34q0.645-.03,1.05-0.06l0.84-.06c0.29-.01.64-0.02,1.05-0.02,0.6,0,1.13.01,1.6,0.04s0.97,0.06,1.51.1a1.087,1.087,0,0,0,.06-0.4,0.667,0.667,0,0,0-.11-0.39,4.992,4.992,0,0,1-.69-0.08q-0.465-.09-0.87-0.21a0.916,0.916,0,0,1-.49-0.27,1.845,1.845,0,0,1-.24-0.74c-0.02-.27-0.04-0.65-0.04-1.13v-12.44l11.93,15.07a2.049,2.049,0,0,0,.57.5,0.928,0.928,0,0,0,.38.14,1.189,1.189,0,0,0,.2-0.03,0.182,0.182,0,0,0,.17-0.14c-0.02-.48-0.04-0.91-0.05-1.27s-0.01-.74-0.01-1.13v-12.49c0-.52.01-0.92,0.03-1.18a1.519,1.519,0,0,1,.22-0.7,1.015,1.015,0,0,1,.56-0.29,4.74,4.74,0,0,1,.94-0.18q0.495-.06.66-0.06a0.8,0.8,0,0,0,.08-0.45,1.314,1.314,0,0,0-.08-0.33c-0.41.02-.76,0.03-1.05,0.05s-0.57.04-.84,0.04-0.62.02-1.05,0.02c-0.6,0-1.14-.02-1.61-0.04s-0.99-.05-1.53-0.07a2.148,2.148,0,0,0-.04.37,0.559,0.559,0,0,0,.1.41,4.408,4.408,0,0,1,.68.07,6.089,6.089,0,0,1,.89.2,0.921,0.921,0,0,1,.5.26,1.56,1.56,0,0,1,.25.76c0.02,0.28.03,0.66,0.03,1.15v10.36q-0.9-1.26-2.13-2.82-1.23-1.545-2.55-3.15c-0.87-1.06-1.72-2.09-2.54-3.09s-1.54-1.89-2.16-2.68-1.06-1.39-1.34-1.82q-0.285.03-.87,0.03h-1.21C1158.42,4924.75,1158,4924.74,1157.6,4924.71Zm24.95,0.11c-0.75.01-1.39,0.02-1.93,0.02-0.52,0-1.06-.02-1.6-0.05s-1.09-.05-1.65-0.07a0.55,0.55,0,0,0-.1.4,0.84,0.84,0,0,0,.1.39c0.11,0,.32.01,0.62,0.04a7.212,7.212,0,0,1,.85.13,0.486,0.486,0,0,1,.44.25,3.329,3.329,0,0,1,.12.88c0.01,0.36.02,0.75,0.02,1.16v11.68c0,0.41-.01.79-0.02,1.15a3.227,3.227,0,0,1-.12.86,0.581,0.581,0,0,1-.44.26,5.574,5.574,0,0,1-.85.15c-0.3.03-.51,0.04-0.62,0.04a0.84,0.84,0,0,0-.1.39,0.55,0.55,0,0,0,.1.4h6.83a13.157,13.157,0,0,0,4.82-.77,7.811,7.811,0,0,0,3.07-2.09,7.969,7.969,0,0,0,1.61-2.97,12.442,12.442,0,0,0,.47-3.39,8.972,8.972,0,0,0-1.15-4.55,8.181,8.181,0,0,0-3.3-3.16,10.788,10.788,0,0,0-5.15-1.16C1183.97,4924.81,1183.3,4924.81,1182.55,4924.82Zm-0.73,3.04v-0.17c0-.33.01-0.66,0.02-0.96a2.893,2.893,0,0,1,.1-0.75,0.539,0.539,0,0,1,.44-0.19,7.128,7.128,0,0,1,.84-0.07c0.3-.01.51-0.02,0.62-0.02a8.677,8.677,0,0,1,2.84.47,6.49,6.49,0,0,1,2.44,1.48,7.065,7.065,0,0,1,1.71,2.65,10.923,10.923,0,0,1,.63,3.94,8.617,8.617,0,0,1-1.01,4.39,6.513,6.513,0,0,1-2.65,2.56,7.761,7.761,0,0,1-3.6.84,10.449,10.449,0,0,1-1.41-.09,1.256,1.256,0,0,1-.83-0.3,1.578,1.578,0,0,1-.09-0.49,7.585,7.585,0,0,1-.05-0.84v-12.45Z" transform="translate(-878.719 -4749.81)"/>
  </g>
</svg>
